# Alias OBJ Model File
# Exported from SketchUp, (c) 2000-2012 Trimble Navigation Limited
# File units = meters

mtllib C_A.mtl

g Mesh1 Difference Model

usemtl Color_D03
v 0 0 -0.5
vt 0 19.685
vn 0 -1 -0
v -0.165 0 9.95282e-18
vt 6.49606 -3.91843e-16
v -0.5 0 -3.06162e-17
vt 19.685 1.20536e-15
f 1/1/1 2/2/1 3/3/1

v 6.76792e-17 0 -0.275
vt -2.66454e-15 10.8268
f 2/2/1 1/1/1 4/4/1

v 0.5 0 9.18485e-17
vt -19.685 -3.61608e-15
f 4/4/1 1/1/1 5/5/1

vt -13.9194 0
vn 0.707107 0 -0.707107
vt 13.9194 0
v 0 0.2 -0.5
vt 13.9194 7.87402
v 0.5 0.2 9.18485e-17
vt -13.9194 7.87402
f 5/6/2 1/7/2 6/8/2 7/9/2 

vn -0.707107 0 -0.707107
v -0.5 0.2 -3.06162e-17
f 1/6/3 3/7/3 8/8/3 6/9/3 

vn -0.707107 0 0.707107
v -6.12323e-17 0 0.5
v -6.12323e-17 0.2 0.5
f 3/6/4 9/7/4 10/8/4 8/9/4 

vt 2.41072e-15 -19.685
f 2/2/1 9/10/1 3/3/1

v 1.12799e-16 0 0.275
vt -4.44089e-15 -10.8268
f 9/10/1 2/2/1 11/11/1

vt 3.3422 0
vn 0.857493 0 -0.514496
v -0.165 0.2 9.95282e-18
vt 3.3422 7.87402
v 1.12799e-16 0.2 0.275
vt -9.28388 7.87402
vt -9.28388 0
f 2/12/5 12/13/5 13/14/5 11/15/5 

vt 9.28388 0
vn 0.857493 0 0.514496
v 6.76792e-17 0.2 -0.275
vt 9.28388 7.87402
vt -3.3422 7.87402
vt -3.3422 0
f 4/16/6 14/17/6 12/18/6 2/19/6 

v 0.165 0 9.95282e-18
vt 3.3422 -5.47405e-16
vn -0.857493 -9.82716e-17 0.514496
v 0.165 0.2 9.95282e-18
vt -9.28388 -5.47405e-16
f 15/20/7 16/13/7 14/14/7 4/21/7 

vt 9.28388 -5.47405e-16
vn -0.857493 -9.82716e-17 -0.514496
vt -3.3422 -5.47405e-16
f 11/22/8 13/17/8 16/18/8 15/23/8 

vt 4.44089e-15 -10.8268
vn 0 1 -0
vt 19.685 -3.61608e-15
f 13/24/9 7/25/9 16/2/9

vt -2.41072e-15 -19.685
f 13/24/9 10/26/9 7/25/9

vt -6.49606 -3.91843e-16
f 12/27/9 10/26/9 13/24/9

vt -19.685 1.20536e-15
f 10/26/9 12/27/9 8/28/9

f 12/27/9 6/1/9 8/28/9

vt 2.66454e-15 10.8268
f 6/1/9 12/27/9 14/29/9

f 6/1/9 14/29/9 7/25/9

f 7/25/9 14/29/9 16/2/9

vn 0.707107 0 0.707107
f 9/6/10 5/7/10 7/8/10 10/9/10 

f 9/10/1 11/11/1 5/5/1

f 5/5/1 11/11/1 15/27/1

f 4/4/1 5/5/1 15/27/1

