# Alias OBJ Model File
# Exported from SketchUp, (c) 2000-2012 Trimble Navigation Limited
# File units = meters

mtllib D_A.mtl

g Mesh1 Difference Model

usemtl Color_G01
v -6.12323e-17 0.2 0.5
vt -2.41072e-15 -19.685
vn 0 1 -0
v -0.124264 0.2 0.3
vt -4.89229 -11.811
v -0.124264 0.2 0.375736
vt -4.89229 -14.7928
f 1/1/1 2/2/1 3/3/1

v 1.12799e-16 0.2 0.275
vt 4.44089e-15 -10.8268
f 4/4/1 2/2/1 1/1/1

v -0.165 0.2 9.95282e-18
vt -6.49606 -3.91843e-16
f 5/5/1 2/2/1 4/4/1

v -0.3 0.2 -0.124264
vt -11.811 4.89229
f 6/6/1 2/2/1 5/5/1

v -0.3 0.2 0.124264
vt -11.811 -4.89229
f 6/6/1 7/7/1 2/2/1

v -0.375736 0.2 -0.124264
vt -14.7928 4.89229
f 8/8/1 7/7/1 6/6/1

v -0.375736 0.2 0.124264
vt -14.7928 -4.89229
f 8/8/1 9/9/1 7/7/1

v -0.5 0.2 -3.06162e-17
vt -19.685 1.20536e-15
f 9/9/1 8/8/1 10/10/1

v -0.375736 0 -0.124264
vt 7.00069 0
vn -0.707107 0 -0.707107
v -0.5 0 -3.06162e-17
vt 13.9194 0
vt 13.9194 7.87402
vt 7.00069 7.87402
f 11/11/2 12/12/2 10/13/2 8/14/2 

vt 14.7928 4.89229
vn 0 -1 -0
v -0.375736 0 0.124264
vt 14.7928 -4.89229
vt 19.685 1.20536e-15
f 11/15/3 13/16/3 12/17/3

v -0.3 0 -0.124264
vt 11.811 4.89229
f 13/16/3 11/15/3 14/18/3

vt 11.811 0
vn -2.97874e-16 0 -1
vt 14.7928 0
vt 14.7928 7.87402
vt 11.811 7.87402
f 14/19/4 11/20/4 8/21/4 6/22/4 

v -0.124264 0 -0.3
vt -4.89229 0
vt 4.89229 0
vt 4.89229 7.87402
v -0.124264 0.2 -0.3
vt -4.89229 7.87402
f 15/23/2 14/24/2 6/25/2 16/26/2 

v -0.3 0 0.124264
vt 11.811 -4.89229
vt 4.89229 11.811
f 17/27/3 14/18/3 15/28/3

f 13/16/3 14/18/3 17/27/3

vt -14.7928 0
vn 2.97874e-16 0 1
vt -11.811 0
vt -11.811 7.87402
vt -14.7928 7.87402
f 13/29/5 17/30/5 7/31/5 9/32/5 

vn -0.707107 0 0.707107
v -0.124264 0 0.3
f 17/23/6 18/24/6 2/25/6 7/26/6 

v -0.165 0 9.95282e-18
vt 6.49606 -3.91843e-16
vt 4.89229 -11.811
f 19/33/3 18/34/3 17/27/3

v 1.12799e-16 0 0.275
vt -4.44089e-15 -10.8268
f 18/34/3 19/33/3 20/35/3

vt 3.3422 0
vn 0.857493 0 -0.514496
vt 3.3422 7.87402
vt -9.28388 7.87402
vt -9.28388 0
f 19/36/7 5/37/7 4/38/7 20/39/7 

v 1.57918e-16 0 -0.275
vt 9.28388 1.09481e-16
vn 0.857493 1.96543e-17 0.514496
v 6.76792e-17 0.2 -0.275
vt 9.28388 7.87402
vt -3.3422 7.87402
vt -3.3422 1.09481e-16
f 21/40/8 22/41/8 5/42/8 19/43/8 

v 0.165 0 9.95282e-18
vt 3.3422 -2.08014e-15
vn -0.857493 -3.73432e-16 0.514496
v 0.165 0.2 9.95282e-18
vt -9.28388 -2.08014e-15
f 23/44/9 24/37/9 22/38/9 21/45/9 

vt 9.28388 0
vn -0.857493 0 -0.514496
vt -3.3422 0
f 20/46/10 4/41/10 24/42/10 23/47/10 

v 0.124264 0.2 0.3
f 4/4/1 25/34/1 24/33/1

v 0.124264 0.2 0.375736
vt 4.89229 -14.7928
f 4/4/1 26/48/1 25/34/1

f 4/4/1 1/1/1 26/48/1

v -6.12323e-17 0 0.5
vt -13.9194 0
vn 0.707107 0 0.707107
v 0.124264 0 0.375736
vt -7.00069 0
vt -7.00069 7.87402
vt -13.9194 7.87402
f 27/49/11 28/50/11 26/51/11 1/52/11 

vt 2.41072e-15 -19.685
f 27/53/3 20/35/3 28/3/3

f 18/34/3 20/35/3 27/53/3

v -0.124264 0 0.375736
f 27/53/3 29/48/3 18/34/3

f 29/11/6 27/12/6 1/13/6 3/14/6 

vn -1 0 -2.97874e-16
f 18/19/12 29/20/12 3/21/12 2/22/12 

v 0.124264 0 0.3
f 28/3/3 20/35/3 30/2/3

f 23/5/3 30/2/3 20/35/3

v 0.3 0 0.124264
f 30/2/3 23/5/3 31/7/3

v 0.3 0 -0.124264
f 23/5/3 32/6/3 31/7/3

v 0.124264 0 -0.3
vt -4.89229 11.811
f 23/5/3 33/54/3 32/6/3

vt -6.21725e-15 10.8268
f 21/55/3 33/54/3 23/5/3

v 0.124264 0 -0.375736
vt -4.89229 14.7928
f 21/55/3 34/56/3 33/54/3

v 0 0 -0.5
vt 0 19.685
f 21/55/3 35/57/3 34/56/3

f 21/55/3 15/28/3 35/57/3

f 19/33/3 15/28/3 21/55/3

f 17/27/3 15/28/3 19/33/3

v -0.124264 0 -0.375736
vt 4.89229 14.7928
f 35/57/3 15/28/3 36/58/3

vn -1 0 -0
v -0.124264 0.2 -0.375736
f 36/29/13 15/30/13 16/31/13 37/32/13 

vt 2.66454e-15 10.8268
f 16/54/1 22/59/1 37/56/1

f 16/54/1 5/5/1 22/59/1

f 5/5/1 16/54/1 6/6/1

v 0 0.2 -0.5
f 37/56/1 22/59/1 38/57/1

v 0.124264 0.2 -0.375736
f 38/57/1 22/59/1 39/58/1

v 0.124264 0.2 -0.3
f 39/58/1 22/59/1 40/28/1

f 24/33/1 40/28/1 22/59/1

v 0.3 0.2 -0.124264
f 40/28/1 24/33/1 41/18/1

v 0.3 0.2 0.124264
f 41/18/1 24/33/1 42/27/1

f 24/33/1 25/34/1 42/27/1

f 30/23/11 31/24/11 42/25/11 25/26/11 

v 0.375736 0 0.124264
v 0.375736 0.2 0.124264
f 31/19/5 43/20/5 44/21/5 42/22/5 

f 31/7/3 32/6/3 43/9/3

v 0.375736 0 -0.124264
f 43/9/3 32/6/3 45/8/3

vn -5.95747e-16 0 -1
v 0.375736 0.2 -0.124264
f 45/29/14 32/30/14 41/31/14 46/32/14 

vn 0.707107 0 -0.707107
f 32/23/15 33/24/15 40/25/15 41/26/15 

vn 1 0 -0
f 33/19/16 34/20/16 39/21/16 40/22/16 

f 34/11/15 35/12/15 38/13/15 39/14/15 

f 35/49/2 36/50/2 37/51/2 38/52/2 

f 41/18/1 44/16/1 46/15/1

f 41/18/1 42/27/1 44/16/1

v 0.5 0.2 9.18485e-17
vt 19.685 -3.61608e-15
f 46/15/1 44/16/1 47/60/1

v 0.5 0 9.18485e-17
f 43/11/11 48/12/11 47/13/11 44/14/11 

vt -19.685 -3.61608e-15
f 43/9/3 45/8/3 48/61/3

f 48/49/15 45/50/15 46/51/15 47/52/15 

f 28/29/16 30/30/16 25/31/16 26/32/16 

f 12/49/6 13/50/6 9/51/6 10/52/6 

