# Alias OBJ Model File
# Exported from SketchUp, (c) 2000-2012 Trimble Navigation Limited
# File units = meters

mtllib E_A.mtl

g Mesh1 Difference Model

usemtl Color_I01
v 0.016471 0.2 -0.449642
vt 15.8206 7.87402
vn 0.93122 -6.05035e-19 -0.364459
v 0.0385581 0.2 -0.401481
vt 13.7347 7.87402
vn 0.88377 0 -0.467921
v 0.0385581 -1.12799e-17 -0.401481
vt 13.7347 -4.44089e-16
v 0.016471 -1.12799e-17 -0.449642
vt 15.8206 -4.44089e-16
f 1/1/1 2/2/2 3/3/2 4/4/1 

vt 0.648466 17.7024
vn -3.68591e-31 1 4.824e-32
v 0.165 0.2 9.95282e-18
vt 6.49606 -3.91843e-16
vt 1.51803 15.8063
f 1/5/3 5/6/3 2/7/3

v 1.57918e-16 0.2 -0.275
vt 6.21725e-15 10.8268
f 1/5/3 6/8/3 5/6/3

v -5.75684e-18 0.2 -0.5
vt -2.26647e-16 19.685
f 7/9/3 6/8/3 1/5/3

v -0.016471 0.2 -0.449642
vt -0.648466 17.7024
f 8/10/3 6/8/3 7/9/3

v -0.0385581 0.2 -0.401481
vt -1.51803 15.8063
f 9/11/3 6/8/3 8/10/3

v -0.0659749 0.2 -0.356143
vt -2.59744 14.0214
f 10/12/3 6/8/3 9/11/3

v -0.0983664 0.2 -0.314214
vt -3.87269 12.3706
f 11/13/3 6/8/3 10/12/3

v -0.135313 0.2 -0.276237
vt -5.32728 10.8755
f 12/14/3 6/8/3 11/13/3

v -0.165 0.2 9.95282e-18
vt -6.49606 -3.91843e-16
f 12/14/3 13/15/3 6/8/3

v -0.176336 0.2 -0.242705
vt -6.94235 9.55532
f 13/15/3 12/14/3 14/16/3

vt -0.672187 7.87402
vn -0.632875 0 -0.774254
vt -2.75816 7.87402
vn -0.675914 0 -0.736981
v -0.135313 -1.69198e-17 -0.276237
vt -2.75816 -6.66134e-16
v -0.176336 -1.69198e-17 -0.242705
vt -0.672187 -6.66134e-16
f 14/17/4 12/18/5 15/19/5 16/20/4 

vt -4.08031 7.87402
vt -6.16628 7.87402
vn -0.755285 0 -0.655396
v -0.0983664 -1.69198e-17 -0.314214
vt -6.16628 -6.66134e-16
vt -4.08031 -6.66134e-16
f 12/21/5 11/22/6 17/23/6 15/24/5 

vt -7.42205 7.87402
vt -9.50802 7.87402
vn -0.824871 0 -0.565321
v -0.0659749 -1.69198e-17 -0.356143
vt -9.50802 -6.66134e-16
vt -7.42205 -6.66134e-16
f 11/25/6 10/26/7 18/27/7 17/28/6 

vt -10.6541 7.87402
vt -12.7401 7.87402
vn -0.88377 0 -0.467921
v -0.0385581 -1.69198e-17 -0.401481
vt -12.7401 -6.66134e-16
vt -10.6541 -6.66134e-16
f 10/29/7 9/30/8 19/31/8 18/32/7 

vt -13.7347 7.87402
vt -15.8206 7.87402
vn -0.93122 -8.03363e-19 -0.364459
v -0.016471 -1.69198e-17 -0.449642
vt -15.8206 -6.66134e-16
vt -13.7347 -6.66134e-16
f 9/33/8 8/34/9 20/35/9 19/36/8 

vt -16.6237 7.87402
vt -18.7097 7.87402
vn -0.950452 -1.60412e-18 -0.310871
v -5.75684e-18 0 -0.5
vt -18.7097 9.81642e-18
vt -16.6237 -6.56317e-16
f 8/37/9 7/38/10 21/39/10 20/40/9 

vt 18.7097 7.87402
vn 0.950452 -1.20811e-18 -0.310871
vt 16.6237 7.87402
vt 16.6237 -4.36696e-16
vt 18.7097 7.39302e-18
f 7/41/11 1/42/1 4/43/1 21/44/11 

v 1.57918e-16 -1.03623e-17 -0.275
vt -6.21725e-15 10.8268
vn -1.51317e-17 -1 3.06601e-17
vt 2.26647e-16 19.685
f 22/45/12 21/46/12 4/10/12

f 22/45/12 20/5/12 21/46/12

f 22/45/12 19/7/12 20/5/12

vt 2.59744 14.0214
f 22/45/12 18/47/12 19/7/12

vt 3.87269 12.3706
f 22/45/12 17/48/12 18/47/12

vt 5.32728 10.8755
f 22/45/12 15/49/12 17/48/12

v -0.165 -7.15734e-18 9.95282e-18
f 23/6/12 15/49/12 22/45/12

vt 6.94235 9.55532
f 15/49/12 23/6/12 16/50/12

v -0.155961 0 0.326905
vt 6.14018 -12.8703
f 24/51/12 16/50/12 23/6/12

v -0.204791 0 0.347469
vt 8.06262 -13.6799
f 25/52/12 16/50/12 24/51/12

v -0.220903 -1.69198e-17 -0.214052
vt 8.69697 8.42725
f 25/52/12 26/53/12 16/50/12

v -0.250967 0 0.373449
vt 9.88061 -14.7027
f 27/54/12 26/53/12 25/52/12

v -0.26271 3.38396e-17 0.249346
vt 10.3429 -9.81679
f 28/55/12 26/53/12 27/54/12

v -0.26427 3.38396e-17 0.196386
vt 10.4043 -7.73173
f 29/56/12 26/53/12 28/55/12

v -0.268438 -1.69198e-17 -0.190649
vt 10.5684 7.50588
f 29/56/12 30/57/12 26/53/12

v -0.271838 3.38396e-17 0.143946
vt 10.7023 -5.66715
f 31/58/12 30/57/12 29/56/12

v -0.285317 3.38396e-17 0.0927051
vt 11.233 -3.64981
f 32/59/12 30/57/12 31/58/12

v -0.304531 3.38396e-17 0.0433282
vt 11.9894 -1.70583
f 33/60/12 30/57/12 32/59/12

v -0.318325 -1.69198e-17 -0.1728
vt 12.5325 6.80315
f 33/60/12 34/61/12 30/57/12

v -0.329232 3.38396e-17 -0.00354536
vt 12.9619 0.139581
f 35/62/12 34/61/12 33/60/12

v -0.359099 3.38396e-17 -0.0473083
vt 14.1378 1.86253
f 36/63/12 34/61/12 35/62/12

v -0.369916 -1.69198e-17 -0.160735
vt 14.5636 6.32817
f 36/63/12 37/64/12 34/61/12

v -0.393746 3.38396e-17 -0.0873936
vt 15.5018 3.44069
f 38/65/12 37/64/12 36/63/12

v -0.422545 -1.69198e-17 -0.154612
vt 16.6356 6.08708
f 38/65/12 39/66/12 37/64/12

v -0.432724 3.38396e-17 -0.123282
vt 17.0364 4.85362
f 40/67/12 39/66/12 38/65/12

v -0.475528 0 -0.154508
vt 18.7216 6.08301
f 39/66/12 40/67/12 41/68/12

v -0.432724 0.2 -0.123282
vn -0.634384 1.08226e-19 0.773018
v -0.475528 0.2 -0.154508
vn -0.589361 2.16102e-19 0.80787
vt -18.7097 -1.32244e-18
vt -16.6237 1.33095e-15
f 42/37/13 43/38/14 41/69/14 40/70/13 

vt -17.0364 4.85362
v -0.422545 0.2 -0.154612
vt -16.6356 6.08708
vt -18.7216 6.08301
f 42/71/3 44/72/3 43/73/3

v -0.393746 0.2 -0.0873936
vt -15.5018 3.44069
f 44/72/3 42/71/3 45/74/3

vn -0.718119 0 0.69592
vt -15.8206 1.33227e-15
vt -13.7347 1.33227e-15
f 45/33/15 42/34/13 40/75/13 38/76/15 

v -0.359099 0.2 -0.0473083
vn -0.792551 0 0.609805
vt -12.7401 1.33227e-15
vt -10.6541 1.33227e-15
f 46/29/16 45/30/15 38/77/15 36/78/16 

v -0.369916 0.2 -0.160735
vt -14.5636 6.32817
vt -14.1378 1.86253
f 47/79/3 45/74/3 46/80/3

f 44/72/3 45/74/3 47/79/3

vn -0.0588582 -8.03363e-19 -0.998266
vn -0.171919 0 -0.985111
vt 13.7347 -6.66134e-16
vt 15.8206 -6.66134e-16
f 44/1/17 47/2/18 37/81/18 39/82/17 

vt 12.7401 7.87402
v -0.318325 0.2 -0.1728
vt 10.6541 7.87402
vn -0.282753 0 -0.959193
vt 10.6541 -6.66134e-16
vt 12.7401 -6.66134e-16
f 47/83/18 48/84/19 34/85/19 37/86/18 

vt -12.5325 6.80315
f 47/79/3 46/80/3 48/87/3

v -0.329232 0.2 -0.00354536
vt -12.9619 0.139581
f 48/87/3 46/80/3 49/88/3

vn -0.856715 0 0.51579
vt -9.50802 1.33227e-15
vt -7.42205 1.33227e-15
f 49/25/20 46/26/16 36/89/16 35/90/20 

v -0.304531 0.2 0.0433282
vn -0.909779 0 0.415093
vt -6.16628 1.33227e-15
vt -4.08031 1.33227e-15
f 50/21/21 49/22/20 35/91/20 33/92/21 

vt -11.9894 -1.70583
f 48/87/3 49/88/3 50/93/3

v -0.268438 0.2 -0.190649
vt -10.5684 7.50588
f 48/87/3 50/93/3 51/94/3

v -0.285317 0.2 0.0927051
vt -11.233 -3.64981
f 51/94/3 50/93/3 52/95/3

vn -0.931928 0 0.362643
vt -2.75816 1.33227e-15
vt -0.672187 1.33227e-15
f 52/17/22 50/18/21 33/96/21 32/97/22 

v -0.271838 0.2 0.143946
vt 2.75816 7.87402
vn -0.980012 0 0.198938
vt 0.672187 7.87402
vn -0.967102 0 0.25439
vt 0.672187 1.33227e-15
vt 2.75816 1.33227e-15
f 53/98/23 52/99/24 32/100/24 31/101/23 

vt -10.7023 -5.66715
f 51/94/3 52/95/3 53/102/3

v -0.26427 0.2 0.196386
vt -10.4043 -7.73173
f 51/94/3 53/102/3 54/103/3

vt 6.16628 7.87402
vn -0.996271 0 0.0862813
vt 4.08031 7.87402
vt 4.08031 1.33227e-15
vt 6.16628 1.33227e-15
f 54/104/25 53/105/23 31/106/23 29/107/25 

v -0.26271 0.2 0.249346
vt 9.50802 7.87402
vn -0.999622 0 -0.0274931
vt 7.42205 7.87402
vt 7.42205 1.33227e-15
vt 9.50802 1.33227e-15
f 55/108/26 54/109/25 29/110/25 28/111/26 

v -0.220903 0.2 -0.214052
vt -8.69697 8.42725
vt -10.3429 -9.81679
f 56/112/3 54/103/3 55/113/3

f 51/94/3 54/103/3 56/112/3

vn -0.389923 0 -0.920847
vn -0.492042 0 -0.870572
vt 4.08031 -6.66134e-16
vt 6.16628 -6.66134e-16
f 51/104/27 56/105/28 26/114/28 30/115/27 

vn -0.54079 0 -0.841158
vt 0.672187 -6.66134e-16
vt 2.75816 -6.66134e-16
f 56/98/28 14/99/29 16/116/29 26/117/28 

v -0.204791 0.2 0.347469
vt -8.06262 -13.6799
f 56/112/3 57/118/3 14/16/3

v -0.250967 0.2 0.373449
vt -9.88061 -14.7027
f 56/112/3 58/119/3 57/118/3

f 56/112/3 55/113/3 58/119/3

v -0.267179 0.2 0.302141
vt -10.5189 -11.8953
f 59/120/3 58/119/3 55/113/3

v -0.277618 0.2 0.354086
vt -10.9298 -13.9404
f 60/121/3 58/119/3 59/120/3

v -0.293893 0.2 0.404508
vt -11.5706 -15.9255
f 58/119/3 60/121/3 61/122/3

vn -0.951657 -3.13022e-18 -0.307162
vn -0.967596 -1.56765e-18 -0.252504
v -0.277618 3.38396e-17 0.354086
vt 16.6237 1.35142e-15
v -0.293893 0 0.404508
vt 18.7097 1.91554e-17
f 61/41/30 60/42/31 62/123/31 63/124/30 

vn -0.990022 0 -0.140911
v -0.267179 3.38396e-17 0.302141
vt 13.7347 1.33227e-15
vt 15.8206 1.33227e-15
f 60/1/31 59/2/32 64/125/32 62/126/31 

vt 10.6541 1.33227e-15
vt 12.7401 1.33227e-15
f 59/83/32 55/84/26 28/127/26 64/128/32 

vt 10.5189 -11.8953
f 27/54/12 64/129/12 28/55/12

vt 10.9298 -13.9404
f 27/54/12 62/130/12 64/129/12

vt 11.5706 -15.9255
f 62/130/12 27/54/12 63/131/12

vn 0.539149 0 0.84221
vn 0.586207 0 0.810161
vt -18.7097 0
vt -16.6237 0
f 58/37/33 61/38/34 63/132/34 27/133/33 

vn 0.439948 0 0.898023
vt -15.8206 0
vt -13.7347 0
f 57/33/35 58/34/33 27/134/33 25/135/35 

v -0.155961 0.2 0.326905
vn 0.335048 0 0.942201
vt -12.7401 0
vt -10.6541 0
f 65/29/36 57/30/35 25/136/35 24/137/36 

vt -6.14018 -12.8703
f 14/16/3 57/118/3 65/138/3

f 14/16/3 65/138/3 13/15/3

v 4.51195e-17 0.2 0.275
vt 1.77636e-15 -10.8268
f 13/15/3 65/138/3 66/139/3

v -0.10511 0.2 0.312023
vt -4.13819 -12.2844
f 66/139/3 65/138/3 67/140/3

vn 0.225806 0 0.974172
vt -9.50802 0
v -0.10511 0 0.312023
vt -7.42205 0
f 67/25/37 65/26/36 24/141/36 68/142/37 

v 4.51195e-17 1.72182e-18 0.275
vt -1.77636e-15 -10.8268
vt 4.13819 -12.2844
f 24/51/12 69/143/12 68/144/12

f 24/51/12 23/6/12 69/143/12

vt 3.3422 -2.54415e-16
vn 0.857493 4.91358e-18 -0.514496
vt 3.3422 7.87402
vt -9.28388 7.87402
vt -9.28388 9.51583e-17
f 23/145/38 13/146/38 66/147/38 69/148/38 

vt 9.28388 -4.07963e-16
vn 0.857493 0 0.514496
vt 9.28388 7.87402
vt -3.3422 7.87402
vt -3.3422 -2.81785e-16
f 22/149/39 6/150/39 13/151/39 23/152/39 

v 0.165 -1.4831e-18 9.95282e-18
vt 3.3422 4.61645e-16
vn -0.857493 9.33581e-17 0.514496
vt -9.28388 1.12072e-16
f 70/153/40 5/146/40 6/147/40 22/154/40 

vt 9.28388 6.15193e-16
vn -0.857493 9.82716e-17 -0.514496
vt -3.3422 4.89015e-16
f 69/155/41 66/150/41 5/151/41 70/156/41 

v 0.0528977 0.2 0.303015
vt 2.08259 -11.9297
f 66/139/3 71/157/3 5/6/3

v 4.50026e-17 0.2 0.3
vt 1.77175e-15 -11.811
f 66/139/3 72/158/3 71/157/3

v -0.0528977 0.2 0.303015
vt -2.08259 -11.9297
f 66/139/3 73/159/3 72/158/3

f 66/139/3 67/140/3 73/159/3

vn 0.113639 0 0.993522
vt -6.16628 0
v -0.0528977 0 0.303015
vt -4.08031 0
f 73/21/42 67/22/37 68/160/37 74/161/42 

f 68/144/12 69/143/12 74/157/12

v 4.50026e-17 0 0.3
vt -1.77175e-15 -11.811
f 74/157/12 69/143/12 75/162/12

v 0.0528977 0 0.303015
f 75/162/12 69/143/12 76/159/12

f 76/159/12 69/143/12 70/15/12

v 0.10511 0 0.312023
f 76/159/12 70/15/12 77/140/12

v 0.155961 0 0.326905
f 77/140/12 70/15/12 78/138/12

v 0.204791 0 0.347469
f 78/138/12 70/15/12 79/118/12

v 0.176336 -1.12799e-17 -0.242705
f 79/118/12 70/15/12 80/16/12

v 0.135313 -1.12799e-17 -0.276237
f 70/15/12 81/14/12 80/16/12

v 0.0983664 -1.12799e-17 -0.314214
f 70/15/12 82/13/12 81/14/12

v 0.0659749 -1.12799e-17 -0.356143
f 70/15/12 83/12/12 82/13/12

f 70/15/12 3/11/12 83/12/12

f 70/15/12 4/10/12 3/11/12

f 22/45/12 4/10/12 70/15/12

v 0.0659749 0.2 -0.356143
vn 0.824871 0 -0.565321
vt 10.6541 -4.44089e-16
vt 12.7401 -4.44089e-16
f 2/83/2 84/84/43 83/163/43 3/164/2 

f 2/7/3 5/6/3 84/47/3

v 0.0983664 0.2 -0.314214
f 84/47/3 5/6/3 85/48/3

v 0.135313 0.2 -0.276237
f 85/48/3 5/6/3 86/49/3

v 0.176336 0.2 -0.242705
f 86/49/3 5/6/3 87/50/3

v 0.204791 0.2 0.347469
f 5/6/3 88/52/3 87/50/3

v 0.155961 0.2 0.326905
f 5/6/3 89/51/3 88/52/3

v 0.10511 0.2 0.312023
f 5/6/3 90/144/3 89/51/3

f 5/6/3 71/157/3 90/144/3

vn -0.225806 0 0.974172
vn -0.113639 0 0.993522
vt 4.08031 0
vt 6.16628 0
f 90/104/44 71/105/45 76/165/45 77/166/44 

vn -0.0569119 0 0.998379
vt 0.672187 0
vt 2.75816 0
f 71/98/45 72/99/46 75/167/46 76/168/45 

vn 0.0569119 0 0.998379
vt -2.75816 0
vt -0.672187 0
f 72/17/47 73/18/42 74/169/42 75/170/47 

vn -0.335048 0 0.942201
vt 7.42205 0
vt 9.50802 0
f 89/108/48 90/109/44 77/171/44 78/172/48 

vn -0.439948 0 0.898023
vt 10.6541 0
vt 12.7401 0
f 88/83/49 89/84/48 78/173/48 79/174/49 

v 0.250967 0.2 0.373449
vn -0.539149 0 0.84221
vt 13.7347 0
v 0.250967 0 0.373449
vt 15.8206 0
f 91/1/50 88/2/49 79/175/49 92/176/50 

v 0.220903 0.2 -0.214052
f 93/53/3 88/52/3 91/54/3

f 87/50/3 88/52/3 93/53/3

vn 0.54079 0 -0.841158
vn 0.492042 0 -0.870572
v 0.220903 -1.12799e-17 -0.214052
vt -2.75816 -4.44089e-16
vt -0.672187 -4.44089e-16
f 87/17/51 93/18/52 94/177/52 80/178/51 

v 0.268438 0.2 -0.190649
vn 0.389923 0 -0.920847
v 0.268438 -1.12799e-17 -0.190649
vt -6.16628 -4.44089e-16
vt -4.08031 -4.44089e-16
f 93/21/52 95/22/53 96/179/53 94/180/52 

f 93/53/3 91/54/3 95/57/3

v 0.26271 0.2 0.249346
f 95/57/3 91/54/3 97/55/3

v 0.267179 0.2 0.302141
f 91/54/3 98/129/3 97/55/3

v 0.277618 0.2 0.354086
f 98/129/3 91/54/3 99/130/3

v 0.293893 0.2 0.404508
f 99/130/3 91/54/3 100/131/3

vn -0.586207 0 0.810161
vt 16.6237 0
v 0.293893 0 0.404508
vt 18.7097 0
f 100/41/54 91/42/50 92/181/50 101/182/54 

v 0.277618 1.12799e-17 0.354086
f 92/119/12 102/121/12 101/122/12

v 0.267179 1.12799e-17 0.302141
f 102/121/12 92/119/12 103/120/12

v 0.26271 1.12799e-17 0.249346
f 103/120/12 92/119/12 104/113/12

f 92/119/12 96/94/12 104/113/12

f 92/119/12 94/112/12 96/94/12

f 79/118/12 94/112/12 92/119/12

f 79/118/12 80/16/12 94/112/12

v 0.26427 1.12799e-17 0.196386
f 104/113/12 96/94/12 105/103/12

v 0.271838 1.12799e-17 0.143946
f 105/103/12 96/94/12 106/102/12

v 0.318325 -1.12799e-17 -0.1728
f 106/102/12 96/94/12 107/87/12

v 0.318325 0.2 -0.1728
vn 0.282753 0 -0.959193
vt -9.50802 -4.44089e-16
vt -7.42205 -4.44089e-16
f 95/25/53 108/26/55 107/183/55 96/184/53 

v 0.271838 0.2 0.143946
f 95/57/3 109/58/3 108/61/3

v 0.26427 0.2 0.196386
f 95/57/3 110/56/3 109/58/3

f 95/57/3 97/55/3 110/56/3

vn 0.996271 0 0.0862813
vn 0.999622 0 -0.0274931
vt -9.50802 4.44089e-16
vt -7.42205 4.44089e-16
f 110/25/56 97/26/57 104/185/57 105/186/56 

vn 0.990022 0 -0.140911
vt -12.7401 4.44089e-16
vt -10.6541 4.44089e-16
f 97/29/57 98/30/58 103/187/58 104/188/57 

vn 0.967596 -5.89572e-19 -0.252504
vt -15.8206 4.44089e-16
vt -13.7347 4.44089e-16
f 98/33/58 99/34/59 102/189/59 103/190/58 

vn 0.951657 -1.17723e-18 -0.307162
vt -18.7097 7.20407e-18
vt -16.6237 4.51293e-16
f 99/37/59 100/38/60 101/191/60 102/192/59 

vn 0.980012 0 0.198938
vt -6.16628 4.44089e-16
vt -4.08031 4.44089e-16
f 109/21/61 110/22/56 105/193/56 106/194/61 

v 0.285317 0.2 0.0927051
vn 0.967102 0 0.25439
vt -2.75816 4.44089e-16
v 0.285317 1.12799e-17 0.0927051
vt -0.672187 4.44089e-16
f 111/17/62 109/18/61 106/195/61 112/196/62 

f 108/61/3 109/58/3 111/59/3

v 0.304531 0.2 0.0433282
f 108/61/3 111/59/3 113/60/3

vn 0.909779 0 0.415093
vn 0.931928 0 0.362643
vt 0.672187 4.44089e-16
v 0.304531 1.12799e-17 0.0433282
vt 2.75816 4.44089e-16
f 113/98/63 111/99/64 112/197/64 114/198/63 

f 112/95/12 107/87/12 114/93/12

f 106/102/12 107/87/12 112/95/12

v 0.329232 1.12799e-17 -0.00354536
f 114/93/12 107/87/12 115/88/12

v 0.369916 -1.12799e-17 -0.160735
f 115/88/12 107/87/12 116/79/12

v 0.369916 0.2 -0.160735
vn 0.171919 0 -0.985111
vt -12.7401 -4.44089e-16
vt -10.6541 -4.44089e-16
f 108/29/55 117/30/65 116/199/65 107/200/55 

v 0.329232 0.2 -0.00354536
f 108/61/3 118/62/3 117/64/3

f 108/61/3 113/60/3 118/62/3

vn 0.856715 0 0.51579
vt 4.08031 4.44089e-16
vt 6.16628 4.44089e-16
f 118/104/66 113/105/63 114/201/63 115/202/66 

v 0.359099 0.2 -0.0473083
vn 0.792551 0 0.609805
vt 7.42205 4.44089e-16
v 0.359099 1.12799e-17 -0.0473083
vt 9.50802 4.44089e-16
f 119/108/67 118/109/66 115/203/66 120/204/67 

f 117/64/3 118/62/3 119/63/3

v 0.393746 0.2 -0.0873936
f 117/64/3 119/63/3 121/65/3

vn 0.718119 0 0.69592
vt 10.6541 4.44089e-16
v 0.393746 1.12799e-17 -0.0873936
vt 12.7401 4.44089e-16
f 121/83/68 119/84/67 120/205/67 122/206/68 

f 120/80/12 116/79/12 122/74/12

f 115/88/12 116/79/12 120/80/12

v 0.422545 -1.12799e-17 -0.154612
f 122/74/12 116/79/12 123/72/12

v 0.422545 0.2 -0.154612
vn 0.0588582 2.89797e-18 -0.998266
vt -15.8206 -4.44089e-16
vt -13.7347 -4.44089e-16
f 117/33/65 124/34/69 123/207/69 116/208/65 

f 117/64/3 121/65/3 124/66/3

v 0.432724 0.2 -0.123282
f 124/66/3 121/65/3 125/67/3

vn 0.634384 1.59302e-33 0.773018
vt 13.7347 4.44089e-16
v 0.432724 1.12799e-17 -0.123282
vt 15.8206 4.44089e-16
f 125/1/70 121/2/68 122/209/68 126/210/70 

f 122/74/12 123/72/12 126/71/12

v 0.475528 0 -0.154508
f 126/71/12 123/72/12 127/73/12

v 0.475528 0.2 -0.154508
vn 0.00194958 5.78654e-18 -0.999998
vt -18.7097 -3.54107e-17
vt -16.6237 -4.795e-16
f 124/37/69 128/38/71 127/211/71 123/212/69 

f 124/66/3 125/67/3 128/68/3

vn 0.589361 3.18088e-33 0.80787
vt 16.6237 4.44089e-16
vt 18.7097 -1.94654e-32
f 128/41/72 125/42/70 126/213/70 127/214/72 

vn 0.675914 0 -0.736981
vn 0.632875 0 -0.774254
vt 0.672187 -4.44089e-16
vt 2.75816 -4.44089e-16
f 86/98/73 87/99/74 80/215/74 81/216/73 

vn 0.755285 0 -0.655396
vt 4.08031 -4.44089e-16
vt 6.16628 -4.44089e-16
f 85/104/75 86/105/73 81/217/73 82/218/75 

vt 7.42205 -4.44089e-16
vt 9.50802 -4.44089e-16
f 84/108/43 85/109/75 82/219/75 83/220/43 

vt 7.42205 -6.66134e-16
vt 9.50802 -6.66134e-16
f 48/108/19 51/109/27 30/221/27 34/222/19 

vn -0.00194958 -1.60412e-18 -0.999998
vt 16.6237 -6.56317e-16
vt 18.7097 9.81642e-18
f 43/41/76 44/42/17 39/223/17 41/224/76 

