# Alias OBJ Model File
# Exported from SketchUp, (c) 2000-2012 Trimble Navigation Limited
# File units = meters

mtllib G_A.mtl

g Mesh1 Difference Model

usemtl Color_M02
v -0.475528 0 -0.154508
vt -11.5706 0
vn -0.951057 0 0.309017
v -0.293893 0 0.404508
vt 11.5706 0
v -0.293893 0.2 0.404508
vt 11.5706 7.87402
v -0.475528 0.2 -0.154508
vt -11.5706 7.87402
f 1/1/1 2/2/1 3/3/1 4/4/1 

vt 18.7216 6.08301
vn 0 -1 -0
v -0.165 0 9.95282e-18
vt 6.49606 -3.91843e-16
vt 11.5706 -15.9255
f 1/5/2 5/6/2 2/7/2

v 1.07159e-16 0 -0.5
vt -4.21885e-15 19.685
f 5/6/2 1/5/2 6/8/2

vn -0.587785 0 -0.809017
v 1.07159e-16 0.2 -0.5
f 6/1/3 1/2/3 4/3/3 7/4/3 

vt -18.7216 6.08301
vn 0 1 -0
v -0.165 0.2 9.95282e-18
vt -6.49606 -3.91843e-16
vt 4.21885e-15 19.685
f 4/9/4 8/10/4 7/11/4

vt -11.5706 -15.9255
f 8/10/4 4/9/4 3/12/4

v 1.12799e-16 0.2 0.275
vt 4.44089e-15 -10.8268
f 3/12/4 9/13/4 8/10/4

v 0.293893 0.2 0.404508
f 9/13/4 3/12/4 10/7/4

vn 1.52656e-16 0 1
v 0.293893 0 0.404508
f 2/1/5 11/2/5 10/3/5 3/4/5 

v 1.12799e-16 0 0.275
vt -4.44089e-15 -10.8268
f 2/7/2 12/14/2 11/12/2

f 12/14/2 2/7/2 5/6/2

vt 3.3422 -5.47405e-16
vn 0.857493 -9.82716e-17 -0.514496
vt 3.3422 7.87402
vt -9.28388 7.87402
vt -9.28388 -5.47405e-16
f 5/15/6 8/16/6 9/17/6 12/18/6 

v 1.57918e-16 0 -0.275
vt 9.28388 -5.47405e-16
vn 0.857493 -9.82716e-17 0.514496
v 1.57918e-16 0.2 -0.275
vt 9.28388 7.87402
vt -3.3422 7.87402
vt -3.3422 -5.47405e-16
f 13/19/7 14/20/7 8/21/7 5/22/7 

vn -0.857493 -9.82716e-17 0.514496
v 0.165 0 9.95282e-18
v 0.165 0.2 9.95282e-18
f 14/17/8 13/18/8 15/15/8 16/16/8 

vt -6.21725e-15 10.8268
v 0.475528 0 -0.154508
f 13/23/2 17/9/2 15/10/2

f 13/23/2 6/8/2 17/9/2

f 5/6/2 6/8/2 13/23/2

vn 0.587785 0 -0.809017
v 0.475528 0.2 -0.154508
f 17/1/9 6/2/9 7/3/9 18/4/9 

vt 6.21725e-15 10.8268
f 7/11/4 14/24/4 18/5/4

f 7/11/4 8/10/4 14/24/4

f 18/5/4 14/24/4 16/6/4

f 18/5/4 16/6/4 10/7/4

f 9/13/4 10/7/4 16/6/4

vn -0.857493 -9.82716e-17 -0.514496
f 12/19/10 9/20/10 16/21/10 15/22/10 

f 11/12/2 12/14/2 15/10/2

f 15/10/2 17/9/2 11/12/2

vn 0.951057 0 0.309017
f 11/1/11 17/2/11 18/3/11 10/4/11 

