# Alias OBJ Model File
# Exported from SketchUp, (c) 2000-2012 Trimble Navigation Limited
# File units = meters

mtllib H-A.mtl

g Mesh1 Difference Model

usemtl FrontColor
v -0.0427525 0 -0.492462
vt -6.66836 0
vn -0.34202 0 -0.939693
v -0.0625 0 -0.483253
vt -5.81053 0
vn -0.5 0 -0.866025
v -0.0625 0.2 -0.483253
vt -5.81053 7.87402
v -0.0427525 0.2 -0.492462
vt -6.66836 7.87402
f 1/1/1 2/2/2 3/3/2 4/4/1 

v 2.25597e-17 0 -0.275
vt -8.88178e-16 10.8268
vn 0 -1 -0
vt 2.46063 19.0257
vt 1.68317 19.3883
f 5/5/3 2/6/3 1/7/3

v -0.0803485 0 -0.470756
vt 3.16332 18.5337
f 5/5/3 6/8/3 2/6/3

v -0.0957556 0 -0.455348
vt 3.7699 17.9271
f 5/5/3 7/9/3 6/8/3

v -0.108253 0 -0.4375
vt 4.26194 17.2244
f 5/5/3 8/10/3 7/9/3

v -0.15 0 -0.259808
vt 5.90551 10.2286
f 5/5/3 9/11/3 8/10/3

v -0.165 0 -0
vt 6.49606 0
f 10/12/3 9/11/3 5/5/3

v -0.3 0 -3.67394e-17
vt 11.811 1.44643e-15
f 11/13/3 9/11/3 10/12/3

v -0.32476 0 -0.3125
vt 12.7858 12.3031
f 11/13/3 12/14/3 9/11/3

v -0.346466 0 -0.310601
vt 13.6404 12.2284
f 11/13/3 13/15/3 12/14/3

v -0.367512 0 -0.304962
vt 14.469 12.0064
f 11/13/3 14/16/3 13/15/3

v -0.38726 0 -0.295753
vt 15.2464 11.6438
f 11/13/3 15/17/3 14/16/3

v -0.405108 0 -0.283256
vt 15.9491 11.1518
f 11/13/3 16/18/3 15/17/3

v -0.420515 0 -0.267848
vt 16.5557 10.5452
f 11/13/3 17/19/3 16/18/3

v -0.433013 0 -0.125
vt 17.0477 4.92126
f 18/20/3 17/19/3 11/13/3

v -0.433013 0 -0.25
vt 17.0477 9.84252
f 18/20/3 19/21/3 17/19/3

v -0.442221 0 -0.144747
vt 17.4103 5.69872
f 20/22/3 19/21/3 18/20/3

v -0.442221 0 -0.230253
vt 17.4103 9.06506
f 20/22/3 21/23/3 19/21/3

v -0.44786 0 -0.165794
vt 17.6323 6.52732
f 22/24/3 21/23/3 20/22/3

v -0.44786 0 -0.209206
vt 17.6323 8.23646
f 22/24/3 23/25/3 21/23/3

v -0.44976 0 -0.1875
vt 17.7071 7.38189
f 23/25/3 22/24/3 24/26/3

vt -8.89707 0
vn -1 0 9.05502e-17
vt -8.03924 0
vn -0.984808 0 0.173648
v -0.44786 0.2 -0.165794
vt -8.03924 7.87402
v -0.44976 0.2 -0.1875
vt -8.89707 7.87402
f 24/27/4 22/28/5 25/29/5 26/30/4 

vt -10.8685 0
vt -10.0107 0
vn -0.939693 0 0.34202
v -0.442221 0.2 -0.144747
vt -10.0107 7.87402
vt -10.8685 7.87402
f 22/31/5 20/32/6 27/33/6 25/34/5 

vt -12.5227 0
vt -11.6649 0
vn -0.906308 0 0.422618
v -0.433013 0.2 -0.125
vt -11.6649 7.87402
vt -12.5227 7.87402
f 20/35/6 18/36/7 28/37/7 27/38/6 

vt -15.7931 0
vn -0.684817 0 0.728715
vt -8.60687 0
v -0.3 0.2 -3.67394e-17
vt -8.60687 7.87402
vt -15.7931 7.87402
f 18/39/8 11/40/8 29/41/8 28/42/8 

vt 8.60687 0
vn -0.684817 0 -0.728715
v -0.433013 0 0.125
vt 15.7931 0
v -0.433013 0.2 0.125
vt 15.7931 7.87402
vt 8.60687 7.87402
f 11/43/9 30/44/9 31/45/9 29/46/9 

v -0.420515 0 0.267848
vt 16.5557 -10.5452
vt 17.0477 -4.92126
f 32/47/3 30/48/3 11/13/3

v -0.433013 0 0.25
vt 17.0477 -9.84252
f 33/49/3 30/48/3 32/47/3

v -0.442221 0 0.144747
vt 17.4103 -5.69872
f 33/49/3 34/50/3 30/48/3

v -0.442221 0 0.230253
vt 17.4103 -9.06506
f 35/51/3 34/50/3 33/49/3

v -0.44786 0 0.209206
vt 17.6323 -8.23646
f 36/52/3 34/50/3 35/51/3

v -0.44786 0 0.165794
vt 17.6323 -6.52732
f 36/52/3 37/53/3 34/50/3

v -0.44976 0 0.1875
vt 17.7071 -7.38189
f 37/53/3 36/52/3 38/54/3

vt 5.81053 0
vn -1 0 -0
vt 6.66836 0
v -0.44786 0.2 0.209206
vt 6.66836 7.87402
v -0.44976 0.2 0.1875
vt 5.81053 7.87402
f 38/55/10 36/56/5 39/57/5 40/58/10 

vt 3.39223 0
vt 4.25006 0
v -0.442221 0.2 0.230253
vt 4.25006 7.87402
vt 3.39223 7.87402
f 36/59/5 35/60/6 41/61/6 39/62/5 

vt 0.857832 0
vt 1.71566 0
vn -0.866025 0 0.5
v -0.433013 0.2 0.25
vt 1.71566 7.87402
vt 0.857832 7.87402
f 35/63/6 33/64/11 42/65/11 41/66/6 

vt -1.71566 0
vt -0.857832 0
vn -0.766044 0 0.642788
v -0.420515 0.2 0.267848
vt -0.857832 7.87402
vt -1.71566 7.87402
f 33/67/11 32/68/12 43/69/12 42/70/11 

vt -4.25006 0
v -0.405108 0 0.283256
vt -3.39223 0
vn -0.642788 0 0.766044
v -0.405108 0.2 0.283256
vt -3.39223 7.87402
vt -4.25006 7.87402
f 32/71/12 44/72/13 45/73/13 43/74/12 

vt 15.9491 -11.1518
f 32/47/3 11/13/3 44/75/3

v -0.38726 0 0.295753
vt 15.2464 -11.6438
f 44/75/3 11/13/3 46/76/3

v -0.367512 0 0.304962
vt 14.469 -12.0064
f 46/76/3 11/13/3 47/77/3

v -0.346466 0 0.310601
vt 13.6404 -12.2284
f 47/77/3 11/13/3 48/78/3

v -0.32476 0 0.3125
vt 12.7858 -12.3031
f 48/78/3 11/13/3 49/79/3

v -0.15 0 0.259808
vt 5.90551 -10.2286
f 49/79/3 11/13/3 50/80/3

f 50/80/3 11/13/3 10/12/3

v -2.25597e-17 0 0.275
vt 8.88178e-16 -10.8268
f 50/80/3 10/12/3 51/81/3

v -2.25597e-17 0.2 0.275
vt -9.28388 7.87402
vn 0.857493 5.8963e-17 -0.514496
vt -9.28388 3.28443e-16
vt 3.3422 3.28443e-16
v -0.165 0.2 -0
vt 3.3422 7.87402
f 52/82/14 51/83/14 10/84/14 53/85/14 

v 0.165 0.2 -0
vt -3.3422 7.87402
vn -0.857493 5.8963e-17 -0.514496
v 0.165 0 -0
vt -3.3422 3.28443e-16
vt 9.28388 3.28443e-16
vt 9.28388 7.87402
f 54/86/15 55/87/15 51/88/15 52/89/15 

v 2.25597e-17 0.2 -0.275
vn -0.857493 0 0.514496
vt -9.28388 0
vt 3.3422 0
f 56/82/16 5/90/16 55/91/16 54/85/16 

vn 0.857493 0 0.514496
vt -3.3422 0
vt 9.28388 0
f 53/86/17 10/92/17 5/93/17 56/89/17 

v -0.15 0.2 -0.259808
vt -5.90551 10.2286
vn 5.04098e-32 1 3.81361e-32
vt -6.49606 3.00285e-31
vt 8.88178e-16 10.8268
f 57/94/18 53/95/18 56/96/18

vt -11.811 1.44643e-15
f 57/94/18 29/97/18 53/95/18

v -0.32476 0.2 -0.3125
vt -12.7858 12.3031
f 58/98/18 29/97/18 57/94/18

v -0.346466 0.2 -0.310601
vt -13.6404 12.2284
f 59/99/18 29/97/18 58/98/18

v -0.367512 0.2 -0.304962
vt -14.469 12.0064
f 60/100/18 29/97/18 59/99/18

v -0.38726 0.2 -0.295753
vt -15.2464 11.6438
f 61/101/18 29/97/18 60/100/18

v -0.405108 0.2 -0.283256
vt -15.9491 11.1518
f 62/102/18 29/97/18 61/101/18

v -0.420515 0.2 -0.267848
vt -16.5557 10.5452
f 63/103/18 29/97/18 62/102/18

v -0.433013 0.2 -0.25
vt -17.0477 9.84252
f 64/104/18 29/97/18 63/103/18

vt -17.0477 4.92126
f 64/104/18 28/105/18 29/97/18

v -0.442221 0.2 -0.230253
vt -17.4103 9.06506
f 65/106/18 28/105/18 64/104/18

vt -17.4103 5.69872
f 65/106/18 27/107/18 28/105/18

v -0.44786 0.2 -0.209206
vt -17.6323 8.23646
f 66/108/18 27/107/18 65/106/18

vt -17.6323 6.52732
f 66/108/18 25/109/18 27/107/18

vt -17.7071 7.38189
f 25/109/18 66/108/18 26/110/18

vn -0.984808 0 -0.173648
f 23/1/19 24/2/4 26/3/4 66/4/19 

vn -0.939693 0 -0.34202
f 21/71/20 23/72/19 66/73/19 65/74/20 

vn -0.866025 0 -0.5
f 19/67/21 21/68/20 65/69/20 64/70/21 

vn -0.766044 0 -0.642788
f 17/63/22 19/64/21 64/65/21 63/66/22 

vn -0.642788 0 -0.766044
f 16/59/23 17/60/22 63/61/22 62/62/23 

f 15/55/2 16/56/23 62/57/23 61/58/2 

vt 8.03924 0
vt 8.89707 0
vt 8.89707 7.87402
vt 8.03924 7.87402
f 14/111/1 15/112/2 61/113/2 60/114/1 

vt 10.0107 0
vn -0.173648 0 -0.984808
vt 10.8685 0
vt 10.8685 7.87402
vt 10.0107 7.87402
f 13/115/24 14/116/1 60/117/1 59/118/24 

vt 11.6649 0
vn -0.0871557 0 -0.996195
vt 12.5227 0
vt 12.5227 7.87402
vt 11.6649 7.87402
f 12/119/25 13/120/24 59/121/24 58/122/25 

vn 0.288677 0 -0.957427
f 9/43/26 12/44/26 58/45/26 57/46/26 

vn -0.973494 0 -0.228712
v -0.108253 0.2 -0.4375
f 8/39/27 9/40/27 57/41/27 67/42/27 

vt -4.26194 17.2244
f 57/94/18 56/96/18 67/123/18

v -0.0957556 0.2 -0.455348
vt -3.7699 17.9271
f 67/123/18 56/96/18 68/124/18

v -0.0803485 0.2 -0.470756
vt -3.16332 18.5337
f 68/124/18 56/96/18 69/125/18

vt -2.46063 19.0257
f 69/125/18 56/96/18 3/126/18

vt -1.68317 19.3883
f 3/126/18 56/96/18 4/127/18

v -0.021706 0.2 -0.498101
vt -0.854568 19.6103
f 4/127/18 56/96/18 70/128/18

v 0 0.2 -0.5
vt -3.96928e-31 19.685
f 70/128/18 56/96/18 71/129/18

v 0.021706 0.2 -0.498101
vt 0.854568 19.6103
f 71/129/18 56/96/18 72/130/18

vt 6.49606 3.00285e-31
f 72/130/18 56/96/18 54/131/18

v 0.0427525 0.2 -0.492462
f 72/130/18 54/131/18 73/7/18

v 0.0625 0.2 -0.483253
f 73/7/18 54/131/18 74/6/18

v 0.0803485 0.2 -0.470756
f 74/6/18 54/131/18 75/8/18

v 0.0957556 0.2 -0.455348
f 75/8/18 54/131/18 76/9/18

v 0.108253 0.2 -0.4375
f 76/9/18 54/131/18 77/10/18

v 0.15 0.2 -0.259808
f 77/10/18 54/131/18 78/11/18

v 0.32476 0.2 -0.3125
f 78/11/18 54/131/18 79/14/18

v 0.3 0.2 -0
vt 11.811 3.00285e-31
f 79/14/18 54/131/18 80/132/18

v 0.32476 0.2 0.3125
f 54/131/18 81/79/18 80/132/18

v 0.15 0.2 0.259808
f 54/131/18 82/80/18 81/79/18

v 0.108253 0.2 0.4375
vt 4.26194 -17.2244
f 54/131/18 83/133/18 82/80/18

v 0.0957556 0.2 0.455348
vt 3.7699 -17.9271
f 54/131/18 84/134/18 83/133/18

v 0.0803485 0.2 0.470756
vt 3.16332 -18.5337
f 54/131/18 85/135/18 84/134/18

v 0.0625 0.2 0.483253
vt 2.46063 -19.0257
f 54/131/18 86/136/18 85/135/18

v 0.0427525 0.2 0.492462
vt 1.68317 -19.3883
f 54/131/18 87/137/18 86/136/18

v 0.021706 0.2 0.498101
vt 0.854568 -19.6103
f 54/131/18 88/138/18 87/137/18

vt -8.88178e-16 -10.8268
f 52/139/18 88/138/18 54/131/18

v -6.12323e-17 0.2 0.5
vt -2.41072e-15 -19.685
f 52/139/18 89/140/18 88/138/18

v -0.021706 0.2 0.498101
vt -0.854568 -19.6103
f 52/139/18 90/141/18 89/140/18

v -0.0427525 0.2 0.492462
vt -1.68317 -19.3883
f 52/139/18 91/142/18 90/141/18

v -0.0625 0.2 0.483253
vt -2.46063 -19.0257
f 52/139/18 92/143/18 91/142/18

v -0.0803485 0.2 0.470756
vt -3.16332 -18.5337
f 52/139/18 93/144/18 92/143/18

v -0.0957556 0.2 0.455348
vt -3.7699 -17.9271
f 52/139/18 94/145/18 93/144/18

v -0.108253 0.2 0.4375
vt -4.26194 -17.2244
f 52/139/18 95/146/18 94/145/18

v -0.15 0.2 0.259808
vt -5.90551 -10.2286
f 52/139/18 96/147/18 95/146/18

f 53/95/18 96/147/18 52/139/18

f 29/97/18 96/147/18 53/95/18

v -0.32476 0.2 0.3125
vt -12.7858 -12.3031
f 29/97/18 97/148/18 96/147/18

v -0.346466 0.2 0.310601
vt -13.6404 -12.2284
f 29/97/18 98/149/18 97/148/18

v -0.367512 0.2 0.304962
vt -14.469 -12.0064
f 29/97/18 99/150/18 98/149/18

v -0.38726 0.2 0.295753
vt -15.2464 -11.6438
f 29/97/18 100/151/18 99/150/18

vt -15.9491 -11.1518
f 29/97/18 45/152/18 100/151/18

vt -16.5557 -10.5452
f 29/97/18 43/153/18 45/152/18

vt -17.0477 -4.92126
f 31/154/18 43/153/18 29/97/18

vt -17.0477 -9.84252
f 31/154/18 42/155/18 43/153/18

v -0.442221 0.2 0.144747
vt -17.4103 -5.69872
f 101/156/18 42/155/18 31/154/18

vt -17.4103 -9.06506
f 101/156/18 41/157/18 42/155/18

v -0.44786 0.2 0.165794
vt -17.6323 -6.52732
f 102/158/18 41/157/18 101/156/18

vt -17.6323 -8.23646
f 102/158/18 39/159/18 41/157/18

vt -17.7071 -7.38189
f 39/159/18 102/158/18 40/160/18

f 37/111/19 38/112/10 40/113/10 102/114/19 

f 34/115/20 37/116/19 102/117/19 101/118/20 

vn -0.906308 0 -0.422618
f 30/119/28 34/120/20 101/121/20 31/122/28 

vn -0.5 0 0.866025
f 44/1/13 46/2/29 100/3/29 45/4/13 

vn -0.34202 0 0.939693
f 46/27/29 47/28/30 99/29/30 100/30/29 

vn -0.173648 0 0.984808
f 47/31/30 48/32/31 98/33/31 99/34/30 

vn -0.0871557 0 0.996195
f 48/35/31 49/36/32 97/37/32 98/38/31 

vn 0.288677 0 0.957427
f 49/39/33 50/40/33 96/41/33 97/42/33 

vn -0.973494 0 0.228712
v -0.108253 0 0.4375
f 50/43/34 103/44/34 95/45/34 96/46/34 

f 50/80/3 51/81/3 103/133/3

v -0.0957556 0 0.455348
f 103/133/3 51/81/3 104/134/3

v -0.0803485 0 0.470756
f 104/134/3 51/81/3 105/135/3

v -0.0625 0 0.483253
f 105/135/3 51/81/3 106/136/3

v -0.0427525 0 0.492462
f 106/136/3 51/81/3 107/137/3

v -0.021706 0 0.498101
f 107/137/3 51/81/3 108/138/3

v -6.12323e-17 0 0.5
vt 2.41072e-15 -19.685
f 108/138/3 51/81/3 109/161/3

v 0.021706 0 0.498101
f 109/161/3 51/81/3 110/141/3

vt -6.49606 0
f 110/141/3 51/81/3 55/162/3

v 0.0427525 0 0.492462
f 110/141/3 55/162/3 111/142/3

v 0.0625 0 0.483253
f 111/142/3 55/162/3 112/143/3

v 0.0803485 0 0.470756
f 112/143/3 55/162/3 113/144/3

v 0.0957556 0 0.455348
f 113/144/3 55/162/3 114/145/3

v 0.108253 0 0.4375
f 114/145/3 55/162/3 115/146/3

v 0.15 0 0.259808
f 115/146/3 55/162/3 116/147/3

v 0.32476 0 0.3125
f 116/147/3 55/162/3 117/148/3

v 0.3 0 -0
vt -11.811 0
f 117/148/3 55/162/3 118/163/3

v 0.32476 0 -0.3125
f 55/162/3 119/98/3 118/163/3

v 0.15 0 -0.259808
f 55/162/3 120/94/3 119/98/3

v 0.108253 0 -0.4375
f 55/162/3 121/123/3 120/94/3

v 0.0957556 0 -0.455348
f 55/162/3 122/124/3 121/123/3

v 0.0803485 0 -0.470756
f 55/162/3 123/125/3 122/124/3

v 0.0625 0 -0.483253
f 55/162/3 124/126/3 123/125/3

v 0.0427525 0 -0.492462
f 55/162/3 125/127/3 124/126/3

v 0.021706 0 -0.498101
f 55/162/3 126/128/3 125/127/3

f 5/5/3 126/128/3 55/162/3

v 0 0 -0.5
vt 0 19.685
f 5/5/3 127/164/3 126/128/3

v -0.021706 0 -0.498101
f 5/5/3 128/130/3 127/164/3

f 5/5/3 1/7/3 128/130/3

f 128/71/24 1/72/1 4/73/1 70/74/24 

vn 0 0 -1
f 127/67/35 128/68/24 70/69/24 71/70/35 

vn 0.173648 0 -0.984808
f 126/63/36 127/64/35 71/65/35 72/66/36 

vn 0.34202 0 -0.939693
f 125/59/37 126/60/36 72/61/36 73/62/37 

vn 0.5 0 -0.866025
f 124/55/38 125/56/37 73/57/37 74/58/38 

vn 0.642788 0 -0.766044
f 123/111/39 124/112/38 74/113/38 75/114/39 

vn 0.766044 0 -0.642788
f 122/115/40 123/116/39 75/117/39 76/118/40 

vn 0.819152 0 -0.573576
f 121/119/41 122/120/40 76/121/40 77/122/41 

vn 0.973494 0 -0.228712
f 120/43/42 121/44/42 77/45/42 78/46/42 

vn -0.288677 0 -0.957427
f 119/39/43 120/40/43 78/41/43 79/42/43 

v 0.346466 0 -0.310601
vn 0.0871557 0 -0.996195
v 0.346466 0.2 -0.310601
f 129/35/36 119/36/44 79/37/44 130/38/36 

v 0.433013 0 -0.125
f 131/105/3 119/98/3 129/99/3

f 118/163/3 119/98/3 131/105/3

vn 0.684817 0 0.728715
v 0.433013 0.2 -0.125
f 118/43/45 131/44/45 132/45/45 80/46/45 

vn 0.906308 0 0.422618
v 0.442221 0 -0.144747
vn 0.939693 0 0.34202
v 0.442221 0.2 -0.144747
f 131/119/46 133/120/47 134/121/47 132/122/46 

v 0.433013 0 -0.25
f 131/105/3 135/104/3 133/107/3

v 0.420515 0 -0.267848
f 131/105/3 136/103/3 135/104/3

v 0.405108 0 -0.283256
f 131/105/3 137/102/3 136/103/3

v 0.38726 0 -0.295753
f 131/105/3 138/101/3 137/102/3

v 0.367512 0 -0.304962
f 131/105/3 139/100/3 138/101/3

f 131/105/3 129/99/3 139/100/3

v 0.367512 0.2 -0.304962
f 139/31/37 129/32/36 130/33/36 140/34/37 

f 130/15/18 132/20/18 140/16/18

f 79/14/18 132/20/18 130/15/18

f 79/14/18 80/132/18 132/20/18

v 0.38726 0.2 -0.295753
f 140/16/18 132/20/18 141/17/18

v 0.405108 0.2 -0.283256
f 141/17/18 132/20/18 142/18/18

v 0.420515 0.2 -0.267848
f 142/18/18 132/20/18 143/19/18

v 0.433013 0.2 -0.25
f 143/19/18 132/20/18 144/21/18

f 144/21/18 132/20/18 134/22/18

v 0.442221 0.2 -0.230253
f 144/21/18 134/22/18 145/23/18

v 0.44786 0.2 -0.165794
f 145/23/18 134/22/18 146/24/18

v 0.44786 0 -0.165794
vn 0.984808 0 0.173648
f 133/115/47 147/116/48 146/117/48 134/118/47 

v 0.44786 0 -0.209206
f 133/107/3 148/108/3 147/109/3

v 0.442221 0 -0.230253
f 133/107/3 149/106/3 148/108/3

f 133/107/3 135/104/3 149/106/3

vn 0.939693 0 -0.34202
vn 0.866025 0 -0.5
f 149/63/49 135/64/50 144/65/50 145/66/49 

f 135/67/50 136/68/40 143/69/40 144/70/50 

f 136/71/40 137/72/39 142/73/39 143/74/40 

f 137/1/39 138/2/38 141/3/38 142/4/39 

f 138/27/38 139/28/37 140/29/37 141/30/38 

vn 0.984808 0 -0.173648
v 0.44786 0.2 -0.209206
f 148/59/51 149/60/49 145/61/49 150/62/51 

f 145/23/18 146/24/18 150/25/18

v 0.44976 0.2 -0.1875
f 150/25/18 146/24/18 151/26/18

v 0.44976 0 -0.1875
vn 1 0 4.17924e-17
f 147/111/48 152/112/52 151/113/52 146/114/48 

f 147/109/3 148/108/3 152/110/3

f 152/55/52 148/56/51 150/57/51 151/58/52 

v 0.433013 0 0.125
vn 0.684817 0 -0.728715
v 0.433013 0.2 0.125
f 153/39/53 118/40/53 80/41/53 154/42/53 

f 117/148/3 118/163/3 153/154/3

v 0.346466 0 0.310601
f 117/148/3 153/154/3 155/149/3

v 0.367512 0 0.304962
f 155/149/3 153/154/3 156/150/3

v 0.38726 0 0.295753
f 156/150/3 153/154/3 157/151/3

v 0.405108 0 0.283256
f 157/151/3 153/154/3 158/152/3

v 0.420515 0 0.267848
f 158/152/3 153/154/3 159/153/3

v 0.433013 0 0.25
f 159/153/3 153/154/3 160/155/3

v 0.442221 0 0.230253
f 160/155/3 153/154/3 161/157/3

v 0.442221 0 0.144747
f 161/157/3 153/154/3 162/156/3

vn 0.906308 0 -0.422618
v 0.442221 0.2 0.144747
f 162/35/49 153/36/54 154/37/54 163/38/49 

v 0.442221 0.2 0.230253
f 154/48/18 164/51/18 163/50/18

v 0.433013 0.2 0.25
f 154/48/18 165/49/18 164/51/18

v 0.420515 0.2 0.267848
f 154/48/18 166/47/18 165/49/18

v 0.405108 0.2 0.283256
f 154/48/18 167/75/18 166/47/18

v 0.38726 0.2 0.295753
f 154/48/18 168/76/18 167/75/18

v 0.367512 0.2 0.304962
f 154/48/18 169/77/18 168/76/18

v 0.346466 0.2 0.310601
f 154/48/18 170/78/18 169/77/18

f 154/48/18 81/79/18 170/78/18

f 80/132/18 81/79/18 154/48/18

vn 0.0871557 0 0.996195
vn 0.173648 0 0.984808
f 117/119/55 155/120/56 170/121/56 81/122/55 

vn 0.34202 0 0.939693
f 155/115/56 156/116/57 169/117/57 170/118/56 

vn 0.5 0 0.866025
f 156/111/57 157/112/58 168/113/58 169/114/57 

vn 0.642788 0 0.766044
f 157/55/58 158/56/59 167/57/59 168/58/58 

vn 0.766044 0 0.642788
f 158/59/59 159/60/60 166/61/60 167/62/59 

vn 0.866025 0 0.5
f 159/63/60 160/64/61 165/65/61 166/66/60 

f 160/67/61 161/68/47 164/69/47 165/70/61 

v 0.44786 0 0.209206
v 0.44786 0.2 0.209206
f 161/71/47 171/72/48 172/73/48 164/74/47 

f 161/157/3 162/156/3 171/159/3

v 0.44786 0 0.165794
f 171/159/3 162/156/3 173/158/3

v 0.44786 0.2 0.165794
f 173/31/51 162/32/49 163/33/49 174/34/51 

f 163/50/18 172/52/18 174/53/18

f 163/50/18 164/51/18 172/52/18

v 0.44976 0.2 0.1875
f 174/53/18 172/52/18 175/54/18

v 0.44976 0 0.1875
f 171/1/48 176/2/52 175/3/52 172/4/48 

f 171/159/3 173/158/3 176/160/3

f 176/27/52 173/28/51 174/29/51 175/30/52 

vn -0.288677 0 0.957427
f 116/43/62 117/44/62 81/45/62 82/46/62 

vn 0.973494 0 0.228712
f 115/39/63 116/40/63 82/41/63 83/42/63 

vn 0.819152 0 0.573576
f 114/35/60 115/36/64 83/37/64 84/38/60 

f 113/31/59 114/32/60 84/33/60 85/34/59 

f 112/27/58 113/28/59 85/29/59 86/30/58 

f 111/1/57 112/2/58 86/3/58 87/4/57 

f 110/71/56 111/72/57 87/73/57 88/74/56 

vn 1.39308e-17 0 1
f 109/67/65 110/68/56 88/69/56 89/70/65 

f 108/63/31 109/64/65 89/65/65 90/66/31 

f 107/59/30 108/60/31 90/61/31 91/62/30 

f 106/55/29 107/56/30 91/57/30 92/58/29 

f 105/111/13 106/112/29 92/113/29 93/114/13 

f 104/115/12 105/116/13 93/117/13 94/118/12 

vn -0.819152 0 0.573576
f 103/119/66 104/120/12 94/121/12 95/122/66 

f 2/27/2 6/28/23 69/29/23 3/30/2 

f 6/31/23 7/32/22 68/33/22 69/34/23 

vn -0.819152 0 -0.573576
f 7/35/22 8/36/67 67/37/67 68/38/22 

