# Alias OBJ Model File
# Exported from SketchUp, (c) 2000-2012 Trimble Navigation Limited
# File units = meters

mtllib B_3.mtl

g Mesh1 Model

usemtl Color_C03
v -0.433013 0 0.25
vt 17.0477 -9.84252
vn 0 -1 -0
v 0 0 -0.5
vt 0 19.685
v 0.433013 0 0.25
vt -17.0477 -9.84252
f 1/1/1 2/2/1 3/3/1

vt -17.0477 0
vn -0.866025 0 -0.5
vt 17.0477 0
v -0.433013 0.2 0.25
vt 17.0477 7.87402
v 0 0.2 -0.5
vt -17.0477 7.87402
f 2/4/2 1/5/2 4/6/2 5/7/2 

vn -3.64696e-16 0 1
v 0.433013 0.2 0.25
f 1/4/3 3/5/3 6/6/3 4/7/3 

vn 0.866025 0 -0.5
f 3/4/4 2/5/4 5/6/4 6/7/4 

vn 0 1 -0
f 5/2/5 4/3/5 6/1/5

