# Alias OBJ Model File
# Exported from SketchUp, (c) 2000-2012 Trimble Navigation Limited
# File units = meters

mtllib B_B.mtl

g Mesh1 Difference Model

usemtl Color_C03
v 0.433013 0.2 0.25
vt 17.0477 -9.84252
vn 0 1 -0
v -0.238157 0.2 0.1375
vt -9.37626 -5.41339
v -0.433013 0.2 0.25
vt -17.0477 -9.84252
f 1/1/1 2/2/1 3/3/1

v 0.238157 0.2 0.1375
vt 9.37626 -5.41339
f 2/2/1 1/1/1 4/4/1

v 1.12799e-16 0.2 -0.275
vt 4.44089e-15 10.8268
f 1/1/1 5/5/1 4/4/1

v 0 0.2 -0.5
vt 0 19.685
f 6/6/1 5/5/1 1/1/1

f 6/6/1 2/2/1 5/5/1

f 2/2/1 6/6/1 3/3/1

v 0 0 -0.5
vt -17.0477 0
vn -0.866025 0 -0.5
v -0.433013 0 0.25
vt 17.0477 0
vt 17.0477 7.87402
vt -17.0477 7.87402
f 7/7/2 8/8/2 3/9/2 6/10/2 

vn 0 -1 -0
v -0.238157 0 0.1375
f 7/6/3 9/4/3 8/1/3

v 1.12799e-16 0 -0.275
vt -4.44089e-15 10.8268
f 9/4/3 7/6/3 10/11/3

v 0.433013 0 0.25
f 10/11/3 7/6/3 11/3/3

vn 0.866025 0 -0.5
f 11/7/4 7/8/4 6/9/4 1/10/4 

vn -3.64696e-16 0 1
f 8/7/5 11/8/5 1/9/5 3/10/5 

f 9/4/3 11/3/3 8/1/3

v 0.238157 0 0.1375
f 11/3/3 9/4/3 12/2/3

vt 9.37626 -1.04262e-31
vn 3.31542e-16 -1.92601e-32 -1
vt 9.37626 7.87402
vt -9.37626 7.87402
vt -9.37626 -1.04262e-31
f 9/12/6 2/13/6 4/14/6 12/15/6 

vt 9.37626 0
vn 0.866025 0 0.5
vt -9.37626 0
f 10/16/7 5/13/7 2/14/7 9/17/7 

vt 9.37626 4.15584e-17
vn -0.866025 7.67697e-18 0.5
vt -9.37626 4.15584e-17
f 12/18/8 4/13/8 5/14/8 10/19/8 

f 10/11/3 11/3/3 12/2/3

