# Alias OBJ Model File
# Exported from SketchUp, (c) 2000-2012 Trimble Navigation Limited
# File units = meters

mtllib D_B.mtl

g Mesh1 Difference Model

usemtl Color_G01
v 0.375736 0 0.124264
vt 7.00069 0
vn 0.707107 0 0.707107
v 0.5 0 9.18485e-17
vt 13.9194 0
v 0.5 0.2 9.18485e-17
vt 13.9194 7.87402
v 0.375736 0.2 0.124264
vt 7.00069 7.87402
f 1/1/1 2/2/1 3/3/1 4/4/1 

vt -14.7928 -4.89229
vn 0 -1 -0
v 0.375736 0 -0.124264
vt -14.7928 4.89229
vt -19.685 -3.61608e-15
f 1/5/2 5/6/2 2/7/2

v 0.3 0 -0.124264
vt -11.811 4.89229
f 1/5/2 6/8/2 5/6/2

v 0.3 0 0.124264
vt -11.811 -4.89229
f 7/9/2 6/8/2 1/5/2

v 0.238157 0 0.1375
vt -9.37626 -5.41339
f 8/10/2 6/8/2 7/9/2

v 0.124264 0 -0.3
vt -4.89229 11.811
f 8/10/2 9/11/2 6/8/2

v 9.02389e-17 0 -0.275
vt -3.55271e-15 10.8268
f 10/12/2 9/11/2 8/10/2

v 0.124264 0 -0.375736
vt -4.89229 14.7928
f 10/12/2 11/13/2 9/11/2

v 0 0 -0.5
vt 0 19.685
f 10/12/2 12/14/2 11/13/2

v -0.124264 0 -0.3
vt 4.89229 11.811
f 10/12/2 13/15/2 12/14/2

v -0.238157 0 0.1375
vt 9.37626 -5.41339
f 14/16/2 13/15/2 10/12/2

v -0.3 0 0.124264
vt 11.811 -4.89229
f 15/17/2 13/15/2 14/16/2

v -0.3 0 -0.124264
vt 11.811 4.89229
f 15/17/2 16/18/2 13/15/2

v -0.375736 0 0.124264
vt 14.7928 -4.89229
f 17/19/2 16/18/2 15/17/2

v -0.375736 0 -0.124264
vt 14.7928 4.89229
f 17/19/2 18/20/2 16/18/2

v -0.5 0 -3.06162e-17
vt 19.685 1.20536e-15
f 18/20/2 17/19/2 19/21/2

vt -13.9194 0
vn -0.707107 0 0.707107
vt -7.00069 0
v -0.375736 0.2 0.124264
vt -7.00069 7.87402
v -0.5 0.2 -3.06162e-17
vt -13.9194 7.87402
f 19/22/3 17/23/3 20/24/3 21/25/3 

vt -14.7928 0
vn 2.97874e-16 0 1
vt -11.811 0
v -0.3 0.2 0.124264
vt -11.811 7.87402
vt -14.7928 7.87402
f 17/26/4 15/27/4 22/28/4 20/29/4 

vt -4.89229 0
v -0.124264 0 0.3
vt 4.89229 0
v -0.124264 0.2 0.3
vt 4.89229 7.87402
vt -4.89229 7.87402
f 15/30/3 23/31/3 24/32/3 22/33/3 

vt 4.89229 -11.811
f 14/16/2 23/34/2 15/17/2

f 23/34/2 14/16/2 8/10/2

vt 9.37626 6.10623e-16
vn 3.78905e-16 1.12799e-16 -1
v -0.238157 0.2 0.1375
vt 9.37626 7.87402
v 0.238157 0.2 0.1375
vt -9.37626 7.87402
vt -9.37626 6.10623e-16
f 14/35/5 25/36/5 26/37/5 8/38/5 

vt 9.37626 7.22797e-16
vn 0.866025 1.3352e-16 0.5
v -2.25597e-17 0.2 -0.275
vt -9.37626 7.22797e-16
f 10/39/6 27/36/6 25/37/6 14/40/6 

vt 9.37626 -3.03813e-15
vn -0.866025 -5.61226e-16 0.5
vt -9.37626 -3.03813e-15
f 8/41/7 26/36/7 27/37/7 10/42/7 

v 0 0.2 -0.5
vn 0 1 -0
vt -8.88178e-16 10.8268
f 28/14/8 27/43/8 26/16/8

v -0.124264 0.2 -0.375736
f 29/13/8 27/43/8 28/14/8

v -0.124264 0.2 -0.3
f 30/11/8 27/43/8 29/13/8

f 30/11/8 25/10/8 27/43/8

v -0.3 0.2 -0.124264
f 25/10/8 30/11/8 31/8/8

vn -0.707107 0 -0.707107
f 13/30/9 16/31/9 31/32/9 30/33/9 

vt 11.811 0
vn -2.97874e-16 0 -1
vt 14.7928 0
v -0.375736 0.2 -0.124264
vt 14.7928 7.87402
vt 11.811 7.87402
f 16/44/10 18/45/10 32/46/10 31/47/10 

f 18/1/9 19/2/9 21/3/9 32/4/9 

vt -19.685 1.20536e-15
f 20/5/8 32/6/8 21/48/8

f 32/6/8 20/5/8 22/9/8

f 32/6/8 22/9/8 31/8/8

f 31/8/8 22/9/8 25/10/8

vt -4.89229 -11.811
f 25/10/8 22/9/8 24/49/8

f 25/10/8 24/49/8 26/16/8

v 0.124264 0.2 0.3
f 26/16/8 24/49/8 33/34/8

v -6.12323e-17 0.2 0.5
vt -2.41072e-15 -19.685
f 33/34/8 24/49/8 34/50/8

v -0.124264 0.2 0.375736
vt -4.89229 -14.7928
f 34/50/8 24/49/8 35/51/8

vn -1 0 -2.97874e-16
v -0.124264 0 0.375736
f 23/44/11 36/45/11 35/46/11 24/47/11 

v -6.12323e-17 0 0.5
vt 2.41072e-15 -19.685
vt 4.89229 -14.7928
f 37/52/2 36/53/2 23/34/2

f 36/1/3 37/2/3 34/3/3 35/4/3 

v 0.124264 0 0.375736
v 0.124264 0.2 0.375736
f 37/22/1 38/23/1 39/24/1 34/25/1 

v 0.124264 0 0.3
f 38/51/2 37/52/2 40/49/2

f 23/34/2 40/49/2 37/52/2

f 23/34/2 8/10/2 40/49/2

f 40/49/2 8/10/2 7/9/2

v 0.3 0.2 0.124264
f 40/30/1 7/31/1 41/32/1 33/33/1 

f 7/44/4 1/45/4 4/46/4 41/47/4 

v 0.3 0.2 -0.124264
f 42/18/8 41/17/8 4/19/8

f 42/18/8 26/16/8 41/17/8

v 0.124264 0.2 -0.3
f 43/15/8 26/16/8 42/18/8

f 28/14/8 26/16/8 43/15/8

v 0.124264 0.2 -0.375736
vt 4.89229 14.7928
f 44/54/8 28/14/8 43/15/8

vn 0.707107 0 -0.707107
f 11/1/12 12/2/12 28/3/12 44/4/12 

v -0.124264 0 -0.375736
f 12/22/9 45/23/9 29/24/9 28/25/9 

f 12/14/2 13/15/2 45/54/2

vn -1 0 -0
f 45/26/13 13/27/13 30/28/13 29/29/13 

vn 1 0 -0
f 9/44/14 11/45/14 44/46/14 43/47/14 

f 6/30/12 9/31/12 43/32/12 42/33/12 

vn -5.95747e-16 0 -1
v 0.375736 0.2 -0.124264
f 5/26/15 6/27/15 42/28/15 46/29/15 

f 42/18/8 4/19/8 46/20/8

vt 19.685 -3.61608e-15
f 46/20/8 4/19/8 3/55/8

f 2/22/12 5/23/12 46/24/12 3/25/12 

f 26/16/8 33/34/8 41/17/8

f 38/26/14 40/27/14 33/28/14 39/29/14 

f 33/34/8 34/50/8 39/53/8

