# Alias OBJ Model File
# Exported from SketchUp, (c) 2000-2012 Trimble Navigation Limited
# File units = meters

mtllib E_B.mtl

g Mesh1 Difference Model

usemtl Color_I01
v -0.250967 0.2 0.373449
vt -9.88061 -14.7027
vn -3.68591e-31 1 4.824e-32
v -0.277618 0.2 0.354086
vt -10.9298 -13.9404
v -0.293893 0.2 0.404508
vt -11.5706 -15.9255
f 1/1/1 2/2/1 3/3/1

v -0.267179 0.2 0.302141
vt -10.5189 -11.8953
f 2/2/1 1/1/1 4/4/1

v -0.26271 0.2 0.249346
vt -10.3429 -9.81679
f 4/4/1 1/1/1 5/5/1

v -0.220903 0.2 -0.214052
vt -8.69697 8.42725
f 6/6/1 5/5/1 1/1/1

v -0.26427 0.2 0.196386
vt -10.4043 -7.73173
f 6/6/1 7/7/1 5/5/1

v -0.268438 0.2 -0.190649
vt -10.5684 7.50588
f 8/8/1 7/7/1 6/6/1

v -0.271838 0.2 0.143946
vt -10.7023 -5.66715
f 8/8/1 9/9/1 7/7/1

v -0.285317 0.2 0.0927051
vt -11.233 -3.64981
f 8/8/1 10/10/1 9/9/1

v -0.304531 0.2 0.0433282
vt -11.9894 -1.70583
f 8/8/1 11/11/1 10/10/1

v -0.318325 0.2 -0.1728
vt -12.5325 6.80315
f 12/12/1 11/11/1 8/8/1

v -0.329232 0.2 -0.00354536
vt -12.9619 0.139581
f 12/12/1 13/13/1 11/11/1

v -0.359099 0.2 -0.0473083
vt -14.1378 1.86253
f 12/12/1 14/14/1 13/13/1

v -0.369916 0.2 -0.160735
vt -14.5636 6.32817
f 15/15/1 14/14/1 12/12/1

v -0.393746 0.2 -0.0873936
vt -15.5018 3.44069
f 15/15/1 16/16/1 14/14/1

v -0.422545 0.2 -0.154612
vt -16.6356 6.08708
f 17/17/1 16/16/1 15/15/1

v -0.432724 0.2 -0.123282
vt -17.0364 4.85362
f 17/17/1 18/18/1 16/16/1

v -0.475528 0.2 -0.154508
vt -18.7216 6.08301
f 18/18/1 17/17/1 19/19/1

vt 18.7097 7.87402
vn -0.00194958 -1.60412e-18 -0.999998
vt 16.6237 7.87402
vn -0.0588582 -8.03363e-19 -0.998266
v -0.422545 -1.69198e-17 -0.154612
vt 16.6237 -6.56317e-16
v -0.475528 0 -0.154508
vt 18.7097 9.81642e-18
f 19/20/2 17/21/3 20/22/3 21/23/2 

vt 15.8206 7.87402
vt 13.7347 7.87402
vn -0.171919 0 -0.985111
v -0.369916 -1.69198e-17 -0.160735
vt 13.7347 -6.66134e-16
vt 15.8206 -6.66134e-16
f 17/24/3 15/25/4 22/26/4 20/27/3 

vt 12.7401 7.87402
vt 10.6541 7.87402
vn -0.282753 0 -0.959193
v -0.318325 -1.69198e-17 -0.1728
vt 10.6541 -6.66134e-16
vt 12.7401 -6.66134e-16
f 15/28/4 12/29/5 23/30/5 22/31/4 

vt 9.50802 7.87402
vt 7.42205 7.87402
vn -0.389923 0 -0.920847
v -0.268438 -1.69198e-17 -0.190649
vt 7.42205 -6.66134e-16
vt 9.50802 -6.66134e-16
f 12/32/5 8/33/6 24/34/6 23/35/5 

vt 6.16628 7.87402
vt 4.08031 7.87402
vn -0.492042 0 -0.870572
v -0.220903 -1.69198e-17 -0.214052
vt 4.08031 -6.66134e-16
vt 6.16628 -6.66134e-16
f 8/36/6 6/37/7 25/38/7 24/39/6 

vt 2.75816 7.87402
v -0.176336 0.2 -0.242705
vt 0.672187 7.87402
vn -0.54079 0 -0.841158
v -0.176336 -1.69198e-17 -0.242705
vt 0.672187 -6.66134e-16
vt 2.75816 -6.66134e-16
f 6/40/7 26/41/8 27/42/8 25/43/7 

v 1.12799e-16 0.2 -0.275
vt 4.44089e-15 10.8268
vt -6.94235 9.55532
f 6/6/1 28/44/1 26/45/1

v -0.238157 0.2 0.1375
vt -9.37626 -5.41339
f 6/6/1 29/46/1 28/44/1

f 6/6/1 1/1/1 29/46/1

v -0.204791 0.2 0.347469
vt -8.06262 -13.6799
f 30/47/1 29/46/1 1/1/1

v 0.238157 0.2 0.1375
vt 9.37626 -5.41339
f 29/46/1 30/47/1 31/48/1

v -0.155961 0.2 0.326905
vt -6.14018 -12.8703
f 31/48/1 30/47/1 32/49/1

vt -10.6541 7.87402
vn 0.335048 0 0.942201
vt -12.7401 7.87402
vn 0.439948 0 0.898023
v -0.204791 0 0.347469
vt -12.7401 0
v -0.155961 0 0.326905
vt -10.6541 0
f 32/50/9 30/51/10 33/52/10 34/53/9 

vt -13.7347 7.87402
vt -15.8206 7.87402
vn 0.539149 0 0.84221
v -0.250967 0 0.373449
vt -15.8206 0
vt -13.7347 0
f 30/54/10 1/55/11 35/56/11 33/57/10 

vt -16.6237 7.87402
vt -18.7097 7.87402
vn 0.586207 0 0.810161
v -0.293893 0 0.404508
vt -18.7097 0
vt -16.6237 0
f 1/58/11 3/59/12 36/60/12 35/61/11 

vn -0.951657 -3.13022e-18 -0.307162
vn -0.967596 -1.56765e-18 -0.252504
v -0.277618 3.38396e-17 0.354086
vt 16.6237 1.35142e-15
vt 18.7097 1.91554e-17
f 3/20/13 2/21/14 37/62/14 36/63/13 

vn -0.990022 0 -0.140911
v -0.267179 3.38396e-17 0.302141
vt 13.7347 1.33227e-15
vt 15.8206 1.33227e-15
f 2/24/14 4/25/15 38/64/15 37/65/14 

vn -0.999622 0 -0.0274931
v -0.26271 3.38396e-17 0.249346
vt 10.6541 1.33227e-15
vt 12.7401 1.33227e-15
f 4/28/15 5/29/16 39/66/16 38/67/15 

vn -0.996271 0 0.0862813
v -0.26427 3.38396e-17 0.196386
vt 7.42205 1.33227e-15
vt 9.50802 1.33227e-15
f 5/32/16 7/33/17 40/68/17 39/69/16 

vn -0.980012 0 0.198938
v -0.271838 3.38396e-17 0.143946
vt 4.08031 1.33227e-15
vt 6.16628 1.33227e-15
f 7/36/17 9/37/18 41/70/18 40/71/17 

vn -0.967102 0 0.25439
v -0.285317 3.38396e-17 0.0927051
vt 0.672187 1.33227e-15
vt 2.75816 1.33227e-15
f 9/40/18 10/41/19 42/72/19 41/73/18 

vt -0.672187 7.87402
vn -0.931928 0 0.362643
vt -2.75816 7.87402
vn -0.909779 0 0.415093
v -0.304531 3.38396e-17 0.0433282
vt -2.75816 1.33227e-15
vt -0.672187 1.33227e-15
f 10/74/20 11/75/21 43/76/21 42/77/20 

vt -4.08031 7.87402
vt -6.16628 7.87402
vn -0.856715 0 0.51579
v -0.329232 3.38396e-17 -0.00354536
vt -6.16628 1.33227e-15
vt -4.08031 1.33227e-15
f 11/78/21 13/79/22 44/80/22 43/81/21 

vt -7.42205 7.87402
vt -9.50802 7.87402
vn -0.792551 0 0.609805
v -0.359099 3.38396e-17 -0.0473083
vt -9.50802 1.33227e-15
vt -7.42205 1.33227e-15
f 13/82/22 14/83/23 45/84/23 44/85/22 

vn -0.718119 0 0.69592
v -0.393746 3.38396e-17 -0.0873936
vt -12.7401 1.33227e-15
vt -10.6541 1.33227e-15
f 14/50/23 16/51/24 46/86/24 45/87/23 

vn -0.634384 1.08226e-19 0.773018
v -0.432724 3.38396e-17 -0.123282
vt -15.8206 1.33227e-15
vt -13.7347 1.33227e-15
f 16/54/24 18/55/25 47/88/25 46/89/24 

vn -0.589361 2.16102e-19 0.80787
vt -18.7097 -1.32244e-18
vt -16.6237 1.33095e-15
f 18/58/25 19/59/26 21/90/26 47/91/25 

vt 16.6356 6.08708
vn -1.51317e-17 -1 3.06601e-17
vt 17.0364 4.85362
vt 18.7216 6.08301
f 20/92/27 47/93/27 21/94/27

vt 15.5018 3.44069
f 47/93/27 20/92/27 46/95/27

vt 14.5636 6.32817
f 46/95/27 20/92/27 22/96/27

vt 14.1378 1.86253
f 46/95/27 22/96/27 45/97/27

vt 12.5325 6.80315
f 45/97/27 22/96/27 23/98/27

vt 12.9619 0.139581
f 45/97/27 23/98/27 44/99/27

vt 11.9894 -1.70583
f 44/99/27 23/98/27 43/100/27

vt 10.5684 7.50588
f 43/100/27 23/98/27 24/101/27

vt 11.233 -3.64981
f 43/100/27 24/101/27 42/102/27

vt 10.7023 -5.66715
f 42/102/27 24/101/27 41/103/27

vt 10.4043 -7.73173
f 41/103/27 24/101/27 40/104/27

vt 8.69697 8.42725
f 40/104/27 24/101/27 25/105/27

vt 10.3429 -9.81679
f 40/104/27 25/105/27 39/106/27

vt 9.88061 -14.7027
f 39/106/27 25/105/27 35/107/27

v -0.238157 -5.39423e-18 0.1375
f 35/107/27 25/105/27 48/48/27

v 0 -1.03623e-17 -0.275
vt -6.17315e-33 10.8268
f 48/48/27 25/105/27 49/108/27

vt 6.94235 9.55532
f 49/108/27 25/105/27 27/109/27

v -0.135313 -1.69198e-17 -0.276237
vt 5.32728 10.8755
f 49/108/27 27/109/27 50/110/27

vn -0.632875 0 -0.774254
v -0.135313 0.2 -0.276237
vn -0.675914 0 -0.736981
vt -2.75816 -6.66134e-16
vt -0.672187 -6.66134e-16
f 26/74/28 51/75/29 50/111/29 27/112/28 

vt -5.32728 10.8755
f 26/45/1 28/44/1 51/113/1

v -0.0983664 0.2 -0.314214
vt -3.87269 12.3706
f 51/113/1 28/44/1 52/114/1

v -0.0659749 0.2 -0.356143
vt -2.59744 14.0214
f 52/114/1 28/44/1 53/115/1

v -0.0385581 0.2 -0.401481
vt -1.51803 15.8063
f 53/115/1 28/44/1 54/116/1

v -0.016471 0.2 -0.449642
vt -0.648466 17.7024
f 54/116/1 28/44/1 55/117/1

v -5.75684e-18 0.2 -0.5
vt -2.26647e-16 19.685
f 55/117/1 28/44/1 56/118/1

v 0.016471 0.2 -0.449642
vt 0.648466 17.7024
f 56/118/1 28/44/1 57/119/1

f 57/119/1 28/44/1 31/48/1

v 0.238157 2.79582e-18 0.1375
vt 9.37626 2.76603e-15
vn -0.866025 4.90628e-16 0.5
vt 9.37626 7.87402
vt -9.37626 7.87402
vt -9.37626 2.24799e-15
f 58/120/30 31/121/30 28/122/30 49/123/30 

vt 9.37626 -5.17683e-16
vn 3.55224e-16 -5.63993e-17 -1
vt -9.37626 -1.9524e-16
f 48/124/31 29/121/31 31/122/31 58/125/31 

vt 9.37626 -1.01722e-15
vn 0.866025 -1.12546e-16 0.5
vt -9.37626 -8.21628e-16
f 49/126/32 28/121/32 29/122/32 48/127/32 

vt 8.06262 -13.6799
f 33/128/27 48/48/27 58/46/27

f 48/48/27 33/128/27 35/107/27

vt 6.14018 -12.8703
f 33/128/27 58/46/27 34/129/27

v -0.10511 0 0.312023
vt 4.13819 -12.2844
f 34/129/27 58/46/27 59/130/27

v -0.0528977 0 0.303015
vt 2.08259 -11.9297
f 59/130/27 58/46/27 60/131/27

v 4.50026e-17 0 0.3
vt -1.77175e-15 -11.811
f 60/131/27 58/46/27 61/132/27

v 0.0528977 0 0.303015
vt -2.08259 -11.9297
f 61/132/27 58/46/27 62/133/27

v 0.10511 0 0.312023
vt -4.13819 -12.2844
f 62/133/27 58/46/27 63/134/27

v 0.155961 0 0.326905
f 63/134/27 58/46/27 64/49/27

v 0.204791 0 0.347469
f 64/49/27 58/46/27 65/47/27

v 0.250967 0 0.373449
f 65/47/27 58/46/27 66/1/27

v 0.268438 -1.12799e-17 -0.190649
f 58/46/27 67/8/27 66/1/27

v 0.220903 -1.12799e-17 -0.214052
f 58/46/27 68/6/27 67/8/27

v 0.176336 -1.12799e-17 -0.242705
f 58/46/27 69/45/27 68/6/27

v 0.135313 -1.12799e-17 -0.276237
f 58/46/27 70/113/27 69/45/27

v 0.0983664 -1.12799e-17 -0.314214
f 58/46/27 71/114/27 70/113/27

v 0.0659749 -1.12799e-17 -0.356143
f 58/46/27 72/115/27 71/114/27

v 0.0385581 -1.12799e-17 -0.401481
f 58/46/27 73/116/27 72/115/27

v 0.016471 -1.12799e-17 -0.449642
f 58/46/27 74/117/27 73/116/27

f 49/108/27 74/117/27 58/46/27

v -5.75684e-18 0 -0.5
vt 2.26647e-16 19.685
f 49/108/27 75/135/27 74/117/27

v -0.016471 -1.69198e-17 -0.449642
f 49/108/27 76/119/27 75/135/27

v -0.0385581 -1.69198e-17 -0.401481
vt 1.51803 15.8063
f 49/108/27 77/136/27 76/119/27

v -0.0659749 -1.69198e-17 -0.356143
vt 2.59744 14.0214
f 49/108/27 78/137/27 77/136/27

v -0.0983664 -1.69198e-17 -0.314214
vt 3.87269 12.3706
f 49/108/27 79/138/27 78/137/27

f 49/108/27 50/110/27 79/138/27

vn -0.755285 0 -0.655396
vt -6.16628 -6.66134e-16
vt -4.08031 -6.66134e-16
f 51/78/29 52/79/33 79/139/33 50/140/29 

vn -0.824871 0 -0.565321
vt -9.50802 -6.66134e-16
vt -7.42205 -6.66134e-16
f 52/82/33 53/83/34 78/141/34 79/142/33 

vn -0.88377 0 -0.467921
vt -12.7401 -6.66134e-16
vt -10.6541 -6.66134e-16
f 53/50/34 54/51/35 77/143/35 78/144/34 

vn -0.93122 -8.03363e-19 -0.364459
vt -15.8206 -6.66134e-16
vt -13.7347 -6.66134e-16
f 54/54/35 55/55/36 76/145/36 77/146/35 

vn -0.950452 -1.60412e-18 -0.310871
vt -18.7097 9.81642e-18
vt -16.6237 -6.56317e-16
f 55/58/36 56/59/37 75/147/37 76/148/36 

vn 0.950452 -1.20811e-18 -0.310871
vn 0.93122 -6.05035e-19 -0.364459
vt 16.6237 -4.36696e-16
vt 18.7097 7.39302e-18
f 56/20/38 57/21/39 74/149/39 75/150/38 

v 0.0385581 0.2 -0.401481
vn 0.88377 0 -0.467921
vt 13.7347 -4.44089e-16
vt 15.8206 -4.44089e-16
f 57/24/39 80/25/40 73/151/40 74/152/39 

f 57/119/1 31/48/1 80/136/1

v 0.0659749 0.2 -0.356143
f 80/136/1 31/48/1 81/137/1

v 0.0983664 0.2 -0.314214
f 81/137/1 31/48/1 82/138/1

v 0.135313 0.2 -0.276237
f 82/138/1 31/48/1 83/110/1

v 0.176336 0.2 -0.242705
f 83/110/1 31/48/1 84/109/1

v 0.220903 0.2 -0.214052
f 84/109/1 31/48/1 85/105/1

v 0.268438 0.2 -0.190649
f 85/105/1 31/48/1 86/101/1

v 0.250967 0.2 0.373449
f 86/101/1 31/48/1 87/107/1

v 0.204791 0.2 0.347469
f 31/48/1 88/128/1 87/107/1

v 0.155961 0.2 0.326905
f 31/48/1 89/129/1 88/128/1

v 0.10511 0.2 0.312023
f 31/48/1 90/130/1 89/129/1

v 0.0528977 0.2 0.303015
f 31/48/1 91/131/1 90/130/1

v 4.50026e-17 0.2 0.3
vt 1.77175e-15 -11.811
f 31/48/1 92/153/1 91/131/1

v -0.0528977 0.2 0.303015
f 31/48/1 93/133/1 92/153/1

v -0.10511 0.2 0.312023
f 31/48/1 94/134/1 93/133/1

f 31/48/1 32/49/1 94/134/1

vn 0.225806 0 0.974172
vt -9.50802 0
vt -7.42205 0
f 94/82/41 32/83/9 34/154/9 59/155/41 

vn 0.113639 0 0.993522
vt -6.16628 0
vt -4.08031 0
f 93/78/42 94/79/41 59/156/41 60/157/42 

vn 0.0569119 0 0.998379
vt -2.75816 0
vt -0.672187 0
f 92/74/43 93/75/42 60/158/42 61/159/43 

vn -0.113639 0 0.993522
vn -0.0569119 0 0.998379
vt 0.672187 0
vt 2.75816 0
f 91/40/44 92/41/45 61/160/45 62/161/44 

vn -0.225806 0 0.974172
vt 4.08031 0
vt 6.16628 0
f 90/36/46 91/37/44 62/162/44 63/163/46 

vn -0.335048 0 0.942201
vt 7.42205 0
vt 9.50802 0
f 89/32/47 90/33/46 63/164/46 64/165/47 

vn -0.439948 0 0.898023
vt 10.6541 0
vt 12.7401 0
f 88/28/48 89/29/47 64/166/47 65/167/48 

vn -0.539149 0 0.84221
vt 13.7347 0
vt 15.8206 0
f 87/24/49 88/25/48 65/168/48 66/169/49 

v 0.293893 0.2 0.404508
vn -0.586207 0 0.810161
vt 16.6237 0
v 0.293893 0 0.404508
vt 18.7097 0
f 95/20/50 87/21/49 66/170/49 96/171/50 

v 0.277618 0.2 0.354086
vt 10.9298 -13.9404
vt 11.5706 -15.9255
f 97/172/1 87/107/1 95/173/1

v 0.267179 0.2 0.302141
vt 10.5189 -11.8953
f 98/174/1 87/107/1 97/172/1

v 0.26271 0.2 0.249346
f 87/107/1 98/174/1 99/106/1

vn 0.999622 0 -0.0274931
vn 0.990022 0 -0.140911
v 0.267179 1.12799e-17 0.302141
vt -12.7401 4.44089e-16
v 0.26271 1.12799e-17 0.249346
vt -10.6541 4.44089e-16
f 99/50/51 98/51/52 100/175/52 101/176/51 

vn 0.967596 -5.89572e-19 -0.252504
v 0.277618 1.12799e-17 0.354086
vt -15.8206 4.44089e-16
vt -13.7347 4.44089e-16
f 98/54/52 97/55/53 102/177/53 100/178/52 

vn 0.951657 -1.17723e-18 -0.307162
vt -18.7097 7.20407e-18
vt -16.6237 4.51293e-16
f 97/58/53 95/59/54 96/179/54 102/180/53 

f 66/1/27 102/2/27 96/3/27

f 102/2/27 66/1/27 100/4/27

f 100/4/27 66/1/27 101/5/27

f 66/1/27 67/8/27 101/5/27

v 0.26427 1.12799e-17 0.196386
f 101/5/27 67/8/27 103/7/27

v 0.271838 1.12799e-17 0.143946
f 103/7/27 67/8/27 104/9/27

v 0.318325 -1.12799e-17 -0.1728
f 104/9/27 67/8/27 105/12/27

vn 0.389923 0 -0.920847
v 0.318325 0.2 -0.1728
vn 0.282753 0 -0.959193
vt -9.50802 -4.44089e-16
vt -7.42205 -4.44089e-16
f 86/82/55 106/83/56 105/181/56 67/182/55 

v 0.271838 0.2 0.143946
f 86/101/1 107/103/1 106/98/1

v 0.26427 0.2 0.196386
f 86/101/1 108/104/1 107/103/1

f 86/101/1 99/106/1 108/104/1

f 86/101/1 87/107/1 99/106/1

vn 0.996271 0 0.0862813
vt -9.50802 4.44089e-16
vt -7.42205 4.44089e-16
f 108/82/57 99/83/51 101/183/51 103/184/57 

vn 0.980012 0 0.198938
vt -6.16628 4.44089e-16
vt -4.08031 4.44089e-16
f 107/78/58 108/79/57 103/185/57 104/186/58 

v 0.285317 0.2 0.0927051
vn 0.967102 0 0.25439
vt -2.75816 4.44089e-16
v 0.285317 1.12799e-17 0.0927051
vt -0.672187 4.44089e-16
f 109/74/59 107/75/58 104/187/58 110/188/59 

f 106/98/1 107/103/1 109/102/1

v 0.304531 0.2 0.0433282
f 106/98/1 109/102/1 111/100/1

vn 0.909779 0 0.415093
vn 0.931928 0 0.362643
vt 0.672187 4.44089e-16
v 0.304531 1.12799e-17 0.0433282
vt 2.75816 4.44089e-16
f 111/40/60 109/41/61 110/189/61 112/190/60 

f 110/10/27 105/12/27 112/11/27

f 104/9/27 105/12/27 110/10/27

v 0.329232 1.12799e-17 -0.00354536
f 112/11/27 105/12/27 113/13/27

v 0.369916 -1.12799e-17 -0.160735
f 113/13/27 105/12/27 114/15/27

v 0.369916 0.2 -0.160735
vn 0.171919 0 -0.985111
vt -12.7401 -4.44089e-16
vt -10.6541 -4.44089e-16
f 106/50/56 115/51/62 114/191/62 105/192/56 

v 0.329232 0.2 -0.00354536
f 106/98/1 116/99/1 115/96/1

f 106/98/1 111/100/1 116/99/1

vn 0.856715 0 0.51579
vt 4.08031 4.44089e-16
vt 6.16628 4.44089e-16
f 116/36/63 111/37/60 112/193/60 113/194/63 

v 0.359099 0.2 -0.0473083
vn 0.792551 0 0.609805
vt 7.42205 4.44089e-16
v 0.359099 1.12799e-17 -0.0473083
vt 9.50802 4.44089e-16
f 117/32/64 116/33/63 113/195/63 118/196/64 

f 115/96/1 116/99/1 117/97/1

v 0.393746 0.2 -0.0873936
f 115/96/1 117/97/1 119/95/1

vn 0.718119 0 0.69592
vt 10.6541 4.44089e-16
v 0.393746 1.12799e-17 -0.0873936
vt 12.7401 4.44089e-16
f 119/28/65 117/29/64 118/197/64 120/198/65 

f 118/14/27 114/15/27 120/16/27

f 113/13/27 114/15/27 118/14/27

v 0.422545 -1.12799e-17 -0.154612
f 120/16/27 114/15/27 121/17/27

v 0.422545 0.2 -0.154612
vn 0.0588582 2.89797e-18 -0.998266
vt -15.8206 -4.44089e-16
vt -13.7347 -4.44089e-16
f 115/54/62 122/55/66 121/199/66 114/200/62 

f 115/96/1 119/95/1 122/92/1

v 0.432724 0.2 -0.123282
f 122/92/1 119/95/1 123/93/1

vn 0.634384 1.59302e-33 0.773018
vt 13.7347 4.44089e-16
v 0.432724 1.12799e-17 -0.123282
vt 15.8206 4.44089e-16
f 123/24/67 119/25/65 120/201/65 124/202/67 

f 120/16/27 121/17/27 124/18/27

v 0.475528 0 -0.154508
f 124/18/27 121/17/27 125/19/27

v 0.475528 0.2 -0.154508
vn 0.00194958 5.78654e-18 -0.999998
vt -18.7097 -3.54107e-17
vt -16.6237 -4.795e-16
f 122/58/66 126/59/68 125/203/68 121/204/66 

f 122/92/1 123/93/1 126/94/1

vn 0.589361 3.18088e-33 0.80787
vt 16.6237 4.44089e-16
vt 18.7097 -1.94654e-32
f 126/20/69 123/21/67 124/205/67 125/206/69 

vn 0.492042 0 -0.870572
vt -6.16628 -4.44089e-16
vt -4.08031 -4.44089e-16
f 85/78/70 86/79/55 67/207/55 68/208/70 

vn 0.54079 0 -0.841158
vt -2.75816 -4.44089e-16
vt -0.672187 -4.44089e-16
f 84/74/71 85/75/70 68/209/70 69/210/71 

vn 0.675914 0 -0.736981
vn 0.632875 0 -0.774254
vt 0.672187 -4.44089e-16
vt 2.75816 -4.44089e-16
f 83/40/72 84/41/73 69/211/73 70/212/72 

vn 0.755285 0 -0.655396
vt 4.08031 -4.44089e-16
vt 6.16628 -4.44089e-16
f 82/36/74 83/37/72 70/213/72 71/214/74 

vn 0.824871 0 -0.565321
vt 7.42205 -4.44089e-16
vt 9.50802 -4.44089e-16
f 81/32/75 82/33/74 71/215/74 72/216/75 

vt 10.6541 -4.44089e-16
vt 12.7401 -4.44089e-16
f 80/28/40 81/29/75 72/217/75 73/218/40 

f 35/107/27 38/174/27 39/106/27

f 35/107/27 37/172/27 38/174/27

f 37/172/27 35/107/27 36/173/27

