# Alias OBJ Model File
# Exported from SketchUp, (c) 2000-2012 Trimble Navigation Limited
# File units = meters

mtllib C_C.mtl

g Mesh1 Difference Model

usemtl Color_D03
v -6.12323e-17 0 0.5
vt -13.9194 0
vn 0.707107 0 0.707107
v 0.5 0 9.18485e-17
vt 13.9194 0
v 0.5 0.2 9.18485e-17
vt 13.9194 7.87402
v -6.12323e-17 0.2 0.5
vt -13.9194 7.87402
f 1/1/1 2/2/1 3/3/1 4/4/1 

vt 2.41072e-15 -19.685
vn 0 -1 -0
v 9.02389e-17 0 0.275
vt -3.55271e-15 -10.8268
vt -19.685 -3.61608e-15
f 1/5/2 5/6/2 2/7/2

v -0.275 0 -4.51195e-17
vt 10.8268 1.77636e-15
f 1/5/2 6/8/2 5/6/2

v -0.5 0 -3.06162e-17
vt 19.685 1.20536e-15
f 6/8/2 1/5/2 7/9/2

vn -0.707107 0 0.707107
v -0.5 0.2 -3.06162e-17
f 7/1/3 1/2/3 4/3/3 8/4/3 

vt -2.41072e-15 -19.685
vn 0 1 -0
v -0.275 0.2 -0
vt -10.8268 0
vt -19.685 1.20536e-15
f 4/10/4 9/11/4 8/12/4

v 4.51195e-17 0.2 0.275
vt 1.77636e-15 -10.8268
f 9/11/4 4/10/4 10/13/4

vt 19.685 -3.61608e-15
f 10/13/4 4/10/4 3/14/4

v 0.275 0.2 7.08417e-33
vt 10.8268 -2.78904e-31
f 10/13/4 3/14/4 11/15/4

v 6.76792e-17 0.2 -0.275
vt 2.66454e-15 10.8268
f 3/14/4 12/16/4 11/15/4

v 0 0.2 -0.5
vt 0 19.685
f 13/17/4 12/16/4 3/14/4

f 13/17/4 9/11/4 12/16/4

f 9/11/4 13/17/4 8/12/4

v 0 0 -0.5
vn -0.707107 0 -0.707107
f 14/1/5 7/2/5 8/3/5 13/4/5 

f 14/17/2 6/8/2 7/9/2

v 6.76792e-17 0 -0.275
vt -2.66454e-15 10.8268
f 6/8/2 14/17/2 15/18/2

f 15/18/2 14/17/2 2/7/2

vn 0.707107 0 -0.707107
f 2/1/6 14/2/6 13/3/6 3/4/6 

v 0.275 0 -0
f 15/18/2 2/7/2 16/11/2

f 2/7/2 5/6/2 16/11/2

vt -7.65568 7.87402
vn -0.707107 -8.10369e-17 -0.707107
vt -7.65568 -6.20393e-16
vt 7.65568 -6.20393e-16
vt 7.65568 7.87402
f 11/19/7 16/20/7 5/21/7 10/22/7 

vt -7.65568 0
vt 7.65568 0
f 12/19/3 15/23/3 16/24/3 11/22/3 

vn 0.707107 8.10369e-17 0.707107
vt -7.65568 6.20393e-16
vt 7.65568 6.20393e-16
f 9/19/8 6/25/8 15/26/8 12/22/8 

vt 7.65568 2.48157e-15
vn 0.707107 3.24147e-16 -0.707107
vt -7.65568 2.48157e-15
f 6/27/9 9/22/9 10/19/9 5/28/9 

