# Alias OBJ Model File
# Exported from SketchUp, (c) 2000-2012 Trimble Navigation Limited
# File units = meters

mtllib D_C.mtl

g Mesh1 Difference Model

usemtl Color_G01
v -6.12323e-17 0.2 0.5
vt -2.41072e-15 -19.685
vn 0 1 -0
v -0.124264 0.2 0.3
vt -4.89229 -11.811
v -0.124264 0.2 0.375736
vt -4.89229 -14.7928
f 1/1/1 2/2/1 3/3/1

v 9.02389e-17 0.2 0.275
vt 3.55271e-15 -10.8268
f 4/4/1 2/2/1 1/1/1

v -0.275 0.2 -0
vt -10.8268 0
f 5/5/1 2/2/1 4/4/1

v -0.3 0.2 0.124264
vt -11.811 -4.89229
f 5/5/1 6/6/1 2/2/1

v -0.3 0.2 -0.124264
vt -11.811 4.89229
f 7/7/1 6/6/1 5/5/1

v -0.375736 0.2 -0.124264
vt -14.7928 4.89229
f 8/8/1 6/6/1 7/7/1

v -0.375736 0.2 0.124264
vt -14.7928 -4.89229
f 8/8/1 9/9/1 6/6/1

v -0.5 0.2 -3.06162e-17
vt -19.685 1.20536e-15
f 9/9/1 8/8/1 10/10/1

v -0.375736 0 -0.124264
vt 7.00069 0
vn -0.707107 0 -0.707107
v -0.5 0 -3.06162e-17
vt 13.9194 0
vt 13.9194 7.87402
vt 7.00069 7.87402
f 11/11/2 12/12/2 10/13/2 8/14/2 

vt 14.7928 4.89229
vn 0 -1 -0
v -0.375736 0 0.124264
vt 14.7928 -4.89229
vt 19.685 1.20536e-15
f 11/15/3 13/16/3 12/17/3

v -0.3 0 -0.124264
vt 11.811 4.89229
f 13/16/3 11/15/3 14/18/3

vt 11.811 0
vn -2.97874e-16 0 -1
vt 14.7928 0
vt 14.7928 7.87402
vt 11.811 7.87402
f 14/19/4 11/20/4 8/21/4 7/22/4 

v -0.124264 0 -0.3
vt -4.89229 0
vt 4.89229 0
vt 4.89229 7.87402
v -0.124264 0.2 -0.3
vt -4.89229 7.87402
f 15/23/2 14/24/2 7/25/2 16/26/2 

v -0.275 0 -0
vt 10.8268 0
vt 4.89229 11.811
f 17/27/3 14/18/3 15/28/3

v -0.3 0 0.124264
vt 11.811 -4.89229
f 18/29/3 14/18/3 17/27/3

f 13/16/3 14/18/3 18/29/3

vt -14.7928 0
vn 2.97874e-16 0 1
vt -11.811 0
vt -11.811 7.87402
vt -14.7928 7.87402
f 13/30/5 18/31/5 6/32/5 9/33/5 

vn -0.707107 0 0.707107
v -0.124264 0 0.3
f 18/23/6 19/24/6 2/25/6 6/26/6 

vt 4.89229 -11.811
f 17/27/3 19/34/3 18/29/3

v 9.02389e-17 0 0.275
vt -3.55271e-15 -10.8268
f 19/34/3 17/27/3 20/35/3

vt 7.65568 0
vn 0.707107 0 -0.707107
vt 7.65568 7.87402
vt -7.65568 7.87402
vt -7.65568 0
f 17/36/7 5/37/7 4/38/7 20/39/7 

v 9.02389e-17 0 -0.275
vt 7.65568 -9.30589e-16
vn 0.707107 -1.21555e-16 0.707107
v 6.76792e-17 0.2 -0.275
vt -7.65568 -9.30589e-16
f 21/40/8 22/37/8 5/38/8 17/41/8 

v 0.275 0 7.08417e-33
vt 7.65568 -1.55098e-15
vn -0.707107 -2.02592e-16 0.707107
v 0.275 0.2 7.08417e-33
vt -7.65568 -1.55098e-15
f 23/42/9 24/37/9 22/38/9 21/43/9 

f 20/36/2 4/37/2 24/38/2 23/39/2 

v 0.124264 0.2 0.3
vt 10.8268 -2.78904e-31
f 4/4/1 25/34/1 24/44/1

v 0.124264 0.2 0.375736
vt 4.89229 -14.7928
f 4/4/1 26/45/1 25/34/1

f 4/4/1 1/1/1 26/45/1

v -6.12323e-17 0 0.5
vt -13.9194 0
vn 0.707107 0 0.707107
v 0.124264 0 0.375736
vt -7.00069 0
vt -7.00069 7.87402
vt -13.9194 7.87402
f 27/46/10 28/47/10 26/48/10 1/49/10 

vt 2.41072e-15 -19.685
f 27/50/3 20/35/3 28/3/3

f 19/34/3 20/35/3 27/50/3

v -0.124264 0 0.375736
f 27/50/3 29/45/3 19/34/3

f 29/11/6 27/12/6 1/13/6 3/14/6 

vn -1 0 -2.97874e-16
f 19/19/11 29/20/11 3/21/11 2/22/11 

v 0.124264 0 0.3
f 28/3/3 20/35/3 30/2/3

vt -10.8268 -2.78904e-31
f 23/51/3 30/2/3 20/35/3

v 0.3 0 0.124264
f 30/2/3 23/51/3 31/6/3

v 0.3 0 -0.124264
f 23/51/3 32/7/3 31/6/3

v 0.124264 0 -0.3
vt -4.89229 11.811
f 23/51/3 33/52/3 32/7/3

vt -3.55271e-15 10.8268
f 21/53/3 33/52/3 23/51/3

v 0.124264 0 -0.375736
vt -4.89229 14.7928
f 21/53/3 34/54/3 33/52/3

v 0 0 -0.5
vt 0 19.685
f 21/53/3 35/55/3 34/54/3

f 21/53/3 15/28/3 35/55/3

f 17/27/3 15/28/3 21/53/3

v -0.124264 0 -0.375736
vt 4.89229 14.7928
f 35/55/3 15/28/3 36/56/3

vn -1 0 -0
v -0.124264 0.2 -0.375736
f 36/30/12 15/31/12 16/32/12 37/33/12 

vt 2.66454e-15 10.8268
f 16/52/1 22/57/1 37/54/1

f 16/52/1 5/5/1 22/57/1

f 5/5/1 16/52/1 7/7/1

v 0 0.2 -0.5
f 37/54/1 22/57/1 38/55/1

v 0.124264 0.2 -0.375736
f 38/55/1 22/57/1 39/56/1

v 0.124264 0.2 -0.3
f 39/56/1 22/57/1 40/28/1

f 24/44/1 40/28/1 22/57/1

v 0.3 0.2 -0.124264
f 40/28/1 24/44/1 41/18/1

v 0.3 0.2 0.124264
f 41/18/1 24/44/1 42/29/1

f 24/44/1 25/34/1 42/29/1

f 30/23/10 31/24/10 42/25/10 25/26/10 

v 0.375736 0 0.124264
v 0.375736 0.2 0.124264
f 31/19/5 43/20/5 44/21/5 42/22/5 

f 31/6/3 32/7/3 43/9/3

v 0.375736 0 -0.124264
f 43/9/3 32/7/3 45/8/3

vn -5.95747e-16 0 -1
v 0.375736 0.2 -0.124264
f 45/30/13 32/31/13 41/32/13 46/33/13 

f 32/23/7 33/24/7 40/25/7 41/26/7 

vn 1 0 -0
f 33/19/14 34/20/14 39/21/14 40/22/14 

f 34/11/7 35/12/7 38/13/7 39/14/7 

f 35/46/2 36/47/2 37/48/2 38/49/2 

f 41/18/1 44/16/1 46/15/1

f 41/18/1 42/29/1 44/16/1

v 0.5 0.2 9.18485e-17
vt 19.685 -3.61608e-15
f 46/15/1 44/16/1 47/58/1

v 0.5 0 9.18485e-17
f 43/11/10 48/12/10 47/13/10 44/14/10 

vt -19.685 -3.61608e-15
f 43/9/3 45/8/3 48/59/3

f 48/46/7 45/47/7 46/48/7 47/49/7 

f 28/30/14 30/31/14 25/32/14 26/33/14 

f 12/46/6 13/47/6 9/48/6 10/49/6 

