# Alias OBJ Model File
# Exported from SketchUp, (c) 2000-2012 Trimble Navigation Limited
# File units = meters

mtllib F_C.mtl

g Mesh1 Difference Model

usemtl Color_L01
v -0.191635 0 -0.262427
vt 3.38115 0
vn -0.35533 0 -0.934741
v -0.475528 0 -0.154508
vt 15.3384 0
v -0.475528 0.2 -0.154508
vt 15.3384 7.87402
v -0.191635 0.2 -0.262427
vt 3.38115 7.87402
f 1/1/1 2/2/1 3/3/1 4/4/1 

vt 7.54469 10.3318
vn 0 -1 -0
v -0.310072 0 0.102085
vt 12.2076 -4.0191
vt 18.7216 6.08301
f 1/5/2 5/6/2 2/7/2

v -0.275 0 -4.51195e-17
vt 10.8268 1.77636e-15
f 5/6/2 1/5/2 6/8/2

v 6.76792e-17 0 -0.275
vt -2.66454e-15 10.8268
f 6/8/2 1/5/2 7/9/2

v 0 0 -0.5
vt 0 19.685
f 7/9/2 1/5/2 8/10/2

vt -15.3217 0
vn -0.778343 0 -0.62784
vt -3.30479 0
vt -3.30479 7.87402
v 0 0.2 -0.5
vt -15.3217 7.87402
f 8/11/3 1/12/3 4/13/3 9/14/3 

vt -7.54469 10.3318
vn 0 1 -0
v 9.02389e-17 0.2 -0.275
vt 3.55271e-15 10.8268
f 4/15/4 10/16/4 9/10/4

v -0.275 0.2 -0
vt -10.8268 0
f 4/15/4 11/17/4 10/16/4

v -0.310072 0.2 0.102085
vt -12.2076 -4.0191
f 4/15/4 12/18/4 11/17/4

vt -18.7216 6.08301
f 12/18/4 4/15/4 3/19/4

vt -15.258 0
vn -0.840428 0 0.541923
vt -3.23779 0
vt -3.23779 7.87402
vt -15.258 7.87402
f 2/20/5 5/21/5 12/22/5 3/23/5 

vt 3.36119 0
vn -0.998572 0 0.0534237
v -0.293893 0 0.404508
vt 15.2846 0
v -0.293893 0.2 0.404508
vt 15.2846 7.87402
vt 3.36119 7.87402
f 5/24/6 13/25/6 14/26/6 12/27/6 

vt 11.5706 -15.9255
f 5/6/2 6/8/2 13/28/2

v -8.4599e-17 0 0.327366
vt 3.33067e-15 -12.8884
f 6/8/2 15/29/2 13/28/2

v 9.02389e-17 0 0.275
vt -3.55271e-15 -10.8268
f 15/29/2 6/8/2 16/30/2

vt 7.65568 1.86118e-15
vn 0.707107 2.43111e-16 -0.707107
vt 7.65568 7.87402
v 9.02389e-17 0.2 0.275
vt -7.65568 7.87402
vt -7.65568 1.86118e-15
f 6/31/7 11/32/7 17/33/7 16/34/7 

vt 7.65568 1.55098e-15
vn 0.707107 2.02592e-16 0.707107
vt -7.65568 1.55098e-15
f 7/35/8 10/32/8 11/33/8 6/36/8 

vn -0.707107 2.02592e-16 0.707107
v 0.275 0 -0
v 0.275 0.2 7.08417e-33
f 10/33/9 7/36/9 18/35/9 19/32/9 

v 0.191635 0 -0.262427
f 7/9/2 20/15/2 18/17/2

f 7/9/2 8/10/2 20/15/2

vt 3.30479 0
vn 0.778343 0 -0.62784
vt 15.3217 0
vt 15.3217 7.87402
v 0.191635 0.2 -0.262427
vt 3.30479 7.87402
f 20/37/10 8/38/10 9/39/10 21/40/10 

f 9/10/4 10/16/4 21/5/4

vt 10.8268 -2.78904e-31
f 21/5/4 10/16/4 19/41/4

v 0.475528 0.2 -0.154508
f 21/5/4 19/41/4 22/7/4

v 0.310072 0.2 0.102085
f 22/7/4 19/41/4 23/6/4

v 0.293893 0.2 0.404508
f 23/6/4 19/41/4 24/28/4

vt 3.55271e-15 -10.8268
f 17/42/4 24/28/4 19/41/4

v -8.4599e-17 0.2 0.327366
vt -3.33067e-15 -12.8884
f 17/42/4 25/43/4 24/28/4

f 11/17/4 25/43/4 17/42/4

vt -11.5706 -15.9255
f 25/43/4 11/17/4 14/44/4

f 11/17/4 12/18/4 14/44/4

vt -15.2347 0
vn 0.253885 0 0.967234
vt -3.27218 0
vt -3.27218 7.87402
vt -15.2347 7.87402
f 13/45/11 15/46/11 25/47/11 14/48/11 

vt 3.27218 0
vn -0.253885 0 0.967234
v 0.293893 0 0.404508
vt 15.2347 0
vt 15.2347 7.87402
vt 3.27218 7.87402
f 15/49/12 26/50/12 24/51/12 25/52/12 

f 15/29/2 16/30/2 26/44/2

f 26/44/2 16/30/2 18/17/2

vn -0.707107 0 -0.707107
vt -7.65568 0
vt 7.65568 0
f 19/33/13 18/53/13 16/54/13 17/32/13 

v 0.310072 0 0.102085
f 18/17/2 27/18/2 26/44/2

v 0.475528 0 -0.154508
f 18/17/2 28/19/2 27/18/2

f 18/17/2 20/15/2 28/19/2

vt -15.3384 0
vn 0.35533 0 -0.934741
vt -3.38115 0
vt -3.38115 7.87402
vt -15.3384 7.87402
f 28/55/14 20/56/14 21/57/14 22/58/14 

vt 3.23779 0
vn 0.840428 0 0.541923
vt 15.258 0
vt 15.258 7.87402
vt 3.23779 7.87402
f 27/59/15 28/60/15 22/61/15 23/62/15 

vt -15.2846 0
vn 0.998572 0 0.0534237
vt -3.36119 0
vt -3.36119 7.87402
vt -15.2846 7.87402
f 26/63/16 27/64/16 23/65/16 24/66/16 

