# Alias OBJ Model File
# Exported from SketchUp, (c) 2000-2012 Trimble Navigation Limited
# File units = meters

mtllib A_D.mtl

g Mesh1 Difference Model

usemtl Color_A03
v 0.3 0 -0
vt -6.07672 0
vn 0.857493 0 -0.514496
v 0 0 -0.5
vt 16.8798 0
v 0 0.2 -0.5
vt 16.8798 7.87402
v 0.3 0.2 -0
vt -6.07672 7.87402
f 1/1/1 2/2/1 3/3/1 4/4/1 

v 0.0683452 0 -0.206655
vt -2.69076 8.13601
vn 0 -1 -0
vt 0 19.685
vt -11.811 0
f 5/5/2 2/6/2 1/7/2

v -1.12799e-16 0 -0.275
vt 4.44089e-15 10.8268
f 6/8/2 2/6/2 5/5/2

v -0.0683452 0 -0.206655
vt 2.69076 8.13601
f 7/9/2 2/6/2 6/8/2

v -0.165 0 -0.0683452
vt 6.49606 2.69076
f 8/10/2 2/6/2 7/9/2

v -0.206655 0 -0.0683452
vt 8.13601 2.69076
f 9/11/2 2/6/2 8/10/2

v -0.275 0 -9.02389e-17
vt 10.8268 3.55271e-15
f 10/12/2 2/6/2 9/11/2

v -0.3 0 -0
vt 11.811 0
f 2/6/2 10/12/2 11/13/2

v -6.12323e-17 0 0.5
vt 2.41072e-15 -19.685
f 10/12/2 12/14/2 11/13/2

v -0.206655 0 0.0683452
vt 8.13601 -2.69076
f 12/14/2 10/12/2 13/15/2

vt 7.65568 3.56726e-15
vn 0.707107 4.65962e-16 -0.707107
v -0.275 0.2 -0
vt 7.65568 7.87402
v -0.206655 0.2 0.0683452
vt 3.85038 7.87402
vt 3.85038 3.56726e-15
f 10/16/3 14/17/3 15/18/3 13/19/3 

vt -3.85038 1.16324e-15
vn 0.707107 1.51944e-16 0.707107
v -0.206655 0.2 -0.0683452
vt -3.85038 7.87402
vt -7.65568 7.87402
vt -7.65568 1.16324e-15
f 9/20/4 16/21/4 14/22/4 10/23/4 

vt -6.49606 0
vn 5.41588e-16 0 1
v -0.165 0.2 -0.0683452
vt -6.49606 7.87402
vt -8.13601 7.87402
vt -8.13601 0
f 8/24/5 17/25/5 16/26/5 9/27/5 

v -0.0683452 0 -0.165
vt 2.69076 0
vn 0.707107 0 0.707107
v -0.0683452 0.2 -0.165
vt 2.69076 7.87402
vt -2.69076 7.87402
vt -2.69076 0
f 18/28/6 19/29/6 17/30/6 8/31/6 

vt 8.13601 0
vn 1 0 -5.41588e-16
v -0.0683452 0.2 -0.206655
vt 8.13601 7.87402
vt 6.49606 7.87402
vt 6.49606 0
f 7/32/7 20/33/7 19/34/7 18/35/7 

vt 7.65568 1.52212e-31
vn 0.707107 1.98822e-32 0.707107
v -2.25597e-17 0.2 -0.275
vt 3.85038 1.52212e-31
f 6/36/8 21/17/8 20/18/8 7/37/8 

vt -3.85038 3.72236e-15
vn -0.707107 4.86221e-16 0.707107
v 0.0683452 0.2 -0.206655
vt -7.65568 3.72236e-15
f 5/38/9 22/21/9 21/22/9 6/39/9 

v 0.0683452 0 -0.165
vt -6.49606 4.55271e-16
vn -1 1.69198e-16 -8.12382e-16
v 0.0683452 0.2 -0.165
vt -8.13601 4.55271e-16
f 23/40/10 24/25/10 22/26/10 5/41/10 

v 0.165 0 -0.0683452
vn -0.707107 0 0.707107
v 0.165 0.2 -0.0683452
f 25/28/11 26/29/11 24/30/11 23/31/11 

v 0.206655 0 -0.0683452
v 0.206655 0.2 -0.0683452
f 27/32/5 28/33/5 26/34/5 25/35/5 

v 0.275 0 -0
vt 7.65568 0
v 0.275 0.2 -0
vt 3.85038 0
f 29/42/11 30/17/11 28/18/11 27/43/11 

v 0.206655 0 0.0683452
vt -3.85038 -4.65294e-16
vn -0.707107 -6.07777e-17 -0.707107
v 0.206655 0.2 0.0683452
vt -7.65568 -4.65294e-16
f 31/44/12 32/21/12 30/22/12 29/45/12 

v 0.165 0 0.0683452
vt -6.49606 -7.58785e-17
vn -9.4778e-16 -2.81997e-17 -1
v 0.165 0.2 0.0683452
vt -8.13601 -7.58785e-17
f 33/46/13 34/25/13 32/26/13 31/47/13 

v 0.0683452 0 0.165
vt 2.69076 2.6321e-16
vn -0.707107 4.05184e-17 -0.707107
v 0.0683452 0.2 0.165
vt -2.69076 2.6321e-16
f 35/48/14 36/29/14 34/30/14 33/49/14 

v 0.0683452 0 0.206655
vt 8.13601 3.03514e-16
vn -1 1.12799e-16 -5.41588e-16
v 0.0683452 0.2 0.206655
vt 6.49606 3.03514e-16
f 37/50/15 38/33/15 36/34/15 35/51/15 

v -1.57918e-16 0 0.275
vt 7.65568 2.55912e-15
vn -0.707107 3.34277e-16 -0.707107
v -1.35358e-16 0.2 0.275
vt 3.85038 2.55912e-15
f 39/52/16 40/17/16 38/18/16 37/53/16 

v -0.0683452 0 0.206655
vt -3.85038 3.10196e-16
vn 0.707107 4.05184e-17 -0.707107
v -0.0683452 0.2 0.206655
vt -7.65568 3.10196e-16
f 41/54/17 42/21/17 40/22/17 39/55/17 

v -0.0683452 0 0.165
vn 1 0 1.08318e-15
v -0.0683452 0.2 0.165
f 43/24/18 44/25/18 42/26/18 41/27/18 

v -0.165 0 0.0683452
v -0.165 0.2 0.0683452
f 45/48/17 46/29/17 44/30/17 43/49/17 

vt 8.13601 1.51757e-16
vn 0 5.63993e-17 -1
vt 6.49606 1.51757e-16
f 13/56/19 15/33/19 46/34/19 45/57/19 

vt -8.13601 -2.69076
vn 0 1 -0
v -6.12323e-17 0.2 0.5
vt -2.41072e-15 -19.685
vt -6.49606 -2.69076
f 15/58/20 47/59/20 46/60/20

vt -10.8268 0
f 14/61/20 47/59/20 15/58/20

v -0.3 0.2 -0
f 47/59/20 14/61/20 48/7/20

f 14/61/20 3/6/20 48/7/20

vt -8.13601 2.69076
f 3/6/20 14/61/20 16/62/20

vt -6.49606 2.69076
f 3/6/20 16/62/20 17/63/20

f 3/6/20 17/63/20 20/5/20

vt -2.69076 6.49606
f 19/64/20 20/5/20 17/63/20

vt -8.88178e-16 10.8268
f 3/6/20 20/5/20 21/65/20

f 3/6/20 21/65/20 22/9/20

f 3/6/20 22/9/20 4/13/20

f 4/13/20 22/9/20 28/11/20

f 28/11/20 22/9/20 26/10/20

vt 2.69076 6.49606
f 26/10/20 22/9/20 24/66/20

vt 10.8268 0
f 4/13/20 28/11/20 30/67/20

f 32/15/20 4/13/20 30/67/20

vt 2.69076 -8.13601
f 38/68/20 4/13/20 32/15/20

f 38/68/20 47/59/20 4/13/20

vt -5.32907e-15 -10.8268
f 40/69/20 47/59/20 38/68/20

vt -2.69076 -8.13601
f 42/70/20 47/59/20 40/69/20

f 46/60/20 47/59/20 42/70/20

vt -2.69076 -6.49606
f 44/71/20 46/60/20 42/70/20

vt -16.8798 0
vn 0.857493 0 0.514496
vt 6.07672 0
vt 6.07672 7.87402
vt -16.8798 7.87402
f 12/72/21 1/73/21 4/74/21 47/75/21 

f 12/14/2 37/70/2 1/7/2

vt 6.21725e-15 -10.8268
f 12/14/2 39/76/2 37/70/2

f 12/14/2 41/68/2 39/76/2

vt 6.49606 -2.69076
f 12/14/2 45/77/2 41/68/2

f 12/14/2 13/15/2 45/77/2

vt 2.69076 -6.49606
f 43/78/2 41/68/2 45/77/2

f 1/7/2 37/70/2 31/58/2

f 31/58/2 37/70/2 35/71/2

f 31/58/2 35/71/2 33/60/2

f 1/7/2 31/58/2 29/61/2

f 27/62/2 1/7/2 29/61/2

f 5/5/2 1/7/2 27/62/2

f 5/5/2 27/62/2 23/64/2

f 23/64/2 27/62/2 25/63/2

vn -0.857493 0 0.514496
f 11/1/22 12/2/22 47/3/22 48/4/22 

vn -0.857493 0 -0.514496
f 2/72/23 11/73/23 48/74/23 3/75/23 

f 38/68/20 32/15/20 36/78/20

f 36/78/20 32/15/20 34/77/20

f 18/66/2 8/10/2 7/9/2

