# Alias OBJ Model File
# Exported from SketchUp, (c) 2000-2012 Trimble Navigation Limited
# File units = meters

mtllib C_D.mtl

g Mesh1 Difference Model

usemtl Color_D03
v -0.5 0 -3.06162e-17
vt -13.9194 0
vn -0.707107 0 0.707107
v -6.12323e-17 0 0.5
vt 13.9194 0
v -6.12323e-17 0.2 0.5
vt 13.9194 7.87402
v -0.5 0.2 -3.06162e-17
vt -13.9194 7.87402
f 1/1/1 2/2/1 3/3/1 4/4/1 

v -0.275 0 -4.51195e-17
vt 10.8268 1.77636e-15
vn 0 -1 -0
vt 2.41072e-15 -19.685
vt 19.685 1.20536e-15
f 5/5/2 2/6/2 1/7/2

v -0.206655 0 0.0683452
vt 8.13601 -2.69076
f 2/6/2 5/5/2 6/8/2

vt 7.65568 2.40402e-15
vn 0.707107 3.14018e-16 -0.707107
v -0.275 0.2 -0
vt 7.65568 7.87402
v -0.206655 0.2 0.0683452
vt 3.85038 7.87402
vt 3.85038 2.40402e-15
f 5/9/3 7/10/3 8/11/3 6/12/3 

v -0.206655 0 -0.0683452
vt -3.85038 6.97942e-16
vn 0.707107 9.11665e-17 0.707107
v -0.206655 0.2 -0.0683452
vt -3.85038 7.87402
vt -7.65568 7.87402
vt -7.65568 6.97942e-16
f 9/13/4 10/14/4 7/15/4 5/16/4 

v -0.165 0 -0.0683452
vt -6.49606 7.58785e-17
vn 4.06191e-16 2.81997e-17 1
v -0.165 0.2 -0.0683452
vt -6.49606 7.87402
vt -8.13601 7.87402
vt -8.13601 7.58785e-17
f 11/17/5 12/18/5 10/19/5 9/20/5 

v -0.0683452 0 -0.165
vt 2.69076 0
vn 0.707107 0 0.707107
v -0.0683452 0.2 -0.165
vt 2.69076 7.87402
vt -2.69076 7.87402
vt -2.69076 0
f 13/21/6 14/22/6 12/23/6 11/24/6 

v -0.0683452 0 -0.206655
vt 8.13601 0
vn 1 0 -8.12382e-16
v -0.0683452 0.2 -0.206655
vt 8.13601 7.87402
vt 6.49606 7.87402
vt 6.49606 0
f 15/25/7 16/26/7 14/27/7 13/28/7 

v 1.35358e-16 0 -0.275
vt 7.65568 8.5304e-16
vn 0.707107 1.11426e-16 0.707107
v 6.76792e-17 0.2 -0.275
vt 3.85038 8.5304e-16
f 17/29/8 18/10/8 16/11/8 15/30/8 

v 0.0683452 0 -0.206655
vt -3.85038 -8.5304e-16
vn -0.707107 -1.11426e-16 0.707107
v 0.0683452 0.2 -0.206655
vt -7.65568 -8.5304e-16
f 19/31/9 20/14/9 18/15/9 17/32/9 

v 0.0683452 0 -0.165
vt -6.49606 0
vn -1 0 -0
v 0.0683452 0.2 -0.165
vt -8.13601 0
f 21/33/10 22/18/10 20/19/10 19/34/10 

v 0.165 0 -0.0683452
vt 2.69076 -5.26421e-16
vn -0.707107 -8.10369e-17 0.707107
v 0.165 0.2 -0.0683452
vt -2.69076 -5.26421e-16
f 23/35/11 24/22/11 22/23/11 21/36/11 

v 0.206655 0 -0.0683452
vt 8.13601 7.58785e-17
v 0.206655 0.2 -0.0683452
vt 6.49606 7.58785e-17
f 25/37/5 26/26/5 24/27/5 23/38/5 

v 0.275 0 4.51195e-17
vt 7.65568 -1.93873e-15
vn -0.707107 -2.5324e-16 0.707107
v 0.275 0.2 4.51195e-17
vt 3.85038 -1.93873e-15
f 27/39/12 28/10/12 26/11/12 25/40/12 

v 0.206655 0 0.0683452
vt -3.85038 -1.62853e-15
vn -0.707107 -2.12722e-16 -0.707107
v 0.206655 0.2 0.0683452
vt -7.65568 -1.62853e-15
f 29/41/13 30/14/13 28/15/13 27/42/13 

v 0.165 0 0.0683452
vn -1.35397e-16 2.81997e-17 -1
v 0.165 0.2 0.0683452
f 31/17/14 32/18/14 30/19/14 29/20/14 

v 0.0683452 0 0.165
vt 2.69076 1.18445e-15
vn -0.707107 1.82333e-16 -0.707107
v 0.0683452 0.2 0.165
vt -2.69076 1.18445e-15
f 33/43/15 34/22/15 32/23/15 31/44/15 

v 0.0683452 0 0.206655
vt 8.13601 6.82906e-16
vn -1 2.53797e-16 -4.06191e-16
v 0.0683452 0.2 0.206655
vt 6.49606 6.82906e-16
f 35/45/16 36/26/16 34/27/16 33/46/16 

v 7.08417e-33 0 0.275
vt 7.65568 2.63667e-15
vn -0.707107 3.44407e-16 -0.707107
v 4.51195e-17 0.2 0.275
vt 3.85038 2.63667e-15
f 37/47/17 38/10/17 36/11/17 35/48/17 

v -0.0683452 0 0.206655
vt -3.85038 1.55098e-16
vn 0.707107 2.02592e-17 -0.707107
v -0.0683452 0.2 0.206655
vt -7.65568 1.55098e-16
f 39/49/18 40/14/18 38/15/18 37/50/18 

vn 1 2.81997e-17 -9.4778e-16
v -0.0683452 0 0.165
v -0.0683452 0.2 0.165
f 40/19/19 39/20/19 41/17/19 42/18/19 

vt 2.69076 -8.13601
v -0.165 0 0.0683452
vt 6.49606 -2.69076
vt 2.69076 -6.49606
f 39/51/2 43/52/2 41/53/2

f 2/6/2 43/52/2 39/51/2

f 2/6/2 6/8/2 43/52/2

vn 2.16635e-15 0 -1
v -0.165 0.2 0.0683452
f 6/25/20 8/26/20 44/27/20 43/28/20 

vt -8.13601 -2.69076
vn 0 1 -0
vt -2.41072e-15 -19.685
vt -6.49606 -2.69076
f 8/54/21 3/55/21 44/56/21

vt -10.8268 0
f 7/57/21 3/55/21 8/54/21

vt -19.685 1.20536e-15
f 3/55/21 7/57/21 4/58/21

v 0 0.2 -0.5
vt 0 19.685
f 7/57/21 45/59/21 4/58/21

vt -8.13601 2.69076
f 45/59/21 7/57/21 10/60/21

vt -6.49606 2.69076
f 45/59/21 10/60/21 12/61/21

vt -2.69076 8.13601
f 45/59/21 12/61/21 16/62/21

vt -2.69076 6.49606
f 14/63/21 16/62/21 12/61/21

vt 2.66454e-15 10.8268
f 45/59/21 16/62/21 18/64/21

v 0.5 0.2 9.18485e-17
vt 19.685 -3.61608e-15
f 45/59/21 18/64/21 46/65/21

vt 2.69076 8.13601
f 46/65/21 18/64/21 20/66/21

vt 8.13601 2.69076
f 46/65/21 20/66/21 26/67/21

vt 6.49606 2.69076
f 26/67/21 20/66/21 24/68/21

vt 2.69076 6.49606
f 24/68/21 20/66/21 22/69/21

vt 10.8268 -1.77636e-15
f 46/65/21 26/67/21 28/70/21

f 30/8/21 46/65/21 28/70/21

f 34/53/21 46/65/21 30/8/21

f 36/51/21 46/65/21 34/53/21

vt 1.77636e-15 -10.8268
f 38/71/21 46/65/21 36/51/21

f 38/71/21 3/55/21 46/65/21

vt -2.69076 -8.13601
f 40/72/21 3/55/21 38/71/21

f 44/56/21 3/55/21 40/72/21

vt -2.69076 -6.49606
f 44/56/21 40/72/21 42/73/21

vn 0.707107 0 -0.707107
f 43/21/22 44/22/22 42/23/22 41/24/22 

v 0.5 0 9.18485e-17
f 2/1/6 47/2/6 46/3/6 3/4/6 

vt -2.78904e-31 -10.8268
vt -19.685 -3.61608e-15
f 2/6/2 37/74/2 47/75/2

f 2/6/2 39/51/2 37/74/2

f 47/75/2 37/74/2 35/72/2

f 47/75/2 35/72/2 33/73/2

f 47/75/2 33/73/2 29/54/2

f 29/54/2 33/73/2 31/56/2

vt -10.8268 -1.77636e-15
f 47/75/2 29/54/2 27/76/2

f 25/60/2 47/75/2 27/76/2

f 21/63/2 47/75/2 25/60/2

f 19/62/2 47/75/2 21/63/2

vt -5.32907e-15 10.8268
f 17/77/2 47/75/2 19/62/2

v 0 0 -0.5
f 17/77/2 48/59/2 47/75/2

f 15/66/2 48/59/2 17/77/2

f 11/68/2 48/59/2 15/66/2

f 9/67/2 48/59/2 11/68/2

f 5/5/2 48/59/2 9/67/2

f 48/59/2 5/5/2 1/7/2

vn -0.707107 0 -0.707107
f 48/1/23 1/2/23 4/3/23 45/4/23 

f 47/1/22 48/2/22 45/3/22 46/4/22 

f 13/69/2 11/68/2 15/66/2

f 21/63/2 25/60/2 23/61/2

f 34/53/21 30/8/21 32/52/21

