# Alias OBJ Model File
# Exported from SketchUp, (c) 2000-2012 Trimble Navigation Limited
# File units = meters

mtllib H-D.mtl

g Mesh1 Difference Model

usemtl FrontColor
v -0.44786 0 0.165794
vt 17.6323 -6.52732
vn 0 -1 -0
v -0.44786 0 0.209206
vt 17.6323 -8.23646
v -0.44976 0 0.1875
vt 17.7071 -7.38189
f 1/1/1 2/2/1 3/3/1

v -0.442221 0 0.144747
vt 17.4103 -5.69872
f 2/2/1 1/1/1 4/4/1

vt 10.0107 0
vn -0.939693 0 -0.34202
vt 10.8685 0
vn -0.984808 0 -0.173648
v -0.44786 0.2 0.165794
vt 10.8685 7.87402
v -0.442221 0.2 0.144747
vt 10.0107 7.87402
f 4/5/2 1/6/3 5/7/3 6/8/2 

vt 8.03924 0
vt 8.89707 0
vn -1 0 -0
v -0.44976 0.2 0.1875
vt 8.89707 7.87402
vt 8.03924 7.87402
f 1/9/3 3/10/4 7/11/4 5/12/3 

vt 5.81053 0
vt 6.66836 0
vn -0.984808 0 0.173648
v -0.44786 0.2 0.209206
vt 6.66836 7.87402
vt 5.81053 7.87402
f 3/13/4 2/14/5 8/15/5 7/16/4 

vt 3.39223 0
v -0.442221 0 0.230253
vt 4.25006 0
vn -0.939693 0 0.34202
v -0.442221 0.2 0.230253
vt 4.25006 7.87402
vt 3.39223 7.87402
f 2/17/5 9/18/6 10/19/6 8/20/5 

vt 17.4103 -9.06506
f 2/2/1 4/4/1 9/21/1

v -0.433013 0 0.25
vt 17.0477 -9.84252
f 9/21/1 4/4/1 11/22/1

v -0.433013 0 0.125
vt 17.0477 -4.92126
f 11/22/1 4/4/1 12/23/1

vt 11.6649 0
vn -0.906308 0 -0.422618
vt 12.5227 0
vt 12.5227 7.87402
v -0.433013 0.2 0.125
vt 11.6649 7.87402
f 12/24/7 4/25/2 6/26/2 13/27/7 

vt -17.4103 -5.69872
vn 5.04098e-32 1 3.81361e-32
v -0.433013 0.2 0.25
vt -17.0477 -9.84252
vt -17.0477 -4.92126
f 6/28/8 14/29/8 13/30/8

vt -17.4103 -9.06506
f 6/28/8 10/31/8 14/29/8

vt -17.6323 -6.52732
f 5/32/8 10/31/8 6/28/8

vt -17.6323 -8.23646
f 5/32/8 8/33/8 10/31/8

vt -17.7071 -7.38189
f 8/33/8 5/32/8 7/34/8

vt 0.857832 0
vt 1.71566 0
vn -0.866025 0 0.5
vt 1.71566 7.87402
vt 0.857832 7.87402
f 9/35/6 11/36/9 14/37/9 10/38/6 

vt -1.71566 0
v -0.420515 0 0.267848
vt -0.857832 0
vn -0.766044 0 0.642788
v -0.420515 0.2 0.267848
vt -0.857832 7.87402
vt -1.71566 7.87402
f 11/39/9 15/40/10 16/41/10 14/42/9 

vt 16.5557 -10.5452
f 11/22/1 12/23/1 15/43/1

v -0.3 0 -3.67394e-17
vt 11.811 1.44643e-15
f 15/43/1 12/23/1 17/44/1

vt 8.60687 0
vn -0.684817 0 -0.728715
vt 15.7931 0
vt 15.7931 7.87402
v -0.3 0.2 -3.67394e-17
vt 8.60687 7.87402
f 17/45/11 12/46/11 13/47/11 18/48/11 

vt -16.5557 -10.5452
vt -11.811 1.44643e-15
f 13/30/8 16/49/8 18/50/8

f 13/30/8 14/29/8 16/49/8

v -0.405108 0.2 0.283256
vt -15.9491 -11.1518
f 18/50/8 16/49/8 19/51/8

vt -4.25006 0
v -0.405108 0 0.283256
vt -3.39223 0
vn -0.642788 0 0.766044
vt -3.39223 7.87402
vt -4.25006 7.87402
f 15/52/10 20/53/12 19/54/12 16/55/10 

vt 15.9491 -11.1518
f 15/43/1 17/44/1 20/56/1

v -0.38726 0 0.295753
vt 15.2464 -11.6438
f 20/56/1 17/44/1 21/57/1

v -0.367512 0 0.304962
vt 14.469 -12.0064
f 21/57/1 17/44/1 22/58/1

v -0.346466 0 0.310601
vt 13.6404 -12.2284
f 22/58/1 17/44/1 23/59/1

v -0.32476 0 0.3125
vt 12.7858 -12.3031
f 23/59/1 17/44/1 24/60/1

v -0.15 0 0.259808
vt 5.90551 -10.2286
f 24/60/1 17/44/1 25/61/1

v -0.275 0 -0
vt 10.8268 0
f 25/61/1 17/44/1 26/62/1

v -0.15 0 -0.259808
vt 5.90551 10.2286
f 17/44/1 27/63/1 26/62/1

v -0.32476 0 -0.3125
vt 12.7858 12.3031
f 17/44/1 28/64/1 27/63/1

v -0.346466 0 -0.310601
vt 13.6404 12.2284
f 17/44/1 29/65/1 28/64/1

v -0.367512 0 -0.304962
vt 14.469 12.0064
f 17/44/1 30/66/1 29/65/1

v -0.38726 0 -0.295753
vt 15.2464 11.6438
f 17/44/1 31/67/1 30/66/1

v -0.405108 0 -0.283256
vt 15.9491 11.1518
f 17/44/1 32/68/1 31/67/1

v -0.420515 0 -0.267848
vt 16.5557 10.5452
f 17/44/1 33/69/1 32/68/1

v -0.433013 0 -0.125
vt 17.0477 4.92126
f 34/70/1 33/69/1 17/44/1

v -0.433013 0 -0.25
vt 17.0477 9.84252
f 34/70/1 35/71/1 33/69/1

v -0.442221 0 -0.144747
vt 17.4103 5.69872
f 36/72/1 35/71/1 34/70/1

v -0.442221 0 -0.230253
vt 17.4103 9.06506
f 36/72/1 37/73/1 35/71/1

v -0.44786 0 -0.165794
vt 17.6323 6.52732
f 38/74/1 37/73/1 36/72/1

v -0.44786 0 -0.209206
vt 17.6323 8.23646
f 38/74/1 39/75/1 37/73/1

v -0.44976 0 -0.1875
vt 17.7071 7.38189
f 39/75/1 38/74/1 40/76/1

vt -8.89707 0
vn -1 0 9.05502e-17
vt -8.03924 0
v -0.44786 0.2 -0.165794
vt -8.03924 7.87402
v -0.44976 0.2 -0.1875
vt -8.89707 7.87402
f 40/77/13 38/78/5 41/79/5 42/80/13 

vt -10.8685 0
vt -10.0107 0
v -0.442221 0.2 -0.144747
vt -10.0107 7.87402
vt -10.8685 7.87402
f 38/81/5 36/82/6 43/83/6 41/84/5 

vt -12.5227 0
vt -11.6649 0
vn -0.906308 0 0.422618
v -0.433013 0.2 -0.125
vt -11.6649 7.87402
vt -12.5227 7.87402
f 36/85/6 34/86/14 44/87/14 43/88/6 

vt -15.7931 0
vn -0.684817 0 0.728715
vt -8.60687 0
vt -8.60687 7.87402
vt -15.7931 7.87402
f 34/89/15 17/90/15 18/91/15 44/92/15 

v -0.433013 0.2 -0.25
vt -17.0477 9.84252
vt -17.0477 4.92126
f 45/93/8 44/94/8 18/50/8

v -0.442221 0.2 -0.230253
vt -17.4103 9.06506
f 46/95/8 44/94/8 45/93/8

vt -17.4103 5.69872
f 46/95/8 43/96/8 44/94/8

v -0.44786 0.2 -0.209206
vt -17.6323 8.23646
f 47/97/8 43/96/8 46/95/8

vt -17.6323 6.52732
f 47/97/8 41/98/8 43/96/8

vt -17.7071 7.38189
f 41/98/8 47/97/8 42/99/8

vt -6.66836 0
vt -5.81053 0
vt -5.81053 7.87402
vt -6.66836 7.87402
f 39/100/3 40/101/13 42/102/13 47/103/3 

f 37/52/2 39/53/3 47/54/3 46/55/2 

vn -0.866025 0 -0.5
f 35/39/16 37/40/2 46/41/2 45/42/16 

vn -0.766044 0 -0.642788
v -0.420515 0.2 -0.267848
f 33/35/17 35/36/16 45/37/16 48/38/17 

vt -16.5557 10.5452
f 45/93/8 18/50/8 48/104/8

v -0.405108 0.2 -0.283256
vt -15.9491 11.1518
f 48/104/8 18/50/8 49/105/8

v -0.38726 0.2 -0.295753
vt -15.2464 11.6438
f 49/105/8 18/50/8 50/106/8

v -0.367512 0.2 -0.304962
vt -14.469 12.0064
f 50/106/8 18/50/8 51/107/8

v -0.346466 0.2 -0.310601
vt -13.6404 12.2284
f 51/107/8 18/50/8 52/108/8

v -0.32476 0.2 -0.3125
vt -12.7858 12.3031
f 52/108/8 18/50/8 53/109/8

v -0.15 0.2 -0.259808
vt -5.90551 10.2286
f 53/109/8 18/50/8 54/110/8

v -0.275 0.2 -9.02389e-17
vt -10.8268 3.55271e-15
f 54/110/8 18/50/8 55/111/8

v -0.15 0.2 0.259808
vt -5.90551 -10.2286
f 18/50/8 56/112/8 55/111/8

v -0.32476 0.2 0.3125
vt -12.7858 -12.3031
f 18/50/8 57/113/8 56/112/8

v -0.346466 0.2 0.310601
vt -13.6404 -12.2284
f 18/50/8 58/114/8 57/113/8

v -0.367512 0.2 0.304962
vt -14.469 -12.0064
f 18/50/8 59/115/8 58/114/8

v -0.38726 0.2 0.295753
vt -15.2464 -11.6438
f 18/50/8 60/116/8 59/115/8

f 18/50/8 19/51/8 60/116/8

vn -0.5 0 0.866025
f 20/100/12 21/101/18 60/102/18 19/103/12 

vn -0.34202 0 0.939693
f 21/77/18 22/78/19 59/79/19 60/80/18 

vn -0.173648 0 0.984808
f 22/81/19 23/82/20 58/83/20 59/84/19 

vn -0.0871557 0 0.996195
f 23/85/20 24/86/21 57/87/21 58/88/20 

vn 0.288677 0 0.957427
f 24/89/22 25/90/22 56/91/22 57/92/22 

vn -0.973494 0 0.228712
v -0.108253 0 0.4375
v -0.108253 0.2 0.4375
f 25/45/23 61/46/23 62/47/23 56/48/23 

v -0.0683452 0 0.165
vt 2.69076 -6.49606
vt 4.26194 -17.2244
f 25/61/1 63/117/1 61/118/1

v -0.165 0 0.0683452
vt 6.49606 -2.69076
f 25/61/1 64/119/1 63/117/1

v -0.206655 0 0.0683452
vt 8.13601 -2.69076
f 25/61/1 65/120/1 64/119/1

f 25/61/1 26/62/1 65/120/1

vt 7.65568 -3.64481e-15
vn 0.707107 -4.76092e-16 -0.707107
vt 7.65568 7.87402
v -0.206655 0.2 0.0683452
vt 3.85038 7.87402
vt 3.85038 -3.64481e-15
f 26/121/24 55/122/24 66/123/24 65/124/24 

v -0.206655 0 -0.0683452
vt -3.85038 -1.16324e-15
vn 0.707107 -1.51944e-16 0.707107
v -0.206655 0.2 -0.0683452
vt -3.85038 7.87402
vt -7.65568 7.87402
vt -7.65568 -1.16324e-15
f 67/125/25 68/126/25 55/127/25 26/128/25 

v -0.165 0 -0.0683452
vt -6.49606 -8.35048e-32
vn 5.41588e-16 -3.10339e-32 1
v -0.165 0.2 -0.0683452
vt -6.49606 7.87402
vt -8.13601 7.87402
vt -8.13601 -8.35048e-32
f 69/129/26 70/130/26 68/131/26 67/132/26 

v -0.0683452 0 -0.165
vt 2.69076 -3.94815e-16
vn 0.707107 -6.07777e-17 0.707107
v -0.0683452 0.2 -0.165
vt 2.69076 7.87402
vt -2.69076 7.87402
vt -2.69076 -3.94815e-16
f 71/133/27 72/134/27 70/135/27 69/136/27 

v -0.0683452 0 -0.206655
vt 8.13601 -7.58785e-17
vn 1 -2.81997e-17 1.35397e-16
v -0.0683452 0.2 -0.206655
vt 8.13601 7.87402
vt 6.49606 7.87402
vt 6.49606 -7.58785e-17
f 73/137/28 74/138/28 72/139/28 71/140/28 

v -1.12799e-16 0 -0.275
vt 7.65568 0
vn 0.707107 0 0.707107
v -1.12799e-16 0.2 -0.275
vt 3.85038 0
f 75/141/29 76/122/29 74/123/29 73/142/29 

v 0.0683452 0 -0.206655
vt -3.85038 0
vn -0.707107 0 0.707107
v 0.0683452 0.2 -0.206655
vt -7.65568 0
f 77/143/30 78/126/30 76/127/30 75/144/30 

v 0.0683452 0 -0.165
vt -6.49606 0
v 0.0683452 0.2 -0.165
vt -8.13601 0
f 79/145/4 80/130/4 78/131/4 77/146/4 

v 0.165 0 -0.0683452
vt 2.69076 3.2289e-32
vn -0.707107 4.97054e-33 0.707107
v 0.165 0.2 -0.0683452
vt -2.69076 3.2289e-32
f 81/147/31 82/134/31 80/135/31 79/148/31 

v 0.206655 0 -0.0683452
vt 8.13601 2.27635e-16
vn 4.06191e-16 8.4599e-17 1
v 0.206655 0.2 -0.0683452
vt 6.49606 2.27635e-16
f 83/149/32 84/138/32 82/139/32 81/150/32 

v 0.275 0 -0
vt 7.65568 7.75491e-16
vn -0.707107 1.01296e-16 0.707107
v 0.275 0.2 -0
vt 3.85038 7.75491e-16
f 85/151/33 86/122/33 84/123/33 83/152/33 

v 0.206655 0 0.0683452
vt -3.85038 -5.42844e-16
vn -0.707107 -7.09073e-17 -0.707107
v 0.206655 0.2 0.0683452
vt -7.65568 -5.42844e-16
f 87/153/34 88/126/34 86/127/34 85/154/34 

v 0.165 0 0.0683452
vt -6.49606 1.51757e-16
vn -1.35397e-15 5.63993e-17 -1
v 0.165 0.2 0.0683452
vt -8.13601 1.51757e-16
f 89/155/35 90/130/35 88/131/35 87/156/35 

v 0.0683452 0 0.165
vt 2.69076 -1.31605e-16
vn -0.707107 -2.02592e-17 -0.707107
v 0.0683452 0.2 0.165
vt -2.69076 -1.31605e-16
f 91/157/36 92/134/36 90/135/36 89/158/36 

v 0.0683452 0 0.206655
vn -1 -2.81997e-17 1.35397e-16
v 0.0683452 0.2 0.206655
f 93/137/37 94/138/37 92/139/37 91/140/37 

v -1.35358e-16 0 0.275
vn -0.707107 0 -0.707107
v -1.35358e-16 0.2 0.275
f 95/141/38 96/122/38 94/123/38 93/142/38 

v -0.0683452 0 0.206655
vt -3.85038 4.65294e-16
vn 0.707107 6.07777e-17 -0.707107
v -0.0683452 0.2 0.206655
vt -7.65568 4.65294e-16
f 97/159/39 98/126/39 96/127/39 95/160/39 

vt -6.49606 2.27635e-16
vn 1 8.4599e-17 6.76985e-16
v -0.0683452 0.2 0.165
vt -8.13601 2.27635e-16
f 63/161/40 99/130/40 98/131/40 97/162/40 

vt 2.69076 -7.89631e-16
vn 0.707107 -1.21555e-16 -0.707107
v -0.165 0.2 0.0683452
vt -2.69076 -7.89631e-16
f 64/163/41 100/134/41 99/135/41 63/164/41 

vt 8.13601 -1.51757e-16
vn 2.43715e-15 -5.63993e-17 -1
vt 6.49606 -1.51757e-16
f 65/165/42 66/138/42 100/139/42 64/166/42 

vt -8.13601 -2.69076
vt -6.49606 -2.69076
f 66/167/8 56/112/8 100/168/8

f 55/111/8 56/112/8 66/167/8

vt -2.69076 -6.49606
f 100/168/8 56/112/8 99/169/8

vt -4.26194 -17.2244
f 99/169/8 56/112/8 62/170/8

v -0.0957556 0.2 0.455348
vt -3.7699 -17.9271
f 99/169/8 62/170/8 101/171/8

vn -0.819152 0 0.573576
v -0.0957556 0 0.455348
f 61/24/43 102/25/10 101/26/10 62/27/43 

vt 3.7699 -17.9271
f 61/118/1 63/117/1 102/172/1

v -0.0803485 0 0.470756
vt 3.16332 -18.5337
f 102/172/1 63/117/1 103/173/1

vt 2.69076 -8.13601
f 103/173/1 63/117/1 97/174/1

v -0.0625 0 0.483253
vt 2.46063 -19.0257
f 97/174/1 104/175/1 103/173/1

vt 5.32907e-15 -10.8268
f 104/175/1 97/174/1 95/176/1

v -0.0427525 0 0.492462
vt 1.68317 -19.3883
f 104/175/1 95/176/1 105/177/1

v -0.021706 0 0.498101
vt 0.854568 -19.6103
f 105/177/1 95/176/1 106/178/1

v -6.12323e-17 0 0.5
vt 2.41072e-15 -19.685
f 106/178/1 95/176/1 107/179/1

vt -2.69076 -8.13601
f 107/179/1 95/176/1 93/180/1

v 0.021706 0 0.498101
vt -0.854568 -19.6103
f 107/179/1 93/180/1 108/181/1

v 0.0427525 0 0.492462
vt -1.68317 -19.3883
f 108/181/1 93/180/1 109/182/1

v 0.0625 0 0.483253
vt -2.46063 -19.0257
f 109/182/1 93/180/1 110/183/1

v 0.0803485 0 0.470756
vt -3.16332 -18.5337
f 110/183/1 93/180/1 111/184/1

f 93/180/1 89/168/1 111/184/1

f 89/168/1 93/180/1 91/169/1

v 0.0957556 0 0.455348
f 111/184/1 89/168/1 112/171/1

v 0.108253 0 0.4375
f 112/171/1 89/168/1 113/170/1

v 0.15 0 0.259808
f 113/170/1 89/168/1 114/112/1

v 0.32476 0 0.3125
f 114/112/1 89/168/1 115/113/1

f 115/113/1 89/168/1 87/167/1

vt -10.8268 0
f 115/113/1 87/167/1 85/185/1

v 0.3 0 -0
vt -11.811 0
f 115/113/1 85/185/1 116/186/1

v 0.32476 0 -0.3125
f 85/185/1 117/109/1 116/186/1

vt -8.13601 2.69076
f 83/187/1 117/109/1 85/185/1

vt -6.49606 2.69076
f 81/188/1 117/109/1 83/187/1

v 0.15 0 -0.259808
f 81/188/1 118/110/1 117/109/1

v 0.108253 0 -0.4375
vt -4.26194 17.2244
f 81/188/1 119/189/1 118/110/1

v 0.0957556 0 -0.455348
vt -3.7699 17.9271
f 81/188/1 120/190/1 119/189/1

v 0.0803485 0 -0.470756
vt -3.16332 18.5337
f 81/188/1 121/191/1 120/190/1

vt -2.69076 6.49606
f 79/192/1 121/191/1 81/188/1

vt -2.69076 8.13601
f 77/193/1 121/191/1 79/192/1

v 0.0625 0 -0.483253
vt -2.46063 19.0257
f 77/193/1 122/194/1 121/191/1

v 0.0427525 0 -0.492462
vt -1.68317 19.3883
f 77/193/1 123/195/1 122/194/1

v 0.021706 0 -0.498101
vt -0.854568 19.6103
f 77/193/1 124/196/1 123/195/1

v 0 0 -0.5
vt 0 19.685
f 77/193/1 125/197/1 124/196/1

vt 4.44089e-15 10.8268
f 75/198/1 125/197/1 77/193/1

v -0.021706 0 -0.498101
vt 0.854568 19.6103
f 75/198/1 126/199/1 125/197/1

v -0.0427525 0 -0.492462
vt 1.68317 19.3883
f 75/198/1 127/200/1 126/199/1

v -0.0625 0 -0.483253
vt 2.46063 19.0257
f 75/198/1 128/201/1 127/200/1

vt 2.69076 8.13601
f 73/202/1 128/201/1 75/198/1

v -0.0803485 0 -0.470756
vt 3.16332 18.5337
f 73/202/1 129/203/1 128/201/1

vt 2.69076 6.49606
f 71/204/1 129/203/1 73/202/1

v -0.0957556 0 -0.455348
vt 3.7699 17.9271
f 71/204/1 130/205/1 129/203/1

v -0.108253 0 -0.4375
vt 4.26194 17.2244
f 71/204/1 131/206/1 130/205/1

f 71/204/1 27/63/1 131/206/1

vt 6.49606 2.69076
f 69/207/1 27/63/1 71/204/1

vt 8.13601 2.69076
f 67/208/1 27/63/1 69/207/1

f 26/62/1 27/63/1 67/208/1

vn -0.973494 0 -0.228712
v -0.108253 0.2 -0.4375
f 131/89/44 27/90/44 54/91/44 132/92/44 

vn 0.288677 0 -0.957427
f 27/45/45 28/46/45 53/47/45 54/48/45 

vn -0.0871557 0 -0.996195
vn -0.173648 0 -0.984808
f 28/24/46 29/25/47 52/26/47 53/27/46 

vn -0.34202 0 -0.939693
f 29/5/47 30/6/48 51/7/48 52/8/47 

vn -0.5 0 -0.866025
f 30/9/48 31/10/49 50/11/49 51/12/48 

vn -0.642788 0 -0.766044
f 31/13/49 32/14/50 49/15/50 50/16/49 

f 32/17/50 33/18/17 48/19/17 49/20/50 

f 54/110/8 72/192/8 132/189/8

f 54/110/8 70/188/8 72/192/8

f 54/110/8 68/187/8 70/188/8

f 54/110/8 55/111/8 68/187/8

v -0.0957556 0.2 -0.455348
f 132/189/8 72/192/8 133/190/8

v -0.0803485 0.2 -0.470756
f 133/190/8 72/192/8 134/191/8

f 134/191/8 72/192/8 74/193/8

v -0.0625 0.2 -0.483253
f 134/191/8 74/193/8 135/194/8

vt -4.44089e-15 10.8268
f 135/194/8 74/193/8 76/209/8

v -0.0427525 0.2 -0.492462
f 135/194/8 76/209/8 136/195/8

v -0.021706 0.2 -0.498101
f 136/195/8 76/209/8 137/196/8

v 0 0.2 -0.5
vt -3.96928e-31 19.685
f 137/196/8 76/209/8 138/210/8

f 138/210/8 76/209/8 78/202/8

v 0.021706 0.2 -0.498101
f 138/210/8 78/202/8 139/199/8

v 0.0427525 0.2 -0.492462
f 139/199/8 78/202/8 140/200/8

v 0.0625 0.2 -0.483253
f 140/200/8 78/202/8 141/201/8

v 0.0803485 0.2 -0.470756
f 141/201/8 78/202/8 142/203/8

f 78/202/8 82/207/8 142/203/8

f 82/207/8 78/202/8 80/204/8

v 0.0957556 0.2 -0.455348
f 142/203/8 82/207/8 143/205/8

v 0.108253 0.2 -0.4375
f 143/205/8 82/207/8 144/206/8

v 0.15 0.2 -0.259808
f 144/206/8 82/207/8 145/63/8

v 0.32476 0.2 -0.3125
f 145/63/8 82/207/8 146/64/8

f 146/64/8 82/207/8 84/208/8

vt 10.8268 3.00285e-31
f 146/64/8 84/208/8 86/211/8

v 0.3 0.2 -0
vt 11.811 3.00285e-31
f 146/64/8 86/211/8 147/212/8

v 0.32476 0.2 0.3125
f 86/211/8 148/60/8 147/212/8

f 88/120/8 148/60/8 86/211/8

f 90/119/8 148/60/8 88/120/8

v 0.15 0.2 0.259808
f 90/119/8 149/61/8 148/60/8

v 0.108253 0.2 0.4375
f 90/119/8 150/118/8 149/61/8

v 0.0957556 0.2 0.455348
f 90/119/8 151/172/8 150/118/8

v 0.0803485 0.2 0.470756
f 90/119/8 152/173/8 151/172/8

f 90/119/8 94/174/8 152/173/8

f 94/174/8 90/119/8 92/117/8

v 0.0625 0.2 0.483253
f 94/174/8 153/175/8 152/173/8

v 0.0427525 0.2 0.492462
f 94/174/8 154/177/8 153/175/8

v 0.021706 0.2 0.498101
f 94/174/8 155/178/8 154/177/8

v -6.12323e-17 0.2 0.5
vt -2.41072e-15 -19.685
f 94/174/8 156/213/8 155/178/8

vt -5.32907e-15 -10.8268
f 96/214/8 156/213/8 94/174/8

v -0.021706 0.2 0.498101
f 96/214/8 157/181/8 156/213/8

v -0.0427525 0.2 0.492462
f 96/214/8 158/182/8 157/181/8

v -0.0625 0.2 0.483253
f 96/214/8 159/183/8 158/182/8

f 98/180/8 159/183/8 96/214/8

v -0.0803485 0.2 0.470756
f 159/183/8 98/180/8 160/184/8

f 99/169/8 160/184/8 98/180/8

f 99/169/8 101/171/8 160/184/8

f 102/5/10 103/6/12 160/7/12 101/8/10 

f 103/9/12 104/10/18 159/11/18 160/12/12 

f 104/13/18 105/14/19 158/15/19 159/16/18 

f 105/17/19 106/18/20 157/19/20 158/20/19 

vn 1.39308e-17 0 1
f 106/35/20 107/36/51 156/37/51 157/38/20 

vn 0.173648 0 0.984808
f 107/39/51 108/40/52 155/41/52 156/42/51 

vn 0.34202 0 0.939693
f 108/52/52 109/53/53 154/54/53 155/55/52 

vn 0.5 0 0.866025
f 109/100/53 110/101/54 153/102/54 154/103/53 

vn 0.642788 0 0.766044
f 110/77/54 111/78/55 152/79/55 153/80/54 

vn 0.766044 0 0.642788
f 111/81/55 112/82/56 151/83/56 152/84/55 

vn 0.819152 0 0.573576
f 112/85/56 113/86/57 150/87/57 151/88/56 

vn 0.973494 0 0.228712
f 113/89/58 114/90/58 149/91/58 150/92/58 

vn -0.288677 0 0.957427
f 114/45/59 115/46/59 148/47/59 149/48/59 

vn 0.0871557 0 0.996195
v 0.346466 0 0.310601
v 0.346466 0.2 0.310601
f 115/24/60 161/25/52 162/26/52 148/27/60 

v 0.433013 0 0.125
f 115/113/1 163/30/1 161/114/1

f 115/113/1 116/186/1 163/30/1

vn 0.684817 0 -0.728715
v 0.433013 0.2 0.125
f 163/89/61 116/90/61 147/91/61 164/92/61 

vn 0.684817 0 0.728715
v 0.433013 0 -0.125
v 0.433013 0.2 -0.125
f 116/45/62 165/46/62 166/47/62 147/48/62 

f 116/186/1 117/109/1 165/94/1

v 0.346466 0 -0.310601
f 165/94/1 117/109/1 167/108/1

vn 0.173648 0 -0.984808
vn 0.0871557 0 -0.996195
v 0.346466 0.2 -0.310601
f 167/85/63 117/86/64 146/87/64 168/88/63 

vn -0.288677 0 -0.957427
f 117/89/65 118/90/65 145/91/65 146/92/65 

vn 0.973494 0 -0.228712
f 118/45/66 119/46/66 144/47/66 145/48/66 

vn 0.819152 0 -0.573576
vn 0.766044 0 -0.642788
f 119/24/67 120/25/68 143/26/68 144/27/67 

vn 0.642788 0 -0.766044
f 120/5/68 121/6/69 142/7/69 143/8/68 

vn 0.5 0 -0.866025
f 121/9/69 122/10/70 141/11/70 142/12/69 

vn 0.34202 0 -0.939693
f 122/13/70 123/14/71 140/15/71 141/16/70 

f 123/17/71 124/18/63 139/19/63 140/20/71 

vn 0 0 -1
f 124/35/63 125/36/72 138/37/72 139/38/63 

f 125/39/72 126/40/47 137/41/47 138/42/72 

f 126/52/47 127/53/48 136/54/48 137/55/47 

f 127/100/48 128/101/49 135/102/49 136/103/48 

f 128/77/49 129/78/50 134/79/50 135/80/49 

f 129/81/50 130/82/17 133/83/17 134/84/50 

vn -0.819152 0 -0.573576
f 130/85/17 131/86/73 132/87/73 133/88/17 

f 146/64/8 166/70/8 168/65/8

f 146/64/8 147/212/8 166/70/8

v 0.367512 0.2 -0.304962
f 168/65/8 166/70/8 169/66/8

v 0.38726 0.2 -0.295753
f 169/66/8 166/70/8 170/67/8

v 0.405108 0.2 -0.283256
f 170/67/8 166/70/8 171/68/8

v 0.420515 0.2 -0.267848
f 171/68/8 166/70/8 172/69/8

v 0.433013 0.2 -0.25
f 172/69/8 166/70/8 173/71/8

v 0.442221 0.2 -0.144747
f 173/71/8 166/70/8 174/72/8

vn 0.906308 0 0.422618
v 0.442221 0 -0.144747
vn 0.939693 0 0.34202
f 165/24/74 175/25/75 174/26/75 166/27/74 

v 0.433013 0 -0.25
f 165/94/1 176/93/1 175/96/1

v 0.420515 0 -0.267848
f 165/94/1 177/104/1 176/93/1

v 0.405108 0 -0.283256
f 165/94/1 178/105/1 177/104/1

v 0.38726 0 -0.295753
f 165/94/1 179/106/1 178/105/1

v 0.367512 0 -0.304962
f 165/94/1 180/107/1 179/106/1

f 165/94/1 167/108/1 180/107/1

f 180/81/71 167/82/63 168/83/63 169/84/71 

f 179/77/70 180/78/71 169/79/71 170/80/70 

f 178/100/69 179/101/70 170/102/70 171/103/69 

f 177/52/68 178/53/69 171/54/69 172/55/68 

vn 0.866025 0 -0.5
f 176/39/76 177/40/68 172/41/68 173/42/76 

v 0.442221 0 -0.230253
vn 0.939693 0 -0.34202
v 0.442221 0.2 -0.230253
f 181/35/77 176/36/76 173/37/76 182/38/77 

f 175/96/1 176/93/1 181/95/1

v 0.44786 0 -0.209206
f 175/96/1 181/95/1 183/97/1

vn 0.984808 0 -0.173648
v 0.44786 0.2 -0.209206
f 183/17/78 181/18/77 182/19/77 184/20/78 

v 0.44786 0.2 -0.165794
f 182/73/8 185/74/8 184/75/8

f 182/73/8 174/72/8 185/74/8

f 173/71/8 174/72/8 182/73/8

v 0.44786 0 -0.165794
vn 0.984808 0 0.173648
f 175/5/75 186/6/79 185/7/79 174/8/75 

f 175/96/1 183/97/1 186/98/1

v 0.44976 0 -0.1875
f 186/98/1 183/97/1 187/99/1

vn 1 0 4.17924e-17
v 0.44976 0.2 -0.1875
f 187/13/80 183/14/78 184/15/78 188/16/80 

f 184/75/8 185/74/8 188/76/8

f 186/9/79 187/10/80 188/11/80 185/12/79 

f 147/212/8 148/60/8 164/23/8

f 164/23/8 148/60/8 162/59/8

v 0.367512 0.2 0.304962
f 164/23/8 162/59/8 189/58/8

v 0.367512 0 0.304962
f 161/5/52 190/6/53 189/7/53 162/8/52 

f 161/114/1 163/30/1 190/115/1

v 0.38726 0 0.295753
f 190/115/1 163/30/1 191/116/1

v 0.405108 0 0.283256
f 191/116/1 163/30/1 192/51/1

v 0.420515 0 0.267848
f 192/51/1 163/30/1 193/49/1

v 0.433013 0 0.25
f 193/49/1 163/30/1 194/29/1

v 0.442221 0 0.230253
f 194/29/1 163/30/1 195/31/1

v 0.442221 0 0.144747
f 195/31/1 163/30/1 196/28/1

vn 0.906308 0 -0.422618
v 0.442221 0.2 0.144747
f 196/85/77 163/86/81 164/87/81 197/88/77 

v 0.442221 0.2 0.230253
f 164/23/8 198/21/8 197/4/8

v 0.433013 0.2 0.25
f 164/23/8 199/22/8 198/21/8

v 0.420515 0.2 0.267848
f 164/23/8 200/43/8 199/22/8

v 0.405108 0.2 0.283256
f 164/23/8 201/56/8 200/43/8

v 0.38726 0.2 0.295753
f 164/23/8 202/57/8 201/56/8

f 164/23/8 189/58/8 202/57/8

f 190/9/53 191/10/54 202/11/54 189/12/53 

f 191/13/54 192/14/55 201/15/55 202/16/54 

f 192/17/55 193/18/56 200/19/56 201/20/55 

vn 0.866025 0 0.5
f 193/35/56 194/36/82 199/37/82 200/38/56 

f 194/39/82 195/40/75 198/41/75 199/42/82 

v 0.44786 0 0.209206
v 0.44786 0.2 0.209206
f 195/52/75 203/53/79 204/54/79 198/55/75 

f 195/31/1 196/28/1 203/33/1

v 0.44786 0 0.165794
f 203/33/1 196/28/1 205/32/1

v 0.44786 0.2 0.165794
f 205/81/78 196/82/77 197/83/77 206/84/78 

f 197/4/8 204/2/8 206/1/8

f 197/4/8 198/21/8 204/2/8

v 0.44976 0.2 0.1875
f 206/1/8 204/2/8 207/3/8

v 0.44976 0 0.1875
f 203/100/79 208/101/80 207/102/80 204/103/79 

f 203/33/1 205/32/1 208/34/1

f 208/77/80 205/78/78 206/79/78 207/80/80 

