# Alias OBJ Model File
# Exported from SketchUp, (c) 2000-2012 Trimble Navigation Limited
# File units = meters

mtllib A_E.mtl

g Mesh1 Difference Model

usemtl Color_A03
v 0 0 -0.5
vt -16.8798 0
vn -0.857493 0 -0.514496
v -0.3 0 -0
vt 6.07672 0
v -0.3 0.2 -0
vt 6.07672 7.87402
v 0 0.2 -0.5
vt -16.8798 7.87402
f 1/1/1 2/2/1 3/3/1 4/4/1 

vt 0 19.685
vn 0 -1 -0
v -0.235386 0 -0.0764817
vt 9.26718 3.01109
vt 11.811 0
f 1/5/2 5/6/2 2/7/2

v -0.20916 0 -0.0765328
vt 8.23463 3.0131
f 5/6/2 1/5/2 6/8/2

v -0.183109 0 -0.079564
vt 7.209 3.13244
f 6/8/2 1/5/2 7/9/2

v -0.157571 0 -0.085536
vt 6.20357 3.36756
f 7/9/2 1/5/2 8/10/2

v -0.132877 0 -0.0943714
vt 5.23137 3.71541
f 8/10/2 1/5/2 9/11/2

v -0.109347 0 -0.105956
vt 4.305 4.17149
f 9/11/2 1/5/2 10/12/2

v -0.0872861 0 -0.120139
vt 3.43646 4.72988
f 10/12/2 1/5/2 11/13/2

v -0.0669799 0 -0.136737
vt 2.637 5.38336
f 11/13/2 1/5/2 12/14/2

v -0.0486914 0 -0.155536
vt 1.91698 6.12346
f 12/14/2 1/5/2 13/15/2

v -0.0326576 0 -0.176291
vt 1.28573 6.94058
f 13/15/2 1/5/2 14/16/2

v -0.0190862 0 -0.198733
vt 0.751427 7.82414
f 14/16/2 1/5/2 15/17/2

v -0.00815316 0 -0.222573
vt 0.320991 8.7627
f 15/17/2 1/5/2 16/18/2

v -5.63993e-17 0 -0.2475
vt 2.22045e-15 9.74409
f 16/18/2 1/5/2 17/19/2

v 0.00815316 0 -0.222573
vt -0.320991 8.7627
f 17/19/2 1/5/2 18/20/2

v 0.235386 0 -0.0764817
vt -9.26718 3.01109
f 18/20/2 1/5/2 19/21/2

v 0.3 0 -0
vt -11.811 0
f 19/21/2 1/5/2 20/22/2

vt -6.07672 0
vn 0.857493 0 -0.514496
vt 16.8798 0
vt 16.8798 7.87402
v 0.3 0.2 -0
vt -6.07672 7.87402
f 20/23/3 1/24/3 4/25/3 21/26/3 

vn 0 1 -0
v 0.235386 0.2 -0.0764817
f 4/5/4 22/6/4 21/7/4

v 0.00815316 0.2 -0.222573
f 4/5/4 23/18/4 22/6/4

v -5.63993e-17 0.2 -0.2475
vt -2.22045e-15 9.74409
f 4/5/4 24/27/4 23/18/4

v -0.00815316 0.2 -0.222573
f 4/5/4 25/20/4 24/27/4

v -0.0190862 0.2 -0.198733
vt -0.751427 7.82414
f 4/5/4 26/28/4 25/20/4

v -0.0326576 0.2 -0.176291
vt -1.28573 6.94058
f 4/5/4 27/29/4 26/28/4

v -0.0486914 0.2 -0.155536
vt -1.91698 6.12346
f 4/5/4 28/30/4 27/29/4

v -0.0669799 0.2 -0.136737
vt -2.637 5.38336
f 4/5/4 29/31/4 28/30/4

v -0.0872861 0.2 -0.120139
vt -3.43646 4.72988
f 4/5/4 30/32/4 29/31/4

v -0.109347 0.2 -0.105956
vt -4.305 4.17149
f 4/5/4 31/33/4 30/32/4

v -0.132877 0.2 -0.0943714
vt -5.23137 3.71541
f 4/5/4 32/34/4 31/33/4

v -0.157571 0.2 -0.085536
vt -6.20357 3.36756
f 4/5/4 33/35/4 32/34/4

v -0.183109 0.2 -0.079564
vt -7.209 3.13244
f 4/5/4 34/36/4 33/35/4

v -0.20916 0.2 -0.0765328
vt -8.23463 3.0131
f 4/5/4 35/37/4 34/36/4

v -0.235386 0.2 -0.0764817
f 4/5/4 36/21/4 35/37/4

f 36/21/4 4/5/4 3/22/4

v -0.145477 0.2 0.200232
vt -5.72744 -7.88314
f 3/22/4 37/38/4 36/21/4

v -6.12323e-17 0.2 0.5
vt -2.41072e-15 -19.685
f 37/38/4 3/22/4 38/39/4

vn -0.857493 0 0.514496
v -6.12323e-17 0 0.5
f 2/23/5 39/24/5 38/25/5 3/26/5 

v -0.145477 0 0.200232
vt 5.72744 -7.88314
vt 2.41072e-15 -19.685
f 2/7/2 40/40/2 39/41/2

f 40/40/2 2/7/2 5/6/2

v -0.214199 0 -0.0610246
vt 8.43302 2.40254
f 40/40/2 5/6/2 41/42/2

v -0.214199 0.2 -0.0610246
vt 8.22874 7.87402
vn 0.634384 -5.76206e-17 -0.773018
vt 8.22874 -3.41802e-16
vt 9.2613 -3.41802e-16
vn 0.589361 -1.12838e-16 -0.80787
vt 9.2613 7.87402
f 42/43/6 41/44/6 5/45/7 36/46/7 

v -0.194904 0.2 -0.0432598
vt 6.79865 7.87402
vn 0.718119 9.45182e-17 -0.69592
v -0.194904 0 -0.0432598
vt 6.79865 -8.74523e-18
vt 7.83121 -8.74523e-18
vt 7.83121 7.87402
f 43/47/8 44/48/8 41/49/6 42/50/6 

v -0.177754 0.2 -0.0234176
vt 5.27379 7.87402
vn 0.792551 1.95518e-16 -0.609805
v -0.177754 0 -0.0234176
vt 5.27379 8.95862e-16
vt 6.30635 8.95862e-16
vt 6.30635 7.87402
f 45/51/9 46/52/9 44/53/8 43/54/8 

v -0.16297 0.2 -0.00175495
vt 3.67392 7.87402
vn 0.856715 1.64923e-16 -0.51579
v -0.16297 0 -0.00175495
vt 3.67392 1.04926e-15
vt 4.70647 1.04926e-15
vt 4.70647 7.87402
f 47/55/10 48/56/10 46/57/9 45/58/9 

v -0.150743 0.2 0.0214475
vt 2.01975 7.87402
vn 0.909779 9.66103e-17 -0.415093
v -0.150743 0 0.0214475
vt 2.01975 7.32912e-16
vt 3.05231 7.32912e-16
vt 3.05231 7.87402
f 49/59/11 50/60/11 48/61/10 47/62/10 

v -0.141232 0.2 0.045889
vt 0.332733 7.87402
vn 0.931928 6.30511e-17 -0.362643
v -0.141232 0 0.045889
vt 0.332733 3.68028e-16
vt 1.36529 3.68028e-16
vt 1.36529 7.87402
f 51/63/12 52/64/12 50/65/11 49/66/11 

v -0.13456 0.2 0.0712531
vt -1.36529 7.87402
vn 0.980012 -1.95939e-16 -0.198938
v -0.13456 0 0.0712531
vt -1.36529 -1.30608e-15
vt -0.332733 -1.30608e-15
vn 0.967102 -2.2376e-16 -0.25439
vt -0.332733 7.87402
f 53/67/13 54/68/13 52/69/14 51/70/14 

v -0.130814 0.2 0.097211
vt -3.05231 7.87402
vn 0.996271 -2.82493e-17 -0.0862813
v -0.130814 0 0.097211
vt -3.05231 -9.45282e-16
vt -2.01975 -9.45282e-16
vt -2.01975 7.87402
f 55/71/15 56/72/15 54/73/13 53/74/13 

v -0.130042 0.2 0.123427
vt -4.70647 7.87402
vn 0.999622 1.14346e-16 0.0274931
v -0.130042 0 0.123427
vt -4.70647 5.8433e-16
vt -3.67392 5.8433e-16
vt -3.67392 7.87402
f 57/75/16 58/76/16 56/77/15 55/78/15 

v -0.132254 0.2 0.14956
vt -6.30635 7.87402
vn 0.990022 5.8717e-17 0.140911
v -0.132254 0 0.14956
vt -6.30635 5.50069e-16
vt -5.27379 5.50069e-16
vt -5.27379 7.87402
f 59/79/17 60/80/17 58/81/16 57/82/16 

v -0.137421 0.2 0.175273
vt -7.83121 7.87402
vn 0.967596 0 0.252504
v -0.137421 0 0.175273
vt -7.83121 0
vt -6.79865 0
vt -6.79865 7.87402
f 61/83/18 62/84/18 60/85/17 59/86/17 

vt -9.2613 7.87402
vn 0.951657 0 0.307162
vt -9.2613 0
vt -8.22874 0
vt -8.22874 7.87402
f 37/87/19 40/88/19 62/89/18 61/90/18 

v -0.124229 0.2 0.184857
vn -0.539149 3.10669e-17 -0.84221
v -0.124229 0 0.184857
vt 8.22874 1.40624e-16
vt 9.2613 1.40624e-16
vn -0.586207 4.64236e-17 -0.810161
f 63/43/20 64/91/20 40/92/21 37/46/21 

v -0.101371 0.2 0.171997
vn -0.439948 -6.43035e-17 -0.898023
v -0.101371 0 0.171997
vt 6.79865 6.15734e-17
vt 7.83121 6.15734e-17
f 65/47/22 66/93/22 64/94/20 63/50/20 

v -0.0772005 0.2 0.161818
vn -0.335048 -1.26344e-16 -0.942201
v -0.0772005 0 0.161818
vt 5.27379 -6.75639e-16
vt 6.30635 -6.75639e-16
f 67/51/23 68/95/23 66/96/22 65/54/22 

v -0.0520295 0.2 0.154451
vn -0.225806 -5.42235e-17 -0.974172
v -0.0520295 0 0.154451
vt 3.67392 -5.69571e-16
vt 4.70647 -5.69571e-16
f 69/55/24 70/97/24 68/98/23 67/58/23 

v -0.0261844 0.2 0.149993
vn -0.113639 0 -0.993522
v -0.0261844 0 0.149993
vt 2.01975 0
vt 3.05231 0
f 71/59/25 72/99/25 70/100/24 69/62/24 

v 0 0.2 0.1485
vn -0.0569119 0 -0.998379
v 0 0 0.1485
vt 0.332733 0
vt 1.36529 0
f 73/63/26 74/101/26 72/102/25 71/66/25 

v 0.0261844 0.2 0.149993
vn 0.113639 3.0277e-17 -0.993522
v 0.0261844 0 0.149993
vt -1.36529 0
vt -0.332733 0
vn 0.0569119 0 -0.998379
f 75/67/27 76/103/27 74/104/28 73/70/28 

v 0.0520295 0.2 0.154451
vn 0.225806 9.17004e-17 -0.974172
v 0.0520295 0 0.154451
vt -3.05231 3.41215e-16
vt -2.01975 3.41215e-16
f 77/71/29 78/105/29 76/106/27 75/74/27 

v 0.0772005 0.2 0.161818
vn 0.335048 9.34401e-17 -0.942201
v 0.0772005 0 0.161818
vt -4.70647 6.452e-16
vt -3.67392 6.452e-16
f 79/75/30 80/107/30 78/108/29 77/78/29 

v 0.101371 0.2 0.171997
vn 0.439948 3.20168e-17 -0.898023
v 0.101371 0 0.171997
vt -6.30635 2.99938e-16
vt -5.27379 2.99938e-16
f 81/79/31 82/109/31 80/110/30 79/82/30 

v 0.124229 0.2 0.184857
vn 0.539149 0 -0.84221
v 0.124229 0 0.184857
f 83/83/32 84/84/32 82/85/31 81/86/31 

v 0.145477 0.2 0.200232
vn 0.586207 0 -0.810161
v 0.145477 0 0.200232
f 85/87/33 86/88/33 84/89/32 83/90/32 

v 0.137421 0.2 0.175273
vn -0.967596 4.14407e-17 0.252504
v 0.137421 0 0.175273
vt 8.22874 1.15201e-16
vt 9.2613 1.15201e-16
vn -0.951657 3.80307e-17 0.307162
f 87/43/34 88/111/34 86/112/35 85/46/35 

v 0.132254 0.2 0.14956
vn -0.990022 2.23945e-17 0.140911
v 0.132254 0 0.14956
vt 6.79865 1.7639e-16
vt 7.83121 1.7639e-16
f 89/47/36 90/113/36 88/114/34 87/50/34 

v 0.130042 0.2 0.123427
vn -0.999622 -2.86592e-17 0.0274931
v 0.130042 0 0.123427
vt 5.27379 0
vt 6.30635 0
f 91/51/37 92/115/37 90/116/36 89/54/36 

v 0.130814 0.2 0.097211
vn -0.996271 -5.86681e-17 -0.0862813
v 0.130814 0 0.097211
vt 3.67392 -3.0104e-16
vt 4.70647 -3.0104e-16
f 93/55/38 94/117/38 92/118/37 91/58/37 

v 0.13456 0.2 0.0712531
vn -0.980012 -3.00089e-17 -0.198938
v 0.13456 0 0.0712531
vt 2.01975 -3.38192e-16
vt 3.05231 -3.38192e-16
f 95/59/39 96/119/39 94/120/38 93/62/38 

v 0.141232 0.2 0.045889
vn -0.967102 0 -0.25439
v 0.141232 0 0.045889
f 97/63/40 98/101/40 96/102/39 95/66/39 

v 0.150743 0.2 0.0214475
vn -0.909779 2.75678e-17 -0.415093
v 0.150743 0 0.0214475
vt -1.36529 1.51616e-17
vt -0.332733 1.51616e-17
vn -0.931928 2.59751e-18 -0.362643
f 99/67/41 100/121/41 98/122/42 97/70/42 

v 0.16297 0.2 -0.00175495
vn -0.856715 4.99702e-17 -0.51579
v 0.16297 0 -0.00175495
vt -3.05231 2.96022e-16
vt -2.01975 2.96022e-16
f 101/71/43 102/123/43 100/124/41 99/74/41 

v 0.177754 0.2 -0.0234176
vn -0.792551 -3.06909e-17 -0.609805
v 0.177754 0 -0.0234176
vt -4.70647 2.48982e-16
vt -3.67392 2.48982e-16
f 103/75/44 104/125/44 102/126/43 101/78/43 

v 0.194904 0.2 -0.0432598
vn -0.718119 -9.17015e-17 -0.69592
v 0.194904 0 -0.0432598
vt -6.30635 -5.09572e-16
vt -5.27379 -5.09572e-16
f 105/79/45 106/127/45 104/128/44 103/82/44 

v 0.214199 0.2 -0.0610246
vn -0.634384 -6.04912e-17 -0.773018
v 0.214199 0 -0.0610246
vt -7.83121 -2.93852e-16
vt -6.79865 -2.93852e-16
f 107/83/46 108/129/46 106/130/45 105/86/45 

vn -0.589361 -4.62923e-17 -0.80787
vt -9.2613 -1.40226e-16
vt -8.22874 -1.40226e-16
f 22/87/47 19/131/47 108/132/46 107/90/46 

v 0.20916 0.2 -0.0765328
vn -0.0588582 -1.04292e-17 0.998266
v 0.20916 0 -0.0765328
vt 8.22874 2.56295e-16
vt 9.2613 2.56295e-16
vn -0.00194958 8.46094e-17 0.999998
f 109/43/48 110/133/48 19/134/49 22/46/49 

v 0.183109 0.2 -0.079564
vn -0.171919 -1.01282e-16 0.985111
v 0.183109 0 -0.079564
vt 6.79865 -4.15899e-16
vt 7.83121 -4.15899e-16
f 111/47/50 112/135/50 110/136/48 109/50/48 

v 0.157571 0.2 -0.085536
vn -0.282753 -4.84792e-17 0.959193
v 0.157571 0 -0.085536
vt 5.27379 -4.54161e-16
vt 6.30635 -4.54161e-16
f 113/51/51 114/137/51 112/138/50 111/54/50 

v 0.132877 0.2 -0.0943714
vn -0.389923 0 0.920847
v 0.132877 0 -0.0943714
vt 3.67392 0
vt 4.70647 0
f 115/55/52 116/139/52 114/140/51 113/58/51 

v 0.109347 0.2 -0.105956
vn -0.492042 0 0.870572
v 0.109347 0 -0.105956
f 117/59/53 118/99/53 116/100/52 115/62/52 

v 0.0872861 0.2 -0.120139
vn -0.54079 0 0.841158
v 0.0872861 0 -0.120139
f 119/63/54 120/101/54 118/102/53 117/66/53 

v 0.0669799 0.2 -0.136737
vn -0.675914 0 0.736981
v 0.0669799 0 -0.136737
vn -0.632875 0 0.774254
f 121/67/55 122/103/55 120/104/56 119/70/56 

v 0.0486914 0.2 -0.155536
vn -0.755285 0 0.655396
v 0.0486914 0 -0.155536
vt -3.05231 0
vt -2.01975 0
f 123/71/57 124/141/57 122/142/55 121/74/55 

v 0.0326576 0.2 -0.176291
vn -0.824871 0 0.565321
v 0.0326576 0 -0.176291
vt -4.70647 0
vt -3.67392 0
f 125/75/58 126/143/58 124/144/57 123/78/57 

v 0.0190862 0.2 -0.198733
vn -0.88377 0 0.467921
v 0.0190862 0 -0.198733
vt -6.30635 0
vt -5.27379 0
f 127/79/59 128/145/59 126/146/58 125/82/58 

vn -0.93122 0 0.364459
f 23/83/60 18/84/60 128/85/59 127/86/59 

vn -0.950452 0 0.310871
f 24/87/61 17/88/61 18/89/60 23/90/60 

vn 0.93122 0 0.364459
vt 8.22874 0
vt 9.2613 0
vn 0.950452 0 0.310871
f 25/43/62 16/147/62 17/148/63 24/46/63 

vn 0.88377 0 0.467921
vt 6.79865 0
vt 7.83121 0
f 26/47/64 15/149/64 16/150/62 25/50/62 

vn 0.824871 0 0.565321
f 27/51/65 14/115/65 15/116/64 26/54/64 

vn 0.755285 0 0.655396
f 28/55/66 13/139/66 14/140/65 27/58/65 

vn 0.675914 -9.3345e-18 0.736981
f 29/59/67 12/99/67 13/100/66 28/62/66 

vn 0.632875 -1.86387e-17 0.774254
vt 0.332733 -1.08794e-16
vt 1.36529 -1.08794e-16
f 30/63/68 11/151/68 12/152/67 29/66/67 

vn 0.492042 -1.68637e-16 0.870572
vt -1.36529 -1.08399e-15
vt -0.332733 -1.08399e-15
vn 0.54079 -1.8571e-16 0.841158
f 31/67/69 10/153/69 11/154/70 30/70/70 

vn 0.389923 -7.56316e-17 0.920847
vt -3.05231 -8.52349e-16
vt -2.01975 -8.52349e-16
f 32/71/71 9/155/71 10/156/69 31/74/69 

vn 0.282753 0 0.959193
f 33/75/72 8/143/72 9/144/71 32/78/71 

vn 0.171919 -2.72967e-17 0.985111
f 34/79/73 7/145/73 8/146/72 33/82/72 

vn 0.0588582 2.89773e-17 0.998266
vt -7.83121 -2.15002e-16
vt -6.79865 -2.15002e-16
f 35/83/74 6/157/74 7/158/73 34/86/73 

vn 0.00194958 1.12366e-16 0.999998
vt -9.2613 3.40373e-16
vt -8.22874 3.40373e-16
f 36/87/75 5/159/75 6/160/74 35/90/74 

f 18/20/2 19/21/2 128/28/2

f 128/28/2 19/21/2 126/29/2

f 126/29/2 19/21/2 124/30/2

f 124/30/2 19/21/2 122/31/2

f 122/31/2 19/21/2 120/32/2

f 120/32/2 19/21/2 118/33/2

f 118/33/2 19/21/2 116/34/2

f 116/34/2 19/21/2 114/35/2

f 114/35/2 19/21/2 112/36/2

f 112/36/2 19/21/2 110/37/2

f 22/6/4 23/18/4 127/17/4

f 22/6/4 127/17/4 125/16/4

f 22/6/4 125/16/4 123/15/4

f 22/6/4 123/15/4 121/14/4

f 22/6/4 121/14/4 119/13/4

f 22/6/4 119/13/4 117/12/4

f 22/6/4 117/12/4 115/11/4

f 22/6/4 115/11/4 113/10/4

f 22/6/4 113/10/4 111/9/4

f 22/6/4 111/9/4 109/8/4

vt -8.43302 2.40254
f 20/22/2 108/161/2 19/21/2

vt -7.67341 1.70314
f 20/22/2 106/162/2 108/161/2

vt -6.99819 0.921953
f 20/22/2 104/163/2 106/162/2

vt -6.41613 0.0690927
f 20/22/2 102/164/2 104/163/2

vt -5.93476 -0.844388
f 20/22/2 100/165/2 102/164/2

f 20/22/2 86/38/2 100/165/2

f 39/41/2 86/38/2 20/22/2

vt 0 -5.84646
f 39/41/2 74/166/2 86/38/2

vt 1.03088 -5.90522
f 39/41/2 72/167/2 74/166/2

vt 2.0484 -6.08075
f 39/41/2 70/168/2 72/167/2

vt 3.03939 -6.37078
f 39/41/2 68/169/2 70/168/2

vt 3.991 -6.77154
f 39/41/2 66/170/2 68/169/2

vt 4.8909 -7.27785
f 39/41/2 64/171/2 66/170/2

f 39/41/2 40/40/2 64/171/2

vt -1.03088 -5.90522
f 86/38/2 74/166/2 76/172/2

vt -2.0484 -6.08075
f 86/38/2 76/172/2 78/173/2

vt -3.03939 -6.37078
f 86/38/2 78/173/2 80/174/2

vt -3.991 -6.77154
f 86/38/2 80/174/2 82/175/2

vt -4.8909 -7.27785
f 86/38/2 82/175/2 84/176/2

vn 0.857493 0 0.514496
f 39/1/76 20/2/76 21/3/76 38/4/76 

f 85/40/4 38/39/4 21/7/4

f 73/166/4 38/39/4 85/40/4

f 71/172/4 38/39/4 73/166/4

f 69/173/4 38/39/4 71/172/4

f 67/174/4 38/39/4 69/173/4

f 65/175/4 38/39/4 67/174/4

f 63/176/4 38/39/4 65/175/4

f 37/38/4 38/39/4 63/176/4

f 73/166/4 85/40/4 75/167/4

f 75/167/4 85/40/4 77/168/4

f 77/168/4 85/40/4 79/169/4

f 79/169/4 85/40/4 81/170/4

f 81/170/4 85/40/4 83/171/4

vt 5.93476 -0.844388
f 85/40/4 21/7/4 99/177/4

vt 6.41613 0.0690927
f 99/177/4 21/7/4 101/178/4

vt 6.99819 0.921953
f 101/178/4 21/7/4 103/179/4

vt 7.67341 1.70314
f 103/179/4 21/7/4 105/180/4

f 105/180/4 21/7/4 107/42/4

f 107/42/4 21/7/4 22/6/4

vt 5.56031 -1.80665
f 97/181/4 85/40/4 99/177/4

vt 5.41027 -6.9005
f 97/181/4 87/182/4 85/40/4

vt 5.29764 -2.80524
f 95/183/4 87/182/4 97/181/4

vt 5.20683 -5.88819
f 95/183/4 89/184/4 87/182/4

vt 5.15015 -3.82721
f 93/185/4 89/184/4 95/183/4

vt 5.11975 -4.85931
f 89/184/4 93/185/4 91/186/4

vt -5.56031 -1.80665
f 86/38/2 98/187/2 100/165/2

vt -5.41027 -6.9005
f 88/188/2 98/187/2 86/38/2

vt -5.29764 -2.80524
f 88/188/2 96/189/2 98/187/2

vt -5.20683 -5.88819
f 90/190/2 96/189/2 88/188/2

vt -5.15015 -3.82721
f 90/190/2 94/191/2 96/189/2

vt -5.11975 -4.85931
f 94/191/2 90/190/2 92/192/2

f 40/40/2 52/181/2 62/182/2

f 52/181/2 40/40/2 50/177/2

f 40/40/2 48/178/2 50/177/2

f 40/40/2 46/179/2 48/178/2

f 40/40/2 44/180/2 46/179/2

f 40/40/2 41/42/2 44/180/2

f 62/182/2 52/181/2 54/183/2

f 62/182/2 54/183/2 60/184/2

f 60/184/2 54/183/2 56/185/2

f 60/184/2 56/185/2 58/186/2

f 51/187/4 37/38/4 61/188/4

f 37/38/4 51/187/4 49/165/4

f 47/164/4 37/38/4 49/165/4

f 45/163/4 37/38/4 47/164/4

f 43/162/4 37/38/4 45/163/4

f 42/161/4 37/38/4 43/162/4

f 36/21/4 37/38/4 42/161/4

f 51/187/4 61/188/4 53/189/4

f 53/189/4 61/188/4 59/190/4

f 53/189/4 59/190/4 55/191/4

f 55/191/4 59/190/4 57/192/4

