# Alias OBJ Model File
# Exported from SketchUp, (c) 2000-2012 Trimble Navigation Limited
# File units = meters

mtllib B_E.mtl

g Mesh1 Difference Model

usemtl Color_C03
v -0.433013 0 0.25
vt -17.0477 0
vn -3.64696e-16 0 1
v 0.433013 0 0.25
vt 17.0477 0
v 0.433013 0.2 0.25
vt 17.0477 7.87402
v -0.433013 0.2 0.25
vt -17.0477 7.87402
f 1/1/1 2/2/1 3/3/1 4/4/1 

vt 17.0477 -9.84252
vn 0 -1 -0
v -0.145477 0 0.200232
vt 5.72744 -7.88314
vt -17.0477 -9.84252
f 1/5/2 5/6/2 2/7/2

v -0.235386 0 -0.0764817
vt 9.26718 3.01109
f 5/6/2 1/5/2 6/8/2

v 0 0 -0.5
vt 0 19.685
f 7/9/2 6/8/2 1/5/2

v -0.20916 0 -0.0765328
vt 8.23463 3.0131
f 6/8/2 7/9/2 8/10/2

v -0.183109 0 -0.079564
vt 7.209 3.13244
f 8/10/2 7/9/2 9/11/2

v -0.157571 0 -0.085536
vt 6.20357 3.36756
f 9/11/2 7/9/2 10/12/2

v -0.132877 0 -0.0943714
vt 5.23137 3.71541
f 10/12/2 7/9/2 11/13/2

v -0.109347 0 -0.105956
vt 4.305 4.17149
f 11/13/2 7/9/2 12/14/2

v -0.0872861 0 -0.120139
vt 3.43646 4.72988
f 12/14/2 7/9/2 13/15/2

v -0.0669799 0 -0.136737
vt 2.637 5.38336
f 13/15/2 7/9/2 14/16/2

v -0.0486914 0 -0.155536
vt 1.91698 6.12346
f 14/16/2 7/9/2 15/17/2

v -0.0326576 0 -0.176291
vt 1.28573 6.94058
f 15/17/2 7/9/2 16/18/2

v -0.0190862 0 -0.198733
vt 0.751427 7.82414
f 16/18/2 7/9/2 17/19/2

v -0.00815316 0 -0.222573
vt 0.320991 8.7627
f 17/19/2 7/9/2 18/20/2

v -2.25597e-17 0 -0.2475
vt 8.88178e-16 9.74409
f 18/20/2 7/9/2 19/21/2

v 0.00815316 0 -0.222573
vt -0.320991 8.7627
f 19/21/2 7/9/2 20/22/2

v 0.235386 0 -0.0764817
vt -9.26718 3.01109
f 20/22/2 7/9/2 21/23/2

f 21/23/2 7/9/2 2/7/2

vn 0.866025 0 -0.5
v 0 0.2 -0.5
f 2/1/3 7/2/3 22/3/3 3/4/3 

vn -0.866025 0 -0.5
f 7/1/4 1/2/4 4/3/4 22/4/4 

v -0.235386 0.2 -0.0764817
vn 0 1 -0
f 23/23/5 22/9/5 4/7/5

v -0.20916 0.2 -0.0765328
vt -8.23463 3.0131
f 22/9/5 23/23/5 24/24/5

vt -9.2613 7.87402
vn 0.00194958 -1.41002e-16 0.999998
vt -9.2613 -4.27116e-16
vt -8.22874 -4.27116e-16
vn 0.0588582 -6.72986e-17 0.998266
vt -8.22874 7.87402
f 23/25/6 6/26/6 8/27/7 24/28/7 

vt 9.2613 7.01132e-17
vn 0.589361 2.31462e-17 -0.80787
vt 9.2613 7.87402
v -0.214199 0.2 -0.0610246
vt 8.22874 7.87402
vn 0.634384 -5.04233e-17 -0.773018
v -0.214199 0 -0.0610246
vt 8.22874 7.01132e-17
f 6/29/8 23/30/8 25/31/9 26/32/9 

v -0.145477 0.2 0.200232
vt -5.72744 -7.88314
vt -8.43302 2.40254
f 23/23/5 27/33/5 25/34/5

f 4/7/5 27/33/5 23/23/5

f 27/33/5 4/7/5 3/5/5

v -0.124229 0.2 0.184857
vt -4.8909 -7.27785
f 27/33/5 3/5/5 28/35/5

v -0.101371 0.2 0.171997
vt -3.991 -6.77154
f 28/35/5 3/5/5 29/36/5

v -0.0772005 0.2 0.161818
vt -3.03939 -6.37078
f 29/36/5 3/5/5 30/37/5

v 0.145477 0.2 0.200232
f 30/37/5 3/5/5 31/6/5

v 0.150743 0.2 0.0214475
vt 5.93476 -0.844388
f 31/6/5 3/5/5 32/38/5

v 0.16297 0.2 -0.00175495
vt 6.41613 0.0690927
f 32/38/5 3/5/5 33/39/5

v 0.177754 0.2 -0.0234176
vt 6.99819 0.921953
f 33/39/5 3/5/5 34/40/5

v 0.194904 0.2 -0.0432598
vt 7.67341 1.70314
f 34/40/5 3/5/5 35/41/5

v 0.214199 0.2 -0.0610246
vt 8.43302 2.40254
f 35/41/5 3/5/5 36/42/5

v 0.235386 0.2 -0.0764817
f 36/42/5 3/5/5 37/8/5

f 22/9/5 37/8/5 3/5/5

v 0.00815316 0.2 -0.222573
f 22/9/5 38/20/5 37/8/5

v -2.25597e-17 0.2 -0.2475
vt -8.88178e-16 9.74409
f 22/9/5 39/43/5 38/20/5

v -0.00815316 0.2 -0.222573
f 22/9/5 40/22/5 39/43/5

v -0.0190862 0.2 -0.198733
vt -0.751427 7.82414
f 22/9/5 41/44/5 40/22/5

v -0.0326576 0.2 -0.176291
vt -1.28573 6.94058
f 22/9/5 42/45/5 41/44/5

v -0.0486914 0.2 -0.155536
vt -1.91698 6.12346
f 22/9/5 43/46/5 42/45/5

v -0.0669799 0.2 -0.136737
vt -2.637 5.38336
f 22/9/5 44/47/5 43/46/5

v -0.0872861 0.2 -0.120139
vt -3.43646 4.72988
f 22/9/5 45/48/5 44/47/5

v -0.109347 0.2 -0.105956
vt -4.305 4.17149
f 22/9/5 46/49/5 45/48/5

v -0.132877 0.2 -0.0943714
vt -5.23137 3.71541
f 22/9/5 47/50/5 46/49/5

v -0.157571 0.2 -0.085536
vt -6.20357 3.36756
f 22/9/5 48/51/5 47/50/5

v -0.183109 0.2 -0.079564
vt -7.209 3.13244
f 22/9/5 49/52/5 48/51/5

f 22/9/5 24/24/5 49/52/5

vt -6.79865 2.61242e-17
vn 0.171919 9.85126e-18 0.985111
vt -6.79865 7.87402
vt -7.83121 7.87402
vt -7.83121 2.61242e-17
f 9/53/10 49/54/10 24/55/7 8/56/7 

vt -6.30635 7.87402
vt -6.30635 6.12165e-17
vt -5.27379 6.12165e-17
vn 0.282753 6.53453e-18 0.959193
vt -5.27379 7.87402
f 49/57/10 9/58/10 10/59/11 48/60/11 

vt -4.70647 7.87402
vt -4.70647 0
vt -3.67392 0
vn 0.389923 7.56563e-17 0.920847
vt -3.67392 7.87402
f 48/61/11 10/62/11 11/63/12 47/64/12 

vt -3.05231 7.87402
vt -3.05231 8.52627e-16
vt -2.01975 8.52627e-16
vn 0.492042 1.60902e-16 0.870572
vt -2.01975 7.87402
f 47/65/12 11/66/12 12/67/13 46/68/13 

vt -0.332733 9.93546e-16
vn 0.54079 1.70216e-16 0.841158
vt -0.332733 7.87402
vt -1.36529 7.87402
vt -1.36529 9.93546e-16
f 13/69/14 45/70/14 46/71/13 12/72/13 

vt 1.36529 -1.66355e-16
vn 0.675914 1.60226e-17 0.736981
vt 1.36529 7.87402
vt 0.332733 7.87402
vn 0.632875 -2.85002e-17 0.774254
vt 0.332733 -1.66355e-16
f 14/73/15 44/74/15 45/75/16 13/76/16 

vt 3.05231 3.41426e-16
vn 0.755285 4.78399e-17 0.655396
vt 3.05231 7.87402
vt 2.01975 7.87402
vt 2.01975 3.41426e-16
f 15/77/17 43/78/17 44/79/15 14/80/15 

vt 4.70647 1.84286e-16
vn 0.824871 -2.70051e-17 0.565321
vt 4.70647 7.87402
vt 3.67392 7.87402
vt 3.67392 1.84286e-16
f 16/81/18 42/82/18 43/83/17 15/84/17 

vt 5.27379 7.87402
vt 5.27379 -4.17343e-16
vt 6.30635 -4.17343e-16
vn 0.88377 -2.9415e-17 0.467921
vt 6.30635 7.87402
f 42/85/18 16/86/18 17/87/19 41/88/19 

vt 7.83121 1.19204e-16
vn 0.93122 5.5195e-17 0.364459
vt 7.83121 7.87402
vt 6.79865 7.87402
vt 6.79865 1.19204e-16
f 18/89/20 40/90/20 41/91/19 17/92/19 

vt 8.22874 2.42308e-16
vt 9.2613 2.42308e-16
vn 0.950452 7.99919e-17 0.310871
f 40/31/20 18/93/20 19/94/21 39/30/21 

vn -0.950452 0 0.310871
vt -9.2613 0
vt -8.22874 0
vn -0.93122 6.22382e-17 0.364459
f 39/25/22 19/95/22 20/96/23 38/28/23 

vt -7.83121 4.90219e-16
v 0.0190862 0 -0.198733
vt -6.79865 4.90219e-16
vn -0.88377 1.97878e-16 0.467921
v 0.0190862 0.2 -0.198733
f 38/55/23 20/97/23 50/98/24 51/54/24 

f 20/22/2 21/23/2 50/44/2

v 0.0326576 0 -0.176291
f 50/44/2 21/23/2 52/45/2

v 0.0486914 0 -0.155536
f 52/45/2 21/23/2 53/46/2

v 0.0669799 0 -0.136737
f 53/46/2 21/23/2 54/47/2

v 0.0872861 0 -0.120139
f 54/47/2 21/23/2 55/48/2

v 0.109347 0 -0.105956
f 55/48/2 21/23/2 56/49/2

v 0.132877 0 -0.0943714
f 56/49/2 21/23/2 57/50/2

v 0.157571 0 -0.085536
f 57/50/2 21/23/2 58/51/2

v 0.183109 0 -0.079564
f 58/51/2 21/23/2 59/52/2

v 0.20916 0 -0.0765328
f 59/52/2 21/23/2 60/24/2

v 0.20916 0.2 -0.0765328
vn -0.0588582 -5.28026e-17 0.998266
vt 8.22874 0
vt 9.2613 0
vn -0.00194958 0 0.999998
f 61/31/25 60/99/25 21/100/26 37/30/26 

v 0.183109 0.2 -0.079564
vn -0.171919 -1.28789e-16 0.985111
vt 6.79865 -4.15899e-16
vt 7.83121 -4.15899e-16
f 62/91/27 59/101/27 60/102/25 61/90/25 

v 0.157571 0.2 -0.085536
vn -0.282753 -4.22964e-17 0.959193
vt 5.27379 -7.11849e-16
vt 6.30635 -7.11849e-16
f 63/85/28 58/103/28 59/104/27 62/88/27 

v 0.132877 0.2 -0.0943714
vn -0.389923 1.46751e-16 0.920847
vt 3.67392 3.53881e-16
vt 4.70647 3.53881e-16
f 64/83/29 57/105/29 58/106/28 63/82/28 

v 0.109347 0.2 -0.105956
vn -0.492042 1.77719e-16 0.870572
vt 2.01975 1.27418e-15
vt 3.05231 1.27418e-15
f 65/79/30 56/107/30 57/108/29 64/78/29 

v 0.0872861 0.2 -0.120139
vn -0.54079 1.29105e-16 0.841158
vt 0.332733 7.53585e-16
vt 1.36529 7.53585e-16
f 66/75/31 55/109/31 56/110/30 65/74/30 

v 0.0669799 0.2 -0.136737
vn -0.675914 5.16022e-17 0.736981
vt -1.36529 1.3694e-16
vt -0.332733 1.3694e-16
vn -0.632875 2.34608e-17 0.774254
f 67/71/32 54/111/32 55/112/33 66/70/33 

v 0.0486914 0.2 -0.155536
vn -0.755285 1.60615e-16 0.655396
vt -3.05231 4.4913e-16
vt -2.01975 4.4913e-16
f 68/65/34 53/113/34 54/114/32 67/68/32 

v 0.0326576 0.2 -0.176291
vn -0.824871 2.56402e-16 0.565321
vt -4.70647 1.2685e-15
vt -3.67392 1.2685e-15
f 69/61/35 52/115/35 53/116/34 68/64/34 

vt -6.30635 1.2707e-15
vt -5.27379 1.2707e-15
f 51/57/24 50/117/24 52/118/35 69/60/35 

f 37/8/5 51/19/5 69/18/5

f 37/8/5 38/20/5 51/19/5

f 37/8/5 69/18/5 68/17/5

f 37/8/5 68/17/5 67/16/5

f 37/8/5 67/16/5 66/15/5

f 37/8/5 66/15/5 65/14/5

f 37/8/5 65/14/5 64/13/5

f 37/8/5 64/13/5 63/12/5

f 37/8/5 63/12/5 62/11/5

f 37/8/5 62/11/5 61/10/5

vn -0.589361 0 -0.80787
v 0.214199 0 -0.0610246
vn -0.634384 0 -0.773018
f 37/25/36 21/95/36 70/96/37 36/28/37 

f 2/7/2 70/34/2 21/23/2

v 0.194904 0 -0.0432598
vt -7.67341 1.70314
f 2/7/2 71/119/2 70/34/2

v 0.177754 0 -0.0234176
vt -6.99819 0.921953
f 2/7/2 72/120/2 71/119/2

v 0.16297 0 -0.00175495
vt -6.41613 0.0690927
f 2/7/2 73/121/2 72/120/2

v 0.150743 0 0.0214475
vt -5.93476 -0.844388
f 2/7/2 74/122/2 73/121/2

v 0.145477 0 0.200232
f 2/7/2 75/33/2 74/122/2

v -0.0772005 0 0.161818
vt 3.03939 -6.37078
f 2/7/2 76/123/2 75/33/2

v -0.101371 0 0.171997
vt 3.991 -6.77154
f 2/7/2 77/124/2 76/123/2

v -0.124229 0 0.184857
vt 4.8909 -7.27785
f 2/7/2 78/125/2 77/124/2

f 2/7/2 5/6/2 78/125/2

vn -0.539149 -7.58318e-18 -0.84221
vt 8.22874 -1.97143e-16
vt 9.2613 -1.97143e-16
vn -0.586207 -6.50819e-17 -0.810161
f 28/31/38 78/126/38 5/127/39 27/30/39 

vn -0.439948 2.50106e-17 -0.898023
vt 6.79865 1.96996e-16
vt 7.83121 1.96996e-16
f 29/91/40 77/128/40 78/129/38 28/90/38 

vn -0.335048 0 -0.942201
vt 5.27379 0
vt 6.30635 0
f 30/85/41 76/130/41 77/131/40 29/88/40 

v -0.0520295 0.2 0.154451
vn -0.225806 0 -0.974172
v -0.0520295 0 0.154451
vt 3.67392 0
vt 4.70647 0
f 79/83/42 80/132/42 76/133/41 30/82/41 

v -0.0261844 0.2 0.149993
vn -0.113639 0 -0.993522
v -0.0261844 0 0.149993
vt 2.01975 0
vt 3.05231 0
f 81/79/43 82/134/43 80/135/42 79/78/42 

v 0 0.2 0.1485
vn -0.0569119 0 -0.998379
v 0 0 0.1485
vt 0.332733 0
vt 1.36529 0
f 83/75/44 84/136/44 82/137/43 81/74/43 

v 0.0261844 0.2 0.149993
vn 0.113639 -1.15338e-16 -0.993522
v 0.0261844 0 0.149993
vt -1.36529 -6.66936e-16
vt -0.332733 -6.66936e-16
vn 0.0569119 -1.1426e-16 -0.998379
f 85/71/45 86/138/45 84/139/46 83/70/46 

v 0.0520295 0.2 0.154451
vn 0.225806 -5.81148e-17 -0.974172
v 0.0520295 0 0.154451
vt -3.05231 -6.54939e-16
vt -2.01975 -6.54939e-16
f 87/65/47 88/140/47 86/141/45 85/68/45 

v 0.0772005 0.2 0.161818
vn 0.335048 0 -0.942201
v 0.0772005 0 0.161818
f 89/61/48 90/62/48 88/63/47 87/64/47 

v 0.101371 0.2 0.171997
vn 0.439948 -4.92396e-17 -0.898023
v 0.101371 0 0.171997
vt -6.30635 0
vt -5.27379 0
f 91/57/49 92/142/49 90/143/48 89/60/48 

v 0.124229 0.2 0.184857
vn 0.539149 -9.57386e-17 -0.84221
v 0.124229 0 0.184857
vt -7.83121 -3.87835e-16
vt -6.79865 -3.87835e-16
f 93/55/50 94/144/50 92/145/49 91/54/49 

vn 0.586207 -9.28473e-17 -0.810161
vt -9.2613 -2.81249e-16
vt -8.22874 -2.81249e-16
f 31/25/51 75/146/51 94/147/50 93/28/50 

v 0.137421 0.2 0.175273
vn -0.967596 4.14407e-17 0.252504
v 0.137421 0 0.175273
vt 8.22874 1.15201e-16
vt 9.2613 1.15201e-16
vn -0.951657 3.80307e-17 0.307162
f 95/31/52 96/148/52 75/149/53 31/30/53 

v 0.132254 0.2 0.14956
vn -0.990022 2.23945e-17 0.140911
v 0.132254 0 0.14956
vt 6.79865 1.7639e-16
vt 7.83121 1.7639e-16
f 97/91/54 98/150/54 96/151/52 95/90/52 

v 0.130042 0.2 0.123427
vn -0.999622 -2.86592e-17 0.0274931
v 0.130042 0 0.123427
f 99/85/55 100/130/55 98/131/54 97/88/54 

v 0.130814 0.2 0.097211
vn -0.996271 -5.86681e-17 -0.0862813
v 0.130814 0 0.097211
vt 3.67392 -3.0104e-16
vt 4.70647 -3.0104e-16
f 101/83/56 102/152/56 100/153/55 99/82/55 

v 0.13456 0.2 0.0712531
vn -0.980012 -1.17877e-16 -0.198938
v 0.13456 0 0.0712531
vt 2.01975 -3.38192e-16
vt 3.05231 -3.38192e-16
f 103/79/57 104/154/57 102/155/56 101/78/56 

v 0.141232 0.2 0.045889
vn -0.967102 -1.75451e-16 -0.25439
v 0.141232 0 0.045889
vt 0.332733 -1.0241e-15
vt 1.36529 -1.0241e-15
f 105/75/58 106/156/58 104/157/57 103/74/57 

vn -0.909779 -8.33922e-17 -0.415093
vt -1.36529 -9.9143e-16
vt -0.332733 -9.9143e-16
vn -0.931928 -1.69853e-16 -0.362643
f 32/71/59 74/158/59 106/159/60 105/70/60 

vn -0.856715 1.67233e-18 -0.51579
vt -3.05231 1.88467e-17
vt -2.01975 1.88467e-17
f 33/65/61 73/160/61 74/161/59 32/68/59 

vn -0.792551 0 -0.609805
f 34/61/62 72/62/62 73/63/61 33/64/61 

vn -0.718119 0 -0.69592
f 35/57/63 71/142/63 72/143/62 34/60/62 

vt -7.83121 0
vt -6.79865 0
f 36/55/37 70/162/37 71/163/63 35/54/63 

vt -5.56031 -1.80665
f 75/33/2 106/164/2 74/122/2

vt -5.41027 -6.9005
f 96/165/2 106/164/2 75/33/2

vt -5.29764 -2.80524
f 96/165/2 104/166/2 106/164/2

vt -5.20683 -5.88819
f 98/167/2 104/166/2 96/165/2

vt -5.15015 -3.82721
f 98/167/2 102/168/2 104/166/2

vt -5.11975 -4.85931
f 102/168/2 98/167/2 100/169/2

vt 5.56031 -1.80665
f 105/170/5 31/6/5 32/38/5

vt 5.41027 -6.9005
f 105/170/5 95/171/5 31/6/5

vt 5.29764 -2.80524
f 103/172/5 95/171/5 105/170/5

vt 5.20683 -5.88819
f 103/172/5 97/173/5 95/171/5

vt 5.15015 -3.82721
f 101/174/5 97/173/5 103/172/5

vt 5.11975 -4.85931
f 97/173/5 101/174/5 99/175/5

f 75/33/2 92/36/2 94/35/2

f 75/33/2 90/37/2 92/36/2

vt -2.0484 -6.08075
f 75/33/2 88/176/2 90/37/2

vt -1.03088 -5.90522
f 75/33/2 86/177/2 88/176/2

vt 0 -5.84646
f 75/33/2 84/178/2 86/177/2

vt 1.03088 -5.90522
f 75/33/2 82/179/2 84/178/2

vt 2.0484 -6.08075
f 75/33/2 80/180/2 82/179/2

f 75/33/2 76/123/2 80/180/2

f 91/124/5 31/6/5 93/125/5

f 89/123/5 31/6/5 91/124/5

f 87/180/5 31/6/5 89/123/5

f 85/179/5 31/6/5 87/180/5

f 83/178/5 31/6/5 85/179/5

f 81/177/5 31/6/5 83/178/5

f 79/176/5 31/6/5 81/177/5

f 30/37/5 31/6/5 79/176/5

vn 0.951657 -1.07359e-16 0.307162
vt -9.2613 -3.25207e-16
v -0.137421 0 0.175273
vt -8.22874 -3.25207e-16
vn 0.967596 -2.30807e-16 0.252504
v -0.137421 0.2 0.175273
f 27/25/64 5/181/64 107/182/65 108/28/65 

v -0.141232 0 0.045889
f 5/6/2 109/170/2 107/171/2

v -0.150743 0 0.0214475
f 109/170/2 5/6/2 110/38/2

v -0.16297 0 -0.00175495
f 5/6/2 111/39/2 110/38/2

v -0.177754 0 -0.0234176
f 5/6/2 112/40/2 111/39/2

v -0.194904 0 -0.0432598
f 5/6/2 113/41/2 112/40/2

f 5/6/2 26/42/2 113/41/2

f 5/6/2 6/8/2 26/42/2

v -0.194904 0.2 -0.0432598
vn 0.718119 1.46634e-17 -0.69592
vt 6.79865 -4.88462e-16
vt 7.83121 -4.88462e-16
f 114/91/66 113/183/66 26/184/9 25/90/9 

vt 6.30635 7.18336e-16
v -0.177754 0.2 -0.0234176
vn 0.792551 1.72594e-16 -0.609805
vt 5.27379 7.18336e-16
f 113/185/66 114/88/66 115/85/67 112/186/67 

f 114/119/5 27/33/5 115/120/5

f 25/34/5 27/33/5 114/119/5

v -0.16297 0.2 -0.00175495
f 115/120/5 27/33/5 116/121/5

v -0.150743 0.2 0.0214475
f 116/121/5 27/33/5 117/122/5

v -0.141232 0.2 0.045889
f 27/33/5 118/164/5 117/122/5

f 118/164/5 27/33/5 108/165/5

v -0.13456 0.2 0.0712531
f 118/164/5 108/165/5 119/166/5

v -0.132254 0.2 0.14956
f 119/166/5 108/165/5 120/167/5

v -0.132254 0 0.14956
vt -6.79865 -1.39445e-15
vn 0.990022 -1.7704e-16 0.140911
vt -7.83121 -1.39445e-15
f 121/187/68 120/54/68 108/55/65 107/188/65 

v -0.130042 0 0.123427
vn 0.999622 1.67675e-16 0.0274931
v -0.130042 0.2 0.123427
f 120/57/68 121/142/68 122/143/69 123/60/69 

v -0.130814 0 0.097211
f 121/173/2 124/174/2 122/175/2

v -0.13456 0 0.0712531
f 121/173/2 125/172/2 124/174/2

f 107/171/2 125/172/2 121/173/2

f 107/171/2 109/170/2 125/172/2

vn 0.980012 -8.82013e-17 -0.198938
vt -1.36529 -1.30608e-15
vt -0.332733 -1.30608e-15
vn 0.967102 -2.2376e-16 -0.25439
f 119/71/70 125/189/70 109/190/71 118/70/71 

vt -2.01975 2.68898e-16
v -0.130814 0.2 0.097211
vn 0.996271 1.91535e-16 -0.0862813
vt -3.05231 2.68898e-16
f 125/191/70 119/68/70 126/65/72 124/192/72 

f 119/166/5 120/167/5 126/168/5

f 126/168/5 120/167/5 123/169/5

vt -3.67392 1.76128e-15
vt -4.70647 1.76128e-15
f 124/193/72 126/64/72 123/61/69 122/194/69 

vn 0.931928 -1.88036e-16 -0.362643
vt 0.332733 -1.09756e-15
vt 1.36529 -1.09756e-15
vn 0.909779 -1.58368e-16 -0.415093
f 118/75/73 109/195/73 110/196/74 117/74/74 

vt 3.05231 -7.23489e-16
vn 0.856715 3.17184e-17 -0.51579
vt 2.01975 -7.23489e-16
f 111/197/75 116/78/75 117/79/74 110/198/74 

vt 4.70647 1.00751e-15
vt 3.67392 1.00751e-15
f 112/199/67 115/82/67 116/83/75 111/200/75 

