# Alias OBJ Model File
# Exported from SketchUp, (c) 2000-2012 Trimble Navigation Limited
# File units = meters

mtllib C_E.mtl

g Mesh1 Difference Model

usemtl Color_D03
v -0.5 0 -3.06162e-17
vt -13.9194 0
vn -0.707107 0 0.707107
v -6.12323e-17 0 0.5
vt 13.9194 0
v -6.12323e-17 0.2 0.5
vt 13.9194 7.87402
v -0.5 0.2 -3.06162e-17
vt -13.9194 7.87402
f 1/1/1 2/2/1 3/3/1 4/4/1 

vt 19.685 1.20536e-15
vn 0 -1 -0
v -0.161641 0 0.22248
vt 6.36382 -8.75904
vt 2.41072e-15 -19.685
f 1/5/2 5/6/2 2/7/2

v -0.261541 0 -0.0849797
vt 10.2969 3.34566
f 5/6/2 1/5/2 6/8/2

v 0 0 -0.5
vt 0 19.685
f 7/9/2 6/8/2 1/5/2

v -0.2324 0 -0.0850365
vt 9.14959 3.34789
f 6/8/2 7/9/2 8/10/2

v -0.203454 0 -0.0884045
vt 8.01 3.48049
f 8/10/2 7/9/2 9/11/2

v -0.175079 0 -0.09504
vt 6.89285 3.74173
f 9/11/2 7/9/2 10/12/2

v -0.147641 0 -0.104857
vt 5.81264 4.12823
f 10/12/2 7/9/2 11/13/2

v -0.121497 0 -0.117729
vt 4.78334 4.63499
f 11/13/2 7/9/2 12/14/2

v -0.0969846 0 -0.133488
vt 3.81829 5.25543
f 12/14/2 7/9/2 13/15/2

v -0.0744221 0 -0.15193
vt 2.93 5.98151
f 13/15/2 7/9/2 14/16/2

v -0.0541015 0 -0.172818
vt 2.12998 6.80384
f 14/16/2 7/9/2 15/17/2

v -0.0362862 0 -0.195879
vt 1.42859 7.71175
f 15/17/2 7/9/2 16/18/2

v -0.0212069 0 -0.220815
vt 0.834919 8.69349
f 16/18/2 7/9/2 17/19/2

v -0.00905907 0 -0.247303
vt 0.356656 9.73633
f 17/19/2 7/9/2 18/20/2

v -2.25597e-17 0 -0.275
vt 8.88178e-16 10.8268
f 18/20/2 7/9/2 19/21/2

v 0.00905907 0 -0.247303
vt -0.356656 9.73633
f 19/21/2 7/9/2 20/22/2

v 0.5 0 9.18485e-17
vt -19.685 -3.61608e-15
f 20/22/2 7/9/2 21/23/2

vn 0.707107 0 -0.707107
v 0 0.2 -0.5
v 0.5 0.2 9.18485e-17
f 21/1/3 7/2/3 22/3/3 23/4/3 

vn -0.707107 0 -0.707107
f 7/1/4 1/2/4 4/3/4 22/4/4 

v -0.261541 0.2 -0.0849797
vt -10.2969 3.34566
vn 0 1 -0
vt -19.685 1.20536e-15
f 24/24/5 22/9/5 4/25/5

v -0.2324 0.2 -0.0850365
vt -9.14959 3.34789
f 22/9/5 24/24/5 25/26/5

vt -10.2903 7.87402
vn 0.00194958 -4.32893e-19 0.999998
vt -10.2903 -1.457e-18
vt -9.14305 -1.457e-18
vn 0.0588582 -2.59214e-17 0.998266
vt -9.14305 7.87402
f 24/27/6 6/28/6 8/29/7 25/30/7 

v -0.237998 0.2 -0.0678051
vt 9.14305 7.87402
vn 0.634384 -3.88763e-17 -0.773018
v -0.237998 0 -0.0678051
vt 9.14305 0
vt 10.2903 0
vn 0.589361 0 -0.80787
vt 10.2903 7.87402
f 26/31/8 27/32/8 6/33/9 24/34/9 

v -0.216561 0.2 -0.0480665
vt 7.55406 7.87402
vn 0.718119 -6.03603e-18 -0.69592
v -0.216561 0 -0.0480665
vt 7.55406 -3.40232e-16
vt 8.70134 -3.40232e-16
vt 8.70134 7.87402
f 28/35/10 29/36/10 27/37/8 26/38/8 

vt 7.00705 3.41836e-16
vt 7.00705 7.87402
v -0.197505 0.2 -0.0260196
vt 5.85977 7.87402
vn 0.792551 8.18201e-17 -0.609805
v -0.197505 0 -0.0260196
vt 5.85977 3.41836e-16
f 29/39/10 28/40/10 30/41/11 31/42/11 

vt -8.52601 1.89238
v -0.161641 0.2 0.22248
vt -6.36382 -8.75904
vt -7.77577 1.02439
f 28/43/5 32/44/5 30/45/5

vt -9.37002 2.66949
f 26/46/5 32/44/5 28/43/5

f 24/24/5 32/44/5 26/46/5

f 4/25/5 32/44/5 24/24/5

vt -2.41072e-15 -19.685
f 32/44/5 4/25/5 3/47/5

v -0.138032 0.2 0.205397
vt -5.43433 -8.0865
f 32/44/5 3/47/5 33/48/5

v -0.112635 0.2 0.191108
vt -4.43444 -7.52394
f 33/48/5 3/47/5 34/49/5

v -0.0857784 0.2 0.179798
vt -3.3771 -7.07864
f 34/49/5 3/47/5 35/50/5

v -0.0578105 0.2 0.171612
vt -2.27601 -6.75639
f 35/50/5 3/47/5 36/51/5

v -0.0290937 0.2 0.166658
vt -1.14542 -6.56136
f 36/51/5 3/47/5 37/52/5

v 0 0.2 0.165
vt 0 -6.49606
f 37/52/5 3/47/5 38/53/5

v 0.161641 0.2 0.22248
f 38/53/5 3/47/5 39/6/5

vt 19.685 -3.61608e-15
f 39/6/5 3/47/5 23/54/5

vn 0.707107 0 0.707107
f 2/1/12 21/2/12 23/3/12 3/4/12 

v 0.161641 0 0.22248
f 2/7/2 40/44/2 21/23/2

v 0 0 0.165
f 2/7/2 41/53/2 40/44/2

v -0.0290937 0 0.166658
vt 1.14542 -6.56136
f 2/7/2 42/55/2 41/53/2

v -0.0578105 0 0.171612
vt 2.27601 -6.75639
f 2/7/2 43/56/2 42/55/2

v -0.0857784 0 0.179798
vt 3.3771 -7.07864
f 2/7/2 44/57/2 43/56/2

v -0.112635 0 0.191108
vt 4.43444 -7.52394
f 2/7/2 45/58/2 44/57/2

v -0.138032 0 0.205397
vt 5.43433 -8.0865
f 2/7/2 46/59/2 45/58/2

f 2/7/2 5/6/2 46/59/2

vn -0.539149 -9.89396e-17 -0.84221
vt 9.14305 -2.19048e-16
vt 10.2903 -2.19048e-16
vn -0.586207 -6.50819e-17 -0.810161
f 33/31/13 46/60/13 5/61/14 32/34/14 

vn -0.439948 -7.19149e-17 -0.898023
vt 7.55406 -5.80636e-16
vt 8.70134 -5.80636e-16
f 34/35/15 45/62/15 46/63/13 33/38/13 

vn -0.335048 5.26846e-17 -0.942201
vt 5.85977 -5.79692e-17
vt 7.00705 -5.79692e-17
f 35/41/16 44/64/16 45/65/15 34/40/15 

vt 4.08213 7.87402
vn -0.225806 8.60916e-17 -0.974172
vt 4.08213 6.79895e-16
vt 5.22941 6.79895e-16
vt 5.22941 7.87402
f 36/66/17 43/67/17 44/68/16 35/69/16 

vt 2.24417 7.87402
vn -0.113639 2.78378e-17 -0.993522
vt 2.24417 3.48583e-16
vt 3.39145 3.48583e-16
vt 3.39145 7.87402
f 37/70/18 42/71/18 43/72/17 36/73/17 

vt 0.369703 7.87402
vn -0.0569119 0 -0.998379
vt 0.369703 0
vt 1.51699 0
vt 1.51699 7.87402
f 38/74/19 41/75/19 42/76/18 37/77/18 

v 0.0290937 0.2 0.166658
vt -1.51699 7.87402
vn 0.113639 6.05541e-17 -0.993522
v 0.0290937 0 0.166658
vt -1.51699 0
vt -0.369703 0
vn 0.0569119 0 -0.998379
vt -0.369703 7.87402
f 47/78/20 48/79/20 41/80/21 38/81/21 

v 0.0578105 0.2 0.171612
vt -3.39145 7.87402
vn 0.225806 1.21831e-16 -0.974172
v 0.0578105 0 0.171612
vt -3.39145 7.58254e-16
vt -2.24417 7.58254e-16
vt -2.24417 7.87402
f 49/82/22 50/83/22 48/84/20 47/85/20 

v 0.0857784 0.2 0.179798
vt -5.22941 7.87402
vn 0.335048 6.12765e-17 -0.942201
v 0.0857784 0 0.179798
vt -5.22941 7.15174e-16
vt -4.08213 7.15174e-16
vt -4.08213 7.87402
f 51/86/23 52/87/23 50/88/22 49/89/22 

v 0.112635 0.2 0.191108
vt -7.00705 7.87402
vn 0.439948 -3.59496e-17 -0.898023
v 0.112635 0 0.191108
vt -7.00705 0
vt -5.85977 0
vt -5.85977 7.87402
f 53/90/24 54/91/24 52/92/23 51/93/23 

v 0.138032 0.2 0.205397
vt -8.70134 7.87402
vn 0.539149 -6.52244e-17 -0.84221
v 0.138032 0 0.205397
vt -8.70134 -3.14619e-16
vt -7.55406 -3.14619e-16
vt -7.55406 7.87402
f 55/94/25 56/95/25 54/96/24 53/97/24 

vn 0.586207 -5.84546e-17 -0.810161
vt -10.2903 -1.96742e-16
vt -9.14305 -1.96742e-16
f 39/27/26 40/98/26 56/99/25 55/30/25 

vn -0.951657 0 0.307162
v 0.15269 0.2 0.194747
vn -0.967596 0 0.252504
v 0.15269 0 0.194747
f 40/33/27 39/34/27 57/31/28 58/32/28 

v 0.156924 0.2 0.0509878
vt 6.17812 -2.00739
vt 6.01141 -7.66722
f 59/100/5 57/101/5 39/6/5

v 0.149511 0.2 0.0791701
vt 5.88627 -3.11693
f 60/102/5 57/101/5 59/100/5

v 0.146948 0.2 0.166178
vt 5.78537 -6.54243
f 60/102/5 61/103/5 57/101/5

v 0.145349 0.2 0.108012
vt 5.72239 -4.25245
f 62/104/5 61/103/5 60/102/5

v 0.144491 0.2 0.137141
vt 5.68861 -5.39923
f 61/103/5 62/104/5 63/105/5

v 0.144491 0 0.137141
vt 5.22941 0
vn -0.999622 0 0.0274931
vn -0.996271 -3.20585e-17 -0.0862813
v 0.145349 0 0.108012
vt 4.08213 0
f 64/106/29 63/69/29 62/66/30 65/107/30 

v 0.146948 0 0.166178
vt 7.00705 0
vn -0.990022 0 0.140911
vt 5.85977 0
f 66/108/31 61/40/31 63/41/29 64/109/29 

vt 8.70134 0
vt 7.55406 0
f 58/110/28 57/38/28 61/35/31 66/111/31 

vt -5.78537 -6.54243
v 0.149511 0 0.0791701
vt -5.88627 -3.11693
vt -6.01141 -7.66722
f 66/112/2 67/113/2 58/114/2

vt -5.72239 -4.25245
f 66/112/2 65/115/2 67/113/2

vt -5.68861 -5.39923
f 65/115/2 66/112/2 64/116/2

vt 3.39145 -4.01434e-16
vn -0.980012 -1.32702e-16 -0.198938
vt 2.24417 -4.01434e-16
f 65/117/30 62/73/30 60/70/32 67/118/32 

vt 1.51699 -1.30334e-15
vn -0.967102 -2.0096e-16 -0.25439
v 0.156924 0 0.0509878
vt 0.369703 -1.30334e-15
f 67/119/32 60/77/32 59/74/33 68/120/33 

vt -0.369703 -9.17693e-16
vn -0.931928 -1.41498e-16 -0.362643
v 0.167492 0.2 0.0238305
vn -0.909779 -7.42088e-17 -0.415093
v 0.167492 0 0.0238305
vt -1.51699 -9.17693e-16
f 68/121/34 59/81/34 69/78/35 70/122/35 

vt 6.59418 -0.938209
f 59/100/5 39/6/5 69/123/5

f 39/6/5 23/54/5 69/123/5

v 0.181078 0.2 -0.00194995
vt 7.12904 0.0767696
f 69/123/5 23/54/5 71/124/5

v 0.197505 0.2 -0.0260196
vt 7.77577 1.02439
f 71/124/5 23/54/5 72/125/5

v 0.216561 0.2 -0.0480665
vt 8.52601 1.89238
f 72/125/5 23/54/5 73/126/5

v 0.237998 0.2 -0.0678051
vt 9.37002 2.66949
f 73/126/5 23/54/5 74/127/5

v 0.261541 0.2 -0.0849797
f 74/127/5 23/54/5 75/8/5

v 0.0744221 0.2 -0.15193
f 23/54/5 76/16/5 75/8/5

v 0.0541015 0.2 -0.172818
f 23/54/5 77/17/5 76/16/5

v 0.0362862 0.2 -0.195879
f 23/54/5 78/18/5 77/17/5

v 0.0212069 0.2 -0.220815
f 23/54/5 79/19/5 78/18/5

v 0.00905907 0.2 -0.247303
f 23/54/5 80/20/5 79/19/5

f 22/9/5 80/20/5 23/54/5

v -2.25597e-17 0.2 -0.275
vt -8.88178e-16 10.8268
f 22/9/5 81/128/5 80/20/5

v -0.00905907 0.2 -0.247303
f 22/9/5 82/22/5 81/128/5

v -0.0212069 0.2 -0.220815
vt -0.834919 8.69349
f 22/9/5 83/129/5 82/22/5

v -0.0362862 0.2 -0.195879
vt -1.42859 7.71175
f 22/9/5 84/130/5 83/129/5

v -0.0541015 0.2 -0.172818
vt -2.12998 6.80384
f 22/9/5 85/131/5 84/130/5

v -0.0744221 0.2 -0.15193
vt -2.93 5.98151
f 22/9/5 86/132/5 85/131/5

v -0.0969846 0.2 -0.133488
vt -3.81829 5.25543
f 22/9/5 87/133/5 86/132/5

v -0.121497 0.2 -0.117729
vt -4.78334 4.63499
f 22/9/5 88/134/5 87/133/5

v -0.147641 0.2 -0.104857
vt -5.81264 4.12823
f 22/9/5 89/135/5 88/134/5

v -0.175079 0.2 -0.09504
vt -6.89285 3.74173
f 22/9/5 90/136/5 89/135/5

v -0.203454 0.2 -0.0884045
vt -8.01 3.48049
f 22/9/5 91/137/5 90/136/5

f 22/9/5 25/26/5 91/137/5

vt -8.70134 -2.24958e-16
vt -7.55406 -2.24958e-16
vn 0.171919 -3.70542e-17 0.985111
f 25/94/7 8/138/7 9/139/36 91/97/36 

vt -7.00705 -1.18138e-16
vt -5.85977 -1.18138e-16
vn 0.282753 2.16038e-18 0.959193
f 91/90/36 9/140/36 10/141/37 90/93/37 

vt -4.08213 1.57678e-16
vn 0.389923 -1.00517e-16 0.920847
vt -5.22941 1.57678e-16
f 11/142/38 89/89/38 90/86/37 10/143/37 

vt -2.24417 -1.42784e-15
vn 0.492042 -2.72871e-16 0.870572
vt -3.39145 -1.42784e-15
f 12/144/39 88/85/39 89/82/38 11/145/38 

vt -1.51699 -2.05705e-15
vt -0.369703 -2.05705e-15
vn 0.54079 -3.17174e-16 0.841158
f 88/78/39 12/146/39 13/147/40 87/81/40 

vn 0.632875 -8.69719e-17 0.774254
vt 0.369703 -5.64059e-16
vt 1.51699 -5.64059e-16
vn 0.675914 -4.35566e-17 0.736981
f 87/74/41 13/148/41 14/149/42 86/77/42 

vt 2.24417 0
vt 3.39145 0
vn 0.755285 0 0.655396
f 86/70/42 14/150/42 15/151/43 85/73/43 

vn 0.824871 -1.38582e-18 0.565321
f 16/106/44 84/69/44 85/66/43 15/107/43 

vt 7.00705 -1.44251e-17
vn 0.88377 -1.79314e-17 0.467921
vt 5.85977 -1.44251e-17
f 17/152/45 83/40/45 84/41/44 16/153/44 

vt 7.55406 -1.44801e-16
vt 8.70134 -1.44801e-16
vn 0.93122 -1.65456e-17 0.364459
f 83/35/45 17/154/45 18/155/46 82/38/46 

vn 0.950452 0 0.310871
f 82/31/46 18/32/46 19/33/47 81/34/47 

vt -9.14305 0
vn -0.93122 5.13548e-17 0.364459
vn -0.950452 0 0.310871
vt -10.2903 0
f 20/156/48 80/30/48 81/27/49 19/157/49 

v 0.0212069 0 -0.220815
vt -7.55406 4.4944e-16
vn -0.88377 1.00468e-16 0.467921
vt -8.70134 4.4944e-16
f 92/158/50 79/97/50 80/94/48 20/159/48 

v 0.0362862 0 -0.195879
vt -5.85977 5.11221e-16
vn -0.824871 4.91131e-17 0.565321
vt -7.00705 5.11221e-16
f 93/160/51 78/93/51 79/90/50 92/161/50 

v 0.0541015 0 -0.172818
vt -4.08213 0
vn -0.755285 2.95682e-17 0.655396
vt -5.22941 0
f 94/162/52 77/89/52 78/86/51 93/163/51 

v 0.0744221 0 -0.15193
vt -2.24417 3.70251e-16
vn -0.675914 7.49728e-17 0.736981
vt -3.39145 3.70251e-16
f 95/164/53 76/85/53 77/82/52 94/165/52 

v 0.0969846 0 -0.133488
vt -0.369703 5.87992e-16
vn -0.632875 9.06621e-17 0.774254
v 0.0969846 0.2 -0.133488
vt -1.51699 5.87992e-16
f 96/166/54 97/81/54 76/78/53 95/167/53 

vn -0.54079 7.9188e-17 0.841158
vt 0.369703 5.13576e-16
v 0.121497 0 -0.117729
vt 1.51699 5.13576e-16
vn -0.492042 6.45752e-17 0.870572
v 0.121497 0.2 -0.117729
f 97/74/55 96/168/55 98/169/56 99/77/56 

v 0.261541 0 -0.0849797
f 96/133/2 100/24/2 98/134/2

f 95/132/2 100/24/2 96/133/2

f 95/132/2 21/23/2 100/24/2

f 94/131/2 21/23/2 95/132/2

f 93/130/2 21/23/2 94/131/2

f 92/129/2 21/23/2 93/130/2

f 20/22/2 21/23/2 92/129/2

v 0.237998 0 -0.0678051
f 21/23/2 101/46/2 100/24/2

v 0.216561 0 -0.0480665
f 21/23/2 102/43/2 101/46/2

v 0.197505 0 -0.0260196
f 21/23/2 103/45/2 102/43/2

v 0.181078 0 -0.00194995
vt -7.12904 0.0767696
f 21/23/2 104/170/2 103/45/2

vt -6.59418 -0.938209
f 21/23/2 70/171/2 104/170/2

f 21/23/2 40/44/2 70/171/2

vt -6.17812 -2.00739
f 40/44/2 68/172/2 70/171/2

f 58/114/2 68/172/2 40/44/2

f 58/114/2 67/113/2 68/172/2

vn -0.856715 -3.34466e-18 -0.51579
vt -3.39145 -4.18816e-17
vt -2.24417 -4.18816e-17
f 71/82/57 104/173/57 70/174/35 69/85/35 

vn -0.792551 0 -0.609805
f 72/86/58 103/163/58 104/162/57 71/89/57 

vn -0.718119 -1.65498e-17 -0.69592
f 73/90/59 102/91/59 103/92/58 72/93/58 

vn -0.634384 -2.71924e-17 -0.773018
vt -8.70134 -1.44839e-16
vt -7.55406 -1.44839e-16
f 74/94/60 101/175/60 102/176/59 73/97/59 

vn -0.589361 -2.12505e-17 -0.80787
vt -10.2903 -7.15234e-17
vt -9.14305 -7.15234e-17
f 75/27/61 100/177/61 101/178/60 74/30/60 

v 0.2324 0.2 -0.0850365
vn -0.0588582 3.4805e-17 0.998266
v 0.2324 0 -0.0850365
vt 9.14305 7.51999e-19
vt 10.2903 7.51999e-19
vn -0.00194958 2.23429e-19 0.999998
f 105/31/62 106/179/62 100/180/63 75/34/63 

v 0.203454 0.2 -0.0884045
vn -0.171919 6.18198e-17 0.985111
v 0.203454 0 -0.0884045
vt 7.55406 3.03622e-16
vt 8.70134 3.03622e-16
f 107/35/64 108/181/64 106/182/62 105/38/62 

v 0.175079 0.2 -0.09504
vn -0.282753 2.71267e-17 0.959193
v 0.175079 0 -0.09504
vt 5.85977 2.82363e-16
vt 7.00705 2.82363e-16
f 109/41/65 110/183/65 108/184/64 107/40/64 

v 0.147641 0.2 -0.104857
vn -0.389923 2.4917e-17 0.920847
v 0.147641 0 -0.104857
f 111/66/66 112/107/66 110/106/65 109/69/65 

vt 2.24417 3.12009e-16
vt 3.39145 3.12009e-16
f 99/70/56 98/185/56 112/186/66 111/73/66 

f 98/134/2 100/24/2 112/135/2

f 112/135/2 100/24/2 110/136/2

f 110/136/2 100/24/2 108/137/2

f 108/137/2 100/24/2 106/26/2

f 75/8/5 99/14/5 111/13/5

f 75/8/5 97/15/5 99/14/5

f 75/8/5 76/16/5 97/15/5

f 75/8/5 111/13/5 109/12/5

f 75/8/5 109/12/5 107/11/5

f 75/8/5 107/11/5 105/10/5

f 40/44/2 54/49/2 56/48/2

f 40/44/2 52/50/2 54/49/2

f 40/44/2 50/51/2 52/50/2

f 40/44/2 48/52/2 50/51/2

f 40/44/2 41/53/2 48/52/2

f 53/58/5 39/6/5 55/59/5

f 51/57/5 39/6/5 53/58/5

f 49/56/5 39/6/5 51/57/5

f 47/55/5 39/6/5 49/56/5

f 38/53/5 39/6/5 47/55/5

vn 0.951657 0 0.307162
v -0.15269 0 0.194747
vn 0.967596 2.20411e-17 0.252504
v -0.15269 0.2 0.194747
f 32/27/67 5/157/67 113/156/68 114/30/68 

v -0.156924 0 0.0509878
f 5/6/2 115/100/2 113/101/2

v -0.167492 0 0.0238305
f 115/100/2 5/6/2 116/123/2

v -0.181078 0 -0.00194995
f 5/6/2 117/124/2 116/123/2

f 5/6/2 31/125/2 117/124/2

f 5/6/2 29/126/2 31/125/2

f 5/6/2 27/127/2 29/126/2

f 5/6/2 6/8/2 27/127/2

vt 5.22941 5.71657e-16
v -0.181078 0.2 -0.00194995
vn 0.856715 -1.70183e-17 -0.51579
vt 4.08213 5.71657e-16
f 31/187/11 30/69/11 118/66/69 117/188/69 

f 30/45/5 32/44/5 118/170/5

v -0.167492 0.2 0.0238305
f 118/170/5 32/44/5 119/171/5

v -0.156924 0.2 0.0509878
f 32/44/5 120/172/5 119/171/5

f 120/172/5 32/44/5 114/114/5

v -0.149511 0.2 0.0791701
f 120/172/5 114/114/5 121/113/5

v -0.146948 0.2 0.166178
f 121/113/5 114/114/5 122/112/5

v -0.146948 0 0.166178
vt -7.55406 1.92896e-16
vn 0.990022 2.20411e-17 0.140911
vt -8.70134 1.92896e-16
f 123/189/70 122/97/70 114/94/68 113/190/68 

v -0.144491 0 0.137141
vn 0.999622 -2.90816e-17 0.0274931
v -0.144491 0.2 0.137141
f 124/92/71 125/93/71 122/90/70 123/91/70 

v -0.145349 0 0.108012
vt -4.08213 -3.39419e-16
vn 0.996271 -1.1296e-16 -0.0862813
v -0.145349 0.2 0.108012
vt -5.22941 -3.39419e-16
f 126/191/72 127/89/72 125/86/71 124/192/71 

v -0.149511 0 0.0791701
vt -2.24417 -1.05031e-15
vn 0.980012 -1.65403e-16 -0.198938
vt -3.39145 -1.05031e-15
f 128/193/73 121/85/73 127/82/72 126/194/72 

vt -1.51699 -1.05576e-15
vt -0.369703 -1.05576e-15
vn 0.967102 -1.62786e-16 -0.25439
f 121/78/73 128/195/73 115/196/74 120/81/74 

f 113/101/2 115/100/2 128/102/2

f 113/101/2 128/102/2 123/103/2

f 123/103/2 128/102/2 126/104/2

f 123/103/2 126/104/2 124/105/2

vn 0.931928 -7.77074e-17 -0.362643
vt 0.369703 -5.03974e-16
vt 1.51699 -5.03974e-16
vn 0.909779 -1.04915e-16 -0.415093
f 120/74/75 115/197/75 116/198/76 119/77/76 

vt 2.24417 -8.26425e-16
vt 3.39145 -8.26425e-16
f 119/70/76 116/199/76 117/200/69 118/73/69 

f 121/113/5 122/112/5 127/115/5

f 127/115/5 122/112/5 125/116/5

