# Alias OBJ Model File
# Exported from SketchUp, (c) 2000-2012 Trimble Navigation Limited
# File units = meters

mtllib G_E.mtl

g Mesh1 Difference Model

usemtl Color_M02
v -0.293893 0 0.404508
vt -11.5706 0
vn 1.52656e-16 0 1
v 0.293893 0 0.404508
vt 11.5706 0
v 0.293893 0.2 0.404508
vt 11.5706 7.87402
v -0.293893 0.2 0.404508
vt -11.5706 7.87402
f 1/1/1 2/2/1 3/3/1 4/4/1 

vt 11.5706 -15.9255
vn 0 -1 -0
v -0.161641 0 0.22248
vt 6.36382 -8.75904
vt -11.5706 -15.9255
f 1/5/2 5/6/2 2/7/2

v -0.261541 0 -0.0849797
vt 10.2969 3.34566
f 5/6/2 1/5/2 6/8/2

v -0.475528 0 -0.154508
vt 18.7216 6.08301
f 7/9/2 6/8/2 1/5/2

v 1.07159e-16 0 -0.5
vt -4.21885e-15 19.685
f 6/8/2 7/9/2 8/10/2

vn -0.587785 0 -0.809017
v -0.475528 0.2 -0.154508
v 1.07159e-16 0.2 -0.5
f 8/1/3 7/2/3 9/3/3 10/4/3 

vn -0.951057 0 0.309017
f 7/1/4 1/2/4 4/3/4 9/4/4 

v -0.261541 0.2 -0.0849797
vt -10.2969 3.34566
vn 0 1 -0
vt -18.7216 6.08301
f 11/11/5 9/12/5 4/7/5

vt 4.21885e-15 19.685
f 9/12/5 11/11/5 10/13/5

v -0.2324 0.2 -0.0850365
vt -9.14959 3.34789
f 10/13/5 11/11/5 12/14/5

vt -10.2903 7.87402
vn 0.00194958 -4.32893e-19 0.999998
vt -10.2903 -1.457e-18
v -0.2324 0 -0.0850365
vt -9.14305 -1.457e-18
vn 0.0588582 -2.59214e-17 0.998266
vt -9.14305 7.87402
f 11/15/6 6/16/6 13/17/7 12/18/7 

v -0.237998 0.2 -0.0678051
vt 9.14305 7.87402
vn 0.634384 1.30117e-16 -0.773018
v -0.237998 0 -0.0678051
vt 9.14305 4.57684e-16
vt 10.2903 4.57684e-16
vn 0.589361 1.35984e-16 -0.80787
vt 10.2903 7.87402
f 14/19/8 15/20/8 6/21/9 11/22/9 

v -0.216561 0.2 -0.0480665
vt 7.55406 7.87402
vn 0.718119 6.20152e-17 -0.69592
v -0.216561 0 -0.0480665
vt 7.55406 5.42736e-16
vt 8.70134 5.42736e-16
vt 8.70134 7.87402
f 16/23/10 17/24/10 15/25/8 14/26/8 

v -0.197505 0.2 -0.0260196
vt 5.85977 7.87402
vn 0.792551 0 -0.609805
v -0.197505 0 -0.0260196
vt 5.85977 0
vt 7.00705 0
vt 7.00705 7.87402
f 18/27/11 19/28/11 17/29/10 16/30/10 

v -0.181078 0.2 -0.00194995
vt 4.08213 7.87402
vn 0.856715 -6.34041e-17 -0.51579
v -0.181078 0 -0.00194995
vt 4.08213 0
vt 5.22941 0
vt 5.22941 7.87402
f 20/31/12 21/32/12 19/33/11 18/34/11 

v -0.167492 0.2 0.0238305
vt 2.24417 7.87402
vn 0.909779 -1.27764e-16 -0.415093
v -0.167492 0 0.0238305
vt 2.24417 -7.93942e-16
vt 3.39145 -7.93942e-16
vt 3.39145 7.87402
f 22/35/13 23/36/13 21/37/12 20/38/12 

v -0.156924 0.2 0.0509878
vt 0.369703 7.87402
vn 0.931928 -1.28511e-16 -0.362643
v -0.156924 0 0.0509878
vt 0.369703 -8.33462e-16
vt 1.51699 -8.33462e-16
vt 1.51699 7.87402
f 24/39/14 25/40/14 23/41/13 22/42/13 

v -0.149511 0.2 0.0791701
vt -1.51699 7.87402
vn 0.980012 0 -0.198938
v -0.149511 0 0.0791701
vt -1.51699 0
vt -0.369703 0
vn 0.967102 0 -0.25439
vt -0.369703 7.87402
f 26/43/15 27/44/15 25/45/16 24/46/16 

v -0.145349 0.2 0.108012
vt -3.39145 7.87402
vn 0.996271 0 -0.0862813
v -0.145349 0 0.108012
vt -3.39145 0
vt -2.24417 0
vt -2.24417 7.87402
f 28/47/17 29/48/17 27/49/15 26/50/15 

v -0.144491 0.2 0.137141
vt -5.22941 7.87402
vn 0.999622 -2.5728e-17 0.0274931
v -0.144491 0 0.137141
vt -5.22941 0
vt -4.08213 0
vt -4.08213 7.87402
f 30/51/18 31/52/18 29/53/17 28/54/17 

v -0.146948 0.2 0.166178
vt -7.00705 7.87402
vn 0.990022 -1.30855e-16 0.140911
v -0.146948 0 0.166178
vt -7.00705 -2.67804e-16
vt -5.85977 -2.67804e-16
vt -5.85977 7.87402
f 32/55/19 33/56/19 31/57/18 30/58/18 

v -0.15269 0.2 0.194747
vt -8.70134 7.87402
vn 0.967596 -1.68574e-16 0.252504
v -0.15269 0 0.194747
vt -8.70134 -9.20033e-16
vt -7.55406 -9.20033e-16
vt -7.55406 7.87402
f 34/59/20 35/60/20 33/61/19 32/62/19 

v -0.161641 0.2 0.22248
vn 0.951657 -1.26689e-16 0.307162
vt -10.2903 -4.264e-16
vt -9.14305 -4.264e-16
f 36/15/21 5/63/21 35/64/20 34/18/20 

v -0.138032 0.2 0.205397
vn -0.539149 -1.37251e-16 -0.84221
v -0.138032 0 0.205397
vt 9.14305 -6.44603e-16
vt 10.2903 -6.44603e-16
vn -0.586207 -1.9152e-16 -0.810161
f 37/19/22 38/65/22 5/66/23 36/22/23 

v -0.112635 0.2 0.191108
vn -0.439948 -7.25255e-17 -0.898023
v -0.112635 0 0.191108
vt 7.55406 -3.61752e-16
vt 8.70134 -3.61752e-16
f 39/23/24 40/67/24 38/68/22 37/26/22 

v -0.0857784 0.2 0.179798
vn -0.335048 -6.1902e-17 -0.942201
v -0.0857784 0 0.179798
vt 5.85977 -3.24661e-16
vt 7.00705 -3.24661e-16
f 41/27/25 42/69/25 40/70/24 39/30/24 

v -0.0578105 0.2 0.171612
vn -0.225806 -5.73298e-17 -0.974172
v -0.0578105 0 0.171612
vt 4.08213 -3.58444e-16
vt 5.22941 -3.58444e-16
f 43/31/26 44/71/26 42/72/25 41/34/25 

v -0.0290937 0.2 0.166658
vn -0.113639 -5.44131e-17 -0.993522
v -0.0290937 0 0.166658
vt 2.24417 -3.33311e-16
vt 3.39145 -3.33311e-16
f 45/35/27 46/73/27 44/74/26 43/38/26 

v 1.28184e-18 0.2 0.165
vn -0.0569119 -5.54997e-17 -0.998379
v 1.28184e-18 0 0.165
vt 0.369703 -3.59945e-16
vt 1.51699 -3.59945e-16
f 47/39/28 48/75/28 46/76/27 45/42/27 

v 0.0290937 0.2 0.166658
vn 0.113639 -5.6041e-17 -0.993522
v 0.0290937 0 0.166658
vt -1.51699 -3.65233e-16
vt -0.369703 -3.65233e-16
vn 0.0569119 -5.6315e-17 -0.998379
f 49/43/29 50/77/29 48/78/30 47/46/30 

v 0.0578105 0.2 0.171612
vn 0.225806 -2.78378e-17 -0.974172
v 0.0578105 0 0.171612
vt -3.39145 -3.48583e-16
vt -2.24417 -3.48583e-16
f 51/47/31 52/79/31 50/80/29 49/50/29 

v 0.0857784 0.2 0.179798
vn 0.335048 0 -0.942201
v 0.0857784 0 0.179798
f 53/51/32 54/52/32 52/53/31 51/54/31 

v 0.112635 0.2 0.191108
vn 0.439948 -3.59496e-17 -0.898023
v 0.112635 0 0.191108
vt -7.00705 0
vt -5.85977 0
f 55/55/33 56/81/33 54/82/32 53/58/32 

v 0.138032 0.2 0.205397
vn 0.539149 -9.78181e-17 -0.84221
v 0.138032 0 0.205397
vt -8.70134 -3.14619e-16
vt -7.55406 -3.14619e-16
f 57/59/34 58/83/34 56/84/33 55/62/33 

v 0.161641 0.2 0.22248
vn 0.586207 -1.23536e-16 -0.810161
v 0.161641 0 0.22248
vt -10.2903 -4.1579e-16
vt -9.14305 -4.1579e-16
f 59/15/35 60/85/35 58/86/34 57/18/34 

v 0.15269 0.2 0.194747
vn -0.967596 6.82356e-17 0.252504
v 0.15269 0 0.194747
vt 9.14305 4.20581e-16
vt 10.2903 4.20581e-16
vn -0.951657 1.2496e-16 0.307162
f 61/19/36 62/87/36 60/88/37 59/22/37 

v 0.146948 0.2 0.166178
vn -0.990022 5.65415e-18 0.140911
v 0.146948 0 0.166178
vt 7.55406 4.94832e-17
vt 8.70134 4.94832e-17
f 63/23/38 64/89/38 62/90/36 61/26/36 

v 0.144491 0.2 0.137141
vn -0.999622 0 0.0274931
v 0.144491 0 0.137141
f 65/27/39 66/28/39 64/29/38 63/30/38 

v 0.145349 0.2 0.108012
vn -0.996271 0 -0.0862813
v 0.145349 0 0.108012
f 67/31/40 68/32/40 66/33/39 65/34/39 

v 0.149511 0.2 0.0791701
vn -0.980012 6.55897e-17 -0.198938
v 0.149511 0 0.0791701
vt 2.24417 0
vt 3.39145 0
f 69/35/41 70/91/41 68/92/40 67/38/40 

v 0.156924 0.2 0.0509878
vn -0.967102 1.30967e-16 -0.25439
v 0.156924 0 0.0509878
vt 0.369703 8.4939e-16
vt 1.51699 8.4939e-16
f 71/39/42 72/93/42 70/94/41 69/42/41 

v 0.167492 0.2 0.0238305
vn -0.909779 -1.92425e-18 -0.415093
v 0.167492 0 0.0238305
vt -1.51699 8.50308e-16
vt -0.369703 8.50308e-16
vn -0.931928 1.31108e-16 -0.362643
f 73/43/43 74/95/43 72/96/44 71/46/44 

v 0.181078 0.2 -0.00194995
vn -0.856715 -1.33191e-16 -0.51579
v 0.181078 0 -0.00194995
vt -3.39145 -8.46294e-16
vt -2.24417 -8.46294e-16
f 75/47/45 76/97/45 74/98/43 73/50/43 

v 0.197505 0.2 -0.0260196
vn -0.792551 -6.56056e-17 -0.609805
v 0.197505 0 -0.0260196
vt -5.22941 -7.657e-16
vt -4.08213 -7.657e-16
f 77/51/46 78/99/46 76/100/45 75/54/45 

v 0.216561 0.2 -0.0480665
vn -0.718119 -1.65498e-17 -0.69592
v 0.216561 0 -0.0480665
f 79/55/47 80/81/47 78/82/46 77/58/46 

v 0.237998 0.2 -0.0678051
vn -0.634384 -2.71924e-17 -0.773018
v 0.237998 0 -0.0678051
vt -8.70134 -1.44839e-16
vt -7.55406 -1.44839e-16
f 81/59/48 82/101/48 80/102/47 79/62/47 

v 0.261541 0.2 -0.0849797
vn -0.589361 -2.12505e-17 -0.80787
v 0.261541 0 -0.0849797
vt -10.2903 -7.15234e-17
vt -9.14305 -7.15234e-17
f 83/15/49 84/103/49 82/104/48 81/18/48 

v 0.2324 0.2 -0.0850365
vn -0.0588582 -6.74535e-18 0.998266
v 0.2324 0 -0.0850365
vt 9.14305 -7.51999e-19
vt 10.2903 -7.51999e-19
vn -0.00194958 -2.23429e-19 0.999998
f 85/19/50 86/105/50 84/106/51 83/22/51 

v 0.203454 0.2 -0.0884045
vn -0.171919 8.60177e-19 0.985111
v 0.203454 0 -0.0884045
vt 7.55406 -5.80537e-17
vt 8.70134 -5.80537e-17
f 87/23/52 88/107/52 86/108/50 85/26/50 

v 0.175079 0.2 -0.09504
vn -0.282753 2.10036e-17 0.959193
v 0.175079 0 -0.09504
vt 5.85977 7.80016e-17
vt 7.00705 7.80016e-17
f 89/27/53 90/109/53 88/110/52 87/30/52 

v 0.147641 0.2 -0.104857
vn -0.389923 2.53563e-17 0.920847
v 0.147641 0 -0.104857
vt 4.08213 1.57678e-16
vt 5.22941 1.57678e-16
f 91/31/54 92/111/54 90/112/53 89/34/53 

v 0.121497 0.2 -0.117729
vn -0.492042 1.18463e-17 0.870572
v 0.121497 0 -0.117729
vt 2.24417 1.48339e-16
vt 3.39145 1.48339e-16
f 93/35/55 94/113/55 92/114/54 91/38/54 

v 0.0969846 0.2 -0.133488
vn -0.54079 0 0.841158
v 0.0969846 0 -0.133488
vt 0.369703 0
vt 1.51699 0
f 95/39/56 96/115/56 94/116/55 93/42/55 

v 0.0744221 0.2 -0.15193
vn -0.675914 -5.93409e-17 0.736981
v 0.0744221 0 -0.15193
vn -0.632875 0 0.774254
f 97/43/57 98/44/57 96/45/58 95/46/58 

v 0.0541015 0.2 -0.172818
vn -0.755285 -1.91385e-16 0.655396
v 0.0541015 0 -0.172818
vt -3.39145 -7.43063e-16
vt -2.24417 -7.43063e-16
f 99/47/59 100/117/59 98/118/57 97/50/57 

v 0.0362862 0.2 -0.195879
vn -0.824871 -2.0115e-16 0.565321
v 0.0362862 0 -0.195879
vt -5.22941 -1.54112e-15
vt -4.08213 -1.54112e-15
f 101/51/60 102/119/60 100/120/59 99/54/59 

v 0.0212069 0.2 -0.220815
vn -0.88377 -6.91057e-17 0.467921
v 0.0212069 0 -0.220815
vt -7.00705 -7.19325e-16
vt -5.85977 -7.19325e-16
f 103/55/61 104/121/61 102/122/60 101/58/60 

v 0.00905907 0.2 -0.247303
vn -0.93122 -6.73363e-17 0.364459
v 0.00905907 0 -0.247303
vt -8.70134 0
vt -7.55406 0
f 105/59/62 106/123/62 104/124/61 103/62/61 

v -6.76792e-17 0.2 -0.275
vn -0.950452 -1.34454e-16 0.310871
v -1.12799e-17 0 -0.275
vt -10.2903 -4.52537e-16
vt -9.14305 -4.52537e-16
f 107/15/63 108/125/63 106/126/62 105/18/62 

v -0.00905907 0.2 -0.247303
vn 0.93122 6.78279e-17 0.364459
v -0.00905907 0 -0.247303
vt 9.14305 4.46808e-16
vt 10.2903 4.46808e-16
vn 0.950452 1.32752e-16 0.310871
f 109/19/64 110/127/64 108/128/65 107/22/65 

v -0.0212069 0.2 -0.220815
vn 0.88377 -2.87083e-18 0.467921
v -0.0212069 0 -0.220815
vt 7.55406 1.17618e-17
vt 8.70134 1.17618e-17
f 111/23/66 112/129/66 110/130/64 109/26/64 

v -0.0362862 0.2 -0.195879
vn 0.824871 2.9777e-17 0.565321
v -0.0362862 0 -0.195879
vt 5.85977 -4.38719e-17
vt 7.00705 -4.38719e-17
f 113/27/67 114/131/67 112/132/66 111/30/66 

v -0.0541015 0.2 -0.172818
vn 0.755285 7.40142e-17 0.655396
v -0.0541015 0 -0.172818
vt 4.08213 3.96727e-16
vt 5.22941 3.96727e-16
f 115/31/68 116/133/68 114/134/67 113/34/67 

v -0.0744221 0.2 -0.15193
vn 0.675914 4.15811e-18 0.736981
v -0.0744221 0 -0.15193
vt 2.24417 5.01158e-16
vt 3.39145 5.01158e-16
f 117/35/69 118/135/69 116/136/68 115/38/68 

v -0.0969846 0.2 -0.133488
vn 0.632875 -7.16124e-17 0.774254
v -0.0969846 0 -0.133488
vt 0.369703 -4.64445e-16
vt 1.51699 -4.64445e-16
f 119/39/70 120/137/70 118/138/69 117/42/69 

v -0.121497 0.2 -0.117729
vn 0.492042 -1.67654e-16 0.870572
v -0.121497 0 -0.117729
vt -1.51699 -1.35089e-15
vt -0.369703 -1.35089e-15
vn 0.54079 -2.08293e-16 0.841158
f 121/43/71 122/139/71 120/140/72 119/46/72 

v -0.147641 0.2 -0.104857
vn 0.389923 -6.33388e-17 0.920847
v -0.147641 0 -0.104857
vt -3.39145 -7.93124e-16
vt -2.24417 -7.93124e-16
f 123/47/73 124/141/73 122/142/71 121/50/71 

v -0.175079 0.2 -0.09504
vn 0.282753 -2.53213e-17 0.959193
v -0.175079 0 -0.09504
f 125/51/74 126/52/74 124/53/73 123/54/73 

v -0.203454 0.2 -0.0884045
vn 0.171919 -5.1026e-17 0.985111
v -0.203454 0 -0.0884045
vt -7.00705 -2.63571e-16
vt -5.85977 -2.63571e-16
f 127/55/75 128/143/75 126/144/74 125/58/74 

vt -8.70134 -2.24958e-16
vt -7.55406 -2.24958e-16
f 12/59/7 13/145/7 128/146/75 127/62/75 

vt 9.14959 3.34789
vt 8.01 3.48049
f 13/147/2 8/10/2 128/148/2

f 6/8/2 8/10/2 13/147/2

vt 6.89285 3.74173
f 128/148/2 8/10/2 126/149/2

vt 5.81264 4.12823
f 126/149/2 8/10/2 124/150/2

vt 4.78334 4.63499
f 124/150/2 8/10/2 122/151/2

vt 3.81829 5.25543
f 122/151/2 8/10/2 120/152/2

vt 2.93 5.98151
f 120/152/2 8/10/2 118/153/2

vt 2.12998 6.80384
f 118/153/2 8/10/2 116/154/2

vt 1.42859 7.71175
f 116/154/2 8/10/2 114/155/2

vt 0.834919 8.69349
f 114/155/2 8/10/2 112/156/2

vt 0.356656 9.73633
f 112/156/2 8/10/2 110/157/2

vt 4.44089e-16 10.8268
f 110/157/2 8/10/2 108/158/2

vt -0.356656 9.73633
f 108/158/2 8/10/2 106/159/2

v 0.475528 0 -0.154508
f 106/159/2 8/10/2 129/12/2

vn 0.587785 0 -0.809017
v 0.475528 0.2 -0.154508
f 129/1/76 8/2/76 10/3/76 130/4/76 

f 10/13/5 105/157/5 130/9/5

vt -2.66454e-15 10.8268
f 10/13/5 107/160/5 105/157/5

f 10/13/5 109/159/5 107/160/5

vt -0.834919 8.69349
f 10/13/5 111/161/5 109/159/5

vt -1.42859 7.71175
f 10/13/5 113/162/5 111/161/5

vt -2.12998 6.80384
f 10/13/5 115/163/5 113/162/5

vt -2.93 5.98151
f 10/13/5 117/164/5 115/163/5

vt -3.81829 5.25543
f 10/13/5 119/165/5 117/164/5

vt -4.78334 4.63499
f 10/13/5 121/166/5 119/165/5

vt -5.81264 4.12823
f 10/13/5 123/167/5 121/166/5

vt -6.89285 3.74173
f 10/13/5 125/168/5 123/167/5

vt -8.01 3.48049
f 10/13/5 127/169/5 125/168/5

f 10/13/5 12/14/5 127/169/5

f 130/9/5 105/157/5 103/156/5

f 130/9/5 103/156/5 101/155/5

f 130/9/5 101/155/5 99/154/5

f 130/9/5 99/154/5 97/153/5

f 130/9/5 97/153/5 95/152/5

f 130/9/5 95/152/5 93/151/5

f 130/9/5 93/151/5 91/150/5

f 130/9/5 91/150/5 89/149/5

f 130/9/5 89/149/5 87/148/5

f 130/9/5 87/148/5 85/147/5

f 130/9/5 85/147/5 83/8/5

f 130/9/5 83/8/5 3/5/5

vt 9.37002 2.66949
f 81/170/5 3/5/5 83/8/5

vt 8.52601 1.89238
f 79/171/5 3/5/5 81/170/5

vt 7.77577 1.02439
f 77/172/5 3/5/5 79/171/5

vt 7.12904 0.0767696
f 75/173/5 3/5/5 77/172/5

vt 6.59418 -0.938209
f 73/174/5 3/5/5 75/173/5

f 59/6/5 3/5/5 73/174/5

vt 5.43433 -8.0865
f 57/175/5 3/5/5 59/6/5

vt 4.43444 -7.52394
f 55/176/5 3/5/5 57/175/5

vt 3.3771 -7.07864
f 53/177/5 3/5/5 55/176/5

vt 2.27601 -6.75639
f 51/178/5 3/5/5 53/177/5

vt 1.14542 -6.56136
f 49/179/5 3/5/5 51/178/5

vt 5.0466e-17 -6.49606
f 47/180/5 3/5/5 49/179/5

vt -1.14542 -6.56136
f 45/181/5 3/5/5 47/180/5

vt -2.27601 -6.75639
f 43/182/5 3/5/5 45/181/5

vt -3.3771 -7.07864
f 41/183/5 3/5/5 43/182/5

vt -4.43444 -7.52394
f 39/184/5 3/5/5 41/183/5

vt -5.43433 -8.0865
f 37/185/5 3/5/5 39/184/5

vt -6.36382 -8.75904
f 36/186/5 3/5/5 37/185/5

f 36/186/5 4/7/5 3/5/5

f 4/7/5 36/186/5 11/11/5

vt -9.37002 2.66949
f 11/11/5 36/186/5 14/187/5

vt -8.52601 1.89238
f 14/187/5 36/186/5 16/188/5

vt -7.77577 1.02439
f 16/188/5 36/186/5 18/189/5

vt -7.12904 0.0767696
f 18/189/5 36/186/5 20/190/5

vt -6.59418 -0.938209
f 20/190/5 36/186/5 22/191/5

vt -6.17812 -2.00739
f 36/186/5 24/192/5 22/191/5

vt -6.01141 -7.66722
f 24/192/5 36/186/5 34/193/5

vt -5.88627 -3.11693
f 24/192/5 34/193/5 26/194/5

vt -5.78537 -6.54243
f 26/194/5 34/193/5 32/195/5

vt -5.72239 -4.25245
f 26/194/5 32/195/5 28/196/5

vt -5.68861 -5.39923
f 28/196/5 32/195/5 30/197/5

vt 6.17812 -2.00739
f 71/198/5 59/6/5 73/174/5

vt 6.01141 -7.66722
f 71/198/5 61/199/5 59/6/5

vt 5.88627 -3.11693
f 69/200/5 61/199/5 71/198/5

vt 5.78537 -6.54243
f 69/200/5 63/201/5 61/199/5

vt 5.72239 -4.25245
f 67/202/5 63/201/5 69/200/5

vt 5.68861 -5.39923
f 63/201/5 67/202/5 65/203/5

vn 0.951057 0 0.309017
f 2/1/77 129/2/77 130/3/77 3/4/77 

f 84/11/2 129/12/2 2/7/2

f 86/14/2 129/12/2 84/11/2

f 88/169/2 129/12/2 86/14/2

f 90/168/2 129/12/2 88/169/2

f 92/167/2 129/12/2 90/168/2

f 94/166/2 129/12/2 92/167/2

f 96/165/2 129/12/2 94/166/2

f 98/164/2 129/12/2 96/165/2

f 100/163/2 129/12/2 98/164/2

f 102/162/2 129/12/2 100/163/2

f 104/161/2 129/12/2 102/162/2

f 106/159/2 129/12/2 104/161/2

f 2/7/2 82/187/2 84/11/2

f 2/7/2 80/188/2 82/187/2

f 2/7/2 78/189/2 80/188/2

f 2/7/2 76/190/2 78/189/2

f 2/7/2 74/191/2 76/190/2

f 2/7/2 60/186/2 74/191/2

f 2/7/2 58/185/2 60/186/2

f 2/7/2 56/184/2 58/185/2

f 2/7/2 54/183/2 56/184/2

f 2/7/2 52/182/2 54/183/2

f 2/7/2 50/181/2 52/182/2

vt -5.0466e-17 -6.49606
f 2/7/2 48/204/2 50/181/2

f 2/7/2 46/179/2 48/204/2

f 2/7/2 44/178/2 46/179/2

f 2/7/2 42/177/2 44/178/2

f 2/7/2 40/176/2 42/177/2

f 2/7/2 38/175/2 40/176/2

f 2/7/2 5/6/2 38/175/2

f 60/186/2 72/192/2 74/191/2

f 62/193/2 72/192/2 60/186/2

f 62/193/2 70/194/2 72/192/2

f 64/195/2 70/194/2 62/193/2

f 64/195/2 68/196/2 70/194/2

f 68/196/2 64/195/2 66/197/2

f 5/6/2 25/198/2 35/199/2

f 25/198/2 5/6/2 23/174/2

f 5/6/2 21/173/2 23/174/2

f 5/6/2 19/172/2 21/173/2

f 5/6/2 17/171/2 19/172/2

f 5/6/2 15/170/2 17/171/2

f 5/6/2 6/8/2 15/170/2

f 35/199/2 25/198/2 27/200/2

f 35/199/2 27/200/2 33/201/2

f 33/201/2 27/200/2 29/202/2

f 33/201/2 29/202/2 31/203/2

