# Alias OBJ Model File
# Exported from SketchUp, (c) 2000-2012 Trimble Navigation Limited
# File units = meters

mtllib A_F.mtl

g Mesh1 Difference Model

usemtl Color_A03
v -0.3 0 -0
vt -6.07672 0
vn -0.857493 0 0.514496
v -6.12323e-17 0 0.5
vt 16.8798 0
v -6.12323e-17 0.2 0.5
vt 16.8798 7.87402
v -0.3 0.2 -0
vt -6.07672 7.87402
f 1/1/1 2/2/1 3/3/1 4/4/1 

vt 11.811 0
vn 0 -1 -0
v -0.153559 0 0.210933
vt 6.04563 -8.30445
vt 2.41072e-15 -19.685
f 1/5/2 5/6/2 2/7/2

v -0.248464 0 -0.0811534
vt 9.78203 3.19502
f 5/6/2 1/5/2 6/8/2

v 0 0 -0.5
vt 0 19.685
f 7/9/2 6/8/2 1/5/2

v -0.100129 0 -0.137541
vt 3.9421 5.41499
f 6/8/2 7/9/2 8/10/2

v -4.51195e-17 0 -0.261673
vt 1.77636e-15 10.3021
f 8/10/2 7/9/2 9/11/2

v 0.100129 0 -0.137541
vt -3.9421 5.41499
f 9/11/2 7/9/2 10/12/2

v 0.248464 0 -0.0811534
vt -9.78203 3.19502
f 10/12/2 7/9/2 11/13/2

v 0.3 0 -0
vt -11.811 0
f 11/13/2 7/9/2 12/14/2

vn 0.857493 0 -0.514496
v 0 0.2 -0.5
v 0.3 0.2 -0
f 12/1/3 7/2/3 13/3/3 14/4/3 

vt -16.8798 0
vn -0.857493 0 -0.514496
vt 6.07672 0
vt 6.07672 7.87402
vt -16.8798 7.87402
f 7/15/4 1/16/4 4/17/4 13/18/4 

v -0.248464 0.2 -0.0811534
vn 0 1 -0
f 15/13/5 13/9/5 4/14/5

v -0.100129 0.2 -0.137541
f 13/9/5 15/13/5 16/12/5

vt -1.76074 2.6316e-16
vn 0.35533 4.0722e-17 0.934741
vt -1.76074 7.87402
vt -8.00838 7.87402
vt -8.00838 2.6316e-16
f 8/19/6 16/20/6 15/21/6 6/22/6 

vt 8.01855 -6.88517e-16
vn 0.778343 -1.06449e-16 0.62784
v 4.51195e-17 0.2 -0.261673
vt 8.01855 7.87402
vt 1.73971 7.87402
vt 1.73971 -6.88517e-16
f 9/23/7 17/24/7 16/25/7 8/26/7 

vt -1.73971 2.25204e-15
vn -0.778343 3.48179e-16 0.62784
v 0.100129 0.2 -0.137541
vt -1.73971 7.87402
vt -8.01855 7.87402
vt -8.01855 2.25204e-15
f 10/27/8 18/28/8 17/29/8 9/30/8 

vt 8.00838 4.86016e-17
vn -0.35533 7.52073e-18 0.934741
v 0.248464 0.2 -0.0811534
vt 8.00838 7.87402
vt 1.76074 7.87402
vt 1.76074 4.86016e-17
f 11/31/9 19/32/9 18/33/9 10/34/9 

v 0.162013 0 0.0529168
vt -1.70573 -9.37585e-16
vn -0.840428 -1.44474e-16 -0.541923
v 0.162013 0.2 0.0529168
vt -1.70573 7.87402
vt -7.98628 7.87402
vt -7.98628 -9.37585e-16
f 20/35/10 21/36/10 19/37/10 11/38/10 

v 0.153559 0 0.210933
vt 7.96961 -7.41644e-16
vn -0.998572 -1.1444e-16 -0.0534237
v 0.153559 0.2 0.210933
vt 7.96961 7.87402
vt 1.7396 7.87402
vt 1.7396 -7.41644e-16
f 22/39/11 23/40/11 21/41/11 20/42/11 

v -1.10798e-17 0 0.170626
vt -1.70549 -9.45253e-17
vn 0.253885 -1.45481e-17 -0.967234
v -1.10798e-17 0.2 0.170626
vt -1.70549 7.87402
vt -7.95591 7.87402
vt -7.95591 -9.45253e-17
f 24/43/12 25/44/12 23/45/12 22/46/12 

vt 7.95591 0
vn -0.253885 0 -0.967234
v -0.153559 0.2 0.210933
vt 7.95591 7.87402
vt 1.70549 7.87402
vt 1.70549 0
f 5/47/13 26/48/13 25/49/13 24/50/13 

vt -7.96961 7.87402
vn 0.998572 -5.69624e-17 -0.0534237
vt -7.96961 -3.69153e-16
v -0.162013 0 0.0529168
vt -1.7396 -3.69153e-16
v -0.162013 0.2 0.0529168
vt -1.7396 7.87402
f 26/51/14 5/52/14 27/53/14 28/54/14 

vt 6.37846 -2.08334
f 5/6/2 6/8/2 27/55/2

vt 7.98628 2.11766e-16
vn 0.840428 3.26314e-17 -0.541923
vt 7.98628 7.87402
vt 1.70573 7.87402
vt 1.70573 2.11766e-16
f 6/56/15 15/57/15 28/58/15 27/59/15 

vt -6.04563 -8.30445
vt -6.37846 -2.08334
f 15/13/5 26/60/5 28/61/5

f 4/14/5 26/60/5 15/13/5

vt -2.41072e-15 -19.685
f 26/60/5 4/14/5 3/62/5

vt -4.36214e-16 -6.71756
f 26/60/5 3/62/5 25/63/5

f 25/63/5 3/62/5 23/6/5

f 23/6/5 3/62/5 14/5/5

vn 0.857493 0 0.514496
f 2/15/16 12/16/16 14/17/16 3/18/16 

f 2/7/2 22/60/2 12/14/2

vt 4.36214e-16 -6.71756
f 2/7/2 24/64/2 22/60/2

f 2/7/2 5/6/2 24/64/2

f 12/14/2 22/60/2 20/61/2

f 12/14/2 20/61/2 11/13/2

f 23/6/5 14/5/5 21/55/5

f 21/55/5 14/5/5 19/8/5

f 13/9/5 19/8/5 14/5/5

f 13/9/5 17/11/5 19/8/5

f 13/9/5 16/12/5 17/11/5

f 19/8/5 17/11/5 18/10/5

