# Alias OBJ Model File
# Exported from SketchUp, (c) 2000-2012 Trimble Navigation Limited
# File units = meters

mtllib C_F.mtl

g Mesh1 Difference Model

usemtl Color_D03
v 0 0 -0.5
vt 0 19.685
vn 0 -1 -0
v -0.261541 0 -0.0854246
vt 10.2969 3.36317
v -0.5 0 -3.06162e-17
vt 19.685 1.20536e-15
f 1/1/1 2/2/1 3/3/1

v -0.105399 0 -0.14478
vt 4.14958 5.69999
f 2/2/1 1/1/1 4/4/1

v 9.02389e-17 0 -0.275445
vt -3.55271e-15 10.8443
f 4/4/1 1/1/1 5/5/1

v 0.5 0 9.18485e-17
vt -19.685 -3.61608e-15
f 5/5/1 1/1/1 6/6/1

vt -13.9194 0
vn 0.707107 0 -0.707107
vt 13.9194 0
v 0 0.2 -0.5
vt 13.9194 7.87402
v 0.5 0.2 9.18485e-17
vt -13.9194 7.87402
f 6/7/2 1/8/2 7/9/2 8/10/2 

vn -0.707107 0 -0.707107
v -0.5 0.2 -3.06162e-17
f 1/7/3 3/8/3 9/9/3 7/10/3 

vn -0.707107 0 0.707107
v -6.12323e-17 0 0.5
v -6.12323e-17 0.2 0.5
f 3/7/4 10/8/4 11/9/4 9/10/4 

v -0.161641 0 0.222035
vt 6.36382 -8.74152
vt 2.41072e-15 -19.685
f 3/3/1 12/11/1 10/12/1

f 12/11/1 3/3/1 2/2/1

v -0.17054 0 0.0557019
vt 6.71416 -2.19299
f 12/11/1 2/2/1 13/13/1

v -0.17054 0.2 0.0557019
vt 1.79551 7.87402
vn 0.840428 3.10531e-17 -0.541923
vt 1.79551 2.1213e-16
vt 8.40661 2.1213e-16
v -0.261541 0.2 -0.0854246
vt 8.40661 7.87402
f 14/14/5 13/15/5 2/16/5 15/17/5 

v -0.161641 0.2 0.222035
vt -8.38906 7.87402
vn 0.998572 -2.26834e-16 -0.0534237
vt -8.38906 -1.5474e-15
vt -1.83116 -1.5474e-15
vt -1.83116 7.87402
f 16/18/6 12/19/6 13/20/6 14/21/6 

v 1.10798e-17 0.2 0.179606
vt 1.79525 7.87402
vn -0.253885 5.81922e-17 -0.967234
v 1.10798e-17 0 0.179606
vt 1.79525 3.98001e-16
vt 8.37465 3.98001e-16
vt 8.37465 7.87402
f 17/22/7 18/23/7 12/24/7 16/25/7 

vt -1.79525 0
vn 0.253885 0 -0.967234
vt -1.79525 7.87402
v 0.161641 0.2 0.222035
vt -8.37465 7.87402
v 0.161641 0 0.222035
vt -8.37465 0
f 18/26/8 17/27/8 19/28/8 20/29/8 

vt 4.36214e-16 -7.07111
vn 0 1 -0
vt -2.41072e-15 -19.685
f 17/30/9 11/31/9 19/11/9

vt -6.36382 -8.74152
f 16/32/9 11/31/9 17/30/9

vt -19.685 1.20536e-15
f 16/32/9 9/33/9 11/31/9

vt -10.2969 3.36317
f 9/33/9 16/32/9 15/34/9

vt -6.71416 -2.19299
f 15/34/9 16/32/9 14/35/9

f 15/34/9 7/1/9 9/33/9

v -0.105399 0.2 -0.14478
vt -4.14958 5.69999
f 7/1/9 15/34/9 21/36/9

vt -8.42987 7.87402
vn 0.35533 5.99824e-17 0.934741
vt -8.42987 4.08029e-16
vt -1.85341 4.08029e-16
vt -1.85341 7.87402
f 15/37/10 2/38/10 4/39/10 21/40/10 

vt 1.83127 7.87402
vn 0.778343 6.33285e-17 0.62784
vt 1.83127 4.3117e-16
vt 8.44057 4.3117e-16
v 9.02389e-17 0.2 -0.275445
vt 8.44057 7.87402
f 21/41/11 4/42/11 5/43/11 22/44/11 

vt -8.44057 7.87402
vn -0.778343 0 0.62784
vt -8.44057 0
v 0.105399 0 -0.14478
vt -1.83127 0
v 0.105399 0.2 -0.14478
vt -1.83127 7.87402
f 22/45/12 5/46/12 23/47/12 24/48/12 

f 5/5/1 6/6/1 23/36/1

v 0.261541 0 -0.0854246
f 23/36/1 6/6/1 25/34/1

v 0.17054 0 0.0557019
f 6/6/1 26/35/1 25/34/1

f 6/6/1 20/32/1 26/35/1

f 10/12/1 20/32/1 6/6/1

vt -4.36214e-16 -7.07111
f 10/12/1 18/49/1 20/32/1

f 10/12/1 12/11/1 18/49/1

vn 0.707107 0 0.707107
f 10/7/13 6/8/13 8/9/13 11/10/13 

vt 19.685 -3.61608e-15
f 19/11/9 11/31/9 8/50/9

v 0.17054 0.2 0.0557019
f 19/11/9 8/50/9 27/13/9

v 0.261541 0.2 -0.0854246
f 27/13/9 8/50/9 28/2/9

f 8/50/9 24/4/9 28/2/9

vt 3.55271e-15 10.8443
f 8/50/9 22/51/9 24/4/9

f 7/1/9 22/51/9 8/50/9

f 7/1/9 21/36/9 22/51/9

vt 1.85341 7.87402
vn -0.35533 0 0.934741
vt 1.85341 0
vt 8.42987 0
vt 8.42987 7.87402
f 24/52/14 23/53/14 25/54/14 28/55/14 

vt -8.40661 7.87402
vn -0.840428 4.97363e-17 -0.541923
vt -8.40661 3.39759e-16
vt -1.79551 3.39759e-16
vt -1.79551 7.87402
f 28/56/15 25/57/15 26/58/15 27/59/15 

vt 1.83116 7.87402
vn -0.998572 1.0806e-16 -0.0534237
vt 1.83116 7.37155e-16
vt 8.38906 7.37155e-16
vt 8.38906 7.87402
f 27/60/16 26/61/16 20/62/16 19/63/16 

