# Alias OBJ Model File
# Exported from SketchUp, (c) 2000-2012 Trimble Navigation Limited
# File units = meters

mtllib D_F.mtl

g Mesh1 Difference Model

usemtl Color_G01
v 0 0 -0.5
vt 0 19.685
vn 0 -1 -0
v -0.124264 0 -0.3
vt 4.89229 11.811
v -0.124264 0 -0.375736
vt 4.89229 14.7928
f 1/1/1 2/2/1 3/3/1

v -0.105399 0 -0.14478
vt 4.14958 5.69999
f 2/2/1 1/1/1 4/4/1

v 0 0 -0.275445
vt 0 10.8443
f 4/4/1 1/1/1 5/5/1

v 0.124264 0 -0.375736
vt -4.89229 14.7928
f 5/5/1 1/1/1 6/6/1

vt 7.00069 0
vn 0.707107 0 -0.707107
vt 13.9194 0
v 0 0.2 -0.5
vt 13.9194 7.87402
v 0.124264 0.2 -0.375736
vt 7.00069 7.87402
f 6/7/2 1/8/2 7/9/2 8/10/2 

vt -13.9194 0
vn -0.707107 0 -0.707107
vt -7.00069 0
v -0.124264 0.2 -0.375736
vt -7.00069 7.87402
vt -13.9194 7.87402
f 1/11/3 3/12/3 9/13/3 7/14/3 

vt -14.7928 0
vn -1 0 -0
vt -11.811 0
v -0.124264 0.2 -0.3
vt -11.811 7.87402
vt -14.7928 7.87402
f 3/15/4 2/16/4 10/17/4 9/18/4 

vt -4.89229 0
v -0.3 0 -0.124264
vt 4.89229 0
v -0.3 0.2 -0.124264
vt 4.89229 7.87402
vt -4.89229 7.87402
f 2/19/3 11/20/3 12/21/3 10/22/3 

v -0.261541 0 -0.0854246
vt 10.2969 3.36317
vt 11.811 4.89229
f 13/23/1 11/24/1 2/2/1

v -0.3 0 0.124264
vt 11.811 -4.89229
f 14/25/1 11/24/1 13/23/1

v -0.375736 0 0.124264
vt 14.7928 -4.89229
f 15/26/1 11/24/1 14/25/1

v -0.375736 0 -0.124264
vt 14.7928 4.89229
f 15/26/1 16/27/1 11/24/1

v -0.5 0 -3.06162e-17
vt 19.685 1.20536e-15
f 16/27/1 15/26/1 17/28/1

vn -0.707107 0 0.707107
v -0.375736 0.2 0.124264
v -0.5 0.2 -3.06162e-17
f 17/11/5 15/12/5 18/13/5 19/14/5 

vn 2.97874e-16 0 1
v -0.3 0.2 0.124264
f 15/15/6 14/16/6 20/17/6 18/18/6 

v -0.124264 0 0.3
v -0.124264 0.2 0.3
f 14/19/5 21/20/5 22/21/5 20/22/5 

v -0.161641 0 0.222035
vt 6.36382 -8.74152
vt 4.89229 -11.811
f 14/25/1 23/29/1 21/30/1

f 23/29/1 14/25/1 13/23/1

v -0.17054 0 0.0557019
vt 6.71416 -2.19299
f 23/29/1 13/23/1 24/31/1

vt 8.40661 0
vn 0.840428 0 -0.541923
v -0.261541 0.2 -0.0854246
vt 8.40661 7.87402
v -0.17054 0.2 0.0557019
vt 1.79551 7.87402
vt 1.79551 0
f 13/32/7 25/33/7 26/34/7 24/35/7 

vt -8.42987 7.87402
vn 0.35533 0 0.934741
vt -8.42987 0
vt -1.85341 0
v -0.105399 0.2 -0.14478
vt -1.85341 7.87402
f 25/36/8 13/37/8 4/38/8 27/39/8 

f 13/23/1 2/2/1 4/4/1

vt 8.44057 -1.21464e-15
vn 0.778343 -1.78402e-16 0.62784
v 9.02389e-17 0.2 -0.275445
vt 8.44057 7.87402
vt 1.83127 7.87402
vt 1.83127 -1.21464e-15
f 5/40/9 28/41/9 27/42/9 4/43/9 

v 0.105399 0 -0.14478
vt -1.83127 1.21464e-15
vn -0.778343 1.78402e-16 0.62784
v 0.105399 0.2 -0.14478
vt -1.83127 7.87402
vt -8.44057 7.87402
vt -8.44057 1.21464e-15
f 29/44/10 30/45/10 28/46/10 5/47/10 

v 0.261541 0 -0.0854246
vt 8.42987 0
vn -0.35533 0 0.934741
v 0.261541 0.2 -0.0854246
vt 8.42987 7.87402
vt 1.85341 7.87402
vt 1.85341 0
f 31/48/11 32/49/11 30/50/11 29/51/11 

v 0.17054 0 0.0557019
vt -1.79551 0
vn -0.840428 0 -0.541923
v 0.17054 0.2 0.0557019
vt -1.79551 7.87402
vt -8.40661 7.87402
vt -8.40661 0
f 33/52/12 34/53/12 32/54/12 31/55/12 

v 0.161641 0 0.222035
vt 8.38906 8.35327e-17
vn -0.998572 1.22451e-17 -0.0534237
v 0.161641 0.2 0.222035
vt 8.38906 7.87402
vt 1.83116 7.87402
vt 1.83116 8.35327e-17
f 35/56/13 36/57/13 34/58/13 33/59/13 

v 1.10798e-17 0 0.179606
vt -1.79525 1.61578e-15
vn 0.253885 2.36245e-16 -0.967234
v -1.10798e-17 0.2 0.179606
vt -1.79525 7.87402
vt -8.37465 7.87402
vt -8.37465 1.61578e-15
f 37/60/14 38/61/14 36/62/14 35/63/14 

vt 8.37465 -9.95004e-17
vn -0.253885 -1.45481e-17 -0.967234
v -0.161641 0.2 0.222035
vt 8.37465 7.87402
vt 1.79525 7.87402
vt 1.79525 -9.95004e-17
f 23/64/15 39/65/15 38/66/15 37/67/15 

vt -8.38906 7.87402
vn 0.998572 0 -0.0534237
vt -8.38906 0
vt -1.83116 0
vt -1.83116 7.87402
f 39/68/16 23/69/16 24/70/16 26/71/16 

vt -10.2969 3.36317
vn 0 1 -0
vt -6.36382 -8.74152
vt -6.71416 -2.19299
f 25/72/17 39/73/17 26/74/17

vt -11.811 4.89229
f 12/75/17 39/73/17 25/72/17

vt -11.811 -4.89229
f 12/75/17 20/76/17 39/73/17

v -0.375736 0.2 -0.124264
vt -14.7928 4.89229
f 40/77/17 20/76/17 12/75/17

vt -14.7928 -4.89229
f 40/77/17 18/78/17 20/76/17

vt -19.685 1.20536e-15
f 18/78/17 40/77/17 19/79/17

f 16/7/3 17/8/3 19/9/3 40/10/3 

vt 11.811 0
vn -2.97874e-16 0 -1
vt 14.7928 0
vt 14.7928 7.87402
vt 11.811 7.87402
f 11/80/18 16/81/18 40/82/18 12/83/18 

vt -4.89229 -11.811
f 39/73/17 20/76/17 22/84/17

vt -4.36214e-16 -7.07111
f 39/73/17 22/84/17 38/85/17

v -6.12323e-17 0.2 0.5
vt -2.41072e-15 -19.685
f 38/85/17 22/84/17 41/86/17

v -0.124264 0.2 0.375736
vt -4.89229 -14.7928
f 41/86/17 22/84/17 42/87/17

vn -1 0 -2.97874e-16
v -0.124264 0 0.375736
f 21/80/19 43/81/19 42/82/19 22/83/19 

v -6.12323e-17 0 0.5
vt 2.41072e-15 -19.685
vt 4.89229 -14.7928
f 44/88/1 43/89/1 21/30/1

f 43/7/5 44/8/5 41/9/5 42/10/5 

vn 0.707107 0 0.707107
v 0.124264 0 0.375736
v 0.124264 0.2 0.375736
f 44/11/20 45/12/20 46/13/20 41/14/20 

f 44/88/1 37/85/1 45/87/1

f 21/30/1 37/85/1 44/88/1

f 21/30/1 23/29/1 37/85/1

v 0.124264 0 0.3
f 45/87/1 37/85/1 47/84/1

f 35/73/1 47/84/1 37/85/1

v 0.3 0 0.124264
f 47/84/1 35/73/1 48/76/1

f 48/76/1 35/73/1 33/74/1

f 48/76/1 33/74/1 31/72/1

v 0.3 0 -0.124264
f 31/72/1 49/75/1 48/76/1

v 0.124264 0 -0.3
vt -4.89229 11.811
f 31/72/1 50/90/1 49/75/1

vt -4.14958 5.69999
f 29/91/1 50/90/1 31/72/1

f 29/91/1 6/6/1 50/90/1

f 5/5/1 6/6/1 29/91/1

vn 1 0 -0
v 0.124264 0.2 -0.3
f 50/80/21 6/81/21 8/82/21 51/83/21 

f 8/3/17 30/4/17 51/2/17

vt 3.55271e-15 10.8443
f 8/3/17 28/92/17 30/4/17

f 7/1/17 28/92/17 8/3/17

f 7/1/17 27/91/17 28/92/17

f 9/6/17 27/91/17 7/1/17

f 10/90/17 27/91/17 9/6/17

f 10/90/17 25/72/17 27/91/17

f 25/72/17 10/90/17 12/75/17

f 32/23/17 51/2/17 30/4/17

v 0.3 0.2 -0.124264
f 51/2/17 32/23/17 52/24/17

v 0.3 0.2 0.124264
f 52/24/17 32/23/17 53/25/17

f 34/31/17 53/25/17 32/23/17

f 36/29/17 53/25/17 34/31/17

v 0.124264 0.2 0.3
f 36/29/17 54/30/17 53/25/17

f 38/85/17 54/30/17 36/29/17

f 38/85/17 46/89/17 54/30/17

f 38/85/17 41/86/17 46/89/17

f 45/15/21 47/16/21 54/17/21 46/18/21 

f 47/19/20 48/20/20 53/21/20 54/22/20 

v 0.375736 0 0.124264
v 0.375736 0.2 0.124264
f 48/80/6 55/81/6 56/82/6 53/83/6 

f 48/76/1 49/75/1 55/78/1

v 0.375736 0 -0.124264
f 55/78/1 49/75/1 57/77/1

vn -5.95747e-16 0 -1
v 0.375736 0.2 -0.124264
f 57/15/22 49/16/22 52/17/22 58/18/22 

f 49/19/2 50/20/2 51/21/2 52/22/2 

f 52/24/17 56/26/17 58/27/17

f 52/24/17 53/25/17 56/26/17

v 0.5 0.2 9.18485e-17
vt 19.685 -3.61608e-15
f 58/27/17 56/26/17 59/93/17

v 0.5 0 9.18485e-17
f 55/7/20 60/8/20 59/9/20 56/10/20 

vt -19.685 -3.61608e-15
f 55/78/1 57/77/1 60/94/1

f 60/11/2 57/12/2 58/13/2 59/14/2 

