# Alias OBJ Model File
# Exported from SketchUp, (c) 2000-2012 Trimble Navigation Limited
# File units = meters

mtllib E_F.mtl

g Mesh1 Difference Model

usemtl Color_I01
v -0.422545 -1.69198e-17 -0.154612
vt 16.6356 6.08708
vn -1.51317e-17 -1 3.06601e-17
v -0.432724 3.38396e-17 -0.123282
vt 17.0364 4.85362
v -0.475528 0 -0.154508
vt 18.7216 6.08301
f 1/1/1 2/2/1 3/3/1

v -0.393746 3.38396e-17 -0.0873936
vt 15.5018 3.44069
f 2/2/1 1/1/1 4/4/1

v -0.369916 -1.69198e-17 -0.160735
vt 14.5636 6.32817
f 4/4/1 1/1/1 5/5/1

v -0.422545 0.2 -0.154612
vt 15.8206 7.87402
vn -0.0588582 -8.03363e-19 -0.998266
v -0.369916 0.2 -0.160735
vt 13.7347 7.87402
vn -0.171919 0 -0.985111
vt 13.7347 -6.66134e-16
vt 15.8206 -6.66134e-16
f 6/6/2 7/7/3 5/8/3 1/9/2 

vt -16.6356 6.08708
vn -3.68591e-31 1 4.824e-32
v -0.393746 0.2 -0.0873936
vt -15.5018 3.44069
vt -14.5636 6.32817
f 6/10/4 8/11/4 7/12/4

v -0.432724 0.2 -0.123282
vt -17.0364 4.85362
f 6/10/4 9/13/4 8/11/4

v -0.475528 0.2 -0.154508
vt -18.7216 6.08301
f 9/13/4 6/10/4 10/14/4

vt 18.7097 7.87402
vn -0.00194958 -1.60412e-18 -0.999998
vt 16.6237 7.87402
vt 16.6237 -6.56317e-16
vt 18.7097 9.81642e-18
f 10/15/5 6/16/2 1/17/2 3/18/5 

vt -16.6237 7.87402
vn -0.634384 1.08226e-19 0.773018
vt -18.7097 7.87402
vn -0.589361 2.16102e-19 0.80787
vt -18.7097 -1.32244e-18
vt -16.6237 1.33095e-15
f 9/19/6 10/20/7 3/21/7 2/22/6 

vt -13.7347 7.87402
vn -0.718119 0 0.69592
vt -15.8206 7.87402
vt -15.8206 1.33227e-15
vt -13.7347 1.33227e-15
f 8/23/8 9/24/6 2/25/6 4/26/8 

v -0.359099 0.2 -0.0473083
vt -10.6541 7.87402
vn -0.792551 0 0.609805
vt -12.7401 7.87402
vt -12.7401 1.33227e-15
v -0.359099 3.38396e-17 -0.0473083
vt -10.6541 1.33227e-15
f 11/27/9 8/28/8 4/29/8 12/30/9 

vt -14.1378 1.86253
f 7/12/4 8/11/4 11/31/4

v -0.318325 0.2 -0.1728
vt -12.5325 6.80315
f 7/12/4 11/31/4 13/32/4

v -0.329232 0.2 -0.00354536
vt -12.9619 0.139581
f 13/32/4 11/31/4 14/33/4

vt -7.42205 7.87402
vn -0.856715 0 0.51579
vt -9.50802 7.87402
vt -9.50802 1.33227e-15
v -0.329232 3.38396e-17 -0.00354536
vt -7.42205 1.33227e-15
f 14/34/10 11/35/9 12/36/9 15/37/10 

vt 14.1378 1.86253
v -0.318325 -1.69198e-17 -0.1728
vt 12.5325 6.80315
vt 12.9619 0.139581
f 12/38/1 16/39/1 15/40/1

f 12/38/1 5/5/1 16/39/1

f 4/4/1 5/5/1 12/38/1

vt 12.7401 7.87402
vt 10.6541 7.87402
vn -0.282753 0 -0.959193
vt 10.6541 -6.66134e-16
vt 12.7401 -6.66134e-16
f 7/41/3 13/42/11 16/43/11 5/44/3 

vt 9.50802 7.87402
v -0.268438 0.2 -0.190649
vt 7.42205 7.87402
vn -0.389923 0 -0.920847
v -0.268438 -1.69198e-17 -0.190649
vt 7.42205 -6.66134e-16
vt 9.50802 -6.66134e-16
f 13/45/11 17/46/12 18/47/12 16/48/11 

v -0.304531 0.2 0.0433282
vt -11.9894 -1.70583
vt -10.5684 7.50588
f 13/32/4 19/49/4 17/50/4

f 13/32/4 14/33/4 19/49/4

vt -4.08031 7.87402
vn -0.909779 0 0.415093
vt -6.16628 7.87402
vt -6.16628 1.33227e-15
v -0.304531 3.38396e-17 0.0433282
vt -4.08031 1.33227e-15
f 19/51/13 14/52/10 15/53/10 20/54/13 

vt 11.9894 -1.70583
f 15/40/1 16/39/1 20/55/1

vt 10.5684 7.50588
f 20/55/1 16/39/1 18/56/1

v -0.285317 3.38396e-17 0.0927051
vt 11.233 -3.64981
f 20/55/1 18/56/1 21/57/1

v -0.271838 3.38396e-17 0.143946
vt 10.7023 -5.66715
f 21/57/1 18/56/1 22/58/1

v -0.26427 3.38396e-17 0.196386
vt 10.4043 -7.73173
f 22/58/1 18/56/1 23/59/1

v -0.261541 -1.06942e-17 -0.0854246
vt 10.2969 3.36317
f 23/59/1 18/56/1 24/60/1

v -0.220903 -1.69198e-17 -0.214052
vt 8.69697 8.42725
f 24/60/1 18/56/1 25/61/1

vt 6.16628 7.87402
v -0.220903 0.2 -0.214052
vt 4.08031 7.87402
vn -0.492042 0 -0.870572
vt 4.08031 -6.66134e-16
vt 6.16628 -6.66134e-16
f 17/62/12 26/63/14 25/64/14 18/65/12 

v -0.261541 0.2 -0.0854246
vt -10.2969 3.36317
vt -8.69697 8.42725
f 17/50/4 27/66/4 26/67/4

v -0.26427 0.2 0.196386
vt -10.4043 -7.73173
f 17/50/4 28/68/4 27/66/4

v -0.271838 0.2 0.143946
vt -10.7023 -5.66715
f 17/50/4 29/69/4 28/68/4

v -0.285317 0.2 0.0927051
vt -11.233 -3.64981
f 17/50/4 30/70/4 29/69/4

f 17/50/4 19/49/4 30/70/4

vt -0.672187 7.87402
vn -0.931928 0 0.362643
vt -2.75816 7.87402
vt -2.75816 1.33227e-15
vt -0.672187 1.33227e-15
f 30/71/15 19/72/13 20/73/13 21/74/15 

vt 2.75816 7.87402
vn -0.980012 0 0.198938
vt 0.672187 7.87402
vn -0.967102 0 0.25439
vt 0.672187 1.33227e-15
vt 2.75816 1.33227e-15
f 29/75/16 30/76/17 21/77/17 22/78/16 

vn -0.996271 0 0.0862813
vt 4.08031 1.33227e-15
vt 6.16628 1.33227e-15
f 28/62/18 29/63/16 22/79/16 23/80/18 

v -0.26271 0.2 0.249346
vn -0.999622 0 -0.0274931
vt 7.42205 1.33227e-15
v -0.26271 3.38396e-17 0.249346
vt 9.50802 1.33227e-15
f 31/45/19 28/46/18 23/81/18 32/82/19 

vt -10.3429 -9.81679
f 27/66/4 28/68/4 31/83/4

v -0.250967 0.2 0.373449
vt -9.88061 -14.7027
f 31/83/4 33/84/4 27/66/4

v -0.267179 0.2 0.302141
vt -10.5189 -11.8953
f 34/85/4 33/84/4 31/83/4

v -0.277618 0.2 0.354086
vt -10.9298 -13.9404
f 35/86/4 33/84/4 34/85/4

v -0.293893 0.2 0.404508
vt -11.5706 -15.9255
f 33/84/4 35/86/4 36/87/4

vn -0.951657 -3.13022e-18 -0.307162
vn -0.967596 -1.56765e-18 -0.252504
v -0.277618 3.38396e-17 0.354086
vt 16.6237 1.35142e-15
v -0.293893 0 0.404508
vt 18.7097 1.91554e-17
f 36/15/20 35/16/21 37/88/21 38/89/20 

vn -0.990022 0 -0.140911
v -0.267179 3.38396e-17 0.302141
vt 13.7347 1.33227e-15
vt 15.8206 1.33227e-15
f 35/6/21 34/7/22 39/90/22 37/91/21 

vt 10.6541 1.33227e-15
vt 12.7401 1.33227e-15
f 34/41/22 31/42/19 32/92/19 39/93/22 

v -0.250967 0 0.373449
vt 9.88061 -14.7027
vt 10.5189 -11.8953
vt 10.3429 -9.81679
f 40/94/1 39/95/1 32/96/1

vt 10.9298 -13.9404
f 40/94/1 37/97/1 39/95/1

vt 11.5706 -15.9255
f 37/97/1 40/94/1 38/98/1

vn 0.539149 0 0.84221
vn 0.586207 0 0.810161
vt -18.7097 0
vt -16.6237 0
f 33/19/23 36/20/24 38/99/24 40/100/23 

v -0.204791 0.2 0.347469
vn 0.439948 0 0.898023
vt -15.8206 0
v -0.204791 0 0.347469
vt -13.7347 0
f 41/23/25 33/24/23 40/101/23 42/102/25 

v -0.17054 0.2 0.0557019
vt -6.71416 -2.19299
vt -8.06262 -13.6799
f 43/103/4 33/84/4 41/104/4

f 27/66/4 33/84/4 43/103/4

vt 8.40661 -8.45291e-16
vn 0.840428 -6.21062e-17 -0.541923
vt 8.40661 7.87402
vt 1.79551 7.87402
v -0.17054 -6.02877e-18 0.0557019
vt 1.79551 -6.61613e-16
f 24/105/26 27/106/26 43/107/26 44/108/26 

v -0.105399 -9.31349e-18 -0.14478
vt -1.85341 8.87726e-17
vn 0.35533 6.69528e-17 0.934741
v -0.105399 0.2 -0.14478
vt -1.85341 7.87402
vt -8.42987 7.87402
vt -8.42987 3.44143e-17
f 45/109/27 46/110/27 27/111/27 24/112/27 

v 9.02389e-17 -1.0372e-17 -0.275445
vt 8.44057 8.06294e-16
vn 0.778343 1.78402e-16 0.62784
v 0 0.2 -0.275445
vt 8.44057 7.87402
vt 1.83127 7.87402
vt 1.83127 8.47969e-16
f 47/113/28 48/114/28 46/115/28 45/116/28 

v 0.105399 -5.68888e-18 -0.14478
vt -1.83127 -9.48726e-16
vn -0.778343 -1.06449e-16 0.62784
v 0.105399 0.2 -0.14478
vt -1.83127 7.87402
vt -8.44057 7.87402
vt -8.44057 -1.1331e-15
f 49/117/29 50/118/29 48/119/29 47/120/29 

v 0.261541 -1.69999e-18 -0.0854246
vt 8.42987 6.39947e-16
vn -0.35533 1.03914e-16 0.934741
v 0.261541 0.2 -0.0854246
vt 8.42987 7.87402
vt 1.85341 7.87402
vt 1.85341 4.82905e-16
f 51/121/30 52/122/30 50/123/30 49/124/30 

v 0.17054 -1.64022e-19 0.0557019
vt -1.79551 -2.40152e-16
vn -0.840428 -3.42098e-17 -0.541923
v 0.17054 0.2 0.0557019
vt -1.79551 7.87402
vt -8.40661 7.87402
vt -8.40661 -3.00623e-16
f 53/125/31 54/126/31 52/127/31 51/128/31 

v 0.161641 3.33747e-18 0.222035
vt 8.38906 -6.89291e-16
vn -0.998572 -1.20305e-16 -0.0534237
v 0.161641 0.2 0.222035
vt 8.38906 7.87402
vt 1.83116 7.87402
vt 1.83116 -8.27145e-16
f 55/129/32 56/130/32 54/131/32 53/132/32 

v 1.10798e-17 -3.74084e-19 0.179606
vt -1.79525 -1.48362e-15
vn 0.253885 -2.14769e-16 -0.967234
v 1.10798e-17 0.2 0.179606
vt -1.79525 7.87402
vt -8.37465 7.87402
vt -8.37465 -1.3375e-15
f 57/133/33 58/134/33 56/135/33 55/136/33 

v -0.161641 -2.22125e-18 0.222035
vt 8.37465 -8.74506e-17
vn -0.253885 0 -0.967234
v -0.161641 0.2 0.222035
vt 8.37465 7.87402
vt 1.79525 7.87402
vt 1.79525 -1.47277e-17
f 59/137/34 60/138/34 58/139/34 57/140/34 

vt -1.83116 -2.49551e-16
vn 0.998572 -1.78812e-18 -0.0534237
vt -1.83116 7.87402
vt -8.38906 7.87402
vt -8.38906 -9.96487e-17
f 44/141/35 43/142/35 60/143/35 59/144/35 

vt -6.36382 -8.74152
f 43/103/4 41/104/4 60/145/4

v -0.155961 0.2 0.326905
vt -6.14018 -12.8703
f 60/145/4 41/104/4 61/146/4

vn 0.335048 0 0.942201
vt -12.7401 0
v -0.155961 0 0.326905
vt -10.6541 0
f 61/27/36 41/28/25 42/147/25 62/148/36 

vt 8.06262 -13.6799
vt 6.36382 -8.74152
vt 6.14018 -12.8703
f 42/149/1 59/150/1 62/151/1

vt 6.71416 -2.19299
f 42/149/1 44/152/1 59/150/1

f 40/94/1 44/152/1 42/149/1

f 40/94/1 24/60/1 44/152/1

f 40/94/1 32/96/1 24/60/1

f 23/59/1 24/60/1 32/96/1

vt -4.36214e-16 -7.07111
f 62/151/1 59/150/1 57/153/1

v -0.10511 0 0.312023
vt 4.13819 -12.2844
f 62/151/1 57/153/1 63/154/1

v -0.0528977 0 0.303015
vt 2.08259 -11.9297
f 63/154/1 57/153/1 64/155/1

v 4.50026e-17 0 0.3
vt -1.77175e-15 -11.811
f 64/155/1 57/153/1 65/156/1

f 65/156/1 57/153/1 55/145/1

v 0.0528977 0 0.303015
vt -2.08259 -11.9297
f 65/156/1 55/145/1 66/157/1

v 0.10511 0 0.312023
vt -4.13819 -12.2844
f 66/157/1 55/145/1 67/158/1

v 0.155961 0 0.326905
f 67/158/1 55/145/1 68/146/1

v 0.204791 0 0.347469
f 68/146/1 55/145/1 69/104/1

f 69/104/1 55/145/1 53/103/1

f 69/104/1 53/103/1 51/66/1

v 0.250967 0 0.373449
f 69/104/1 51/66/1 70/84/1

v 0.26271 1.12799e-17 0.249346
f 70/84/1 51/66/1 71/83/1

v 0.268438 -1.12799e-17 -0.190649
f 51/66/1 72/50/1 71/83/1

v 0.220903 -1.12799e-17 -0.214052
f 51/66/1 73/67/1 72/50/1

v 0.176336 -1.12799e-17 -0.242705
vt -6.94235 9.55532
f 51/66/1 74/159/1 73/67/1

v 0.135313 -1.12799e-17 -0.276237
vt -5.32728 10.8755
f 51/66/1 75/160/1 74/159/1

vt -4.14958 5.69999
f 49/161/1 75/160/1 51/66/1

v 0.0983664 -1.12799e-17 -0.314214
vt -3.87269 12.3706
f 49/161/1 76/162/1 75/160/1

v 0.0659749 -1.12799e-17 -0.356143
vt -2.59744 14.0214
f 49/161/1 77/163/1 76/162/1

v 0.0385581 -1.12799e-17 -0.401481
vt -1.51803 15.8063
f 49/161/1 78/164/1 77/163/1

v 0.016471 -1.12799e-17 -0.449642
vt -0.648466 17.7024
f 49/161/1 79/165/1 78/164/1

vt -3.55271e-15 10.8443
f 47/166/1 79/165/1 49/161/1

v -5.75684e-18 0 -0.5
vt 2.26647e-16 19.685
f 47/166/1 80/167/1 79/165/1

v -0.016471 -1.69198e-17 -0.449642
vt 0.648466 17.7024
f 47/166/1 81/168/1 80/167/1

v -0.0385581 -1.69198e-17 -0.401481
vt 1.51803 15.8063
f 47/166/1 82/169/1 81/168/1

v -0.0659749 -1.69198e-17 -0.356143
vt 2.59744 14.0214
f 47/166/1 83/170/1 82/169/1

v -0.0983664 -1.69198e-17 -0.314214
vt 3.87269 12.3706
f 47/166/1 84/171/1 83/170/1

vt 4.14958 5.69999
f 45/172/1 84/171/1 47/166/1

v -0.135313 -1.69198e-17 -0.276237
vt 5.32728 10.8755
f 45/172/1 85/173/1 84/171/1

v -0.176336 -1.69198e-17 -0.242705
vt 6.94235 9.55532
f 45/172/1 86/174/1 85/173/1

f 45/172/1 25/61/1 86/174/1

f 24/60/1 25/61/1 45/172/1

v -0.176336 0.2 -0.242705
vn -0.54079 0 -0.841158
vt 0.672187 -6.66134e-16
vt 2.75816 -6.66134e-16
f 26/75/14 87/76/37 86/175/37 25/176/14 

f 26/67/4 46/161/4 87/159/4

f 26/67/4 27/66/4 46/161/4

v -0.135313 0.2 -0.276237
f 87/159/4 46/161/4 88/160/4

v -0.0983664 0.2 -0.314214
f 88/160/4 46/161/4 89/162/4

vt 2.90229e-30 10.8443
f 89/162/4 46/161/4 48/177/4

v -0.0659749 0.2 -0.356143
f 89/162/4 48/177/4 90/163/4

v -0.0385581 0.2 -0.401481
f 90/163/4 48/177/4 91/164/4

v -0.016471 0.2 -0.449642
f 91/164/4 48/177/4 92/165/4

v -5.75684e-18 0.2 -0.5
vt -2.26647e-16 19.685
f 92/165/4 48/177/4 93/178/4

v 0.016471 0.2 -0.449642
f 93/178/4 48/177/4 94/168/4

f 94/168/4 48/177/4 50/172/4

v 0.0385581 0.2 -0.401481
f 94/168/4 50/172/4 95/169/4

v 0.0659749 0.2 -0.356143
f 95/169/4 50/172/4 96/170/4

v 0.0983664 0.2 -0.314214
f 96/170/4 50/172/4 97/171/4

v 0.135313 0.2 -0.276237
f 97/171/4 50/172/4 98/173/4

f 98/173/4 50/172/4 52/60/4

v 0.176336 0.2 -0.242705
f 98/173/4 52/60/4 99/174/4

v 0.220903 0.2 -0.214052
f 99/174/4 52/60/4 100/61/4

v 0.268438 0.2 -0.190649
f 100/61/4 52/60/4 101/56/4

v 0.26271 0.2 0.249346
f 101/56/4 52/60/4 102/96/4

v 0.250967 0.2 0.373449
f 52/60/4 103/94/4 102/96/4

v 0.204791 0.2 0.347469
f 52/60/4 104/149/4 103/94/4

f 54/152/4 104/149/4 52/60/4

f 56/150/4 104/149/4 54/152/4

v 0.155961 0.2 0.326905
f 56/150/4 105/151/4 104/149/4

v 0.10511 0.2 0.312023
f 56/150/4 106/154/4 105/151/4

v 0.0528977 0.2 0.303015
f 56/150/4 107/155/4 106/154/4

v 4.50026e-17 0.2 0.3
vt 1.77175e-15 -11.811
f 56/150/4 108/179/4 107/155/4

vt 4.36214e-16 -7.07111
f 58/180/4 108/179/4 56/150/4

v -0.0528977 0.2 0.303015
f 58/180/4 109/157/4 108/179/4

v -0.10511 0.2 0.312023
f 58/180/4 110/158/4 109/157/4

f 58/180/4 61/146/4 110/158/4

f 60/145/4 61/146/4 58/180/4

vn 0.225806 0 0.974172
vt -9.50802 0
vt -7.42205 0
f 110/34/38 61/35/36 62/181/36 63/182/38 

vn 0.113639 0 0.993522
vt -6.16628 0
vt -4.08031 0
f 109/51/39 110/52/38 63/183/38 64/184/39 

vn 0.0569119 0 0.998379
vt -2.75816 0
vt -0.672187 0
f 108/71/40 109/72/39 64/185/39 65/186/40 

vn -0.113639 0 0.993522
vn -0.0569119 0 0.998379
vt 0.672187 0
vt 2.75816 0
f 107/75/41 108/76/42 65/187/42 66/188/41 

vn -0.225806 0 0.974172
vt 4.08031 0
vt 6.16628 0
f 106/62/43 107/63/41 66/189/41 67/190/43 

vn -0.335048 0 0.942201
vt 7.42205 0
vt 9.50802 0
f 105/45/44 106/46/43 67/191/43 68/192/44 

vn -0.439948 0 0.898023
vt 10.6541 0
vt 12.7401 0
f 104/41/45 105/42/44 68/193/44 69/194/45 

vn -0.539149 0 0.84221
vt 13.7347 0
vt 15.8206 0
f 103/6/46 104/7/45 69/195/45 70/196/46 

v 0.293893 0.2 0.404508
vn -0.586207 0 0.810161
vt 16.6237 0
v 0.293893 0 0.404508
vt 18.7097 0
f 111/15/47 103/16/46 70/197/46 112/198/47 

v 0.277618 0.2 0.354086
f 113/97/4 103/94/4 111/98/4

v 0.267179 0.2 0.302141
f 114/95/4 103/94/4 113/97/4

f 102/96/4 103/94/4 114/95/4

vn 0.999622 0 -0.0274931
vn 0.990022 0 -0.140911
v 0.267179 1.12799e-17 0.302141
vt -12.7401 4.44089e-16
vt -10.6541 4.44089e-16
f 102/27/48 114/28/49 115/199/49 71/200/48 

vn 0.967596 -5.89572e-19 -0.252504
v 0.277618 1.12799e-17 0.354086
vt -15.8206 4.44089e-16
vt -13.7347 4.44089e-16
f 114/23/49 113/24/50 116/201/50 115/202/49 

vn 0.951657 -1.17723e-18 -0.307162
vt -18.7097 7.20407e-18
vt -16.6237 4.51293e-16
f 113/19/50 111/20/51 112/203/51 116/204/50 

f 70/84/1 116/86/1 112/87/1

f 70/84/1 115/85/1 116/86/1

f 70/84/1 71/83/1 115/85/1

v 0.26427 0.2 0.196386
vn 0.996271 0 0.0862813
vt -9.50802 4.44089e-16
v 0.26427 1.12799e-17 0.196386
vt -7.42205 4.44089e-16
f 117/34/52 102/35/48 71/205/48 118/206/52 

f 101/56/4 102/96/4 117/59/4

v 0.271838 0.2 0.143946
f 101/56/4 117/59/4 119/58/4

vn 0.980012 0 0.198938
vt -6.16628 4.44089e-16
v 0.271838 1.12799e-17 0.143946
vt -4.08031 4.44089e-16
f 119/51/53 117/52/52 118/207/52 120/208/53 

f 118/68/1 72/50/1 120/69/1

f 71/83/1 72/50/1 118/68/1

v 0.318325 -1.12799e-17 -0.1728
f 120/69/1 72/50/1 121/32/1

vn 0.389923 0 -0.920847
v 0.318325 0.2 -0.1728
vn 0.282753 0 -0.959193
vt -9.50802 -4.44089e-16
vt -7.42205 -4.44089e-16
f 101/34/54 122/35/55 121/209/55 72/210/54 

f 101/56/4 119/58/4 122/39/4

v 0.285317 0.2 0.0927051
f 122/39/4 119/58/4 123/57/4

vn 0.967102 0 0.25439
vt -2.75816 4.44089e-16
v 0.285317 1.12799e-17 0.0927051
vt -0.672187 4.44089e-16
f 123/71/56 119/72/53 120/211/53 124/212/56 

f 120/69/1 121/32/1 124/70/1

v 0.304531 1.12799e-17 0.0433282
f 124/70/1 121/32/1 125/49/1

v 0.329232 1.12799e-17 -0.00354536
f 125/49/1 121/32/1 126/33/1

v 0.369916 -1.12799e-17 -0.160735
f 126/33/1 121/32/1 127/12/1

v 0.369916 0.2 -0.160735
vn 0.171919 0 -0.985111
vt -12.7401 -4.44089e-16
vt -10.6541 -4.44089e-16
f 122/27/55 128/28/57 127/213/57 121/214/55 

v 0.329232 0.2 -0.00354536
f 122/39/4 129/40/4 128/5/4

v 0.304531 0.2 0.0433282
f 122/39/4 130/55/4 129/40/4

f 122/39/4 123/57/4 130/55/4

vn 0.909779 0 0.415093
vn 0.931928 0 0.362643
vt 0.672187 4.44089e-16
vt 2.75816 4.44089e-16
f 130/75/58 123/76/59 124/215/59 125/216/58 

vn 0.856715 0 0.51579
vt 4.08031 4.44089e-16
vt 6.16628 4.44089e-16
f 129/62/60 130/63/58 125/217/58 126/218/60 

v 0.359099 0.2 -0.0473083
vn 0.792551 0 0.609805
vt 7.42205 4.44089e-16
v 0.359099 1.12799e-17 -0.0473083
vt 9.50802 4.44089e-16
f 131/45/61 129/46/60 126/219/60 132/220/61 

f 128/5/4 129/40/4 131/38/4

v 0.393746 0.2 -0.0873936
f 128/5/4 131/38/4 133/4/4

vn 0.718119 0 0.69592
vt 10.6541 4.44089e-16
v 0.393746 1.12799e-17 -0.0873936
vt 12.7401 4.44089e-16
f 133/41/62 131/42/61 132/221/61 134/222/62 

f 132/31/1 127/12/1 134/11/1

f 126/33/1 127/12/1 132/31/1

v 0.422545 -1.12799e-17 -0.154612
f 134/11/1 127/12/1 135/10/1

v 0.422545 0.2 -0.154612
vn 0.0588582 2.89797e-18 -0.998266
vt -15.8206 -4.44089e-16
vt -13.7347 -4.44089e-16
f 128/23/57 136/24/63 135/223/63 127/224/57 

f 128/5/4 133/4/4 136/1/4

v 0.432724 0.2 -0.123282
f 136/1/4 133/4/4 137/2/4

vn 0.634384 1.59302e-33 0.773018
vt 13.7347 4.44089e-16
v 0.432724 1.12799e-17 -0.123282
vt 15.8206 4.44089e-16
f 137/6/64 133/7/62 134/225/62 138/226/64 

f 134/11/1 135/10/1 138/13/1

v 0.475528 0 -0.154508
f 138/13/1 135/10/1 139/14/1

v 0.475528 0.2 -0.154508
vn 0.00194958 5.78654e-18 -0.999998
vt -18.7097 -3.54107e-17
vt -16.6237 -4.795e-16
f 136/19/63 140/20/65 139/227/65 135/228/63 

f 136/1/4 137/2/4 140/3/4

vn 0.589361 3.18088e-33 0.80787
vt 16.6237 4.44089e-16
vt 18.7097 -1.94654e-32
f 140/15/66 137/16/64 138/229/64 139/230/66 

vn 0.492042 0 -0.870572
vt -6.16628 -4.44089e-16
vt -4.08031 -4.44089e-16
f 100/51/67 101/52/54 72/231/54 73/232/67 

vn 0.54079 0 -0.841158
vt -2.75816 -4.44089e-16
vt -0.672187 -4.44089e-16
f 99/71/68 100/72/67 73/233/67 74/234/68 

vn 0.675914 0 -0.736981
vn 0.632875 0 -0.774254
vt 0.672187 -4.44089e-16
vt 2.75816 -4.44089e-16
f 98/75/69 99/76/70 74/235/70 75/236/69 

vn 0.755285 0 -0.655396
vt 4.08031 -4.44089e-16
vt 6.16628 -4.44089e-16
f 97/62/71 98/63/69 75/237/69 76/238/71 

vn 0.824871 0 -0.565321
vt 7.42205 -4.44089e-16
vt 9.50802 -4.44089e-16
f 96/45/72 97/46/71 76/239/71 77/240/72 

vn 0.88377 0 -0.467921
vt 10.6541 -4.44089e-16
vt 12.7401 -4.44089e-16
f 95/41/73 96/42/72 77/241/72 78/242/73 

vn 0.93122 -6.05035e-19 -0.364459
vt 13.7347 -4.44089e-16
vt 15.8206 -4.44089e-16
f 94/6/74 95/7/73 78/243/73 79/244/74 

vn 0.950452 -1.20811e-18 -0.310871
vt 16.6237 -4.36696e-16
vt 18.7097 7.39302e-18
f 93/15/75 94/16/74 79/245/74 80/246/75 

vn -0.93122 -8.03363e-19 -0.364459
vn -0.950452 -1.60412e-18 -0.310871
vt -18.7097 9.81642e-18
vt -16.6237 -6.56317e-16
f 92/19/76 93/20/77 80/247/77 81/248/76 

vn -0.88377 0 -0.467921
vt -15.8206 -6.66134e-16
vt -13.7347 -6.66134e-16
f 91/23/78 92/24/76 81/249/76 82/250/78 

vn -0.824871 0 -0.565321
vt -12.7401 -6.66134e-16
vt -10.6541 -6.66134e-16
f 90/27/79 91/28/78 82/251/78 83/252/79 

vn -0.755285 0 -0.655396
vt -9.50802 -6.66134e-16
vt -7.42205 -6.66134e-16
f 89/34/80 90/35/79 83/253/79 84/254/80 

vn -0.675914 0 -0.736981
vt -6.16628 -6.66134e-16
vt -4.08031 -6.66134e-16
f 88/51/81 89/52/80 84/255/80 85/256/81 

vn -0.632875 0 -0.774254
vt -2.75816 -6.66134e-16
vt -0.672187 -6.66134e-16
f 87/71/82 88/72/81 85/257/81 86/258/82 

