# Alias OBJ Model File
# Exported from SketchUp, (c) 2000-2012 Trimble Navigation Limited
# File units = meters

mtllib G_F.mtl

g Mesh1 Difference Model

usemtl Color_M02
v -0.475528 0 -0.154508
vt -11.5706 0
vn -0.951057 0 0.309017
v -0.293893 0 0.404508
vt 11.5706 0
v -0.293893 0.2 0.404508
vt 11.5706 7.87402
v -0.475528 0.2 -0.154508
vt -11.5706 7.87402
f 1/1/1 2/2/1 3/3/1 4/4/1 

vt 18.7216 6.08301
vn 0 -1 -0
v -0.261541 0 -0.0854246
vt 10.2969 3.36317
vt 11.5706 -15.9255
f 1/5/2 5/6/2 2/7/2

v 1.07159e-16 0 -0.5
vt -4.21885e-15 19.685
f 5/6/2 1/5/2 6/8/2

vn -0.587785 0 -0.809017
v 1.07159e-16 0.2 -0.5
f 6/1/3 1/2/3 4/3/3 7/4/3 

vt -18.7216 6.08301
vn 0 1 -0
v -0.261541 0.2 -0.0854246
vt -10.2969 3.36317
vt 4.21885e-15 19.685
f 4/9/4 8/10/4 7/11/4

vt -11.5706 -15.9255
f 8/10/4 4/9/4 3/12/4

v -0.161641 0.2 0.222035
vt -6.36382 -8.74152
f 3/12/4 9/13/4 8/10/4

v 0.293893 0.2 0.404508
f 9/13/4 3/12/4 10/7/4

vn 1.52656e-16 0 1
v 0.293893 0 0.404508
f 2/1/5 11/2/5 10/3/5 3/4/5 

v -0.161641 0 0.222035
vt 6.36382 -8.74152
f 2/7/2 12/14/2 11/12/2

f 12/14/2 2/7/2 5/6/2

v -0.17054 0 0.0557019
vt 6.71416 -2.19299
f 12/14/2 5/6/2 13/15/2

vt 8.40661 0
vn 0.840428 0 -0.541923
vt 8.40661 7.87402
v -0.17054 0.2 0.0557019
vt 1.79551 7.87402
vt 1.79551 0
f 5/16/6 8/17/6 14/18/6 13/19/6 

v -0.105399 0 -0.14478
vt -1.85341 8.16058e-16
vn 0.35533 1.19965e-16 0.934741
v -0.105399 0.2 -0.14478
vt -1.85341 7.87402
vt -8.42987 7.87402
vt -8.42987 8.16058e-16
f 15/20/7 16/21/7 8/22/7 5/23/7 

v 4.51195e-17 0 -0.275445
vt 8.44057 -3.62377e-16
vn 0.778343 -5.32245e-17 0.62784
v 4.51195e-17 0.2 -0.275445
vt 8.44057 7.87402
vt 1.83127 7.87402
vt 1.83127 -3.62377e-16
f 17/24/8 18/25/8 16/26/8 15/27/8 

v 0.105399 0 -0.14478
vt -1.83127 -4.89887e-16
vn -0.778343 -7.19526e-17 0.62784
v 0.105399 0.2 -0.14478
vt -1.83127 7.87402
vt -8.44057 7.87402
vt -8.44057 -4.89887e-16
f 19/28/9 20/29/9 18/30/9 17/31/9 

v 0.261541 0 -0.0854246
vt 8.42987 7.28713e-16
vn -0.35533 1.07125e-16 0.934741
v 0.261541 0.2 -0.0854246
vt 8.42987 7.87402
vt 1.85341 7.87402
vt 1.85341 7.28713e-16
f 21/32/10 22/33/10 20/34/10 19/35/10 

v 0.17054 0 0.0557019
vt -1.79551 -3.89657e-16
vn -0.840428 -5.70408e-17 -0.541923
v 0.17054 0.2 0.0557019
vt -1.79551 7.87402
vt -8.40661 7.87402
vt -8.40661 -3.89657e-16
f 23/36/11 24/37/11 22/38/11 21/39/11 

v 0.161641 0 0.222035
vt 8.38906 3.69456e-16
vn -0.998572 5.41586e-17 -0.0534237
v 0.161641 0.2 0.222035
vt 8.38906 7.87402
vt 1.83116 7.87402
vt 1.83116 3.69456e-16
f 25/40/12 26/41/12 24/42/12 23/43/12 

v -1.10798e-17 0 0.179606
vt -1.79525 -9.95004e-17
vn 0.253885 -1.45481e-17 -0.967234
v 1.10798e-17 0.2 0.179606
vt -1.79525 7.87402
vt -8.37465 7.87402
vt -8.37465 -9.95004e-17
f 27/44/13 28/45/13 26/46/13 25/47/13 

vt 1.79525 7.87402
vn -0.253885 7.27403e-17 -0.967234
vt 1.79525 4.97502e-16
vt 8.37465 4.97502e-16
vt 8.37465 7.87402
f 28/48/14 27/49/14 12/50/14 9/51/14 

vt 4.36214e-16 -7.07111
f 11/12/2 12/14/2 27/52/2

f 11/12/2 27/52/2 25/13/2

vt -6.71416 -2.19299
f 11/12/2 25/13/2 23/53/2

f 11/12/2 23/53/2 21/10/2

v 0.475528 0 -0.154508
f 21/10/2 29/9/2 11/12/2

vt -4.14958 5.69999
f 19/54/2 29/9/2 21/10/2

f 19/54/2 6/8/2 29/9/2

vt -1.77636e-15 10.8443
f 17/55/2 6/8/2 19/54/2

vt 4.14958 5.69999
f 15/56/2 6/8/2 17/55/2

f 5/6/2 6/8/2 15/56/2

vn 0.587785 0 -0.809017
v 0.475528 0.2 -0.154508
f 29/1/15 6/2/15 7/3/15 30/4/15 

f 7/11/4 20/56/4 30/5/4

vt 1.77636e-15 10.8443
f 7/11/4 18/57/4 20/56/4

f 7/11/4 16/54/4 18/57/4

f 7/11/4 8/10/4 16/54/4

f 30/5/4 20/56/4 22/6/4

f 30/5/4 22/6/4 10/7/4

f 24/15/4 10/7/4 22/6/4

f 26/14/4 10/7/4 24/15/4

f 28/52/4 10/7/4 26/14/4

f 9/13/4 10/7/4 28/52/4

vn 0.951057 0 0.309017
f 11/1/16 29/2/16 30/3/16 10/4/16 

vt -8.38906 7.87402
vn 0.998572 -2.25303e-16 -0.0534237
vt -8.38906 -1.53696e-15
vt -1.83116 -1.53696e-15
vt -1.83116 7.87402
f 9/58/17 12/59/17 13/60/17 14/61/17 

f 8/10/4 9/13/4 14/53/4

