# Alias OBJ Model File
# Exported from SketchUp, (c) 2000-2012 Trimble Navigation Limited
# File units = meters

mtllib H-F.mtl

g Mesh1 Difference Model

usemtl FrontColor
v -0.44786 0.2 0.209206
vt -17.6323 -8.23646
vn 5.04098e-32 1 3.81361e-32
v -0.44786 0.2 0.165794
vt -17.6323 -6.52732
v -0.44976 0.2 0.1875
vt -17.7071 -7.38189
f 1/1/1 2/2/1 3/3/1

v -0.442221 0.2 0.230253
vt -17.4103 -9.06506
f 2/2/1 1/1/1 4/4/1

v -0.44786 0 0.209206
vt 3.39223 0
vn -0.984808 0 0.173648
v -0.442221 0 0.230253
vt 4.25006 0
vn -0.939693 0 0.34202
vt 4.25006 7.87402
vt 3.39223 7.87402
f 5/5/2 6/6/3 4/7/3 1/8/2 

vt 17.6323 -8.23646
vn 0 -1 -0
v -0.442221 0 0.144747
vt 17.4103 -5.69872
vt 17.4103 -9.06506
f 5/9/4 7/10/4 6/11/4

v -0.44786 0 0.165794
vt 17.6323 -6.52732
f 5/9/4 8/12/4 7/10/4

v -0.44976 0 0.1875
vt 17.7071 -7.38189
f 8/12/4 5/9/4 9/13/4

vt 5.81053 0
vn -1 0 -0
vt 6.66836 0
vt 6.66836 7.87402
vt 5.81053 7.87402
f 9/14/5 5/15/2 1/16/2 3/17/5 

vt 8.03924 0
vn -0.984808 0 -0.173648
vt 8.89707 0
vt 8.89707 7.87402
vt 8.03924 7.87402
f 8/18/6 9/19/5 3/20/5 2/21/6 

vt 10.0107 0
vn -0.939693 0 -0.34202
vt 10.8685 0
vt 10.8685 7.87402
v -0.442221 0.2 0.144747
vt 10.0107 7.87402
f 7/22/7 8/23/6 2/24/6 10/25/7 

vt -17.4103 -5.69872
f 2/2/1 4/4/1 10/26/1

v -0.433013 0.2 0.25
vt -17.0477 -9.84252
f 10/26/1 4/4/1 11/27/1

vt 0.857832 0
v -0.433013 0 0.25
vt 1.71566 0
vn -0.866025 0 0.5
vt 1.71566 7.87402
vt 0.857832 7.87402
f 6/28/3 12/29/8 11/30/8 4/31/3 

vt 17.0477 -9.84252
f 6/11/4 7/10/4 12/32/4

v -0.433013 0 0.125
vt 17.0477 -4.92126
f 12/32/4 7/10/4 13/33/4

vt 11.6649 0
vn -0.906308 0 -0.422618
vt 12.5227 0
vt 12.5227 7.87402
v -0.433013 0.2 0.125
vt 11.6649 7.87402
f 13/34/9 7/35/7 10/36/7 14/37/9 

vt -17.0477 -4.92126
f 10/26/1 11/27/1 14/38/1

v -0.420515 0.2 0.267848
vt -16.5557 -10.5452
f 14/38/1 11/27/1 15/39/1

vt -1.71566 0
v -0.420515 0 0.267848
vt -0.857832 0
vn -0.766044 0 0.642788
vt -0.857832 7.87402
vt -1.71566 7.87402
f 12/40/8 16/41/10 15/42/10 11/43/8 

vt 16.5557 -10.5452
f 12/32/4 13/33/4 16/44/4

v -0.3 0 -3.67394e-17
vt 11.811 1.44643e-15
f 16/44/4 13/33/4 17/45/4

vt 8.60687 0
vn -0.684817 0 -0.728715
vt 15.7931 0
vt 15.7931 7.87402
v -0.3 0.2 -3.67394e-17
vt 8.60687 7.87402
f 17/46/11 13/47/11 14/48/11 18/49/11 

vt -11.811 1.44643e-15
f 14/38/1 15/39/1 18/50/1

v -0.405108 0.2 0.283256
vt -15.9491 -11.1518
f 18/50/1 15/39/1 19/51/1

vt -4.25006 0
v -0.405108 0 0.283256
vt -3.39223 0
vn -0.642788 0 0.766044
vt -3.39223 7.87402
vt -4.25006 7.87402
f 16/52/10 20/53/12 19/54/12 15/55/10 

vt 15.9491 -11.1518
f 16/44/4 17/45/4 20/56/4

v -0.38726 0 0.295753
vt 15.2464 -11.6438
f 20/56/4 17/45/4 21/57/4

v -0.367512 0 0.304962
vt 14.469 -12.0064
f 21/57/4 17/45/4 22/58/4

v -0.346466 0 0.310601
vt 13.6404 -12.2284
f 22/58/4 17/45/4 23/59/4

v -0.32476 0 0.3125
vt 12.7858 -12.3031
f 23/59/4 17/45/4 24/60/4

v -0.15 0 0.259808
vt 5.90551 -10.2286
f 24/60/4 17/45/4 25/61/4

v -0.261541 0 -0.0854246
vt 10.2969 3.36317
f 25/61/4 17/45/4 26/62/4

v -0.32476 0 -0.3125
vt 12.7858 12.3031
f 17/45/4 27/63/4 26/62/4

v -0.346466 0 -0.310601
vt 13.6404 12.2284
f 17/45/4 28/64/4 27/63/4

v -0.367512 0 -0.304962
vt 14.469 12.0064
f 17/45/4 29/65/4 28/64/4

v -0.38726 0 -0.295753
vt 15.2464 11.6438
f 17/45/4 30/66/4 29/65/4

v -0.405108 0 -0.283256
vt 15.9491 11.1518
f 17/45/4 31/67/4 30/66/4

v -0.420515 0 -0.267848
vt 16.5557 10.5452
f 17/45/4 32/68/4 31/67/4

v -0.433013 0 -0.125
vt 17.0477 4.92126
f 33/69/4 32/68/4 17/45/4

v -0.433013 0 -0.25
vt 17.0477 9.84252
f 33/69/4 34/70/4 32/68/4

v -0.442221 0 -0.144747
vt 17.4103 5.69872
f 35/71/4 34/70/4 33/69/4

v -0.442221 0 -0.230253
vt 17.4103 9.06506
f 35/71/4 36/72/4 34/70/4

v -0.44786 0 -0.165794
vt 17.6323 6.52732
f 37/73/4 36/72/4 35/71/4

v -0.44786 0 -0.209206
vt 17.6323 8.23646
f 37/73/4 38/74/4 36/72/4

v -0.44976 0 -0.1875
vt 17.7071 7.38189
f 38/74/4 37/73/4 39/75/4

vt -8.89707 0
vn -1 0 9.05502e-17
vt -8.03924 0
v -0.44786 0.2 -0.165794
vt -8.03924 7.87402
v -0.44976 0.2 -0.1875
vt -8.89707 7.87402
f 39/76/13 37/77/2 40/78/2 41/79/13 

vt -10.8685 0
vt -10.0107 0
v -0.442221 0.2 -0.144747
vt -10.0107 7.87402
vt -10.8685 7.87402
f 37/80/2 35/81/3 42/82/3 40/83/2 

vt -12.5227 0
vt -11.6649 0
vn -0.906308 0 0.422618
v -0.433013 0.2 -0.125
vt -11.6649 7.87402
vt -12.5227 7.87402
f 35/84/3 33/85/14 43/86/14 42/87/3 

vt -15.7931 0
vn -0.684817 0 0.728715
vt -8.60687 0
vt -8.60687 7.87402
vt -15.7931 7.87402
f 33/88/15 17/89/15 18/90/15 43/91/15 

v -0.433013 0.2 -0.25
vt -17.0477 9.84252
vt -17.0477 4.92126
f 44/92/1 43/93/1 18/50/1

v -0.442221 0.2 -0.230253
vt -17.4103 9.06506
f 45/94/1 43/93/1 44/92/1

vt -17.4103 5.69872
f 45/94/1 42/95/1 43/93/1

v -0.44786 0.2 -0.209206
vt -17.6323 8.23646
f 46/96/1 42/95/1 45/94/1

vt -17.6323 6.52732
f 46/96/1 40/97/1 42/95/1

vt -17.7071 7.38189
f 40/97/1 46/96/1 41/98/1

vt -6.66836 0
vt -5.81053 0
vt -5.81053 7.87402
vt -6.66836 7.87402
f 38/99/6 39/100/13 41/101/13 46/102/6 

f 36/52/7 38/53/6 46/54/6 45/55/7 

vn -0.866025 0 -0.5
f 34/40/16 36/41/7 45/42/7 44/43/16 

vn -0.766044 0 -0.642788
v -0.420515 0.2 -0.267848
f 32/28/17 34/29/16 44/30/16 47/31/17 

vt -16.5557 10.5452
f 44/92/1 18/50/1 47/103/1

v -0.405108 0.2 -0.283256
vt -15.9491 11.1518
f 47/103/1 18/50/1 48/104/1

v -0.38726 0.2 -0.295753
vt -15.2464 11.6438
f 48/104/1 18/50/1 49/105/1

v -0.367512 0.2 -0.304962
vt -14.469 12.0064
f 49/105/1 18/50/1 50/106/1

v -0.346466 0.2 -0.310601
vt -13.6404 12.2284
f 50/106/1 18/50/1 51/107/1

v -0.32476 0.2 -0.3125
vt -12.7858 12.3031
f 51/107/1 18/50/1 52/108/1

v -0.261541 0.2 -0.0854246
vt -10.2969 3.36317
f 52/108/1 18/50/1 53/109/1

v -0.15 0.2 0.259808
vt -5.90551 -10.2286
f 18/50/1 54/110/1 53/109/1

v -0.32476 0.2 0.3125
vt -12.7858 -12.3031
f 18/50/1 55/111/1 54/110/1

v -0.346466 0.2 0.310601
vt -13.6404 -12.2284
f 18/50/1 56/112/1 55/111/1

v -0.367512 0.2 0.304962
vt -14.469 -12.0064
f 18/50/1 57/113/1 56/112/1

v -0.38726 0.2 0.295753
vt -15.2464 -11.6438
f 18/50/1 58/114/1 57/113/1

f 18/50/1 19/51/1 58/114/1

vn -0.5 0 0.866025
f 20/99/12 21/100/18 58/101/18 19/102/12 

vn -0.34202 0 0.939693
f 21/76/18 22/77/19 57/78/19 58/79/18 

vn -0.173648 0 0.984808
f 22/80/19 23/81/20 56/82/20 57/83/19 

vn -0.0871557 0 0.996195
f 23/84/20 24/85/21 55/86/21 56/87/20 

vn 0.288677 0 0.957427
f 24/88/22 25/89/22 54/90/22 55/91/22 

vn -0.973494 0 0.228712
v -0.108253 0 0.4375
v -0.108253 0.2 0.4375
f 25/46/23 59/47/23 60/48/23 54/49/23 

v -1.10798e-17 0 0.179606
vt 4.36214e-16 -7.07111
vt 4.26194 -17.2244
f 25/61/4 61/115/4 59/116/4

v -0.161641 0 0.222035
vt 6.36382 -8.74152
f 25/61/4 62/117/4 61/115/4

f 25/61/4 26/62/4 62/117/4

v -0.17054 0 0.0557019
vt 6.71416 -2.19299
f 62/117/4 26/62/4 63/118/4

vt 8.40661 1.31591e-15
vn 0.840428 1.92632e-16 -0.541923
vt 8.40661 7.87402
v -0.17054 0.2 0.0557019
vt 1.79551 7.87402
vt 1.79551 1.31591e-15
f 26/119/24 53/120/24 64/121/24 63/122/24 

v -0.105399 0 -0.14478
vt -1.85341 -7.98589e-17
vn 0.35533 -1.17397e-17 0.934741
v -0.105399 0.2 -0.14478
vt -1.85341 7.87402
vt -8.42987 7.87402
vt -8.42987 -7.98589e-17
f 65/123/25 66/124/25 53/125/25 26/126/25 

vt 1.83127 7.87402
vn 0.778343 1.9565e-16 0.62784
vt 1.83127 1.33208e-15
v 9.02389e-17 0 -0.275445
vt 8.44057 1.33208e-15
v 0 0.2 -0.275445
vt 8.44057 7.87402
f 66/127/26 65/128/26 67/129/26 68/130/26 

vt 4.14958 5.69999
v -0.0957556 0 -0.455348
vt 3.7699 17.9271
vt -3.55271e-15 10.8443
f 65/131/4 69/132/4 67/133/4

v -0.108253 0 -0.4375
vt 4.26194 17.2244
f 65/131/4 70/134/4 69/132/4

v -0.15 0 -0.259808
vt 5.90551 10.2286
f 65/131/4 71/135/4 70/134/4

f 26/62/4 71/135/4 65/131/4

f 26/62/4 27/63/4 71/135/4

vn 0.288677 0 -0.957427
v -0.15 0.2 -0.259808
f 71/46/27 27/47/27 52/48/27 72/49/27 

vn -0.0871557 0 -0.996195
vn -0.173648 0 -0.984808
f 27/34/28 28/35/29 51/36/29 52/37/28 

vn -0.34202 0 -0.939693
f 28/22/29 29/23/30 50/24/30 51/25/29 

vn -0.5 0 -0.866025
f 29/18/30 30/19/31 49/20/31 50/21/30 

vn -0.642788 0 -0.766044
f 30/14/31 31/15/32 48/16/32 49/17/31 

f 31/5/32 32/6/17 47/7/17 48/8/32 

vt -5.90551 10.2286
f 52/108/1 53/109/1 72/136/1

vt -4.14958 5.69999
f 72/136/1 53/109/1 66/137/1

v -0.108253 0.2 -0.4375
vt -4.26194 17.2244
f 72/136/1 66/137/1 73/138/1

v -0.0957556 0.2 -0.455348
vt -3.7699 17.9271
f 73/138/1 66/137/1 74/139/1

vt -3.96928e-31 10.8443
f 74/139/1 66/137/1 68/140/1

v -0.0803485 0.2 -0.470756
vt -3.16332 18.5337
f 74/139/1 68/140/1 75/141/1

v -0.0625 0.2 -0.483253
vt -2.46063 19.0257
f 75/141/1 68/140/1 76/142/1

v -0.0427525 0.2 -0.492462
vt -1.68317 19.3883
f 76/142/1 68/140/1 77/143/1

v -0.021706 0.2 -0.498101
vt -0.854568 19.6103
f 77/143/1 68/140/1 78/144/1

v 0 0.2 -0.5
vt -3.96928e-31 19.685
f 78/144/1 68/140/1 79/145/1

v 0.105399 0.2 -0.14478
f 79/145/1 68/140/1 80/131/1

v 0.105399 0 -0.14478
vt -1.83127 -1.70453e-15
vn -0.778343 -2.50354e-16 0.62784
vt -1.83127 7.87402
vt -8.44057 7.87402
vt -8.44057 -1.70453e-15
f 81/146/33 80/147/33 68/148/33 67/149/33 

vt 1.85341 7.87402
vn -0.35533 -1.21065e-16 0.934741
vt 1.85341 -8.23545e-16
v 0.261541 0 -0.0854246
vt 8.42987 -8.23545e-16
v 0.261541 0.2 -0.0854246
vt 8.42987 7.87402
f 80/150/34 81/151/34 82/152/34 83/153/34 

v 0.15 0 -0.259808
f 81/137/4 84/136/4 82/109/4

v 0.108253 0 -0.4375
f 81/137/4 85/138/4 84/136/4

v 0.0957556 0 -0.455348
f 81/137/4 86/139/4 85/138/4

v 0.0803485 0 -0.470756
f 81/137/4 87/141/4 86/139/4

v 0.0625 0 -0.483253
f 81/137/4 88/142/4 87/141/4

v 0.0427525 0 -0.492462
f 81/137/4 89/143/4 88/142/4

v 0.021706 0 -0.498101
f 81/137/4 90/144/4 89/143/4

f 67/133/4 90/144/4 81/137/4

v 0 0 -0.5
vt 0 19.685
f 67/133/4 91/154/4 90/144/4

v -0.021706 0 -0.498101
vt 0.854568 19.6103
f 67/133/4 92/155/4 91/154/4

v -0.0427525 0 -0.492462
vt 1.68317 19.3883
f 67/133/4 93/156/4 92/155/4

v -0.0625 0 -0.483253
vt 2.46063 19.0257
f 67/133/4 94/157/4 93/156/4

v -0.0803485 0 -0.470756
vt 3.16332 18.5337
f 67/133/4 95/158/4 94/157/4

f 67/133/4 69/132/4 95/158/4

f 95/80/32 69/81/17 74/82/17 75/83/32 

vn -0.819152 0 -0.573576
f 69/84/17 70/85/35 73/86/35 74/87/17 

vn -0.973494 0 -0.228712
f 70/88/36 71/89/36 72/90/36 73/91/36 

f 94/76/31 95/77/32 75/78/32 76/79/31 

f 93/99/30 94/100/31 76/101/31 77/102/30 

f 92/52/29 93/53/30 77/54/30 78/55/29 

vn 0 0 -1
f 91/40/37 92/41/29 78/42/29 79/43/37 

vn 0.173648 0 -0.984808
v 0.021706 0.2 -0.498101
f 90/28/38 91/29/37 79/30/37 96/31/38 

f 79/145/1 80/131/1 96/155/1

v 0.0427525 0.2 -0.492462
f 96/155/1 80/131/1 97/156/1

v 0.0625 0.2 -0.483253
f 97/156/1 80/131/1 98/157/1

v 0.0803485 0.2 -0.470756
f 98/157/1 80/131/1 99/158/1

v 0.0957556 0.2 -0.455348
f 99/158/1 80/131/1 100/132/1

v 0.108253 0.2 -0.4375
f 100/132/1 80/131/1 101/134/1

v 0.15 0.2 -0.259808
f 101/134/1 80/131/1 102/135/1

f 102/135/1 80/131/1 83/62/1

v 0.32476 0.2 -0.3125
f 102/135/1 83/62/1 103/63/1

v 0.3 0.2 -0
vt 11.811 3.00285e-31
f 103/63/1 83/62/1 104/159/1

v 0.32476 0.2 0.3125
f 83/62/1 105/60/1 104/159/1

v 0.17054 0.2 0.0557019
f 106/118/1 105/60/1 83/62/1

v 0.161641 0.2 0.222035
f 107/117/1 105/60/1 106/118/1

v 0.15 0.2 0.259808
f 107/117/1 108/61/1 105/60/1

v 0.0803485 0.2 0.470756
vt 3.16332 -18.5337
f 107/117/1 109/160/1 108/61/1

v 0.0625 0.2 0.483253
vt 2.46063 -19.0257
f 107/117/1 110/161/1 109/160/1

v 0.0427525 0.2 0.492462
vt 1.68317 -19.3883
f 107/117/1 111/162/1 110/161/1

v 0.021706 0.2 0.498101
vt 0.854568 -19.6103
f 107/117/1 112/163/1 111/162/1

v 1.10798e-17 0.2 0.179606
f 113/115/1 112/163/1 107/117/1

v -6.12323e-17 0.2 0.5
vt -2.41072e-15 -19.685
f 113/115/1 114/164/1 112/163/1

v -0.021706 0.2 0.498101
vt -0.854568 -19.6103
f 113/115/1 115/165/1 114/164/1

v -0.0427525 0.2 0.492462
vt -1.68317 -19.3883
f 113/115/1 116/166/1 115/165/1

v -0.0625 0.2 0.483253
vt -2.46063 -19.0257
f 113/115/1 117/167/1 116/166/1

v -0.0803485 0.2 0.470756
vt -3.16332 -18.5337
f 113/115/1 118/168/1 117/167/1

v -0.0957556 0.2 0.455348
vt -3.7699 -17.9271
f 113/115/1 119/169/1 118/168/1

vt -4.26194 -17.2244
f 113/115/1 60/170/1 119/169/1

f 113/115/1 54/110/1 60/170/1

v -0.161641 0.2 0.222035
vt -6.36382 -8.74152
f 120/171/1 54/110/1 113/115/1

f 53/109/1 54/110/1 120/171/1

vt -6.71416 -2.19299
f 53/109/1 120/171/1 64/172/1

vt -8.38906 7.87402
vn 0.998572 -2.26834e-16 -0.0534237
vt -8.38906 -1.5474e-15
vt -1.83116 -1.5474e-15
vt -1.83116 7.87402
f 120/173/39 62/174/39 63/175/39 64/176/39 

vt 1.79525 7.87402
vn -0.253885 7.27403e-17 -0.967234
vt 1.79525 4.97502e-16
vt 8.37465 4.97502e-16
vt 8.37465 7.87402
f 113/177/40 61/178/40 62/179/40 120/180/40 

vt -1.79525 -1.56839e-15
vn 0.253885 -2.29317e-16 -0.967234
vt -1.79525 7.87402
vt -8.37465 7.87402
v 0.161641 0 0.222035
vt -8.37465 -1.56839e-15
f 61/181/41 113/182/41 107/183/41 121/184/41 

vt 8.38906 -8.35327e-17
vn -0.998572 -1.22451e-17 -0.0534237
vt 8.38906 7.87402
vt 1.83116 7.87402
v 0.17054 0 0.0557019
vt 1.83116 -8.35327e-17
f 121/185/42 107/186/42 106/187/42 122/188/42 

vt -8.40661 7.87402
vn -0.840428 -1.11843e-16 -0.541923
vt -8.40661 -7.64019e-16
vt -1.79551 -7.64019e-16
vt -1.79551 7.87402
f 83/189/43 82/190/43 122/191/43 106/192/43 

v 0.32476 0 0.3125
f 123/111/4 122/172/4 82/109/4

f 123/111/4 121/171/4 122/172/4

v 0.15 0 0.259808
f 124/110/4 121/171/4 123/111/4

v 0.0803485 0 0.470756
f 125/168/4 121/171/4 124/110/4

v 0.0625 0 0.483253
f 126/167/4 121/171/4 125/168/4

v 0.0427525 0 0.492462
f 127/166/4 121/171/4 126/167/4

v 0.021706 0 0.498101
f 128/165/4 121/171/4 127/166/4

f 128/165/4 61/115/4 121/171/4

v -6.12323e-17 0 0.5
vt 2.41072e-15 -19.685
f 129/193/4 61/115/4 128/165/4

v -0.021706 0 0.498101
f 130/163/4 61/115/4 129/193/4

v -0.0427525 0 0.492462
f 131/162/4 61/115/4 130/163/4

v -0.0625 0 0.483253
f 132/161/4 61/115/4 131/162/4

v -0.0803485 0 0.470756
f 133/160/4 61/115/4 132/161/4

v -0.0957556 0 0.455348
vt 3.7699 -17.9271
f 134/194/4 61/115/4 133/160/4

f 59/116/4 61/115/4 134/194/4

vn -0.819152 0 0.573576
f 59/34/44 134/35/10 119/36/10 60/37/44 

f 134/22/10 133/23/12 118/24/12 119/25/10 

f 133/18/12 132/19/18 117/20/18 118/21/12 

f 132/14/18 131/15/19 116/16/19 117/17/18 

f 131/5/19 130/6/20 115/7/20 116/8/19 

vn 1.39308e-17 0 1
f 130/28/20 129/29/45 114/30/45 115/31/20 

vn 0.173648 0 0.984808
f 129/40/45 128/41/46 112/42/46 114/43/45 

vn 0.34202 0 0.939693
f 128/52/46 127/53/47 111/54/47 112/55/46 

vn 0.5 0 0.866025
f 127/99/47 126/100/48 110/101/48 111/102/47 

vn 0.642788 0 0.766044
f 126/76/48 125/77/49 109/78/49 110/79/48 

v 0.0957556 0 0.455348
vn 0.766044 0 0.642788
v 0.0957556 0.2 0.455348
f 125/80/49 135/81/50 136/82/50 109/83/49 

f 125/168/4 124/110/4 135/169/4

v 0.108253 0 0.4375
f 135/169/4 124/110/4 137/170/4

vn 0.973494 0 0.228712
v 0.108253 0.2 0.4375
f 137/88/51 124/89/51 108/90/51 138/91/51 

vn -0.288677 0 0.957427
f 124/46/52 123/47/52 105/48/52 108/49/52 

vn 0.0871557 0 0.996195
v 0.346466 0 0.310601
v 0.346466 0.2 0.310601
f 123/34/53 139/35/46 140/36/46 105/37/53 

v 0.433013 0 0.125
f 123/111/4 141/38/4 139/112/4

v 0.3 0 -0
vt -11.811 0
f 123/111/4 142/195/4 141/38/4

f 123/111/4 82/109/4 142/195/4

v 0.32476 0 -0.3125
f 82/109/4 143/108/4 142/195/4

f 82/109/4 84/136/4 143/108/4

vn -0.288677 0 -0.957427
f 143/88/54 84/89/54 102/90/54 103/91/54 

vn 0.973494 0 -0.228712
f 84/46/55 85/47/55 101/48/55 102/49/55 

vn 0.819152 0 -0.573576
vn 0.766044 0 -0.642788
f 85/34/56 86/35/57 100/36/57 101/37/56 

vn 0.642788 0 -0.766044
f 86/22/57 87/23/58 99/24/58 100/25/57 

vn 0.5 0 -0.866025
f 87/18/58 88/19/59 98/20/59 99/21/58 

vn 0.34202 0 -0.939693
f 88/14/59 89/15/60 97/16/60 98/17/59 

f 89/5/60 90/6/38 96/7/38 97/8/60 

v 0.346466 0 -0.310601
vn 0.0871557 0 -0.996195
v 0.346466 0.2 -0.310601
f 144/84/38 143/85/61 103/86/61 145/87/38 

v 0.433013 0 -0.125
f 146/93/4 143/108/4 144/107/4

f 142/195/4 143/108/4 146/93/4

vn 0.684817 0 0.728715
v 0.433013 0.2 -0.125
f 142/46/62 146/47/62 147/48/62 104/49/62 

vn 0.906308 0 0.422618
v 0.442221 0 -0.144747
vn 0.939693 0 0.34202
v 0.442221 0.2 -0.144747
f 146/34/63 148/35/64 149/36/64 147/37/63 

v 0.433013 0 -0.25
f 146/93/4 150/92/4 148/95/4

v 0.420515 0 -0.267848
f 146/93/4 151/103/4 150/92/4

v 0.405108 0 -0.283256
f 146/93/4 152/104/4 151/103/4

v 0.38726 0 -0.295753
f 146/93/4 153/105/4 152/104/4

v 0.367512 0 -0.304962
f 146/93/4 154/106/4 153/105/4

f 146/93/4 144/107/4 154/106/4

v 0.367512 0.2 -0.304962
f 154/80/60 144/81/38 145/82/38 155/83/60 

f 145/64/1 147/69/1 155/65/1

f 103/63/1 147/69/1 145/64/1

f 103/63/1 104/159/1 147/69/1

v 0.38726 0.2 -0.295753
f 155/65/1 147/69/1 156/66/1

v 0.405108 0.2 -0.283256
f 156/66/1 147/69/1 157/67/1

v 0.420515 0.2 -0.267848
f 157/67/1 147/69/1 158/68/1

v 0.433013 0.2 -0.25
f 158/68/1 147/69/1 159/70/1

f 159/70/1 147/69/1 149/71/1

v 0.442221 0.2 -0.230253
f 159/70/1 149/71/1 160/72/1

v 0.44786 0.2 -0.165794
f 160/72/1 149/71/1 161/73/1

v 0.44786 0 -0.165794
vn 0.984808 0 0.173648
f 148/22/64 162/23/65 161/24/65 149/25/64 

v 0.44786 0 -0.209206
f 148/95/4 163/96/4 162/97/4

v 0.442221 0 -0.230253
f 148/95/4 164/94/4 163/96/4

f 148/95/4 150/92/4 164/94/4

vn 0.939693 0 -0.34202
vn 0.866025 0 -0.5
f 164/28/66 150/29/67 159/30/67 160/31/66 

f 150/40/67 151/41/57 158/42/57 159/43/67 

f 151/52/57 152/53/58 157/54/58 158/55/57 

f 152/99/58 153/100/59 156/101/59 157/102/58 

f 153/76/59 154/77/60 155/78/60 156/79/59 

vn 0.984808 0 -0.173648
v 0.44786 0.2 -0.209206
f 163/5/68 164/6/66 160/7/66 165/8/68 

f 160/72/1 161/73/1 165/74/1

v 0.44976 0.2 -0.1875
f 165/74/1 161/73/1 166/75/1

v 0.44976 0 -0.1875
vn 1 0 4.17924e-17
f 162/18/65 167/19/69 166/20/69 161/21/65 

f 162/97/4 163/96/4 167/98/4

f 167/14/69 163/15/68 165/16/68 166/17/69 

vn 0.684817 0 -0.728715
v 0.433013 0.2 0.125
f 141/88/70 142/89/70 104/90/70 168/91/70 

f 104/159/1 105/60/1 168/33/1

f 168/33/1 105/60/1 140/59/1

v 0.367512 0.2 0.304962
f 168/33/1 140/59/1 169/58/1

v 0.367512 0 0.304962
f 139/22/46 170/23/47 169/24/47 140/25/46 

f 139/112/4 141/38/4 170/113/4

v 0.38726 0 0.295753
f 170/113/4 141/38/4 171/114/4

v 0.405108 0 0.283256
f 171/114/4 141/38/4 172/51/4

v 0.420515 0 0.267848
f 172/51/4 141/38/4 173/39/4

v 0.433013 0 0.25
f 173/39/4 141/38/4 174/27/4

v 0.442221 0 0.230253
f 174/27/4 141/38/4 175/4/4

v 0.442221 0 0.144747
f 175/4/4 141/38/4 176/26/4

vn 0.906308 0 -0.422618
v 0.442221 0.2 0.144747
f 176/84/66 141/85/71 168/86/71 177/87/66 

v 0.442221 0.2 0.230253
f 168/33/1 178/11/1 177/10/1

v 0.433013 0.2 0.25
f 168/33/1 179/32/1 178/11/1

v 0.420515 0.2 0.267848
f 168/33/1 180/44/1 179/32/1

v 0.405108 0.2 0.283256
f 168/33/1 181/56/1 180/44/1

v 0.38726 0.2 0.295753
f 168/33/1 182/57/1 181/56/1

f 168/33/1 169/58/1 182/57/1

f 170/18/47 171/19/48 182/20/48 169/21/47 

f 171/14/48 172/15/49 181/16/49 182/17/48 

f 172/5/49 173/6/50 180/7/50 181/8/49 

vn 0.866025 0 0.5
f 173/28/50 174/29/72 179/30/72 180/31/50 

f 174/40/72 175/41/64 178/42/64 179/43/72 

v 0.44786 0 0.209206
v 0.44786 0.2 0.209206
f 175/52/64 183/53/65 184/54/65 178/55/64 

f 175/4/4 176/26/4 183/1/4

v 0.44786 0 0.165794
f 183/1/4 176/26/4 185/2/4

v 0.44786 0.2 0.165794
f 185/80/68 176/81/66 177/82/66 186/83/68 

f 177/10/1 184/9/1 186/12/1

f 177/10/1 178/11/1 184/9/1

v 0.44976 0.2 0.1875
f 186/12/1 184/9/1 187/13/1

v 0.44976 0 0.1875
f 183/99/65 188/100/69 187/101/69 184/102/65 

f 183/1/4 185/2/4 188/3/4

f 188/76/69 185/77/68 186/78/68 187/79/69 

f 108/61/1 136/194/1 138/116/1

f 108/61/1 109/160/1 136/194/1

vn 0.819152 0 0.573576
f 135/84/50 137/85/73 138/86/73 136/87/50 

