# Alias OBJ Model File
# Exported from SketchUp, (c) 2000-2012 Trimble Navigation Limited
# File units = meters

mtllib A_G.mtl

g Mesh1 Difference Model

usemtl Color_A03
v 0 0 -0.5
vt 0 19.685
vn 0 -1 -0
v -0.235386 0 -0.0764817
vt 9.26718 3.01109
v -0.3 0 -0
vt 11.811 0
f 1/1/1 2/2/1 3/3/1

v 1.88944e-16 0 -0.2475
vt -7.43874e-15 9.74409
f 2/2/1 1/1/1 4/4/1

v 0.235386 0 -0.0764817
vt -9.26718 3.01109
f 4/4/1 1/1/1 5/5/1

v 0.3 0 -0
vt -11.811 0
f 5/5/1 1/1/1 6/6/1

vt -6.07672 0
vn 0.857493 0 -0.514496
vt 16.8798 0
v 0 0.2 -0.5
vt 16.8798 7.87402
v 0.3 0.2 -0
vt -6.07672 7.87402
f 6/7/2 1/8/2 7/9/2 8/10/2 

vt -16.8798 0
vn -0.857493 0 -0.514496
vt 6.07672 0
v -0.3 0.2 -0
vt 6.07672 7.87402
vt -16.8798 7.87402
f 1/11/3 3/12/3 9/13/3 7/14/3 

vn -0.857493 0 0.514496
v -6.12323e-17 0 0.5
v -6.12323e-17 0.2 0.5
f 3/7/4 10/8/4 11/9/4 9/10/4 

v -0.145477 0 0.200232
vt 5.72744 -7.88314
vt 2.41072e-15 -19.685
f 3/3/1 12/15/1 10/16/1

f 12/15/1 3/3/1 2/2/1

v -0.145477 0.2 0.200232
vt -5.72744 7.87402
vn 0.951057 -1.77666e-15 -0.309017
vt -5.72744 -1.40057e-14
vt 5.72744 -1.40057e-14
v -0.235386 0.2 -0.0764817
vt 5.72744 7.87402
f 13/17/5 12/18/5 2/19/5 14/20/5 

v 0.145477 0.2 0.200232
vn 4.16031e-31 1.12799e-15 -1
v 0.145477 0 0.200232
vt -5.72744 8.89207e-15
vt 5.72744 8.89207e-15
f 15/17/6 16/21/6 12/22/6 13/20/6 

vt 5.72744 -1.03753e-14
vn -0.951057 -1.31614e-15 -0.309017
v 0.235386 0.2 -0.0764817
vt -5.72744 -1.03753e-14
f 16/23/7 15/20/7 17/17/7 5/24/7 

vn 0 1 -0
f 15/15/8 8/3/8 17/2/8

vt -2.41072e-15 -19.685
f 15/15/8 11/25/8 8/3/8

vt -5.72744 -7.88314
f 13/26/8 11/25/8 15/15/8

f 13/26/8 9/6/8 11/25/8

f 9/6/8 13/26/8 14/5/8

f 14/5/8 7/1/8 9/6/8

v 1.88944e-16 0.2 -0.2475
vt 7.43874e-15 9.74409
f 7/1/8 14/5/8 18/27/8

vn 0.587785 0 0.809017
vt -5.72744 0
vt 5.72744 0
f 14/17/9 2/28/9 4/29/9 18/20/9 

vn -0.587785 0 0.809017
f 5/29/10 17/20/10 18/17/10 4/28/10 

f 7/1/8 18/27/8 17/2/8

f 7/1/8 17/2/8 8/3/8

vn 0.857493 0 0.514496
f 10/11/11 6/12/11 8/13/11 11/14/11 

f 10/16/1 16/26/1 6/6/1

f 10/16/1 12/15/1 16/26/1

f 6/6/1 16/26/1 5/5/1

