# Alias OBJ Model File
# Exported from SketchUp, (c) 2000-2012 Trimble Navigation Limited
# File units = meters

mtllib B_G.mtl

g Mesh1 Difference Model

usemtl Color_C03
v 0 0 -0.5
vt -17.0477 0
vn -0.866025 0 -0.5
v -0.433013 0 0.25
vt 17.0477 0
v -0.433013 0.2 0.25
vt 17.0477 7.87402
v 0 0.2 -0.5
vt -17.0477 7.87402
f 1/1/1 2/2/1 3/3/1 4/4/1 

vt 0 19.685
vn 0 -1 -0
v -0.235386 0 -0.0764817
vt 9.26718 3.01109
vt 17.0477 -9.84252
f 1/5/2 5/6/2 2/7/2

v -5.68691e-16 0 -0.2475
vt 2.23894e-14 9.74409
f 5/6/2 1/5/2 6/8/2

v 0.235386 0 -0.0764817
vt -9.26718 3.01109
f 6/8/2 1/5/2 7/9/2

v 0.433013 0 0.25
vt -17.0477 -9.84252
f 7/9/2 1/5/2 8/10/2

vn 0.866025 0 -0.5
v 0.433013 0.2 0.25
f 8/1/3 1/2/3 4/3/3 9/4/3 

vn 0 1 -0
v 0.235386 0.2 -0.0764817
f 4/5/4 10/6/4 9/7/4

v 2.03709e-16 0.2 -0.2475
vt 8.02006e-15 9.74409
f 4/5/4 11/11/4 10/6/4

v -0.235386 0.2 -0.0764817
f 4/5/4 12/9/4 11/11/4

f 12/9/4 4/5/4 3/10/4

v -0.145477 0.2 0.200232
vt -5.72744 -7.88314
f 3/10/4 13/12/4 12/9/4

f 13/12/4 3/10/4 9/7/4

vn -3.64696e-16 0 1
f 2/1/5 8/2/5 9/3/5 3/4/5 

v -0.145477 0 0.200232
vt 5.72744 -7.88314
f 2/7/2 14/13/2 8/10/2

f 14/13/2 2/7/2 5/6/2

vt 5.72744 -1.41774e-14
vn 0.951057 -1.79845e-15 -0.309017
vt 5.72744 7.87402
vt -5.72744 7.87402
vt -5.72744 -1.41774e-14
f 5/14/6 12/15/6 13/16/6 14/17/6 

vt 5.72744 -8.76192e-15
vn 0.587785 -1.11148e-15 0.809017
vt -5.72744 -8.76192e-15
f 6/18/7 11/15/7 12/16/7 5/19/7 

vt 5.72744 -4.35695e-15
vn -0.587785 -5.52692e-16 0.809017
vt -5.72744 -4.35695e-15
f 7/20/8 10/15/8 11/16/8 6/21/8 

v 0.145477 0 0.200232
vt 5.72744 6.56169e-15
vn -0.951057 8.3237e-16 -0.309017
v 0.145477 0.2 0.200232
vt -5.72744 6.56169e-15
f 15/22/9 16/15/9 10/16/9 7/23/9 

vt 5.72744 8.89207e-16
vn -7.75372e-17 1.12799e-16 -1
vt -5.72744 8.89207e-16
f 14/24/10 13/15/10 16/16/10 15/25/10 

f 13/12/4 9/7/4 16/13/4

f 16/13/4 9/7/4 10/6/4

f 8/10/2 14/13/2 15/12/2

f 8/10/2 15/12/2 7/9/2

