# Alias OBJ Model File
# Exported from SketchUp, (c) 2000-2012 Trimble Navigation Limited
# File units = meters

mtllib C_G.mtl

g Mesh1 Difference Model

usemtl Color_D03
v 0.5 0 9.18485e-17
vt -13.9194 0
vn 0.707107 0 -0.707107
v 0 0 -0.5
vt 13.9194 0
v 0 0.2 -0.5
vt 13.9194 7.87402
v 0.5 0.2 9.18485e-17
vt -13.9194 7.87402
f 1/1/1 2/2/1 3/3/1 4/4/1 

v 0.261541 0 -0.0849797
vt -10.2969 3.34566
vn 0 -1 -0
vt 0 19.685
vt -19.685 -3.61608e-15
f 5/5/2 2/6/2 1/7/2

v -6.9212e-16 0 -0.275
vt 2.72488e-14 10.8268
f 6/8/2 2/6/2 5/5/2

v -0.261541 0 -0.0849797
vt 10.2969 3.34566
f 7/9/2 2/6/2 6/8/2

v -0.5 0 -3.06162e-17
vt 19.685 1.20536e-15
f 2/6/2 7/9/2 8/10/2

v -0.161641 0 0.22248
vt 6.36382 -8.75904
f 9/11/2 8/10/2 7/9/2

v -6.12323e-17 0 0.5
vt 2.41072e-15 -19.685
f 8/10/2 9/11/2 10/12/2

v 0.161641 0 0.22248
vt -6.36382 -8.75904
f 10/12/2 9/11/2 11/13/2

vt 6.36382 -3.95203e-15
vn 4.18701e-16 -4.51195e-16 -1
v -0.161641 0.2 0.22248
vt 6.36382 7.87402
v 0.161641 0.2 0.22248
vt -6.36382 7.87402
vt -6.36382 -3.95203e-15
f 9/14/3 12/15/3 13/16/3 11/17/3 

vn 0.951057 0 -0.309017
vt -6.36382 0
vt 6.36382 0
v -0.261541 0.2 -0.0849797
f 12/16/4 9/18/4 7/19/4 14/15/4 

vn 0.587785 -1.21252e-15 0.809017
vt -6.36382 -1.06205e-14
vt 6.36382 -1.06205e-14
v 1.44647e-16 0.2 -0.275
f 14/16/5 7/20/5 6/21/5 15/15/5 

vn -0.587785 1.21252e-15 0.809017
vt -6.36382 1.06205e-14
vt 6.36382 1.06205e-14
v 0.261541 0.2 -0.0849797
f 15/16/6 6/22/6 5/23/6 16/15/6 

vn -0.951057 1.52051e-15 -0.309017
vt -6.36382 1.33182e-14
vt 6.36382 1.33182e-14
f 16/16/7 5/24/7 11/25/7 13/15/7 

f 1/7/2 11/13/2 5/5/2

f 10/12/2 11/13/2 1/7/2

vn 0.707107 0 0.707107
v -6.12323e-17 0.2 0.5
f 10/1/8 1/2/8 4/3/8 17/4/8 

vn 0 1 -0
vt -2.41072e-15 -19.685
vt 19.685 -3.61608e-15
f 13/11/9 17/26/9 4/27/9

f 12/13/9 17/26/9 13/11/9

v -0.5 0.2 -3.06162e-17
vt -19.685 1.20536e-15
f 12/13/9 18/28/9 17/26/9

f 18/28/9 12/13/9 14/5/9

f 14/5/9 3/6/9 18/28/9

vt 5.69477e-15 10.8268
f 3/6/9 14/5/9 15/29/9

f 3/6/9 15/29/9 4/27/9

f 4/27/9 15/29/9 16/9/9

f 13/11/9 4/27/9 16/9/9

vn -0.707107 0 -0.707107
f 2/1/10 8/2/10 18/3/10 3/4/10 

vn -0.707107 0 0.707107
f 8/1/11 10/2/11 17/3/11 18/4/11 

