# Alias OBJ Model File
# Exported from SketchUp, (c) 2000-2012 Trimble Navigation Limited
# File units = meters

mtllib D_G.mtl

g Mesh1 Difference Model

usemtl Color_G01
v -6.12323e-17 0.2 0.5
vt -2.41072e-15 -19.685
vn 0 1 -0
v -0.124264 0.2 0.3
vt -4.89229 -11.811
v -0.124264 0.2 0.375736
vt -4.89229 -14.7928
f 1/1/1 2/2/1 3/3/1

v 0.161641 0.2 0.22248
vt 6.36382 -8.75904
f 4/4/1 2/2/1 1/1/1

v -0.161641 0.2 0.22248
vt -6.36382 -8.75904
f 5/5/1 2/2/1 4/4/1

v -0.3 0.2 0.124264
vt -11.811 -4.89229
f 5/5/1 6/6/1 2/2/1

v -0.3 0.2 -0.124264
vt -11.811 4.89229
f 7/7/1 6/6/1 5/5/1

v -0.375736 0.2 -0.124264
vt -14.7928 4.89229
f 8/8/1 6/6/1 7/7/1

v -0.375736 0.2 0.124264
vt -14.7928 -4.89229
f 8/8/1 9/9/1 6/6/1

v -0.5 0.2 -3.06162e-17
vt -19.685 1.20536e-15
f 9/9/1 8/8/1 10/10/1

v -0.375736 0 -0.124264
vt 7.00069 0
vn -0.707107 0 -0.707107
v -0.5 0 -3.06162e-17
vt 13.9194 0
vt 13.9194 7.87402
vt 7.00069 7.87402
f 11/11/2 12/12/2 10/13/2 8/14/2 

vt 14.7928 4.89229
vn 0 -1 -0
v -0.375736 0 0.124264
vt 14.7928 -4.89229
vt 19.685 1.20536e-15
f 11/15/3 13/16/3 12/17/3

v -0.3 0 -0.124264
vt 11.811 4.89229
f 13/16/3 11/15/3 14/18/3

vt 11.811 0
vn -2.97874e-16 0 -1
vt 14.7928 0
vt 14.7928 7.87402
vt 11.811 7.87402
f 14/19/4 11/20/4 8/21/4 7/22/4 

v -0.124264 0 -0.3
vt -4.89229 0
vt 4.89229 0
vt 4.89229 7.87402
v -0.124264 0.2 -0.3
vt -4.89229 7.87402
f 15/23/2 14/24/2 7/25/2 16/26/2 

v -0.261541 0 -0.0849797
vt 10.2969 3.34566
vt 4.89229 11.811
f 17/27/3 14/18/3 15/28/3

v -0.3 0 0.124264
vt 11.811 -4.89229
f 18/29/3 14/18/3 17/27/3

f 13/16/3 14/18/3 18/29/3

vt -14.7928 0
vn 2.97874e-16 0 1
vt -11.811 0
vt -11.811 7.87402
vt -14.7928 7.87402
f 13/30/5 18/31/5 6/32/5 9/33/5 

vn -0.707107 0 0.707107
v -0.124264 0 0.3
f 18/23/6 19/24/6 2/25/6 6/26/6 

v -0.161641 0 0.22248
vt 4.89229 -11.811
f 18/29/3 20/4/3 19/34/3

f 20/4/3 18/29/3 17/27/3

vt -6.36382 7.87402
vn 0.951057 0 -0.309017
vt -6.36382 0
vt 6.36382 0
v -0.261541 0.2 -0.0849797
vt 6.36382 7.87402
f 5/35/7 20/36/7 17/37/7 21/38/7 

vn 1.39567e-16 0 -1
v 0.161641 0 0.22248
f 4/35/8 22/36/8 20/37/8 5/38/8 

vt 6.36382 -4.01075e-15
vn -0.951057 -4.57899e-16 -0.309017
v 0.261541 0.2 -0.0849797
v 0.261541 0 -0.0849797
vt -6.36382 -4.01075e-15
f 22/39/9 4/38/9 23/35/9 24/40/9 

v 0.3 0.2 0.124264
f 4/4/1 25/29/1 23/27/1

v 0.124264 0.2 0.3
f 4/4/1 26/34/1 25/29/1

f 4/4/1 1/1/1 26/34/1

v 0.124264 0.2 0.375736
vt 4.89229 -14.7928
f 26/34/1 1/1/1 27/41/1

v -6.12323e-17 0 0.5
vt -13.9194 0
vn 0.707107 0 0.707107
v 0.124264 0 0.375736
vt -7.00069 0
vt -7.00069 7.87402
vt -13.9194 7.87402
f 28/42/10 29/43/10 27/44/10 1/45/10 

vt 2.41072e-15 -19.685
v 0.124264 0 0.3
f 29/3/3 28/46/3 30/2/3

f 28/46/3 22/5/3 30/2/3

f 19/34/3 22/5/3 28/46/3

f 19/34/3 20/4/3 22/5/3

v -0.124264 0 0.375736
f 28/46/3 31/41/3 19/34/3

f 31/11/6 28/12/6 1/13/6 3/14/6 

vn -1 0 -2.97874e-16
f 19/19/11 31/20/11 3/21/11 2/22/11 

v 0.3 0 0.124264
f 30/2/3 22/5/3 32/6/3

vt -10.2969 3.34566
f 32/6/3 22/5/3 24/47/3

v 0.3 0 -0.124264
f 24/47/3 33/7/3 32/6/3

v 0.124264 0 -0.3
vt -4.89229 11.811
f 24/47/3 34/48/3 33/7/3

v 2.46621e-16 0 -0.275
vt -9.70947e-15 10.8268
f 35/49/3 34/48/3 24/47/3

v 0.124264 0 -0.375736
vt -4.89229 14.7928
f 35/49/3 36/50/3 34/48/3

v 0 0 -0.5
vt 0 19.685
f 35/49/3 37/51/3 36/50/3

f 35/49/3 15/28/3 37/51/3

f 17/27/3 15/28/3 35/49/3

vn 0.587785 1.2462e-15 0.809017
vt -6.36382 1.09155e-14
vt 6.36382 1.09155e-14
v -6.11603e-16 0.2 -0.275
f 21/35/12 17/52/12 35/53/12 38/38/12 

vt 6.36382 -2.70972e-14
vn -0.587785 -3.09363e-15 0.809017
vt -6.36382 -2.70972e-14
f 24/54/13 23/38/13 38/35/13 35/55/13 

v 0.124264 0.2 -0.3
vt -2.40788e-14 10.8268
f 39/28/1 38/56/1 23/27/1

v 0 0.2 -0.5
f 40/51/1 38/56/1 39/28/1

v -0.124264 0.2 -0.375736
f 41/50/1 38/56/1 40/51/1

f 16/48/1 38/56/1 41/50/1

f 16/48/1 21/47/1 38/56/1

f 21/47/1 16/48/1 7/7/1

f 7/7/1 5/5/1 21/47/1

v -0.124264 0 -0.375736
vn -1 0 -0
f 42/30/14 15/31/14 16/32/14 41/33/14 

vt 4.89229 14.7928
f 37/51/3 15/28/3 42/57/3

f 37/42/2 42/43/2 41/44/2 40/45/2 

vn 0.707107 0 -0.707107
v 0.124264 0.2 -0.375736
f 36/11/15 37/12/15 40/13/15 43/14/15 

f 43/57/1 40/51/1 39/28/1

vn 1 0 -0
f 34/19/16 36/20/16 43/21/16 39/22/16 

v 0.3 0.2 -0.124264
f 33/23/15 34/24/15 39/25/15 44/26/15 

f 39/28/1 23/27/1 44/18/1

f 44/18/1 23/27/1 25/29/1

v 0.375736 0.2 0.124264
f 44/18/1 25/29/1 45/16/1

v 0.375736 0 0.124264
f 32/19/5 46/20/5 45/21/5 25/22/5 

f 32/6/3 33/7/3 46/9/3

v 0.375736 0 -0.124264
f 46/9/3 33/7/3 47/8/3

vn -5.95747e-16 0 -1
v 0.375736 0.2 -0.124264
f 47/30/17 33/31/17 44/32/17 48/33/17 

f 44/18/1 45/16/1 48/15/1

v 0.5 0.2 9.18485e-17
vt 19.685 -3.61608e-15
f 48/15/1 45/16/1 49/58/1

v 0.5 0 9.18485e-17
f 46/11/10 50/12/10 49/13/10 45/14/10 

vt -19.685 -3.61608e-15
f 46/9/3 47/8/3 50/59/3

f 50/42/15 47/43/15 48/44/15 49/45/15 

f 30/23/10 32/24/10 25/25/10 26/26/10 

f 29/30/16 30/31/16 26/32/16 27/33/16 

f 12/42/6 13/43/6 9/44/6 10/45/6 

