# Alias OBJ Model File
# Exported from SketchUp, (c) 2000-2012 Trimble Navigation Limited
# File units = meters

mtllib E_G.mtl

g Mesh1 Difference Model

usemtl Color_I01
v 4.50026e-17 0.2 0.3
vt -0.672187 7.87402
vn 0.0569119 0 0.998379
v -0.0528977 0.2 0.303015
vt -2.75816 7.87402
vn 0.113639 0 0.993522
v -0.0528977 0 0.303015
vt -2.75816 0
v 4.50026e-17 0 0.3
vt -0.672187 0
f 1/1/1 2/2/2 3/3/2 4/4/1 

v 0.161641 0.2 0.22248
vt 6.36382 -8.75904
vn -3.68591e-31 1 4.824e-32
vt -2.08259 -11.9297
vt 1.77175e-15 -11.811
f 5/5/3 2/6/3 1/7/3

v -0.10511 0.2 0.312023
vt -4.13819 -12.2844
f 5/5/3 6/8/3 2/6/3

v -0.155961 0.2 0.326905
vt -6.14018 -12.8703
f 5/5/3 7/9/3 6/8/3

v -0.161641 0.2 0.22248
vt -6.36382 -8.75904
f 8/10/3 7/9/3 5/5/3

v -0.204791 0.2 0.347469
vt -8.06262 -13.6799
f 8/10/3 9/11/3 7/9/3

v -0.250967 0.2 0.373449
vt -9.88061 -14.7027
f 8/10/3 10/12/3 9/11/3

v -0.261541 0.2 -0.0849797
vt -10.2969 3.34566
f 11/13/3 10/12/3 8/10/3

v -0.26271 0.2 0.249346
vt -10.3429 -9.81679
f 12/14/3 10/12/3 11/13/3

v -0.267179 0.2 0.302141
vt -10.5189 -11.8953
f 13/15/3 10/12/3 12/14/3

v -0.277618 0.2 0.354086
vt -10.9298 -13.9404
f 14/16/3 10/12/3 13/15/3

v -0.293893 0.2 0.404508
vt -11.5706 -15.9255
f 10/12/3 14/16/3 15/17/3

vt 18.7097 7.87402
vn -0.951657 -3.13022e-18 -0.307162
vt 16.6237 7.87402
vn -0.967596 -1.56765e-18 -0.252504
v -0.277618 3.38396e-17 0.354086
vt 16.6237 1.35142e-15
v -0.293893 0 0.404508
vt 18.7097 1.91554e-17
f 15/18/4 14/19/5 16/20/5 17/21/4 

vt 15.8206 7.87402
vt 13.7347 7.87402
vn -0.990022 0 -0.140911
v -0.267179 3.38396e-17 0.302141
vt 13.7347 1.33227e-15
vt 15.8206 1.33227e-15
f 14/22/5 13/23/6 18/24/6 16/25/5 

vt 12.7401 7.87402
vt 10.6541 7.87402
vn -0.999622 0 -0.0274931
v -0.26271 3.38396e-17 0.249346
vt 10.6541 1.33227e-15
vt 12.7401 1.33227e-15
f 13/26/6 12/27/7 19/28/7 18/29/6 

vt 9.50802 7.87402
v -0.26427 0.2 0.196386
vt 7.42205 7.87402
vn -0.996271 0 0.0862813
v -0.26427 3.38396e-17 0.196386
vt 7.42205 1.33227e-15
vt 9.50802 1.33227e-15
f 12/30/7 20/31/8 21/32/8 19/33/7 

vt -10.4043 -7.73173
f 11/13/3 20/34/3 12/14/3

v -0.268438 0.2 -0.190649
vt -10.5684 7.50588
f 22/35/3 20/34/3 11/13/3

v -0.271838 0.2 0.143946
vt -10.7023 -5.66715
f 22/35/3 23/36/3 20/34/3

v -0.285317 0.2 0.0927051
vt -11.233 -3.64981
f 22/35/3 24/37/3 23/36/3

v -0.304531 0.2 0.0433282
vt -11.9894 -1.70583
f 22/35/3 25/38/3 24/37/3

v -0.318325 0.2 -0.1728
vt -12.5325 6.80315
f 26/39/3 25/38/3 22/35/3

v -0.329232 0.2 -0.00354536
vt -12.9619 0.139581
f 26/39/3 27/40/3 25/38/3

v -0.359099 0.2 -0.0473083
vt -14.1378 1.86253
f 26/39/3 28/41/3 27/40/3

v -0.369916 0.2 -0.160735
vt -14.5636 6.32817
f 29/42/3 28/41/3 26/39/3

v -0.393746 0.2 -0.0873936
vt -15.5018 3.44069
f 29/42/3 30/43/3 28/41/3

v -0.422545 0.2 -0.154612
vt -16.6356 6.08708
f 31/44/3 30/43/3 29/42/3

v -0.432724 0.2 -0.123282
vt -17.0364 4.85362
f 31/44/3 32/45/3 30/43/3

v -0.475528 0.2 -0.154508
vt -18.7216 6.08301
f 32/45/3 31/44/3 33/46/3

vn -0.00194958 -1.60412e-18 -0.999998
vn -0.0588582 -8.03363e-19 -0.998266
v -0.422545 -1.69198e-17 -0.154612
vt 16.6237 -6.56317e-16
v -0.475528 0 -0.154508
vt 18.7097 9.81642e-18
f 33/18/9 31/19/10 34/47/10 35/48/9 

vn -0.171919 0 -0.985111
v -0.369916 -1.69198e-17 -0.160735
vt 13.7347 -6.66134e-16
vt 15.8206 -6.66134e-16
f 31/22/10 29/23/11 36/49/11 34/50/10 

vn -0.282753 0 -0.959193
v -0.318325 -1.69198e-17 -0.1728
vt 10.6541 -6.66134e-16
vt 12.7401 -6.66134e-16
f 29/26/11 26/27/12 37/51/12 36/52/11 

vn -0.389923 0 -0.920847
v -0.268438 -1.69198e-17 -0.190649
vt 7.42205 -6.66134e-16
vt 9.50802 -6.66134e-16
f 26/30/12 22/31/13 38/53/13 37/54/12 

vt 6.16628 7.87402
v -0.220903 0.2 -0.214052
vt 4.08031 7.87402
vn -0.492042 0 -0.870572
v -0.220903 -1.69198e-17 -0.214052
vt 4.08031 -6.66134e-16
vt 6.16628 -6.66134e-16
f 22/55/13 39/56/14 40/57/14 38/58/13 

vt -8.69697 8.42725
f 22/35/3 11/13/3 39/59/3

v 3.27138e-16 0.2 -0.275
vt 1.28795e-14 10.8268
f 39/59/3 11/13/3 41/60/3

v -5.09629e-16 -1.03623e-17 -0.275
vt 6.36382 -1.10285e-14
vn 0.587785 -1.21252e-15 0.809017
vt 6.36382 7.87402
vt -6.36382 7.87402
v -0.261541 -1.06844e-17 -0.0849797
vt -6.36382 -1.10412e-14
f 42/61/15 41/62/15 11/63/15 43/64/15 

v 0.261541 -1.69022e-18 -0.0849797
vt 6.36382 2.65326e-14
vn -0.587785 3.03677e-15 0.809017
v 0.261541 0.2 -0.0849797
vt -6.36382 2.61912e-14
f 44/65/16 45/62/16 41/63/16 42/66/16 

v 0.161641 3.34725e-18 0.22248
vt 6.36382 3.30719e-15
vn -0.951057 3.62529e-16 -0.309017
vt -6.36382 3.10886e-15
f 46/67/17 5/62/17 45/63/17 44/68/17 

v -0.161641 -2.21147e-18 0.22248
vt 6.36382 -8.70657e-17
vn 1.39567e-16 0 -1
vt -6.36382 1.31781e-16
f 47/69/18 8/62/18 5/63/18 46/70/18 

vn 0.951057 4.08291e-18 -0.309017
vt -6.36382 -5.13033e-17
vt 6.36382 -3.84884e-16
f 8/63/19 47/71/19 43/72/19 11/62/19 

v -0.250967 0 0.373449
vt 9.88061 -14.7027
vn -1.51317e-17 -1 3.06601e-17
vt 10.2969 3.34566
f 48/73/20 43/74/20 47/5/20

vt 10.3429 -9.81679
f 48/73/20 19/75/20 43/74/20

vt 10.5189 -11.8953
f 48/73/20 18/76/20 19/75/20

vt 10.9298 -13.9404
f 48/73/20 16/77/20 18/76/20

vt 11.5706 -15.9255
f 16/77/20 48/73/20 17/78/20

vt -16.6237 7.87402
vn 0.539149 0 0.84221
vt -18.7097 7.87402
vn 0.586207 0 0.810161
vt -18.7097 0
vt -16.6237 0
f 10/79/21 15/80/22 17/81/22 48/82/21 

vt -13.7347 7.87402
vn 0.439948 0 0.898023
vt -15.8206 7.87402
vt -15.8206 0
v -0.204791 0 0.347469
vt -13.7347 0
f 9/83/23 10/84/21 48/85/21 49/86/23 

vt 8.06262 -13.6799
f 48/73/20 47/5/20 49/87/20

v -0.155961 0 0.326905
vt 6.14018 -12.8703
f 49/87/20 47/5/20 50/88/20

f 50/88/20 47/5/20 46/10/20

v -0.10511 0 0.312023
vt 4.13819 -12.2844
f 50/88/20 46/10/20 51/89/20

vt 2.08259 -11.9297
f 51/89/20 46/10/20 3/90/20

vt -1.77175e-15 -11.811
f 3/90/20 46/10/20 4/91/20

v 0.0528977 0 0.303015
f 4/91/20 46/10/20 52/6/20

v 0.10511 0 0.312023
f 52/6/20 46/10/20 53/8/20

v 0.155961 0 0.326905
f 53/8/20 46/10/20 54/9/20

v 0.204791 0 0.347469
f 54/9/20 46/10/20 55/11/20

f 55/11/20 46/10/20 44/13/20

v 0.250967 0 0.373449
f 55/11/20 44/13/20 56/12/20

v 0.26271 1.12799e-17 0.249346
f 56/12/20 44/13/20 57/14/20

v 0.268438 -1.12799e-17 -0.190649
f 44/13/20 58/35/20 57/14/20

v 0.220903 -1.12799e-17 -0.214052
f 44/13/20 59/59/20 58/35/20

v 0.176336 -1.12799e-17 -0.242705
vt -6.94235 9.55532
f 44/13/20 60/92/20 59/59/20

v 0.135313 -1.12799e-17 -0.276237
vt -5.32728 10.8755
f 44/13/20 61/93/20 60/92/20

v 0.0983664 -1.12799e-17 -0.314214
vt -3.87269 12.3706
f 44/13/20 62/94/20 61/93/20

v 0.0659749 -1.12799e-17 -0.356143
vt -2.59744 14.0214
f 44/13/20 63/95/20 62/94/20

vt 2.00641e-14 10.8268
f 42/96/20 63/95/20 44/13/20

v 0.0385581 -1.12799e-17 -0.401481
vt -1.51803 15.8063
f 42/96/20 64/97/20 63/95/20

v 0.016471 -1.12799e-17 -0.449642
vt -0.648466 17.7024
f 42/96/20 65/98/20 64/97/20

v -5.75684e-18 0 -0.5
vt 2.26647e-16 19.685
f 42/96/20 66/99/20 65/98/20

v -0.016471 -1.69198e-17 -0.449642
vt 0.648466 17.7024
f 42/96/20 67/100/20 66/99/20

v -0.0385581 -1.69198e-17 -0.401481
vt 1.51803 15.8063
f 42/96/20 68/101/20 67/100/20

v -0.0659749 -1.69198e-17 -0.356143
vt 2.59744 14.0214
f 42/96/20 69/102/20 68/101/20

v -0.0983664 -1.69198e-17 -0.314214
vt 3.87269 12.3706
f 42/96/20 70/103/20 69/102/20

v -0.135313 -1.69198e-17 -0.276237
vt 5.32728 10.8755
f 42/96/20 71/104/20 70/103/20

v -0.176336 -1.69198e-17 -0.242705
vt 6.94235 9.55532
f 42/96/20 72/105/20 71/104/20

vt 8.69697 8.42725
f 42/96/20 40/106/20 72/105/20

f 43/74/20 40/106/20 42/96/20

vt 10.5684 7.50588
f 43/74/20 38/107/20 40/106/20

vt 10.4043 -7.73173
f 21/108/20 38/107/20 43/74/20

v -0.271838 3.38396e-17 0.143946
vt 10.7023 -5.66715
f 73/109/20 38/107/20 21/108/20

v -0.285317 3.38396e-17 0.0927051
vt 11.233 -3.64981
f 74/110/20 38/107/20 73/109/20

v -0.304531 3.38396e-17 0.0433282
vt 11.9894 -1.70583
f 75/111/20 38/107/20 74/110/20

vt 12.5325 6.80315
f 75/111/20 37/112/20 38/107/20

v -0.329232 3.38396e-17 -0.00354536
vt 12.9619 0.139581
f 76/113/20 37/112/20 75/111/20

v -0.359099 3.38396e-17 -0.0473083
vt 14.1378 1.86253
f 77/114/20 37/112/20 76/113/20

vt 14.5636 6.32817
f 77/114/20 36/115/20 37/112/20

v -0.393746 3.38396e-17 -0.0873936
vt 15.5018 3.44069
f 78/116/20 36/115/20 77/114/20

vt 16.6356 6.08708
f 78/116/20 34/117/20 36/115/20

v -0.432724 3.38396e-17 -0.123282
vt 17.0364 4.85362
f 79/118/20 34/117/20 78/116/20

vt 18.7216 6.08301
f 34/117/20 79/118/20 35/119/20

vn -0.634384 1.08226e-19 0.773018
vn -0.589361 2.16102e-19 0.80787
vt -18.7097 -1.32244e-18
vt -16.6237 1.33095e-15
f 32/79/24 33/80/25 35/120/25 79/121/24 

vn -0.718119 0 0.69592
vt -15.8206 1.33227e-15
vt -13.7347 1.33227e-15
f 30/83/26 32/84/24 79/122/24 78/123/26 

vt -10.6541 7.87402
vn -0.792551 0 0.609805
vt -12.7401 7.87402
vt -12.7401 1.33227e-15
vt -10.6541 1.33227e-15
f 28/124/27 30/125/26 78/126/26 77/127/27 

vt -7.42205 7.87402
vn -0.856715 0 0.51579
vt -9.50802 7.87402
vt -9.50802 1.33227e-15
vt -7.42205 1.33227e-15
f 27/128/28 28/129/27 77/130/27 76/131/28 

vt -4.08031 7.87402
vn -0.909779 0 0.415093
vt -6.16628 7.87402
vt -6.16628 1.33227e-15
vt -4.08031 1.33227e-15
f 25/132/29 27/133/28 76/134/28 75/135/29 

vn -0.931928 0 0.362643
vt -2.75816 1.33227e-15
vt -0.672187 1.33227e-15
f 24/1/30 25/2/29 75/136/29 74/137/30 

vt 2.75816 7.87402
vn -0.980012 0 0.198938
vt 0.672187 7.87402
vn -0.967102 0 0.25439
vt 0.672187 1.33227e-15
vt 2.75816 1.33227e-15
f 23/138/31 24/139/32 74/140/32 73/141/31 

vt 4.08031 1.33227e-15
vt 6.16628 1.33227e-15
f 20/55/8 23/56/31 73/142/31 21/143/8 

f 21/108/20 43/74/20 19/75/20

v -0.176336 0.2 -0.242705
vn -0.54079 0 -0.841158
vt 0.672187 -6.66134e-16
vt 2.75816 -6.66134e-16
f 39/138/14 80/139/33 72/144/33 40/145/14 

f 39/59/3 41/60/3 80/92/3

v -0.135313 0.2 -0.276237
f 80/92/3 41/60/3 81/93/3

v -0.0983664 0.2 -0.314214
f 81/93/3 41/60/3 82/94/3

v -0.0659749 0.2 -0.356143
f 82/94/3 41/60/3 83/95/3

v -0.0385581 0.2 -0.401481
f 83/95/3 41/60/3 84/97/3

v -0.016471 0.2 -0.449642
f 84/97/3 41/60/3 85/98/3

v -5.75684e-18 0.2 -0.5
vt -2.26647e-16 19.685
f 85/98/3 41/60/3 86/146/3

v 0.016471 0.2 -0.449642
f 86/146/3 41/60/3 87/100/3

v 0.0385581 0.2 -0.401481
f 87/100/3 41/60/3 88/101/3

v 0.0659749 0.2 -0.356143
f 88/101/3 41/60/3 89/102/3

f 89/102/3 41/60/3 45/74/3

v 0.0983664 0.2 -0.314214
f 89/102/3 45/74/3 90/103/3

v 0.135313 0.2 -0.276237
f 90/103/3 45/74/3 91/104/3

v 0.176336 0.2 -0.242705
f 91/104/3 45/74/3 92/105/3

v 0.220903 0.2 -0.214052
f 92/105/3 45/74/3 93/106/3

v 0.268438 0.2 -0.190649
f 93/106/3 45/74/3 94/107/3

v 0.26271 0.2 0.249346
f 94/107/3 45/74/3 95/75/3

v 0.250967 0.2 0.373449
f 45/74/3 96/73/3 95/75/3

v 0.204791 0.2 0.347469
f 45/74/3 97/87/3 96/73/3

f 5/5/3 97/87/3 45/74/3

v 0.155961 0.2 0.326905
f 5/5/3 98/88/3 97/87/3

v 0.10511 0.2 0.312023
f 5/5/3 99/89/3 98/88/3

v 0.0528977 0.2 0.303015
f 5/5/3 100/90/3 99/89/3

f 5/5/3 1/7/3 100/90/3

vn -0.113639 0 0.993522
vn -0.0569119 0 0.998379
vt 0.672187 0
vt 2.75816 0
f 100/138/34 1/139/35 4/147/35 52/148/34 

vn -0.225806 0 0.974172
vt 4.08031 0
vt 6.16628 0
f 99/55/36 100/56/34 52/149/34 53/150/36 

vn -0.335048 0 0.942201
vt 7.42205 0
vt 9.50802 0
f 98/30/37 99/31/36 53/151/36 54/152/37 

vn -0.439948 0 0.898023
vt 10.6541 0
vt 12.7401 0
f 97/26/38 98/27/37 54/153/37 55/154/38 

vn -0.539149 0 0.84221
vt 13.7347 0
vt 15.8206 0
f 96/22/39 97/23/38 55/155/38 56/156/39 

v 0.293893 0.2 0.404508
vn -0.586207 0 0.810161
vt 16.6237 0
v 0.293893 0 0.404508
vt 18.7097 0
f 101/18/40 96/19/39 56/157/39 102/158/40 

v 0.277618 0.2 0.354086
f 103/77/3 96/73/3 101/78/3

v 0.267179 0.2 0.302141
f 104/76/3 96/73/3 103/77/3

f 95/75/3 96/73/3 104/76/3

vn 0.999622 0 -0.0274931
vn 0.990022 0 -0.140911
v 0.267179 1.12799e-17 0.302141
vt -12.7401 4.44089e-16
vt -10.6541 4.44089e-16
f 95/124/41 104/125/42 105/159/42 57/160/41 

vn 0.967596 -5.89572e-19 -0.252504
v 0.277618 1.12799e-17 0.354086
vt -15.8206 4.44089e-16
vt -13.7347 4.44089e-16
f 104/83/42 103/84/43 106/161/43 105/162/42 

vn 0.951657 -1.17723e-18 -0.307162
vt -18.7097 7.20407e-18
vt -16.6237 4.51293e-16
f 103/79/43 101/80/44 102/163/44 106/164/43 

f 56/12/20 106/16/20 102/17/20

f 56/12/20 105/15/20 106/16/20

f 56/12/20 57/14/20 105/15/20

v 0.26427 0.2 0.196386
vn 0.996271 0 0.0862813
vt -9.50802 4.44089e-16
v 0.26427 1.12799e-17 0.196386
vt -7.42205 4.44089e-16
f 107/128/45 95/129/41 57/165/41 108/166/45 

f 94/107/3 95/75/3 107/108/3

v 0.271838 0.2 0.143946
f 94/107/3 107/108/3 109/109/3

vn 0.980012 0 0.198938
vt -6.16628 4.44089e-16
v 0.271838 1.12799e-17 0.143946
vt -4.08031 4.44089e-16
f 109/132/46 107/133/45 108/167/45 110/168/46 

f 108/34/20 58/35/20 110/36/20

f 57/14/20 58/35/20 108/34/20

v 0.318325 -1.12799e-17 -0.1728
f 110/36/20 58/35/20 111/39/20

vn 0.389923 0 -0.920847
v 0.318325 0.2 -0.1728
vn 0.282753 0 -0.959193
vt -9.50802 -4.44089e-16
vt -7.42205 -4.44089e-16
f 94/128/47 112/129/48 111/169/48 58/170/47 

f 94/107/3 109/109/3 112/112/3

v 0.285317 0.2 0.0927051
f 112/112/3 109/109/3 113/110/3

vn 0.967102 0 0.25439
vt -2.75816 4.44089e-16
v 0.285317 1.12799e-17 0.0927051
vt -0.672187 4.44089e-16
f 113/1/49 109/2/46 110/171/46 114/172/49 

f 110/36/20 111/39/20 114/37/20

v 0.304531 1.12799e-17 0.0433282
f 114/37/20 111/39/20 115/38/20

v 0.329232 1.12799e-17 -0.00354536
f 115/38/20 111/39/20 116/40/20

v 0.369916 -1.12799e-17 -0.160735
f 116/40/20 111/39/20 117/42/20

v 0.369916 0.2 -0.160735
vn 0.171919 0 -0.985111
vt -12.7401 -4.44089e-16
vt -10.6541 -4.44089e-16
f 112/124/48 118/125/50 117/173/50 111/174/48 

v 0.329232 0.2 -0.00354536
f 112/112/3 119/113/3 118/115/3

v 0.304531 0.2 0.0433282
f 112/112/3 120/111/3 119/113/3

f 112/112/3 113/110/3 120/111/3

vn 0.909779 0 0.415093
vn 0.931928 0 0.362643
vt 0.672187 4.44089e-16
vt 2.75816 4.44089e-16
f 120/138/51 113/139/52 114/175/52 115/176/51 

vn 0.856715 0 0.51579
vt 4.08031 4.44089e-16
vt 6.16628 4.44089e-16
f 119/55/53 120/56/51 115/177/51 116/178/53 

v 0.359099 0.2 -0.0473083
vn 0.792551 0 0.609805
vt 7.42205 4.44089e-16
v 0.359099 1.12799e-17 -0.0473083
vt 9.50802 4.44089e-16
f 121/30/54 119/31/53 116/179/53 122/180/54 

f 118/115/3 119/113/3 121/114/3

v 0.393746 0.2 -0.0873936
f 118/115/3 121/114/3 123/116/3

vn 0.718119 0 0.69592
vt 10.6541 4.44089e-16
v 0.393746 1.12799e-17 -0.0873936
vt 12.7401 4.44089e-16
f 123/26/55 121/27/54 122/181/54 124/182/55 

f 122/41/20 117/42/20 124/43/20

f 116/40/20 117/42/20 122/41/20

v 0.422545 -1.12799e-17 -0.154612
f 124/43/20 117/42/20 125/44/20

v 0.422545 0.2 -0.154612
vn 0.0588582 2.89797e-18 -0.998266
vt -15.8206 -4.44089e-16
vt -13.7347 -4.44089e-16
f 118/83/50 126/84/56 125/183/56 117/184/50 

f 118/115/3 123/116/3 126/117/3

v 0.432724 0.2 -0.123282
f 126/117/3 123/116/3 127/118/3

vn 0.634384 1.59302e-33 0.773018
vt 13.7347 4.44089e-16
v 0.432724 1.12799e-17 -0.123282
vt 15.8206 4.44089e-16
f 127/22/57 123/23/55 124/185/55 128/186/57 

f 124/43/20 125/44/20 128/45/20

v 0.475528 0 -0.154508
f 128/45/20 125/44/20 129/46/20

v 0.475528 0.2 -0.154508
vn 0.00194958 5.78654e-18 -0.999998
vt -18.7097 -3.54107e-17
vt -16.6237 -4.795e-16
f 126/79/56 130/80/58 129/187/58 125/188/56 

f 126/117/3 127/118/3 130/119/3

vn 0.589361 3.18088e-33 0.80787
vt 16.6237 4.44089e-16
vt 18.7097 -1.94654e-32
f 130/18/59 127/19/57 128/189/57 129/190/59 

vn 0.492042 0 -0.870572
vt -6.16628 -4.44089e-16
vt -4.08031 -4.44089e-16
f 93/132/60 94/133/47 58/191/47 59/192/60 

vn 0.54079 0 -0.841158
vt -2.75816 -4.44089e-16
vt -0.672187 -4.44089e-16
f 92/1/61 93/2/60 59/193/60 60/194/61 

vn 0.675914 0 -0.736981
vn 0.632875 0 -0.774254
vt 0.672187 -4.44089e-16
vt 2.75816 -4.44089e-16
f 91/138/62 92/139/63 60/195/63 61/196/62 

vn 0.755285 0 -0.655396
vt 4.08031 -4.44089e-16
vt 6.16628 -4.44089e-16
f 90/55/64 91/56/62 61/197/62 62/198/64 

vn 0.824871 0 -0.565321
vt 7.42205 -4.44089e-16
vt 9.50802 -4.44089e-16
f 89/30/65 90/31/64 62/199/64 63/200/65 

vn 0.88377 0 -0.467921
vt 10.6541 -4.44089e-16
vt 12.7401 -4.44089e-16
f 88/26/66 89/27/65 63/201/65 64/202/66 

vn 0.93122 -6.05035e-19 -0.364459
vt 13.7347 -4.44089e-16
vt 15.8206 -4.44089e-16
f 87/22/67 88/23/66 64/203/66 65/204/67 

vn 0.950452 -1.20811e-18 -0.310871
vt 16.6237 -4.36696e-16
vt 18.7097 7.39302e-18
f 86/18/68 87/19/67 65/205/67 66/206/68 

vn -0.93122 -8.03363e-19 -0.364459
vn -0.950452 -1.60412e-18 -0.310871
vt -18.7097 9.81642e-18
vt -16.6237 -6.56317e-16
f 85/79/69 86/80/70 66/207/70 67/208/69 

vn -0.88377 0 -0.467921
vt -15.8206 -6.66134e-16
vt -13.7347 -6.66134e-16
f 84/83/71 85/84/69 67/209/69 68/210/71 

vn -0.824871 0 -0.565321
vt -12.7401 -6.66134e-16
vt -10.6541 -6.66134e-16
f 83/124/72 84/125/71 68/211/71 69/212/72 

vn -0.755285 0 -0.655396
vt -9.50802 -6.66134e-16
vt -7.42205 -6.66134e-16
f 82/128/73 83/129/72 69/213/72 70/214/73 

vn -0.675914 0 -0.736981
vt -6.16628 -6.66134e-16
vt -4.08031 -6.66134e-16
f 81/132/74 82/133/73 70/215/73 71/216/74 

vn -0.632875 0 -0.774254
vt -2.75816 -6.66134e-16
vt -0.672187 -6.66134e-16
f 80/1/75 81/2/74 71/217/74 72/218/75 

vn 0.225806 0 0.974172
vt -6.16628 0
vt -4.08031 0
f 2/132/2 6/133/76 51/219/76 3/220/2 

vn 0.335048 0 0.942201
vt -9.50802 0
vt -7.42205 0
f 6/128/76 7/129/77 50/221/77 51/222/76 

vt -12.7401 0
vt -10.6541 0
f 7/124/77 9/125/23 49/223/23 50/224/77 

