# Alias OBJ Model File
# Exported from SketchUp, (c) 2000-2012 Trimble Navigation Limited
# File units = meters

mtllib F_G.mtl

g Mesh1 Difference Model

usemtl Color_L01
v -0.475528 0 -0.154508
vt 18.7216 6.08301
vn 0 -1 -0
v -0.261541 0 -0.0849797
vt 10.2969 3.34566
v -0.310072 0 0.102085
vt 12.2076 -4.0191
f 1/1/1 2/2/1 3/3/1

v -0.191635 0 -0.262427
vt 7.54469 10.3318
f 2/2/1 1/1/1 4/4/1

vt 3.38115 0
vn -0.35533 0 -0.934741
vt 15.3384 0
v -0.475528 0.2 -0.154508
vt 15.3384 7.87402
v -0.191635 0.2 -0.262427
vt 3.38115 7.87402
f 4/5/2 1/6/2 5/7/2 6/8/2 

vt -15.258 0
vn -0.840428 0 0.541923
vt -3.23779 0
v -0.310072 0.2 0.102085
vt -3.23779 7.87402
vt -15.258 7.87402
f 1/9/3 3/10/3 7/11/3 5/12/3 

vt 3.36119 0
vn -0.998572 0 0.0534237
v -0.293893 0 0.404508
vt 15.2846 0
v -0.293893 0.2 0.404508
vt 15.2846 7.87402
vt 3.36119 7.87402
f 3/13/4 8/14/4 9/15/4 7/16/4 

vt 11.5706 -15.9255
f 3/3/1 2/2/1 8/17/1

v -0.161641 0 0.22248
vt 6.36382 -8.75904
f 10/18/1 8/17/1 2/2/1

v -8.4599e-17 0 0.327366
vt 3.33067e-15 -12.8884
f 8/17/1 10/18/1 11/19/1

v 0.161641 0 0.22248
vt -6.36382 -8.75904
f 11/19/1 10/18/1 12/20/1

vt 6.36382 -3.95203e-15
vn -5.58268e-16 -4.51195e-16 -1
v -0.161641 0.2 0.22248
vt 6.36382 7.87402
v 0.161641 0.2 0.22248
vt -6.36382 7.87402
vt -6.36382 -3.95203e-15
f 10/21/5 13/22/5 14/23/5 12/24/5 

vt 6.36382 1.52144e-14
vn 0.951057 1.73699e-15 -0.309017
v -0.261541 0.2 -0.0849797
vt -6.36382 1.52144e-14
f 2/25/6 15/22/6 13/23/6 10/26/6 

v 3.48594e-16 0 -0.275
vt 6.36382 -3.36598e-15
vn 0.587785 -3.84286e-16 0.809017
v 3.48594e-16 0.2 -0.275
vt -6.36382 -3.36598e-15
f 16/27/7 17/22/7 15/23/7 2/28/7 

v 0.261541 0 -0.0849797
vt 6.36382 0
vn -0.587785 0 0.809017
v 0.261541 0.2 -0.0849797
vt -6.36382 0
f 18/29/8 19/22/8 17/23/8 16/30/8 

vt 6.36382 1.24828e-14
vn -0.951057 1.42514e-15 -0.309017
vt -6.36382 1.24828e-14
f 12/31/9 14/22/9 19/23/9 18/32/9 

vn 0 1 -0
v 0.293893 0.2 0.404508
f 14/18/10 20/17/10 19/2/10

v -8.4599e-17 0.2 0.327366
vt -3.33067e-15 -12.8884
f 14/18/10 21/33/10 20/17/10

f 13/20/10 21/33/10 14/18/10

vt -11.5706 -15.9255
f 13/20/10 9/34/10 21/33/10

vt -10.2969 3.34566
f 9/34/10 13/20/10 15/35/10

vt -12.2076 -4.0191
f 15/35/10 7/36/10 9/34/10

vt -18.7216 6.08301
f 15/35/10 5/37/10 7/36/10

vt -7.54469 10.3318
f 5/37/10 15/35/10 6/38/10

vt 1.37242e-14 10.8268
f 6/38/10 15/35/10 17/39/10

v 0 0.2 -0.5
vt 0 19.685
f 6/38/10 17/39/10 22/40/10

v 0.191635 0.2 -0.262427
f 22/40/10 17/39/10 23/4/10

f 23/4/10 17/39/10 19/2/10

v 0.475528 0.2 -0.154508
f 23/4/10 19/2/10 24/1/10

v 0.310072 0.2 0.102085
f 24/1/10 19/2/10 25/3/10

f 25/3/10 19/2/10 20/17/10

v 0.293893 0 0.404508
vt -15.2846 0
vn 0.998572 0 0.0534237
v 0.310072 0 0.102085
vt -3.36119 0
vt -3.36119 7.87402
vt -15.2846 7.87402
f 26/41/11 27/42/11 25/43/11 20/44/11 

f 18/35/1 27/36/1 26/34/1

v 0.475528 0 -0.154508
f 18/35/1 28/37/1 27/36/1

v 0.191635 0 -0.262427
f 18/35/1 29/38/1 28/37/1

vt -1.37242e-14 10.8268
f 16/45/1 29/38/1 18/35/1

v 0 0 -0.5
f 16/45/1 30/40/1 29/38/1

f 16/45/1 4/4/1 30/40/1

f 2/2/1 4/4/1 16/45/1

vt -15.3217 0
vn -0.778343 0 -0.62784
vt -3.30479 0
vt -3.30479 7.87402
vt -15.3217 7.87402
f 30/46/12 4/47/12 6/48/12 22/49/12 

vt 3.30479 0
vn 0.778343 0 -0.62784
vt 15.3217 0
vt 15.3217 7.87402
vt 3.30479 7.87402
f 29/50/13 30/51/13 22/52/13 23/53/13 

vt -15.3384 0
vn 0.35533 0 -0.934741
vt -3.38115 0
vt -3.38115 7.87402
vt -15.3384 7.87402
f 28/54/14 29/55/14 23/56/14 24/57/14 

vt 3.23779 0
vn 0.840428 0 0.541923
vt 15.258 0
vt 15.258 7.87402
vt 3.23779 7.87402
f 27/58/15 28/59/15 24/60/15 25/61/15 

f 26/34/1 12/20/1 18/35/1

f 11/19/1 12/20/1 26/34/1

vt 3.27218 0
vn -0.253885 0 0.967234
vt 15.2347 0
vt 15.2347 7.87402
vt 3.27218 7.87402
f 11/62/16 26/63/16 20/64/16 21/65/16 

vt -15.2347 0
vn 0.253885 0 0.967234
vt -3.27218 0
vt -3.27218 7.87402
vt -15.2347 7.87402
f 8/66/17 11/67/17 21/68/17 9/69/17 

