# Alias OBJ Model File
# Exported from SketchUp, (c) 2000-2012 Trimble Navigation Limited
# File units = meters

mtllib G_G.mtl

g Mesh1 Difference Model

usemtl Color_M02
v -0.475528 0 -0.154508
vt 18.7216 6.08301
vn 0 -1 -0
v -0.261541 0 -0.0849797
vt 10.2969 3.34566
v -0.293893 0 0.404508
vt 11.5706 -15.9255
f 1/1/1 2/2/1 3/3/1

v 1.07159e-16 0 -0.5
vt -4.21885e-15 19.685
f 2/2/1 1/1/1 4/4/1

vt -11.5706 0
vn -0.587785 0 -0.809017
vt 11.5706 0
v -0.475528 0.2 -0.154508
vt 11.5706 7.87402
v 1.07159e-16 0.2 -0.5
vt -11.5706 7.87402
f 4/5/2 1/6/2 5/7/2 6/8/2 

vn -0.951057 0 0.309017
v -0.293893 0.2 0.404508
f 1/5/3 3/6/3 7/7/3 5/8/3 

vn 1.52656e-16 0 1
v 0.293893 0 0.404508
v 0.293893 0.2 0.404508
f 3/5/4 8/6/4 9/7/4 7/8/4 

v -0.161641 0 0.22248
vt 6.36382 -8.75904
vt -11.5706 -15.9255
f 3/3/1 10/9/1 8/10/1

f 10/9/1 3/3/1 2/2/1

v -0.161641 0.2 0.22248
vt -6.36382 7.87402
vn 0.951057 3.85017e-15 -0.309017
vt -6.36382 3.37238e-14
vt 6.36382 3.37238e-14
v -0.261541 0.2 -0.0849797
vt 6.36382 7.87402
f 11/11/5 10/12/5 2/13/5 12/14/5 

v 0.161641 0.2 0.22248
vn 2.0935e-16 -7.89591e-16 -1
v 0.161641 0 0.22248
vt -6.36382 -6.91606e-15
vt 6.36382 -6.91606e-15
f 13/11/6 14/15/6 10/16/6 11/14/6 

v 0.261541 0.2 -0.0849797
vn -0.951057 0 -0.309017
v 0.261541 0 -0.0849797
vt -6.36382 0
vt 6.36382 0
f 15/11/7 16/17/7 14/18/7 13/14/7 

v -5.31085e-16 0.2 -0.275
vn -0.587785 0 0.809017
v -5.31085e-16 0 -0.275
f 17/11/8 18/17/8 16/18/8 15/14/8 

vn 0.587785 -3.50605e-16 0.809017
vt -6.36382 -3.07096e-15
vt 6.36382 -3.07096e-15
f 12/11/9 2/19/9 18/20/9 17/14/9 

vt 2.09089e-14 10.8268
f 2/2/1 4/4/1 18/21/1

vt -10.2969 3.34566
f 18/21/1 4/4/1 16/22/1

v 0.475528 0 -0.154508
vt -18.7216 6.08301
f 16/22/1 4/4/1 19/23/1

vn 0.587785 0 -0.809017
v 0.475528 0.2 -0.154508
f 19/5/10 4/6/10 6/7/10 20/8/10 

vt 4.21885e-15 19.685
vn 0 1 -0
f 6/24/11 15/2/11 20/1/11

vt -2.09089e-14 10.8268
f 6/24/11 17/25/11 15/2/11

f 6/24/11 12/22/11 17/25/11

f 5/23/11 12/22/11 6/24/11

f 12/22/11 5/23/11 7/10/11

vt -6.36382 -8.75904
f 7/10/11 11/26/11 12/22/11

f 11/26/11 7/10/11 9/3/11

f 11/26/11 9/3/11 13/9/11

f 13/9/11 9/3/11 15/2/11

f 20/1/11 15/2/11 9/3/11

vn 0.951057 0 0.309017
f 8/5/12 19/6/12 20/7/12 9/8/12 

f 16/22/1 19/23/1 8/10/1

f 8/10/1 14/26/1 16/22/1

f 8/10/1 10/9/1 14/26/1

