# Alias OBJ Model File
# Exported from SketchUp, (c) 2000-2012 Trimble Navigation Limited
# File units = meters

mtllib C_H.mtl

g Mesh1 Difference Model

usemtl Color_D03
v -6.12323e-17 0 0.5
vt -13.9194 0
vn 0.707107 0 0.707107
v 0.5 0 9.18485e-17
vt 13.9194 0
v 0.5 0.2 9.18485e-17
vt 13.9194 7.87402
v -6.12323e-17 0.2 0.5
vt -13.9194 7.87402
f 1/1/1 2/2/1 3/3/1 4/4/1 

vt 2.41072e-15 -19.685
vn 0 -1 -0
v 0.034375 0 0.265789
vt -1.35335 -10.4641
vt -19.685 -3.61608e-15
f 1/5/2 5/6/2 2/7/2

v 0.0235139 0 0.270854
vt -0.925743 -10.6635
f 1/5/2 6/8/2 5/6/2

v 0.0119383 0 0.273956
vt -0.470012 -10.7857
f 1/5/2 7/9/2 6/8/2

v -6.32476e-17 0 0.275
vt 2.49006e-15 -10.8268
f 1/5/2 8/10/2 7/9/2

v -0.0119383 0 0.273956
vt 0.470012 -10.7857
f 1/5/2 9/11/2 8/10/2

v -0.0235139 0 0.270854
vt 0.925743 -10.6635
f 1/5/2 10/12/2 9/11/2

v -0.034375 0 0.265789
vt 1.35335 -10.4641
f 1/5/2 11/13/2 10/12/2

v -0.0441916 0 0.258916
vt 1.73983 -10.1935
f 1/5/2 12/14/2 11/13/2

v -0.0526656 0 0.250442
vt 2.07345 -9.85991
f 1/5/2 13/15/2 12/14/2

v -0.0595392 0 0.240625
vt 2.34406 -9.47343
f 1/5/2 14/16/2 13/15/2

v -0.0825 0 0.142894
vt 3.24803 -5.62576
f 1/5/2 15/17/2 14/16/2

v -0.178618 0 0.171875
vt 7.03219 -6.76673
f 1/5/2 16/18/2 15/17/2

v -0.190556 0 0.170831
vt 7.50221 -6.72561
f 1/5/2 17/19/2 16/18/2

v -0.202132 0 0.167729
vt 7.95794 -6.6035
f 1/5/2 18/20/2 17/19/2

v -0.212993 0 0.162664
vt 8.38554 -6.4041
f 1/5/2 19/21/2 18/20/2

v -0.222809 0 0.155791
vt 8.77202 -6.13349
f 1/5/2 20/22/2 19/21/2

v -0.231283 0 0.147317
vt 9.10564 -5.79987
f 1/5/2 21/23/2 20/22/2

v -0.238157 0 0.1375
vt 9.37626 -5.41339
f 1/5/2 22/24/2 21/23/2

v -0.5 0 -3.06162e-17
vt 19.685 1.20536e-15
f 23/25/2 22/24/2 1/5/2

v -0.243222 0 0.126639
vt 9.57565 -4.98578
f 22/24/2 23/25/2 24/26/2

v -0.246323 0 0.115063
vt 9.69777 -4.53005
f 24/26/2 23/25/2 25/27/2

v -0.247368 0 0.103125
vt 9.73889 -4.06004
f 25/27/2 23/25/2 26/28/2

v -0.247368 0 -0.103125
vt 9.73889 4.06004
f 26/28/2 23/25/2 27/29/2

v -0.246323 0 -0.115063
vt 9.69777 4.53005
f 23/25/2 28/30/2 27/29/2

v -0.243222 0 -0.126639
vt 9.57565 4.98578
f 28/30/2 23/25/2 29/31/2

v -0.238157 0 -0.1375
vt 9.37626 5.41339
f 29/31/2 23/25/2 30/32/2

v 0 0 -0.5
vt 0 19.685
f 30/32/2 23/25/2 31/33/2

vn -0.707107 0 -0.707107
v -0.5 0.2 -3.06162e-17
v 0 0.2 -0.5
f 31/1/3 23/2/3 32/3/3 33/4/3 

vn -0.707107 0 0.707107
f 23/1/4 1/2/4 4/3/4 32/4/4 

v -0.238157 0.2 0.1375
vt -9.37626 -5.41339
vn 0 1 -0
vt -19.685 1.20536e-15
vt -2.41072e-15 -19.685
f 34/34/5 32/35/5 4/36/5

v -0.243222 0.2 0.126639
vt -9.57565 -4.98578
f 35/37/5 32/35/5 34/34/5

v -0.246323 0.2 0.115063
vt -9.69777 -4.53005
f 36/38/5 32/35/5 35/37/5

v -0.247368 0.2 0.103125
vt -9.73889 -4.06004
f 32/35/5 36/38/5 37/39/5

vt -3.6676 7.87402
vn 0.984808 1.12813e-16 -0.173648
vt -3.6676 2.26019e-15
vt -3.19579 2.26019e-15
vn 1 2.25626e-16 -3.91455e-15
vt -3.19579 7.87402
f 36/40/6 25/41/6 26/42/7 37/43/7 

vt -2.33753 7.87402
vn 0.939693 0 -0.34202
vt -2.33753 0
vt -1.86573 0
vt -1.86573 7.87402
f 35/44/8 24/45/8 25/46/6 36/47/6 

vt -0.943615 7.87402
vn 0.866025 0 -0.5
vt -0.943615 0
vt -0.471808 0
vt -0.471808 7.87402
f 34/48/9 22/49/9 24/50/8 35/51/8 

v -0.231283 0.2 0.147317
vt 0.471808 7.87402
vn 0.766044 -1.00412e-16 -0.642788
vt 0.471808 0
vt 0.943615 0
vt 0.943615 7.87402
f 38/52/10 21/53/10 22/54/9 34/55/9 

v -0.222809 0.2 0.155791
vt 1.86573 7.87402
vn 0.642788 -1.56448e-16 -0.766044
vt 1.86573 -2.10859e-15
vt 2.33753 -2.10859e-15
vt 2.33753 7.87402
f 39/56/11 20/57/11 21/58/10 38/59/10 

v -0.212993 0.2 0.162664
vt 3.19579 7.87402
vn 0.5 -6.81906e-17 -0.866025
vt 3.19579 -1.12267e-15
vt 3.6676 -1.12267e-15
vt 3.6676 7.87402
f 40/60/12 19/61/12 20/62/11 39/63/11 

vt 4.89339 -2.26378e-16
vt 4.89339 7.87402
v -0.202132 0.2 0.167729
vt 4.42158 7.87402
vn 0.34202 -3.42532e-17 -0.939693
vt 4.42158 -2.26378e-16
f 19/64/12 40/65/12 41/66/13 18/67/13 

vt -8.38554 -6.4041
vt -7.95794 -6.6035
f 40/68/5 4/36/5 41/69/5

vt -8.77202 -6.13349
f 39/70/5 4/36/5 40/68/5

vt -9.10564 -5.79987
f 38/71/5 4/36/5 39/70/5

f 34/34/5 4/36/5 38/71/5

v -0.190556 0.2 0.170831
vt -7.50221 -6.72561
f 41/69/5 4/36/5 42/72/5

v -0.178618 0.2 0.171875
vt -7.03219 -6.76673
f 42/72/5 4/36/5 43/73/5

v -0.0825 0.2 0.142894
vt -3.24803 -5.62576
f 43/73/5 4/36/5 44/74/5

v -0.0595392 0.2 0.240625
vt -2.34406 -9.47343
f 44/74/5 4/36/5 45/75/5

v -0.0526656 0.2 0.250442
vt -2.07345 -9.85991
f 45/75/5 4/36/5 46/76/5

v -0.0441916 0.2 0.258916
vt -1.73983 -10.1935
f 46/76/5 4/36/5 47/77/5

v -0.034375 0.2 0.265789
f 47/77/5 4/36/5 48/6/5

v -0.0235139 0.2 0.270854
f 48/6/5 4/36/5 49/8/5

v -0.0119383 0.2 0.273956
f 49/8/5 4/36/5 50/9/5

v -6.32476e-17 0.2 0.275
vt -2.49006e-15 -10.8268
f 50/9/5 4/36/5 51/78/5

v 0.0119383 0.2 0.273956
f 51/78/5 4/36/5 52/11/5

v 0.0235139 0.2 0.270854
f 52/11/5 4/36/5 53/12/5

v 0.034375 0.2 0.265789
f 53/12/5 4/36/5 54/13/5

vt 19.685 -3.61608e-15
f 54/13/5 4/36/5 3/79/5

v 0.0441916 0.2 0.258916
f 54/13/5 3/79/5 55/14/5

v 0.212993 0.2 0.162664
f 55/14/5 3/79/5 56/21/5

v 0.222809 0.2 0.155791
f 56/21/5 3/79/5 57/22/5

v 0.231283 0.2 0.147317
f 57/22/5 3/79/5 58/23/5

v 0.238157 0.2 0.1375
f 58/23/5 3/79/5 59/24/5

v 0.243222 0.2 0.126639
f 59/24/5 3/79/5 60/26/5

v 0.246323 0.2 0.115063
f 60/26/5 3/79/5 61/27/5

v 0.247368 0.2 0.103125
f 61/27/5 3/79/5 62/28/5

v 0.247368 0.2 -0.103125
f 62/28/5 3/79/5 63/29/5

v 0.246323 0.2 -0.115063
f 3/79/5 64/30/5 63/29/5

v 0.243222 0.2 -0.126639
f 3/79/5 65/31/5 64/30/5

v 0.238157 0.2 -0.1375
f 3/79/5 66/32/5 65/31/5

v 0.231283 0.2 -0.147317
vt 9.10564 5.79987
f 3/79/5 67/80/5 66/32/5

v 0.222809 0.2 -0.155791
vt 8.77202 6.13349
f 3/79/5 68/81/5 67/80/5

v 0.212993 0.2 -0.162664
vt 8.38554 6.4041
f 3/79/5 69/82/5 68/81/5

v 0.0441916 0.2 -0.258916
vt 1.73983 10.1935
f 3/79/5 70/83/5 69/82/5

v 0.034375 0.2 -0.265789
vt 1.35335 10.4641
f 3/79/5 71/84/5 70/83/5

f 33/33/5 71/84/5 3/79/5

v 0.0235139 0.2 -0.270854
vt 0.925743 10.6635
f 33/33/5 72/85/5 71/84/5

v 0.0119383 0.2 -0.273956
vt 0.470012 10.7857
f 33/33/5 73/86/5 72/85/5

v -4.47767e-17 0.2 -0.275
vt -1.76286e-15 10.8268
f 33/33/5 74/87/5 73/86/5

v -0.0119383 0.2 -0.273956
vt -0.470012 10.7857
f 33/33/5 75/88/5 74/87/5

v -0.0235139 0.2 -0.270854
vt -0.925743 10.6635
f 33/33/5 76/89/5 75/88/5

v -0.034375 0.2 -0.265789
vt -1.35335 10.4641
f 33/33/5 77/90/5 76/89/5

v -0.0441916 0.2 -0.258916
vt -1.73983 10.1935
f 33/33/5 78/91/5 77/90/5

v -0.0526656 0.2 -0.250442
vt -2.07345 9.85991
f 33/33/5 79/92/5 78/91/5

v -0.0595392 0.2 -0.240625
vt -2.34406 9.47343
f 33/33/5 80/93/5 79/92/5

v -0.0825 0.2 -0.142894
vt -3.24803 5.62576
f 33/33/5 81/94/5 80/93/5

v -0.178618 0.2 -0.171875
vt -7.03219 6.76673
f 33/33/5 82/95/5 81/94/5

v -0.190556 0.2 -0.170831
vt -7.50221 6.72561
f 33/33/5 83/96/5 82/95/5

v -0.202132 0.2 -0.167729
vt -7.95794 6.6035
f 33/33/5 84/97/5 83/96/5

v -0.212993 0.2 -0.162664
vt -8.38554 6.4041
f 33/33/5 85/98/5 84/97/5

v -0.222809 0.2 -0.155791
vt -8.77202 6.13349
f 33/33/5 86/99/5 85/98/5

v -0.231283 0.2 -0.147317
vt -9.10564 5.79987
f 33/33/5 87/100/5 86/99/5

v -0.238157 0.2 -0.1375
vt -9.37626 5.41339
f 33/33/5 88/101/5 87/100/5

f 32/35/5 88/101/5 33/33/5

v -0.243222 0.2 -0.126639
vt -9.57565 4.98578
f 88/101/5 32/35/5 89/102/5

v -0.246323 0.2 -0.115063
vt -9.69777 4.53005
f 89/102/5 32/35/5 90/103/5

v -0.247368 0.2 -0.103125
vt -9.73889 4.06004
f 90/103/5 32/35/5 91/104/5

f 91/104/5 32/35/5 37/39/5

v -0.246323 0.2 0.0911867
vt -9.69777 -3.59003
f 92/105/5 91/104/5 37/39/5

v -0.246323 0.2 -0.0911867
vt -9.69777 3.59003
f 91/104/5 92/105/5 93/106/5

v -0.243222 0.2 0.0796111
vt -9.57565 -3.1343
f 93/106/5 92/105/5 94/107/5

vt -5.97767 7.87402
vn 0.984808 1.0188e-16 0.173648
v -0.246323 0 0.0911867
vt -5.97767 -1.83806e-16
v -0.243222 0 0.0796111
vt -5.50586 -1.83806e-16
vn 0.939693 -2.87851e-17 0.34202
vt -5.50586 7.87402
f 92/108/14 95/109/14 96/110/15 94/111/15 

vt -4.89339 7.87402
vt -4.89339 2.10112e-15
vt -4.42158 2.10112e-15
vt -4.42158 7.87402
f 37/112/7 26/113/7 95/114/14 92/115/14 

v -0.246323 0 -0.0911867
vt 9.69777 3.59003
vt 9.69777 -3.59003
f 26/28/2 97/116/2 95/117/2

f 97/116/2 26/28/2 27/29/2

vn 0.984808 1.19718e-16 -0.173648
vt 4.42158 1.07244e-15
vt 4.89339 1.07244e-15
vn 1 5.75814e-17 9.19433e-16
f 93/66/16 97/118/16 27/119/17 91/65/17 

v -0.243222 0.2 -0.0796111
vt 5.50586 7.87402
vn 0.939693 6.78611e-17 -0.34202
v -0.243222 0 -0.0796111
vt 5.50586 1.04464e-15
vt 5.97767 1.04464e-15
vt 5.97767 7.87402
f 98/120/18 99/121/18 97/122/16 93/123/16 

v -0.238157 0.2 -0.06875
vt 6.41568 7.87402
vn 0.906308 1.14063e-17 -0.422618
v -0.238157 0 -0.06875
vt 6.41568 8.38804e-17
vt 6.88748 8.38804e-17
vt 6.88748 7.87402
f 100/124/19 101/125/19 99/126/18 98/127/18 

v -0.165 0.2 -0
vt 4.73378 7.87402
vn 0.684817 0 -0.728715
v -0.165 0 -0
vt 4.73378 0
vt 8.68621 0
vt 8.68621 7.87402
f 102/128/20 103/129/20 101/130/20 100/131/20 

v -0.238157 0.2 0.06875
vt -8.68621 7.87402
vn 0.684817 9.18144e-18 0.728715
v -0.238157 0 0.06875
vt -8.68621 4.08447e-17
vt -4.73378 4.08447e-17
vt -4.73378 7.87402
f 104/132/21 105/133/21 103/134/21 102/135/21 

vt -6.88748 7.87402
vt -6.88748 -2.61565e-16
vt -6.41568 -2.61565e-16
vn 0.906308 -3.55684e-17 0.422618
vt -6.41568 7.87402
f 94/136/15 96/137/15 105/138/22 104/139/22 

vt 9.57565 -3.1343
vt 9.57565 3.1343
vt 9.37626 -2.70669
f 96/140/2 99/141/2 105/142/2

f 96/140/2 97/116/2 99/141/2

f 95/117/2 97/116/2 96/140/2

vt 9.37626 2.70669
f 105/142/2 99/141/2 101/143/2

vt 6.49606 0
f 105/142/2 101/143/2 103/144/2

vt -9.57565 3.1343
vt -9.37626 -2.70669
f 98/145/5 94/107/5 104/146/5

f 93/106/5 94/107/5 98/145/5

vt -9.37626 2.70669
f 98/145/5 104/146/5 100/147/5

vt -6.49606 0
f 100/147/5 104/146/5 102/148/5

vt 3.19579 0
vt 3.6676 0
vn 0.984808 0 0.173648
f 91/60/17 27/149/17 28/150/23 90/63/23 

vt 1.86573 0
vt 2.33753 0
vn 0.939693 0 0.34202
f 90/56/23 28/151/23 29/152/24 89/59/24 

vn 0.866025 1.8572e-17 0.5
f 89/52/24 29/53/24 30/54/25 88/55/25 

vt -0.943615 3.99095e-16
v -0.231283 0 -0.147317
vt -0.471808 3.99095e-16
vn 0.766044 5.86097e-17 0.642788
f 88/48/25 30/153/25 106/154/26 87/51/26 

f 30/32/2 31/33/2 106/80/2

v -0.222809 0 -0.155791
f 106/80/2 31/33/2 107/81/2

v -0.212993 0 -0.162664
f 107/81/2 31/33/2 108/82/2

v -0.202132 0 -0.167729
vt 7.95794 6.6035
f 108/82/2 31/33/2 109/155/2

v -0.190556 0 -0.170831
vt 7.50221 6.72561
f 109/155/2 31/33/2 110/156/2

v -0.178618 0 -0.171875
vt 7.03219 6.76673
f 110/156/2 31/33/2 111/157/2

v -0.0825 0 -0.142894
vt 3.24803 5.62576
f 111/157/2 31/33/2 112/158/2

v -0.0595392 0 -0.240625
vt 2.34406 9.47343
f 112/158/2 31/33/2 113/159/2

v -0.0526656 0 -0.250442
vt 2.07345 9.85991
f 113/159/2 31/33/2 114/160/2

v -0.0441916 0 -0.258916
f 114/160/2 31/33/2 115/83/2

v -0.034375 0 -0.265789
f 115/83/2 31/33/2 116/84/2

v -0.0235139 0 -0.270854
f 116/84/2 31/33/2 117/85/2

v -0.0119383 0 -0.273956
f 117/85/2 31/33/2 118/86/2

v -4.47767e-17 0 -0.275
vt 1.76286e-15 10.8268
f 118/86/2 31/33/2 119/161/2

v 0.0119383 0 -0.273956
f 119/161/2 31/33/2 120/88/2

v 0.0235139 0 -0.270854
f 120/88/2 31/33/2 121/89/2

v 0.034375 0 -0.265789
f 121/89/2 31/33/2 122/90/2

f 122/90/2 31/33/2 2/7/2

vn 0.707107 0 -0.707107
f 2/1/27 31/2/27 33/3/27 3/4/27 

v 0.0441916 0 -0.258916
f 122/90/2 2/7/2 123/91/2

v 0.212993 0 -0.162664
f 123/91/2 2/7/2 124/98/2

v 0.222809 0 -0.155791
f 124/98/2 2/7/2 125/99/2

v 0.231283 0 -0.147317
f 125/99/2 2/7/2 126/100/2

v 0.238157 0 -0.1375
f 126/100/2 2/7/2 127/101/2

v 0.243222 0 -0.126639
f 127/101/2 2/7/2 128/102/2

v 0.246323 0 -0.115063
f 128/102/2 2/7/2 129/103/2

v 0.247368 0 -0.103125
f 129/103/2 2/7/2 130/104/2

v 0.247368 0 0.103125
f 2/7/2 131/39/2 130/104/2

v 0.246323 0 0.115063
f 2/7/2 132/38/2 131/39/2

v 0.243222 0 0.126639
f 2/7/2 133/37/2 132/38/2

v 0.238157 0 0.1375
f 2/7/2 134/34/2 133/37/2

v 0.231283 0 0.147317
f 2/7/2 135/71/2 134/34/2

v 0.222809 0 0.155791
f 2/7/2 136/70/2 135/71/2

v 0.212993 0 0.162664
f 2/7/2 137/68/2 136/70/2

v 0.0441916 0 0.258916
f 2/7/2 138/77/2 137/68/2

f 2/7/2 5/6/2 138/77/2

vt 4.89339 -3.35787e-16
vn -0.5 -7.23845e-17 -0.866025
vn -0.642788 5.25136e-17 -0.766044
vt 4.42158 -3.35787e-16
f 5/162/28 54/65/28 55/66/29 138/163/29 

vt 3.6676 -1.089e-15
vn -0.34202 -5.43555e-17 -0.939693
vt 3.19579 -1.089e-15
f 6/164/30 53/63/30 54/60/28 5/165/28 

vn -0.173648 0 -0.984808
f 7/152/31 52/59/31 53/56/30 6/151/30 

vn 2.72347e-15 -5.71897e-17 -1
f 8/54/32 51/55/32 52/52/31 7/53/31 

vt -0.471808 -1.22895e-15
vn 0.173648 -2.28246e-16 -0.984808
vt -0.943615 -1.22895e-15
f 9/166/33 50/51/33 51/48/32 8/167/32 

vt -1.86573 -3.59207e-15
vn 0.34202 -2.81286e-16 -0.939693
vt -2.33753 -3.59207e-15
f 10/168/34 49/47/34 50/44/33 9/169/33 

vt -3.19579 -2.20845e-15
vn 0.5 -1.1023e-16 -0.866025
vt -3.6676 -2.20845e-15
f 11/170/35 48/43/35 49/40/34 10/171/34 

vt -4.42158 0
vn 0.642788 -1.39814e-16 -0.766044
vt -4.89339 0
f 12/172/36 47/115/36 48/112/35 11/173/35 

vt -5.50586 -2.35057e-15
vn 0.766044 -3.02519e-16 -0.642788
vt -5.97767 -2.35057e-15
f 13/174/37 46/111/37 47/108/36 12/175/36 

vt -6.41568 -2.38392e-15
vn 0.819152 -3.24171e-16 -0.573576
vt -6.88748 -2.38392e-15
f 14/176/38 45/139/38 46/136/37 13/177/37 

vt -4.73378 0
vn 0.973494 0 -0.228712
vt -8.68621 0
f 15/178/39 44/135/39 45/132/39 14/179/39 

vn -0.288677 0 -0.957427
f 16/130/40 43/131/40 44/128/40 15/129/40 

vt 6.88748 0
vn 0.173648 -2.20985e-17 -0.984808
vn 0.0871557 0 -0.996195
vt 6.41568 0
f 17/180/41 42/127/41 43/124/42 16/181/42 

vt 5.97767 -3.71522e-16
vt 5.50586 -3.71522e-16
f 18/182/13 41/123/13 42/120/41 17/183/41 

vt 5.97767 1.18597e-15
v 0.0526656 0.2 0.250442
vn -0.766044 1.1905e-16 -0.642788
v 0.0526656 0 0.250442
vt 5.50586 1.18597e-15
f 138/184/29 55/123/29 139/120/43 140/185/43 

f 55/14/5 56/21/5 139/15/5

v 0.0595392 0.2 0.240625
f 139/15/5 56/21/5 141/16/5

v 0.202132 0.2 0.167729
f 141/16/5 56/21/5 142/20/5

v 0.202132 0 0.167729
vt -4.42158 -1.84713e-15
vn -0.34202 -1.83178e-16 -0.939693
vn -0.5 -9.91757e-17 -0.866025
vt -4.89339 -1.84713e-15
f 143/186/44 142/115/44 56/112/45 137/187/45 

v 0.190556 0 0.170831
vt -5.50586 -1.41225e-15
vn -0.173648 -6.07339e-17 -0.984808
v 0.190556 0.2 0.170831
vt -5.97767 -1.41225e-15
f 144/188/46 145/111/46 142/108/44 143/189/44 

v 0.178618 0 0.171875
vt -6.41568 3.40922e-16
vn -0.0871557 4.63595e-17 -0.996195
v 0.178618 0.2 0.171875
vt -6.88748 3.40922e-16
f 146/190/47 147/139/47 145/136/46 144/191/46 

v 0.0825 0 0.142894
vt -4.73378 3.91236e-16
vn 0.288677 8.79456e-17 -0.957427
v 0.0825 0.2 0.142894
vt -8.68621 3.91236e-16
f 148/192/48 149/135/48 147/132/48 146/193/48 

v 0.0595392 0 0.240625
vn -0.973494 0 -0.228712
f 150/130/49 141/131/49 149/128/49 148/129/49 

vt 6.88748 7.10719e-16
vn -0.819152 9.66455e-17 -0.573576
vt 6.41568 7.10719e-16
f 140/194/43 139/127/43 141/124/50 150/195/50 

f 137/68/2 140/76/2 150/75/2

f 137/68/2 138/77/2 140/76/2

f 137/68/2 150/75/2 143/69/2

f 143/69/2 150/75/2 144/72/2

f 144/72/2 150/75/2 146/73/2

f 146/73/2 150/75/2 148/74/2

f 141/16/5 147/18/5 149/17/5

f 141/16/5 145/19/5 147/18/5

f 141/16/5 142/20/5 145/19/5

vt -3.19579 0
vn -0.642788 -8.00754e-17 -0.766044
vt -3.6676 0
f 137/196/45 56/43/45 57/40/51 136/197/51 

vt -1.86573 -1.68153e-15
vn -0.766044 -2.7027e-16 -0.642788
vt -2.33753 -1.68153e-15
f 136/198/51 57/47/51 58/44/52 135/199/52 

vt -0.471808 -4.0871e-15
vn -0.866025 -3.16758e-16 -0.5
vt -0.943615 -4.0871e-15
f 135/200/52 58/51/52 59/48/53 134/201/53 

vt 0.943615 -2.71972e-15
vn -0.939693 -7.18706e-17 -0.34202
vt 0.471808 -2.71972e-15
f 134/202/53 59/55/53 60/52/54 133/203/54 

vt 2.33753 1.14851e-15
vn -0.984808 1.11099e-16 -0.173648
vt 1.86573 1.14851e-15
f 133/204/54 60/59/54 61/56/55 132/205/55 

vt 3.6676 1.13009e-15
vn -1 5.64064e-17 -4.32551e-15
vt 3.19579 1.13009e-15
f 132/206/55 61/63/55 62/60/56 131/207/56 

vt 4.89339 0
v 0.246323 0.2 0.0911867
vn -0.984808 3.72186e-18 0.173648
v 0.246323 0 0.0911867
vt 4.42158 0
f 131/208/56 62/65/56 151/66/57 152/209/57 

f 63/29/5 151/117/5 62/28/5

v 0.246323 0.2 -0.0911867
f 153/116/5 151/117/5 63/29/5

v 0.243222 0.2 -0.0796111
f 154/141/5 151/117/5 153/116/5

v 0.243222 0.2 0.0796111
f 154/141/5 155/140/5 151/117/5

v 0.238157 0.2 0.06875
f 154/141/5 156/142/5 155/140/5

v 0.238157 0.2 -0.06875
f 157/143/5 156/142/5 154/141/5

v 0.165 0.2 -9.02389e-17
vt 6.49606 3.55271e-15
f 156/142/5 157/143/5 158/210/5

v 0.165 0 -9.02389e-17
vt -4.73378 1.85759e-16
vn -0.684817 4.17566e-17 -0.728715
v 0.238157 0 -0.06875
vt -8.68621 1.85759e-16
f 159/211/58 158/135/58 157/132/58 160/212/58 

vn -0.684817 2.2136e-17 0.728715
vt 4.73378 9.84746e-17
v 0.238157 0 0.06875
vt 8.68621 9.84746e-17
f 158/128/59 159/213/59 161/214/59 156/131/59 

vt -6.49606 3.55271e-15
f 160/147/2 161/146/2 159/215/2

v 0.243222 0 -0.0796111
f 161/146/2 160/147/2 162/145/2

vt -6.41568 1.78087e-16
vn -0.906308 2.42168e-17 -0.422618
vn -0.939693 -2.50018e-18 -0.34202
vt -6.88748 1.78087e-16
f 160/216/60 157/139/60 154/136/61 162/217/61 

vt -5.50586 -2.46378e-16
vn -0.984808 -1.95897e-17 -0.173648
v 0.246323 0 -0.0911867
vt -5.97767 -2.46378e-16
f 162/218/61 154/111/61 153/108/62 163/219/62 

vt -4.42158 -9.19119e-17
vn -1 -4.93492e-18 -3.4827e-17
vt -4.89339 -9.19119e-17
f 163/220/62 153/115/62 63/112/63 130/221/63 

vn -0.984808 -1.71304e-16 0.173648
f 130/196/63 63/43/63 64/40/64 129/197/64 

vt -1.86573 -3.59728e-15
vn -0.939693 -1.74762e-16 0.34202
vt -2.33753 -3.59728e-15
f 129/222/64 64/47/64 65/44/65 128/223/65 

vt -0.471808 -7.43085e-17
vn -0.866025 1.7024e-16 0.5
vt -0.943615 -7.43085e-17
f 128/224/65 65/51/65 66/48/66 127/225/66 

vt 0.943615 3.73262e-15
vn -0.766044 1.73698e-16 0.642788
vt 0.471808 3.73262e-15
f 127/226/66 66/55/66 67/52/67 126/227/67 

vn -0.642788 0 0.766044
f 126/152/67 67/59/67 68/56/68 125/151/68 

vn -0.5 -1.02634e-16 0.866025
f 125/150/68 68/63/68 69/60/69 124/149/69 

vt 4.89339 -1.91153e-15
v 0.202132 0.2 -0.167729
vn -0.34202 -1.49882e-16 0.939693
v 0.202132 0 -0.167729
vt 4.42158 -1.91153e-15
f 124/228/69 69/65/69 164/66/70 165/229/70 

v 0.0595392 0.2 -0.240625
f 69/82/5 166/159/5 164/155/5

v 0.0526656 0.2 -0.250442
f 69/82/5 167/160/5 166/159/5

f 69/82/5 70/83/5 167/160/5

v 0.0526656 0 -0.250442
vt -5.50586 3.31216e-16
vn -0.766044 9.71707e-17 0.642788
vn -0.642788 -1.13788e-16 0.766044
vt -5.97767 3.31216e-16
f 168/230/71 167/111/71 70/108/72 123/231/72 

v 0.0595392 0 -0.240625
vt -6.41568 1.13507e-15
vn -0.819152 1.5435e-16 0.573576
vt -6.88748 1.13507e-15
f 169/232/73 166/139/73 167/136/71 168/233/71 

v 0.0825 0 -0.142894
vt -4.73378 5.08265e-17
vn -0.973494 1.14252e-17 0.228712
v 0.0825 0.2 -0.142894
vt -8.68621 5.08265e-17
f 170/234/74 171/135/74 166/132/74 169/235/74 

v 0.178618 0 -0.171875
vt 8.68621 4.34316e-16
vn 0.288677 9.76295e-17 0.957427
v 0.178618 0.2 -0.171875
vt 4.73378 4.34316e-16
f 172/236/75 173/131/75 171/128/75 170/237/75 

v 0.190556 0 -0.170831
vt 6.88748 8.25307e-16
vn -0.173648 9.07926e-18 0.984808
v 0.190556 0.2 -0.170831
vn -0.0871557 1.12227e-16 0.996195
vt 6.41568 8.25307e-16
f 174/238/76 175/127/76 173/124/77 172/239/77 

vt 5.97767 -7.94351e-16
vt 5.50586 -7.94351e-16
f 165/240/70 164/123/70 175/120/76 174/241/76 

f 164/155/5 166/159/5 175/156/5

f 175/156/5 166/159/5 173/157/5

f 173/157/5 166/159/5 171/158/5

f 169/93/2 165/97/2 174/96/2

f 169/93/2 124/98/2 165/97/2

f 168/92/2 124/98/2 169/93/2

f 123/91/2 124/98/2 168/92/2

f 169/93/2 174/96/2 172/95/2

f 169/93/2 172/95/2 170/94/2

vt -4.42158 -2.4862e-15
vn -0.5 -2.65749e-16 0.866025
vt -4.89339 -2.4862e-15
f 123/242/72 70/115/72 71/112/78 122/243/78 

vt -3.19579 -2.64982e-15
vn -0.34202 -2.46298e-16 0.939693
vt -3.6676 -2.64982e-15
f 122/244/78 71/43/78 72/40/79 121/245/79 

vt -1.86573 -2.39471e-15
vn -0.173648 -2.28338e-16 0.984808
vt -2.33753 -2.39471e-15
f 121/246/79 72/47/79 73/44/80 120/247/80 

vt -0.471808 -2.45622e-15
vn 1.39308e-17 -1.14301e-16 1
vt -0.943615 -2.45622e-15
f 120/248/80 73/51/80 74/48/81 119/249/81 

vn 0.173648 -2.79139e-18 0.984808
f 119/54/81 74/55/81 75/52/82 118/53/82 

vn 0.34202 5.27036e-17 0.939693
vt 1.86573 -5.86175e-17
vt 2.33753 -5.86175e-17
f 76/56/83 117/250/83 118/251/82 75/59/82 

vt 3.6676 1.11183e-15
vn 0.5 1.81251e-16 0.866025
vt 3.19579 1.11183e-15
f 117/252/83 76/63/83 77/60/84 116/253/84 

vt 4.89339 2.34219e-15
vn 0.642788 5.0765e-17 0.766044
vt 4.42158 2.34219e-15
f 116/254/84 77/65/84 78/66/85 115/255/85 

vt 5.97767 -1.26076e-15
vn 0.766044 -3.71118e-16 0.642788
vt 5.50586 -1.26076e-15
f 115/256/85 78/123/85 79/120/86 114/257/86 

vt 6.88748 -4.33879e-15
vn 0.819152 -5.90001e-16 0.573576
vt 6.41568 -4.33879e-15
f 114/258/86 79/127/86 80/124/87 113/259/87 

vt 8.68621 -1.59003e-15
vn 0.973494 -3.57422e-16 0.228712
vt 4.73378 -1.59003e-15
f 113/260/88 80/131/88 81/128/88 112/261/88 

vt -4.73378 -9.68855e-17
vn -0.288677 -2.17788e-17 0.957427
vt -8.68621 -9.68855e-17
f 112/262/89 81/135/89 82/132/89 111/263/89 

vt -6.41568 -4.48806e-16
vn 0.0871557 -6.10298e-17 0.996195
vn 0.173648 -5.07666e-17 0.984808
vt -6.88748 -4.48806e-16
f 111/264/90 82/139/90 83/136/91 110/265/91 

vt -5.50586 -3.38514e-16
vn 0.34202 1.42199e-17 0.939693
vt -5.97767 -3.38514e-16
f 110/266/91 83/111/91 84/108/92 109/267/92 

vn 0.5 9.9309e-17 0.866025
vt -4.89339 6.39856e-16
vt -4.42158 6.39856e-16
f 85/112/93 108/268/93 109/269/92 84/115/92 

vn 0.642788 1.04992e-16 0.766044
vt -3.6676 1.30134e-15
vt -3.19579 1.30134e-15
f 86/40/94 107/270/94 108/271/93 85/43/93 

vt -2.33753 8.40766e-16
vt -1.86573 8.40766e-16
f 87/44/26 106/272/26 107/273/94 86/47/94 

f 152/105/2 163/106/2 130/104/2

v 0.243222 0 0.0796111
f 176/107/2 163/106/2 152/105/2

f 176/107/2 162/145/2 163/106/2

f 161/146/2 162/145/2 176/107/2

vt 6.88748 1.72924e-16
vn -0.939693 1.55241e-17 0.34202
vn -0.906308 2.35147e-17 0.422618
vt 6.41568 1.72924e-16
f 176/274/95 155/127/95 156/124/96 161/275/96 

vt 5.97767 6.25722e-17
vt 5.50586 6.25722e-17
f 152/276/57 151/123/57 155/120/95 176/277/95 

f 152/105/2 130/104/2 131/39/2

