# Alias OBJ Model File
# Exported from SketchUp, (c) 2000-2012 Trimble Navigation Limited
# File units = meters

mtllib D_H.mtl

g Mesh1 Difference Model

usemtl Color_G01
v -0.124264 0 0.3
vt 11.811 0
vn -1 0 -2.97874e-16
v -0.124264 0 0.375736
vt 14.7928 0
v -0.124264 0.2 0.375736
vt 14.7928 7.87402
v -0.124264 0.2 0.3
vt 11.811 7.87402
f 1/1/1 2/2/1 3/3/1 4/4/1 

vt 4.89229 -11.811
vn 0 -1 -0
v -6.12323e-17 0 0.5
vt 2.41072e-15 -19.685
vt 4.89229 -14.7928
f 1/5/2 5/6/2 2/7/2

v -0.0825 0 0.142894
vt 3.24803 -5.62576
f 5/6/2 1/5/2 6/8/2

v -0.178618 0 0.171875
vt 7.03219 -6.76673
f 1/5/2 7/9/2 6/8/2

v -0.190556 0 0.170831
vt 7.50221 -6.72561
f 1/5/2 8/10/2 7/9/2

v -0.202132 0 0.167729
vt 7.95794 -6.6035
f 1/5/2 9/11/2 8/10/2

v -0.212993 0 0.162664
vt 8.38554 -6.4041
f 1/5/2 10/12/2 9/11/2

v -0.222809 0 0.155791
vt 8.77202 -6.13349
f 1/5/2 11/13/2 10/12/2

v -0.231283 0 0.147317
vt 9.10564 -5.79987
f 1/5/2 12/14/2 11/13/2

v -0.3 0 0.124264
vt 11.811 -4.89229
f 13/15/2 12/14/2 1/5/2

v -0.238157 0 0.1375
vt 9.37626 -5.41339
f 12/14/2 13/15/2 14/16/2

v -0.243222 0 0.126639
vt 9.57565 -4.98578
f 14/16/2 13/15/2 15/17/2

v -0.246323 0 0.115063
vt 9.69777 -4.53005
f 15/17/2 13/15/2 16/18/2

v -0.247368 0 0.103125
vt 9.73889 -4.06004
f 16/18/2 13/15/2 17/19/2

v -0.247368 0 -0.103125
vt 9.73889 4.06004
f 17/19/2 13/15/2 18/20/2

v -0.246323 0 -0.115063
vt 9.69777 4.53005
f 13/15/2 19/21/2 18/20/2

v -0.3 0 -0.124264
vt 11.811 4.89229
f 13/15/2 20/22/2 19/21/2

v -0.375736 0 0.124264
vt 14.7928 -4.89229
f 21/23/2 20/22/2 13/15/2

v -0.375736 0 -0.124264
vt 14.7928 4.89229
f 21/23/2 22/24/2 20/22/2

v -0.5 0 -3.06162e-17
vt 19.685 1.20536e-15
f 22/24/2 21/23/2 23/25/2

vt -13.9194 0
vn -0.707107 0 0.707107
vt -7.00069 0
v -0.375736 0.2 0.124264
vt -7.00069 7.87402
v -0.5 0.2 -3.06162e-17
vt -13.9194 7.87402
f 23/26/3 21/27/3 24/28/3 25/29/3 

vt -14.7928 0
vn 2.97874e-16 0 1
vt -11.811 0
v -0.3 0.2 0.124264
vt -11.811 7.87402
vt -14.7928 7.87402
f 21/30/4 13/31/4 26/32/4 24/33/4 

vt -4.89229 0
vt 4.89229 0
vt 4.89229 7.87402
vt -4.89229 7.87402
f 13/34/3 1/35/3 4/36/3 26/37/3 

v -0.231283 0.2 0.147317
vt -9.10564 -5.79987
vn 0 1 -0
vt -11.811 -4.89229
vt -4.89229 -11.811
f 27/38/5 26/39/5 4/40/5

v -0.238157 0.2 0.1375
vt -9.37626 -5.41339
f 28/41/5 26/39/5 27/38/5

v -0.243222 0.2 0.126639
vt -9.57565 -4.98578
f 29/42/5 26/39/5 28/41/5

v -0.246323 0.2 0.115063
vt -9.69777 -4.53005
f 30/43/5 26/39/5 29/42/5

v -0.3 0.2 -0.124264
vt -11.811 4.89229
f 31/44/5 26/39/5 30/43/5

v -0.375736 0.2 -0.124264
vt -14.7928 4.89229
f 32/45/5 26/39/5 31/44/5

vt -14.7928 -4.89229
f 32/45/5 24/46/5 26/39/5

vt -19.685 1.20536e-15
f 24/46/5 32/45/5 25/47/5

vt 7.00069 0
vn -0.707107 0 -0.707107
vt 13.9194 0
vt 13.9194 7.87402
vt 7.00069 7.87402
f 22/48/6 23/49/6 25/50/6 32/51/6 

vn -2.97874e-16 0 -1
f 20/1/7 22/2/7 32/3/7 31/4/7 

v -0.124264 0 -0.3
v -0.124264 0.2 -0.3
f 33/34/6 20/35/6 31/36/6 34/37/6 

v -0.231283 0 -0.147317
vt 9.10564 5.79987
vt 4.89229 11.811
f 35/52/2 20/22/2 33/53/2

v -0.238157 0 -0.1375
vt 9.37626 5.41339
f 36/54/2 20/22/2 35/52/2

v -0.243222 0 -0.126639
vt 9.57565 4.98578
f 37/55/2 20/22/2 36/54/2

f 19/21/2 20/22/2 37/55/2

v -0.246323 0.2 -0.115063
vt 1.86573 7.87402
vn 0.984808 0 0.173648
vt 1.86573 0
vt 2.33753 0
vn 0.939693 0 0.34202
v -0.243222 0.2 -0.126639
vt 2.33753 7.87402
f 38/56/8 19/57/8 37/58/9 39/59/9 

v -0.247368 0.2 -0.103125
vt 3.19579 7.87402
vn 1 -5.76597e-17 7.52263e-16
vt 3.19579 0
vt 3.6676 0
vt 3.6676 7.87402
f 40/60/10 18/61/10 19/62/8 38/63/8 

v -0.246323 0.2 -0.0911867
vt 4.42158 7.87402
vn 0.984808 -1.16074e-16 -0.173648
v -0.246323 0 -0.0911867
vt 4.42158 -1.0739e-15
vt 4.89339 -1.0739e-15
vt 4.89339 7.87402
f 41/64/11 42/65/11 18/66/10 40/67/10 

v -0.243222 0.2 -0.0796111
vt 5.50586 7.87402
vn 0.939693 -5.84144e-17 -0.34202
v -0.243222 0 -0.0796111
vt 5.50586 -9.82068e-16
vt 5.97767 -9.82068e-16
vt 5.97767 7.87402
f 43/68/12 44/69/12 42/70/11 41/71/11 

v -0.238157 0.2 -0.06875
vt 6.41568 7.87402
vn 0.906308 0 -0.422618
v -0.238157 0 -0.06875
vt 6.41568 0
vt 6.88748 0
vt 6.88748 7.87402
f 45/72/13 46/73/13 44/74/12 43/75/12 

v -0.165 0.2 -4.51195e-17
vt 4.73378 7.87402
vn 0.684817 -5.03085e-18 -0.728715
v -0.165 0 -0
vt 4.73378 -2.23803e-17
vt 8.68621 -2.23803e-17
vt 8.68621 7.87402
f 47/76/14 48/77/14 46/78/14 45/79/14 

v -0.238157 0.2 0.06875
vt -8.68621 7.87402
vn 0.684817 1.30301e-16 0.728715
v -0.238157 0 0.06875
vt -8.68621 5.79658e-16
vt -4.73378 5.79658e-16
vt -4.73378 7.87402
f 49/80/15 50/81/15 48/82/15 47/83/15 

v -0.243222 0.2 0.0796111
vt -6.88748 7.87402
vn 0.939693 -6.69294e-17 0.34202
v -0.243222 0 0.0796111
vt -6.88748 -9.80636e-16
vt -6.41568 -9.80636e-16
vn 0.906308 -1.33349e-16 0.422618
vt -6.41568 7.87402
f 51/84/16 52/85/16 50/86/17 49/87/17 

v -0.246323 0.2 0.0911867
vt -5.97767 7.87402
vn 0.984808 -1.12813e-16 0.173648
v -0.246323 0 0.0911867
vt -5.97767 0
vt -5.50586 0
vt -5.50586 7.87402
f 53/88/18 54/89/18 52/90/16 51/91/16 

v -0.247368 0.2 0.103125
vt -4.89339 7.87402
vn 1 -2.3056e-16 -3.83794e-15
vt -4.89339 -2.10112e-15
vt -4.42158 -2.10112e-15
vt -4.42158 7.87402
f 55/92/19 17/93/19 54/94/18 53/95/18 

vt -3.6676 7.87402
vn 0.984808 -1.32402e-16 -0.173648
vt -3.6676 -2.35906e-15
vt -3.19579 -2.35906e-15
vt -3.19579 7.87402
f 30/96/20 16/97/20 17/98/19 55/99/19 

vt -2.33753 7.87402
vn 0.939693 -6.59716e-17 -0.34202
vt -2.33753 -3.07742e-16
vt -1.86573 -3.07742e-16
vt -1.86573 7.87402
f 29/100/21 15/101/21 16/102/20 30/103/20 

vt -0.943615 7.87402
vn 0.866025 -9.51074e-17 -0.5
vt -0.943615 -1.10275e-15
vt -0.471808 -1.10275e-15
vt -0.471808 7.87402
f 28/104/22 14/105/22 15/106/21 29/107/21 

vt 0.471808 7.87402
vn 0.766044 -2.40895e-17 -0.642788
vt 0.471808 -9.41019e-16
vt 0.943615 -9.41019e-16
vt 0.943615 7.87402
f 27/108/23 12/109/23 14/110/22 28/111/22 

v -0.222809 0.2 0.155791
vn 0.642788 1.97011e-17 -0.766044
vt 1.86573 4.1371e-16
vt 2.33753 4.1371e-16
f 56/56/24 11/112/24 12/113/23 27/59/23 

v -0.212993 0.2 0.162664
vn 0.5 0 -0.866025
f 57/60/25 10/61/25 11/62/24 56/63/24 

v -0.202132 0.2 0.167729
vn 0.34202 8.20388e-17 -0.939693
vt 4.42158 0
vt 4.89339 0
f 58/64/26 9/114/26 10/115/25 57/67/25 

v -0.190556 0.2 0.170831
vn 0.173648 1.1267e-16 -0.984808
vt 5.50586 1.37924e-15
vt 5.97767 1.37924e-15
f 59/68/27 8/116/27 9/117/26 58/71/26 

v -0.178618 0.2 0.171875
vn 0.0871557 6.10298e-17 -0.996195
vt 6.41568 4.48806e-16
vt 6.88748 4.48806e-16
f 60/72/28 7/118/28 8/119/27 59/75/27 

v -0.0825 0.2 0.142894
vn -0.288677 -3.70527e-16 -0.957427
vt 4.73378 -1.64833e-15
vt 8.68621 -1.64833e-15
f 61/76/29 6/120/29 7/121/29 60/79/29 

v -0.0595392 0.2 0.240625
vn 0.973494 2.77657e-17 -0.228712
v -0.0595392 0 0.240625
vt -8.68621 1.23519e-16
vt -4.73378 1.23519e-16
f 62/80/30 63/122/30 6/123/30 61/83/30 

v -0.0526656 0.2 0.250442
vn 0.766044 0 -0.642788
v -0.0526656 0 0.250442
vt -6.88748 0
vt -6.41568 0
vn 0.819152 0 -0.573576
f 64/84/31 65/124/31 63/125/32 62/87/32 

v -0.0441916 0.2 0.258916
vn 0.642788 0 -0.766044
v -0.0441916 0 0.258916
f 66/88/33 67/89/33 65/90/31 64/91/31 

v -0.034375 0.2 0.265789
v -0.034375 0 0.265789
vt -4.89339 0
vt -4.42158 0
f 68/92/25 69/126/25 67/127/33 66/95/33 

v -0.0235139 0.2 0.270854
vn 0.34202 0 -0.939693
v -0.0235139 0 0.270854
vt -3.6676 0
vt -3.19579 0
f 70/96/34 71/128/34 69/129/25 68/99/25 

v -0.0119383 0.2 0.273956
vn 0.173648 0 -0.984808
v -0.0119383 0 0.273956
vt -2.33753 0
vt -1.86573 0
f 72/100/35 73/130/35 71/131/34 70/103/34 

v -6.32476e-17 0.2 0.275
vn -2.01997e-15 0 -1
v -6.32476e-17 0 0.275
vt -0.943615 0
vt -0.471808 0
f 74/104/36 75/132/36 73/133/35 72/107/35 

v 0.0119383 0.2 0.273956
vn -0.173648 0 -0.984808
v 0.0119383 0 0.273956
vt 0.471808 0
vt 0.943615 0
f 76/108/37 77/134/37 75/135/36 74/111/36 

v 0.0235139 0.2 0.270854
vn -0.34202 0 -0.939693
v 0.0235139 0 0.270854
f 78/56/38 79/57/38 77/58/37 76/59/37 

v 0.034375 0.2 0.265789
vn -0.5 3.2477e-17 -0.866025
v 0.034375 0 0.265789
f 80/60/39 81/61/39 79/62/38 78/63/38 

v 0.0441916 0.2 0.258916
vn -0.642788 1.02384e-16 -0.766044
v 0.0441916 0 0.258916
vt 4.42158 6.04877e-16
vt 4.89339 6.04877e-16
f 82/64/40 83/136/40 81/137/39 80/67/39 

v 0.0526656 0.2 0.250442
vn -0.766044 1.18414e-16 -0.642788
v 0.0526656 0 0.250442
vt 5.50586 1.17528e-15
vt 5.97767 1.17528e-15
f 84/68/41 85/138/41 83/139/40 82/71/40 

v 0.0595392 0.2 0.240625
vn -0.819152 9.66455e-17 -0.573576
v 0.0595392 0 0.240625
vt 6.41568 7.10719e-16
vt 6.88748 7.10719e-16
f 86/72/42 87/140/42 85/141/41 84/75/41 

v 0.0825 0.2 0.142894
vn -0.973494 -2.95718e-17 -0.228712
v 0.0825 0 0.142894
vt 4.73378 -1.31553e-16
vt 8.68621 -1.31553e-16
f 88/76/43 89/142/43 87/143/43 86/79/43 

v 0.178618 0.2 0.171875
vn 0.288677 1.26266e-16 -0.957427
v 0.178618 0 0.171875
vt -8.68621 5.61709e-16
vt -4.73378 5.61709e-16
f 90/80/44 91/144/44 89/145/44 88/83/44 

v 0.190556 0.2 0.170831
vn -0.173648 2.8983e-16 -0.984808
v 0.190556 0 0.170831
vt -6.88748 1.38429e-15
vt -6.41568 1.38429e-15
vn -0.0871557 1.8824e-16 -0.996195
f 92/84/45 93/146/45 91/147/46 90/87/46 

v 0.202132 0.2 0.167729
vn -0.34202 3.49301e-16 -0.939693
v 0.202132 0 0.167729
vt -5.97767 3.28425e-15
vt -5.50586 3.28425e-15
f 94/88/47 95/148/47 93/149/45 92/91/45 

v 0.212993 0.2 0.162664
vn -0.5 1.26461e-16 -0.866025
v 0.212993 0 0.162664
vt -4.89339 2.8673e-15
vt -4.42158 2.8673e-15
f 96/92/48 97/150/48 95/151/47 94/95/47 

v 0.222809 0.2 0.155791
vn -0.642788 -8.72287e-17 -0.766044
v 0.222809 0 0.155791
vt -3.6676 -5.50756e-16
vt -3.19579 -5.50756e-16
f 98/96/49 99/152/49 97/153/48 96/99/48 

v 0.231283 0.2 0.147317
vn -0.766044 6.5502e-17 -0.642788
v 0.231283 0 0.147317
vt -2.33753 -1.25448e-15
vt -1.86573 -1.25448e-15
f 100/100/50 101/154/50 99/155/49 98/103/49 

v 0.238157 0.2 0.1375
vn -0.866025 2.51804e-16 -0.5
v 0.238157 0 0.1375
vt -0.943615 2.69131e-15
vt -0.471808 2.69131e-15
f 102/104/51 103/156/51 101/157/50 100/107/50 

v 0.243222 0.2 0.126639
vn -0.939693 1.26563e-16 -0.34202
v 0.243222 0 0.126639
vt 0.471808 2.71972e-15
vt 0.943615 2.71972e-15
f 104/108/52 105/158/52 103/159/51 102/111/51 

v 0.246323 0.2 0.115063
vn -0.984808 0 -0.173648
v 0.246323 0 0.115063
f 106/56/53 107/57/53 105/58/52 104/59/52 

v 0.247368 0.2 0.103125
vn -1 0 -3.47573e-15
v 0.247368 0 0.103125
f 108/60/54 109/61/54 107/62/53 106/63/53 

v 0.246323 0.2 0.0911867
vn -0.984808 0 0.173648
v 0.246323 0 0.0911867
f 110/64/55 111/114/55 109/115/54 108/67/54 

v 0.243222 0.2 0.0796111
vn -0.939693 0 0.34202
v 0.243222 0 0.0796111
vt 5.50586 0
vt 5.97767 0
f 112/68/56 113/160/56 111/161/55 110/71/55 

v 0.238157 0.2 0.06875
vn -0.906308 0 0.422618
v 0.238157 0 0.06875
f 114/72/57 115/73/57 113/74/56 112/75/56 

v 0.165 0.2 -9.02389e-17
vn -0.684817 0 0.728715
v 0.165 0 -9.02389e-17
vt 4.73378 0
vt 8.68621 0
f 116/76/58 117/162/58 115/163/58 114/79/58 

v 0.238157 0.2 -0.06875
vn -0.684817 0 -0.728715
v 0.238157 0 -0.06875
vt -8.68621 0
vt -4.73378 0
f 118/80/59 119/164/59 117/165/59 116/83/59 

v 0.243222 0.2 -0.0796111
vn -0.939693 -1.46548e-17 -0.34202
v 0.243222 0 -0.0796111
vn -0.906308 0 -0.422618
f 120/84/60 121/124/60 119/125/61 118/87/61 

v 0.246323 0.2 -0.0911867
vn -0.984808 -1.95897e-17 -0.173648
v 0.246323 0 -0.0911867
vt -5.97767 -2.46378e-16
vt -5.50586 -2.46378e-16
f 122/88/62 123/166/62 121/167/60 120/91/60 

v 0.247368 0.2 -0.103125
vn -1 -4.93492e-18 -4.17924e-17
v 0.247368 0 -0.103125
vt -4.89339 -9.19119e-17
vt -4.42158 -9.19119e-17
f 124/92/63 125/168/63 123/169/62 122/95/62 

v 0.246323 0.2 -0.115063
vn -0.984808 -1.71304e-16 0.173648
v 0.246323 0 -0.115063
f 126/96/64 127/128/64 125/129/63 124/99/63 

v 0.243222 0.2 -0.126639
vn -0.939693 -4.99297e-16 0.34202
v 0.243222 0 -0.126639
vt -2.33753 -3.59728e-15
vt -1.86573 -3.59728e-15
f 128/100/65 129/170/65 127/171/64 126/103/64 

v 0.238157 0.2 -0.1375
vn -0.866025 -5.01691e-16 0.5
v 0.238157 0 -0.1375
vt -0.943615 -7.04825e-15
vt -0.471808 -7.04825e-15
f 130/104/66 131/172/66 129/173/65 128/107/65 

v 0.231283 0.2 -0.147317
vn -0.766044 -2.13736e-16 0.642788
v 0.231283 0 -0.147317
vt 0.471808 -3.73262e-15
vt 0.943615 -3.73262e-15
f 132/108/67 133/174/67 131/175/66 130/111/66 

v 0.222809 0.2 -0.155791
vn -0.642788 -7.25146e-17 0.766044
v 0.222809 0 -0.155791
vt 1.86573 -8.40766e-16
vt 2.33753 -8.40766e-16
f 134/56/68 135/176/68 133/177/67 132/59/67 

v 0.212993 0.2 -0.162664
vn -0.5 -3.2477e-17 0.866025
v 0.212993 0 -0.162664
vt 3.19579 -6.50671e-16
vt 3.6676 -6.50671e-16
f 136/60/69 137/178/69 135/179/68 134/63/68 

v 0.202132 0.2 -0.167729
vn -0.34202 -6.21362e-17 0.939693
v 0.202132 0 -0.167729
f 138/64/70 139/114/70 137/115/69 136/67/69 

v 0.190556 0.2 -0.170831
vn -0.173648 -1.21049e-16 0.984808
v 0.190556 0 -0.170831
vt 5.50586 -1.04464e-15
vt 5.97767 -1.04464e-15
f 140/68/71 141/180/71 139/181/70 138/71/70 

v 0.178618 0.2 -0.171875
vn -0.0871557 -1.17378e-16 0.996195
v 0.178618 0 -0.171875
vt 6.41568 -8.63181e-16
vt 6.88748 -8.63181e-16
f 142/72/72 143/182/72 141/183/71 140/75/71 

v 0.0825 0.2 -0.142894
vn 0.288677 0 0.957427
v 0.0825 0 -0.142894
f 144/76/73 145/162/73 143/163/73 142/79/73 

v 0.0595392 0.2 -0.240625
vn -0.973494 0 0.228712
v 0.0595392 0 -0.240625
f 146/80/74 147/164/74 145/165/74 144/83/74 

v 0.0526656 0.2 -0.250442
vn -0.766044 0 0.642788
v 0.0526656 0 -0.250442
vn -0.819152 0 0.573576
f 148/84/75 149/124/75 147/125/76 146/87/76 

v 0.0441916 0.2 -0.258916
vn -0.642788 0 0.766044
v 0.0441916 0 -0.258916
f 150/88/77 151/89/77 149/90/75 148/91/75 

v 0.034375 0.2 -0.265789
vn -0.5 0 0.866025
v 0.034375 0 -0.265789
f 152/92/78 153/126/78 151/127/77 150/95/77 

v 0.0235139 0.2 -0.270854
vn -0.34202 1.14037e-16 0.939693
v 0.0235139 0 -0.270854
f 154/96/79 155/128/79 153/129/78 152/99/78 

v 0.0119383 0.2 -0.273956
vn -0.173648 2.85058e-16 0.984808
v 0.0119383 0 -0.273956
vt -2.33753 2.39471e-15
vt -1.86573 2.39471e-15
f 156/100/80 157/184/80 155/185/79 154/103/79 

v -4.47767e-17 0.2 -0.275
vn 2.08962e-17 2.27349e-16 1
v -4.86942e-17 0 -0.275
vt -0.943615 3.67508e-15
vt -0.471808 3.67508e-15
f 158/104/81 159/186/81 157/187/80 156/107/80 

v -0.0119383 0.2 -0.273956
vn 0.173648 6.00499e-17 0.984808
v -0.0119383 0 -0.273956
vt 0.471808 1.21044e-15
vt 0.943615 1.21044e-15
f 160/108/82 161/188/82 159/189/81 158/111/81 

v -0.0235139 0.2 -0.270854
vn 0.34202 -5.17731e-17 0.939693
v -0.0235139 0 -0.270854
vt 1.86573 7.81566e-17
vt 2.33753 7.81566e-17
f 162/56/83 163/190/83 161/191/82 160/59/82 

v -0.034375 0.2 -0.265789
vn 0.5 -1.14249e-16 0.866025
v -0.034375 0 -0.265789
vt 3.19579 -1.11183e-15
vt 3.6676 -1.11183e-15
f 164/60/84 165/192/84 163/193/83 162/63/83 

v -0.0441916 0.2 -0.258916
vn 0.642788 -5.87541e-17 0.766044
v -0.0441916 0 -0.258916
vt 4.42158 -1.09428e-15
vt 4.89339 -1.09428e-15
f 166/64/85 167/194/85 165/195/84 164/67/84 

v -0.0526656 0.2 -0.250442
vn 0.766044 0 0.642788
v -0.0526656 0 -0.250442
f 168/68/86 169/160/86 167/161/85 166/71/85 

v -0.0595392 0.2 -0.240625
vn 0.819152 0 0.573576
v -0.0595392 0 -0.240625
f 170/72/87 171/73/87 169/74/86 168/75/86 

v -0.0825 0.2 -0.142894
vn 0.973494 0 0.228712
v -0.0825 0 -0.142894
f 172/76/88 173/162/88 171/163/88 170/79/88 

v -0.178618 0.2 -0.171875
vn -0.288677 0 0.957427
v -0.178618 0 -0.171875
f 174/80/89 175/164/89 173/165/89 172/83/89 

v -0.190556 0.2 -0.170831
vn 0.173648 -1.99025e-17 0.984808
v -0.190556 0 -0.170831
vn 0.0871557 0 0.996195
f 176/84/90 177/124/90 175/125/91 174/87/91 

v -0.202132 0.2 -0.167729
vn 0.34202 -8.12652e-17 0.939693
v -0.202132 0 -0.167729
vt -5.97767 -3.34603e-16
vt -5.50586 -3.34603e-16
f 178/88/92 179/196/92 177/197/90 176/91/90 

v -0.212993 0.2 -0.162664
vn 0.5 -1.67711e-16 0.866025
v -0.212993 0 -0.162664
vt -4.89339 -1.14287e-15
vt -4.42158 -1.14287e-15
f 180/92/93 181/198/93 179/199/92 178/95/92 

v -0.222809 0.2 -0.155791
vn 0.642788 -1.26685e-16 0.766044
v -0.222809 0 -0.155791
vt -3.6676 -2.13068e-15
vt -3.19579 -2.13068e-15
f 182/96/94 183/200/94 181/201/93 180/99/93 

v -0.231283 0.2 -0.147317
vn 0.766044 -1.76459e-18 0.642788
vt -2.33753 -4.27056e-16
vt -1.86573 -4.27056e-16
f 184/100/95 35/202/95 183/203/94 182/103/94 

v -0.238157 0.2 -0.1375
vn 0.866025 1.8572e-17 0.5
vt -0.943615 3.99095e-16
vt -0.471808 3.99095e-16
f 185/104/96 36/204/96 35/205/95 184/107/95 

f 39/108/9 37/134/9 36/135/96 185/111/96 

vt -9.37626 5.41339
vt -9.57565 4.98578
f 185/206/5 31/44/5 39/207/5

vt -9.10564 5.79987
f 184/208/5 31/44/5 185/206/5

vt -4.89229 11.811
f 31/44/5 184/208/5 34/209/5

vt -8.77202 6.13349
f 34/209/5 184/208/5 182/210/5

vt -8.38554 6.4041
f 34/209/5 182/210/5 180/211/5

vt -7.95794 6.6035
f 34/209/5 180/211/5 178/212/5

vt -7.50221 6.72561
f 34/209/5 178/212/5 176/213/5

vt -7.03219 6.76673
f 34/209/5 176/213/5 174/214/5

vt -3.24803 5.62576
f 34/209/5 174/214/5 172/215/5

v -0.124264 0.2 -0.375736
vt -4.89229 14.7928
f 34/209/5 172/215/5 186/216/5

v 0 0.2 -0.5
vt 0 19.685
f 186/216/5 172/215/5 187/217/5

vt -2.34406 9.47343
f 187/217/5 172/215/5 170/218/5

vt -2.07345 9.85991
f 187/217/5 170/218/5 168/219/5

vt -1.73983 10.1935
f 187/217/5 168/219/5 166/220/5

vt -1.35335 10.4641
f 187/217/5 166/220/5 164/221/5

vt -0.925743 10.6635
f 187/217/5 164/221/5 162/222/5

vt -0.470012 10.7857
f 187/217/5 162/222/5 160/223/5

vt -1.76286e-15 10.8268
f 187/217/5 160/223/5 158/224/5

vt 0.470012 10.7857
f 187/217/5 158/224/5 156/225/5

v 0.124264 0.2 -0.375736
vt 4.89229 14.7928
f 187/217/5 156/225/5 188/226/5

vt 0.925743 10.6635
f 188/226/5 156/225/5 154/227/5

vt 1.35335 10.4641
f 188/226/5 154/227/5 152/228/5

vt 1.73983 10.1935
f 188/226/5 152/228/5 150/229/5

vt 2.07345 9.85991
f 188/226/5 150/229/5 148/230/5

vt 2.34406 9.47343
f 188/226/5 148/230/5 146/231/5

vt 3.24803 5.62576
f 188/226/5 146/231/5 144/232/5

v 0.124264 0.2 -0.3
f 188/226/5 144/232/5 189/53/5

vt 7.03219 6.76673
f 142/233/5 189/53/5 144/232/5

vt 7.50221 6.72561
f 189/53/5 142/233/5 140/234/5

vt 7.95794 6.6035
f 189/53/5 140/234/5 138/235/5

v 0.3 0.2 -0.124264
f 189/53/5 138/235/5 190/22/5

vt 8.38554 6.4041
f 190/22/5 138/235/5 136/236/5

vt 8.77202 6.13349
f 190/22/5 136/236/5 134/237/5

f 190/22/5 134/237/5 132/52/5

f 190/22/5 132/52/5 130/54/5

f 190/22/5 130/54/5 128/55/5

f 190/22/5 128/55/5 126/21/5

f 190/22/5 126/21/5 124/20/5

v 0.3 0.2 0.124264
f 190/22/5 124/20/5 191/15/5

f 108/19/5 191/15/5 124/20/5

f 106/18/5 191/15/5 108/19/5

f 104/17/5 191/15/5 106/18/5

f 102/16/5 191/15/5 104/17/5

f 100/14/5 191/15/5 102/16/5

f 98/13/5 191/15/5 100/14/5

f 96/12/5 191/15/5 98/13/5

f 94/11/5 191/15/5 96/12/5

v 0.124264 0.2 0.3
f 94/11/5 192/5/5 191/15/5

f 92/10/5 192/5/5 94/11/5

f 90/9/5 192/5/5 92/10/5

f 88/8/5 192/5/5 90/9/5

v 0.124264 0.2 0.375736
f 88/8/5 193/7/5 192/5/5

vt 2.34406 -9.47343
f 86/238/5 193/7/5 88/8/5

vt 2.07345 -9.85991
f 84/239/5 193/7/5 86/238/5

vt 1.73983 -10.1935
f 82/240/5 193/7/5 84/239/5

vt 1.35335 -10.4641
f 80/241/5 193/7/5 82/240/5

vt 0.925743 -10.6635
f 78/242/5 193/7/5 80/241/5

vt 0.470012 -10.7857
f 76/243/5 193/7/5 78/242/5

v -6.12323e-17 0.2 0.5
vt -2.41072e-15 -19.685
f 76/243/5 194/244/5 193/7/5

vt -2.49006e-15 -10.8268
f 74/245/5 194/244/5 76/243/5

vt -0.470012 -10.7857
f 72/246/5 194/244/5 74/245/5

vt -0.925743 -10.6635
f 70/247/5 194/244/5 72/246/5

vt -1.35335 -10.4641
f 68/248/5 194/244/5 70/247/5

vt -1.73983 -10.1935
f 66/249/5 194/244/5 68/248/5

vt -2.07345 -9.85991
f 64/250/5 194/244/5 66/249/5

vt -2.34406 -9.47343
f 62/251/5 194/244/5 64/250/5

vt -3.24803 -5.62576
f 61/252/5 194/244/5 62/251/5

f 4/40/5 194/244/5 61/252/5

vt -4.89229 -14.7928
f 194/244/5 4/40/5 3/253/5

f 2/48/3 5/49/3 194/50/3 3/51/3 

vn 0.707107 0 0.707107
v 0.124264 0 0.375736
f 5/26/97 195/27/97 193/28/97 194/29/97 

f 5/6/2 77/246/2 195/253/2

vt 2.49006e-15 -10.8268
f 5/6/2 75/254/2 77/246/2

f 5/6/2 73/243/2 75/254/2

f 5/6/2 71/242/2 73/243/2

f 5/6/2 69/241/2 71/242/2

f 5/6/2 67/240/2 69/241/2

f 5/6/2 65/239/2 67/240/2

f 5/6/2 63/238/2 65/239/2

f 5/6/2 6/8/2 63/238/2

f 195/253/2 77/246/2 79/247/2

f 195/253/2 79/247/2 81/248/2

f 195/253/2 81/248/2 83/249/2

f 195/253/2 83/249/2 85/250/2

f 195/253/2 85/250/2 87/251/2

f 195/253/2 87/251/2 89/252/2

v 0.124264 0 0.3
f 195/253/2 89/252/2 196/40/2

vt -7.03219 -6.76673
f 91/255/2 196/40/2 89/252/2

vt -7.50221 -6.72561
f 196/40/2 91/255/2 93/256/2

vt -7.95794 -6.6035
f 196/40/2 93/256/2 95/257/2

v 0.3 0 0.124264
f 196/40/2 95/257/2 197/39/2

vt -8.38554 -6.4041
f 197/39/2 95/257/2 97/258/2

vt -8.77202 -6.13349
f 197/39/2 97/258/2 99/259/2

f 197/39/2 99/259/2 101/38/2

f 197/39/2 101/38/2 103/41/2

f 197/39/2 103/41/2 105/42/2

f 197/39/2 105/42/2 107/43/2

vt -9.73889 -4.06004
f 197/39/2 107/43/2 109/260/2

v 0.3 0 -0.124264
f 109/260/2 198/44/2 197/39/2

vt -9.73889 4.06004
f 125/261/2 198/44/2 109/260/2

vt -9.69777 4.53005
f 127/262/2 198/44/2 125/261/2

f 129/207/2 198/44/2 127/262/2

f 131/206/2 198/44/2 129/207/2

f 133/208/2 198/44/2 131/206/2

f 135/210/2 198/44/2 133/208/2

f 137/211/2 198/44/2 135/210/2

f 139/212/2 198/44/2 137/211/2

v 0.124264 0 -0.3
f 139/212/2 199/209/2 198/44/2

f 141/213/2 199/209/2 139/212/2

f 143/214/2 199/209/2 141/213/2

f 145/215/2 199/209/2 143/214/2

v 0.124264 0 -0.375736
f 145/215/2 200/216/2 199/209/2

f 147/218/2 200/216/2 145/215/2

f 149/219/2 200/216/2 147/218/2

f 151/220/2 200/216/2 149/219/2

f 153/221/2 200/216/2 151/220/2

f 155/222/2 200/216/2 153/221/2

f 157/223/2 200/216/2 155/222/2

v 0 0 -0.5
f 157/223/2 201/217/2 200/216/2

vt 1.91709e-15 10.8268
f 159/263/2 201/217/2 157/223/2

f 161/225/2 201/217/2 159/263/2

f 163/227/2 201/217/2 161/225/2

f 165/228/2 201/217/2 163/227/2

f 167/229/2 201/217/2 165/228/2

f 169/230/2 201/217/2 167/229/2

f 171/231/2 201/217/2 169/230/2

f 173/232/2 201/217/2 171/231/2

f 33/53/2 201/217/2 173/232/2

v -0.124264 0 -0.375736
f 201/217/2 33/53/2 202/226/2

vn -1 0 -0
f 202/30/98 33/31/98 34/32/98 186/33/98 

f 201/26/6 202/27/6 186/28/6 187/29/6 

vn 0.707107 0 -0.707107
f 200/48/99 201/49/99 187/50/99 188/51/99 

vn 1 0 -0
f 199/1/100 200/2/100 188/3/100 189/4/100 

f 198/34/99 199/35/99 189/36/99 190/37/99 

v 0.375736 0 -0.124264
vn -5.95747e-16 0 -1
v 0.375736 0.2 -0.124264
f 203/30/101 198/31/101 190/32/101 204/33/101 

v 0.375736 0 0.124264
f 205/46/2 198/44/2 203/45/2

f 197/39/2 198/44/2 205/46/2

v 0.375736 0.2 0.124264
f 197/1/4 205/2/4 206/3/4 191/4/4 

v 0.5 0 9.18485e-17
v 0.5 0.2 9.18485e-17
f 205/48/97 207/49/97 208/50/97 206/51/97 

vt -19.685 -3.61608e-15
f 205/46/2 203/45/2 207/264/2

f 207/26/99 203/27/99 204/28/99 208/29/99 

vt 19.685 -3.61608e-15
f 204/24/5 206/23/5 208/265/5

f 190/22/5 206/23/5 204/24/5

f 190/22/5 191/15/5 206/23/5

f 196/34/97 197/35/97 191/36/97 192/37/97 

f 195/30/100 196/31/100 192/32/100 193/33/100 

f 175/233/2 33/53/2 173/232/2

f 177/234/2 33/53/2 175/233/2

f 179/235/2 33/53/2 177/234/2

f 181/236/2 33/53/2 179/235/2

f 183/237/2 33/53/2 181/236/2

f 35/52/2 33/53/2 183/237/2

vt -9.69777 -3.59003
f 111/266/2 125/261/2 109/260/2

vt -9.69777 3.59003
f 111/266/2 123/267/2 125/261/2

vt -9.57565 -3.1343
f 113/268/2 123/267/2 111/266/2

vt -9.57565 3.1343
f 113/268/2 121/269/2 123/267/2

vt -9.37626 -2.70669
f 115/270/2 121/269/2 113/268/2

vt -9.37626 2.70669
f 115/270/2 119/271/2 121/269/2

vt -6.49606 3.55271e-15
f 119/271/2 115/270/2 117/272/2

f 60/255/5 4/40/5 61/252/5

f 59/256/5 4/40/5 60/255/5

f 58/257/5 4/40/5 59/256/5

f 57/258/5 4/40/5 58/257/5

f 56/259/5 4/40/5 57/258/5

f 27/38/5 4/40/5 56/259/5

vt 9.69777 3.59003
f 122/273/5 108/19/5 124/20/5

vt 9.69777 -3.59003
f 122/273/5 110/274/5 108/19/5

vt 9.57565 3.1343
f 120/275/5 110/274/5 122/273/5

vt 9.57565 -3.1343
f 120/275/5 112/276/5 110/274/5

vt 9.37626 -2.70669
f 120/275/5 114/277/5 112/276/5

vt 9.37626 2.70669
f 118/278/5 114/277/5 120/275/5

vt 6.49606 3.55271e-15
f 114/277/5 118/278/5 116/279/5

f 39/207/5 31/44/5 38/262/5

f 38/262/5 31/44/5 40/261/5

f 31/44/5 55/260/5 40/261/5

f 31/44/5 30/43/5 55/260/5

f 55/260/5 41/267/5 40/261/5

f 41/267/5 55/260/5 53/266/5

f 41/267/5 53/266/5 51/268/5

f 41/267/5 51/268/5 43/269/5

f 43/269/5 51/268/5 49/270/5

f 43/269/5 49/270/5 45/271/5

vt -6.49606 1.77636e-15
f 45/271/5 49/270/5 47/280/5

f 17/19/2 42/273/2 54/274/2

f 42/273/2 17/19/2 18/20/2

f 54/274/2 42/273/2 44/275/2

f 54/274/2 44/275/2 52/276/2

f 52/276/2 44/275/2 50/277/2

f 50/277/2 44/275/2 46/278/2

vt 6.49606 0
f 50/277/2 46/278/2 48/281/2

