# Alias OBJ Model File
# Exported from SketchUp, (c) 2000-2012 Trimble Navigation Limited
# File units = meters

mtllib G_H.mtl

g Mesh1 Difference Model

usemtl Color_M02
v 0.293893 0 0.404508
vt -11.5706 0
vn 0.951057 0 0.309017
v 0.475528 0 -0.154508
vt 11.5706 0
v 0.475528 0.2 -0.154508
vt 11.5706 7.87402
v 0.293893 0.2 0.404508
vt -11.5706 7.87402
f 1/1/1 2/2/1 3/3/1 4/4/1 

v 0.247368 0 -0.103125
vt -9.73889 4.06004
vn 0 -1 -0
vt -18.7216 6.08301
vt -11.5706 -15.9255
f 5/5/2 2/6/2 1/7/2

v 0.246323 0 -0.115063
vt -9.69777 4.53005
f 6/8/2 2/6/2 5/5/2

v 0.243222 0 -0.126639
vt -9.57565 4.98578
f 7/9/2 2/6/2 6/8/2

v 0.238157 0 -0.1375
vt -9.37626 5.41339
f 8/10/2 2/6/2 7/9/2

v 0.231283 0 -0.147317
vt -9.10564 5.79987
f 9/11/2 2/6/2 8/10/2

v 0.222809 0 -0.155791
vt -8.77202 6.13349
f 10/12/2 2/6/2 9/11/2

v 0.212993 0 -0.162664
vt -8.38554 6.4041
f 11/13/2 2/6/2 10/12/2

v 0.202132 0 -0.167729
vt -7.95794 6.6035
f 12/14/2 2/6/2 11/13/2

v 0.190556 0 -0.170831
vt -7.50221 6.72561
f 13/15/2 2/6/2 12/14/2

v 0.178618 0 -0.171875
vt -7.03219 6.76673
f 14/16/2 2/6/2 13/15/2

v 0.0595392 0 -0.240625
vt -2.34406 9.47343
f 15/17/2 2/6/2 14/16/2

v 0.0526656 0 -0.250442
vt -2.07345 9.85991
f 16/18/2 2/6/2 15/17/2

v 0.0441916 0 -0.258916
vt -1.73983 10.1935
f 17/19/2 2/6/2 16/18/2

v 0.034375 0 -0.265789
vt -1.35335 10.4641
f 18/20/2 2/6/2 17/19/2

v 0.0235139 0 -0.270854
vt -0.925743 10.6635
f 19/21/2 2/6/2 18/20/2

v 0.0119383 0 -0.273956
vt -0.470012 10.7857
f 20/22/2 2/6/2 19/21/2

v 1.07159e-16 0 -0.5
vt -4.21885e-15 19.685
f 20/22/2 21/23/2 2/6/2

v -4.47767e-17 0 -0.275
vt 1.76286e-15 10.8268
f 22/24/2 21/23/2 20/22/2

v -0.0119383 0 -0.273956
vt 0.470012 10.7857
f 23/25/2 21/23/2 22/24/2

v -0.0235139 0 -0.270854
vt 0.925743 10.6635
f 24/26/2 21/23/2 23/25/2

v -0.034375 0 -0.265789
vt 1.35335 10.4641
f 25/27/2 21/23/2 24/26/2

v -0.0441916 0 -0.258916
vt 1.73983 10.1935
f 26/28/2 21/23/2 25/27/2

v -0.0526656 0 -0.250442
vt 2.07345 9.85991
f 27/29/2 21/23/2 26/28/2

v -0.0595392 0 -0.240625
vt 2.34406 9.47343
f 28/30/2 21/23/2 27/29/2

v -0.0825 0 -0.142894
vt 3.24803 5.62576
f 29/31/2 21/23/2 28/30/2

v -0.178618 0 -0.171875
vt 7.03219 6.76673
f 30/32/2 21/23/2 29/31/2

v -0.190556 0 -0.170831
vt 7.50221 6.72561
f 31/33/2 21/23/2 30/32/2

v -0.202132 0 -0.167729
vt 7.95794 6.6035
f 32/34/2 21/23/2 31/33/2

v -0.212993 0 -0.162664
vt 8.38554 6.4041
f 33/35/2 21/23/2 32/34/2

v -0.222809 0 -0.155791
vt 8.77202 6.13349
f 34/36/2 21/23/2 33/35/2

v -0.231283 0 -0.147317
vt 9.10564 5.79987
f 35/37/2 21/23/2 34/36/2

v -0.238157 0 -0.1375
vt 9.37626 5.41339
f 36/38/2 21/23/2 35/37/2

v -0.475528 0 -0.154508
vt 18.7216 6.08301
f 36/38/2 37/39/2 21/23/2

v -0.243222 0 -0.126639
vt 9.57565 4.98578
f 38/40/2 37/39/2 36/38/2

v -0.246323 0 -0.115063
vt 9.69777 4.53005
f 39/41/2 37/39/2 38/40/2

v -0.293893 0 0.404508
vt 11.5706 -15.9255
f 37/39/2 39/41/2 40/42/2

v -0.247368 0 -0.103125
vt 9.73889 4.06004
f 40/42/2 39/41/2 41/43/2

v -0.247368 0.2 -0.103125
vt 3.19579 7.87402
vn 1 0 -2.04783e-15
vt 3.19579 0
vt 3.6676 0
vn 0.984808 5.46925e-17 0.173648
v -0.246323 0.2 -0.115063
vt 3.6676 7.87402
f 42/44/3 41/45/3 39/46/4 43/47/4 

v -0.246323 0.2 -0.0911867
vt 4.42158 7.87402
vn 0.984808 0 -0.173648
v -0.246323 0 -0.0911867
vt 4.42158 0
vt 4.89339 0
vt 4.89339 7.87402
f 44/48/5 45/49/5 41/50/3 42/51/3 

v -0.243222 0.2 -0.0796111
vt 5.50586 7.87402
vn 0.939693 -3.52388e-19 -0.34202
v -0.243222 0 -0.0796111
vt 5.50586 0
vt 5.97767 0
vt 5.97767 7.87402
f 46/52/6 47/53/6 45/54/5 44/55/5 

v -0.238157 0.2 -0.06875
vt 6.41568 7.87402
vn 0.906308 -7.02094e-19 -0.422618
v -0.238157 0 -0.06875
vt 6.41568 -5.16311e-18
vt 6.88748 -5.16311e-18
vt 6.88748 7.87402
f 48/56/7 49/57/7 47/58/6 46/59/6 

v -0.165 0.2 -1.12799e-16
vt 4.73378 7.87402
vn 0.684817 1.25771e-18 -0.728715
v -0.165 0 -1.12799e-16
vt 4.73378 5.59508e-18
vt 8.68621 5.59508e-18
vt 8.68621 7.87402
f 50/60/8 51/61/8 49/62/8 48/63/8 

v -0.238157 0.2 0.06875
vt -8.68621 7.87402
vn 0.684817 0 0.728715
v -0.238157 0 0.06875
vt -8.68621 0
vt -4.73378 0
vt -4.73378 7.87402
f 52/64/9 53/65/9 51/66/9 50/67/9 

v -0.243222 0.2 0.0796111
vt -6.88748 7.87402
vn 0.939693 -9.79917e-18 0.34202
v -0.243222 0 0.0796111
vt -6.88748 -8.90435e-17
vt -6.41568 -8.90435e-17
vn 0.906308 -1.21084e-17 0.422618
vt -6.41568 7.87402
f 54/68/10 55/69/10 53/70/11 52/71/11 

v -0.246323 0.2 0.0911867
vt -5.97767 7.87402
vn 0.984808 -3.72186e-18 0.173648
v -0.246323 0 0.0911867
vt -5.97767 -6.25722e-17
vt -5.50586 -6.25722e-17
vt -5.50586 7.87402
f 56/72/12 57/73/12 55/74/10 54/75/10 

v -0.247368 0.2 0.103125
vt -4.89339 7.87402
vn 1 4.93492e-18 -1.95031e-15
v -0.247368 0 0.103125
vt -4.89339 0
vt -4.42158 0
vt -4.42158 7.87402
f 58/76/13 59/77/13 57/78/12 56/79/12 

v -0.246323 0.2 0.115063
vt -3.6676 7.87402
vn 0.984808 -3.51028e-17 -0.173648
v -0.246323 0 0.115063
vt -3.6676 9.88703e-17
vt -3.19579 9.88703e-17
vt -3.19579 7.87402
f 60/80/14 61/81/14 59/82/13 58/83/13 

v -0.243222 0.2 0.126639
vt -2.33753 7.87402
vn 0.939693 -1.30897e-16 -0.34202
v -0.243222 0 0.126639
vt -2.33753 -8.40766e-16
vt -1.86573 -8.40766e-16
vt -1.86573 7.87402
f 62/84/15 63/85/15 61/86/14 60/87/14 

v -0.238157 0.2 0.1375
vt -0.943615 7.87402
vn 0.866025 -1.20745e-16 -0.5
v -0.238157 0 0.1375
vt -0.943615 -1.95247e-15
vt -0.471808 -1.95247e-15
vt -0.471808 7.87402
f 64/88/16 65/89/16 63/90/15 62/91/15 

v -0.231283 0.2 0.147317
vt 0.471808 7.87402
vn 0.766044 7.05263e-17 -0.642788
v -0.231283 0 0.147317
vt 0.471808 -6.42215e-16
vt 0.943615 -6.42215e-16
vt 0.943615 7.87402
f 66/92/17 67/93/17 65/94/16 64/95/16 

v -0.222809 0.2 0.155791
vt 1.86573 7.87402
vn 0.642788 2.35307e-16 -0.766044
v -0.222809 0 0.155791
vt 1.86573 2.10859e-15
vt 2.33753 2.10859e-15
vt 2.33753 7.87402
f 68/96/18 69/97/18 67/98/17 66/99/17 

v -0.212993 0.2 0.162664
vn 0.5 4.44159e-17 -0.866025
v -0.212993 0 0.162664
vt 3.19579 2.7026e-15
vt 3.6676 2.7026e-15
f 70/44/19 71/100/19 69/101/18 68/47/18 

v -0.202132 0.2 0.167729
vn 0.34202 -2.07075e-16 -0.939693
v -0.202132 0 0.167729
vt 4.42158 -1.68515e-15
vt 4.89339 -1.68515e-15
f 72/48/20 73/102/20 71/103/19 70/51/19 

v -0.190556 0.2 0.170831
vn 0.173648 -1.70574e-16 -0.984808
v -0.190556 0 0.170831
vt 5.50586 -1.96022e-15
vt 5.97767 -1.96022e-15
f 74/52/21 75/104/21 73/105/20 72/55/20 

v -0.178618 0.2 0.171875
vn 0.0871557 -1.07545e-16 -0.996195
v -0.178618 0 0.171875
vt 6.41568 -7.90876e-16
vt 6.88748 -7.90876e-16
f 76/56/22 77/106/22 75/107/21 74/59/21 

v -0.0825 0.2 0.142894
vn -0.288677 -1.26266e-16 -0.957427
v -0.0825 0 0.142894
vt 4.73378 -5.61709e-16
vt 8.68621 -5.61709e-16
f 78/60/23 79/108/23 77/109/23 76/63/23 

v -0.0595392 0.2 0.240625
vn 0.973494 -3.80147e-16 -0.228712
v -0.0595392 0 0.240625
vt -8.68621 -1.69113e-15
vt -4.73378 -1.69113e-15
f 80/64/24 81/110/24 79/111/24 78/67/24 

v -0.0526656 0.2 0.250442
vn 0.766044 -2.041e-16 -0.642788
v -0.0526656 0 0.250442
vt -6.88748 -2.99042e-15
vt -6.41568 -2.99042e-15
vn 0.819152 -4.06646e-16 -0.573576
f 82/68/25 83/112/25 81/113/26 80/71/26 

v -0.0441916 0.2 0.258916
vn 0.642788 -1.87603e-16 -0.766044
v -0.0441916 0 0.258916
vt -5.97767 0
vt -5.50586 0
f 84/72/27 85/114/27 83/115/25 82/75/25 

v -0.034375 0.2 0.265789
vn 0.5 -3.77638e-16 -0.866025
v -0.034375 0 0.265789
vt -4.89339 -3.49408e-15
vt -4.42158 -3.49408e-15
f 86/76/28 87/116/28 85/117/27 84/79/27 

v -0.0235139 0.2 0.270854
vn 0.34202 -1.33016e-16 -0.939693
v -0.0235139 0 0.270854
vt -3.6676 -3.80731e-15
vt -3.19579 -3.80731e-15
f 88/80/29 89/118/29 87/119/28 86/83/28 

v -0.0119383 0.2 0.273956
vn 0.173648 1.14208e-16 -0.984808
v -0.0119383 0 0.273956
vt -2.33753 1.19736e-15
vt -1.86573 1.19736e-15
f 90/84/30 91/120/30 89/121/29 88/87/29 

v -6.32476e-17 0.2 0.275
vn -2.98119e-15 5.71897e-17 -1
v -6.32476e-17 0 0.275
vt -0.943615 1.22895e-15
vt -0.471808 1.22895e-15
f 92/88/31 93/122/31 91/123/30 90/91/30 

v 0.0119383 0.2 0.273956
vn -0.173648 5.84144e-17 -0.984808
v 0.0119383 0 0.273956
vt 0.471808 0
vt 0.943615 0
f 94/92/32 95/124/32 93/125/31 92/95/31 

v 0.0235139 0.2 0.270854
vn -0.34202 1.88016e-16 -0.939693
v 0.0235139 0 0.270854
vt 1.86573 1.22666e-15
vt 2.33753 1.22666e-15
f 96/96/33 97/126/33 95/127/32 94/99/32 

v 0.034375 0.2 0.265789
vn -0.5 3.62054e-16 -0.866025
v 0.034375 0 0.265789
vt 3.19579 2.59655e-15
vt 3.6676 2.59655e-15
f 98/44/34 99/128/34 97/129/33 96/47/33 

v 0.0441916 0.2 0.258916
vn -0.642788 3.22061e-16 -0.766044
v 0.0441916 0 0.258916
vt 4.42158 4.32938e-15
vt 4.89339 4.32938e-15
f 100/48/35 101/130/35 99/131/34 98/51/34 

v 0.0526656 0.2 0.250442
vn -0.766044 8.62389e-18 -0.642788
v 0.0526656 0 0.250442
vt 5.50586 1.5065e-15
vt 5.97767 1.5065e-15
f 102/52/36 103/132/36 101/133/35 100/55/35 

v 0.0595392 0.2 0.240625
vn -0.819152 -1.61352e-16 -0.573576
v 0.0595392 0 0.240625
vt 6.41568 -1.18656e-15
vt 6.88748 -1.18656e-15
f 104/56/37 105/134/37 103/135/36 102/59/36 

v 0.0825 0.2 0.142894
vn -0.973494 0 -0.228712
v 0.0825 0 0.142894
vt 4.73378 0
vt 8.68621 0
f 106/60/38 107/136/38 105/137/38 104/63/38 

v 0.178618 0.2 0.171875
vn 0.288677 0 -0.957427
v 0.178618 0 0.171875
f 108/64/39 109/65/39 107/66/39 106/67/39 

v 0.190556 0.2 0.170831
vn -0.173648 0 -0.984808
v 0.190556 0 0.170831
vt -6.88748 0
vt -6.41568 0
vn -0.0871557 0 -0.996195
f 110/68/40 111/138/40 109/139/41 108/71/41 

v 0.202132 0.2 0.167729
vn -0.34202 0 -0.939693
v 0.202132 0 0.167729
f 112/72/42 113/114/42 111/115/40 110/75/40 

v 0.212993 0.2 0.162664
vn -0.5 5.52998e-17 -0.866025
v 0.212993 0 0.162664
f 114/76/43 115/77/43 113/78/42 112/79/42 

v 0.222809 0.2 0.155791
vn -0.642788 2.55488e-16 -0.766044
v 0.222809 0 0.155791
vt -3.6676 1.10792e-15
vt -3.19579 1.10792e-15
f 116/80/44 117/140/44 115/141/43 114/83/43 

v 0.231283 0.2 0.147317
vn -0.766044 4.52746e-16 -0.642788
v 0.231283 0 0.147317
vt -2.33753 4.20383e-15
vt -1.86573 4.20383e-15
f 118/84/45 119/142/45 117/143/44 116/87/44 

v 0.238157 0.2 0.1375
vn -0.866025 3.03874e-16 -0.5
v 0.238157 0 0.1375
vt -0.943615 5.42722e-15
vt -0.471808 5.42722e-15
f 120/88/46 121/144/46 119/145/45 118/91/45 

v 0.243222 0.2 0.126639
vn -0.939693 -1.80305e-17 -0.34202
v 0.243222 0 0.126639
vt 0.471808 1.10275e-15
vt 0.943615 1.10275e-15
f 122/92/47 123/146/47 121/147/46 120/95/46 

v 0.246323 0.2 0.115063
vn -0.984808 -6.93473e-17 -0.173648
v 0.246323 0 0.115063
vt 1.86573 -1.45625e-15
vt 2.33753 -1.45625e-15
f 124/96/48 125/148/48 123/149/47 122/99/47 

v 0.247368 0.2 0.103125
vn -1 0 -1.50453e-15
v 0.247368 0 0.103125
f 126/44/49 127/45/49 125/46/48 124/47/48 

v 0.246323 0.2 0.0911867
vn -0.984808 0 0.173648
v 0.246323 0 0.0911867
f 128/48/50 129/49/50 127/50/49 126/51/49 

v 0.243222 0.2 0.0796111
vn -0.939693 -3.91622e-17 0.34202
v 0.243222 0 0.0796111
f 130/52/51 131/53/51 129/54/50 128/55/50 

v 0.238157 0.2 0.06875
vn -0.906308 -7.80263e-17 0.422618
v 0.238157 0 0.06875
vt 6.41568 -5.73796e-16
vt 6.88748 -5.73796e-16
f 132/56/52 133/150/52 131/151/51 130/59/51 

v 0.165 0.2 -1.57918e-16
vn -0.684817 -3.67258e-17 0.728715
v 0.165 0 -1.57918e-16
vt 4.73378 -1.63379e-16
vt 8.68621 -1.63379e-16
f 134/60/53 135/152/53 133/153/53 132/63/53 

v 0.238157 0.2 -0.06875
vn -0.684817 0 -0.728715
v 0.238157 0 -0.06875
f 136/64/54 137/65/54 135/66/54 134/67/54 

v 0.243222 0.2 -0.0796111
vn -0.939693 9.62101e-17 -0.34202
v 0.243222 0 -0.0796111
vt -6.88748 6.6284e-16
vt -6.41568 6.6284e-16
vn -0.906308 9.01347e-17 -0.422618
f 138/68/55 139/154/55 137/155/56 136/71/56 

v 0.246323 0.2 -0.0911867
vn -0.984808 5.09706e-17 -0.173648
v 0.246323 0 -0.0911867
vt -5.97767 8.56923e-16
vt -5.50586 8.56923e-16
f 140/72/57 141/156/57 139/157/55 138/75/55 

v 0.247368 0.2 -0.103125
vn -1 0 -5.57232e-17
f 142/76/58 5/77/58 141/78/57 140/79/57 

v 0.246323 0.2 -0.115063
vn -0.984808 -1.16379e-16 0.173648
vt -3.6676 0
vt -3.19579 0
f 143/80/59 6/158/59 5/159/58 142/83/58 

v 0.243222 0.2 -0.126639
vn -0.939693 -2.31167e-16 0.34202
vt -2.33753 -2.44389e-15
vt -1.86573 -2.44389e-15
f 144/84/60 7/160/60 6/161/59 143/87/59 

v 0.238157 0.2 -0.1375
vn -0.866025 -1.14788e-16 0.5
vt -0.943615 -2.46669e-15
vt -0.471808 -2.46669e-15
f 145/88/61 8/162/61 7/163/60 144/91/60 

v 0.231283 0.2 -0.147317
vn -0.766044 0 0.642788
f 146/92/62 9/124/62 8/125/61 145/95/61 

v 0.222809 0.2 -0.155791
vn -0.642788 -7.88589e-17 0.766044
vt 1.86573 0
vt 2.33753 0
f 147/96/63 10/164/63 9/165/62 146/99/62 

v 0.212993 0.2 -0.162664
vn -0.5 -1.54105e-16 0.866025
vt 3.19579 -1.57992e-15
vt 3.6676 -1.57992e-15
f 148/44/64 11/166/64 10/167/63 147/47/63 

v 0.202132 0.2 -0.167729
vn -0.34202 -7.52462e-17 0.939693
vt 4.42158 -1.40145e-15
vt 4.89339 -1.40145e-15
f 149/48/65 12/168/65 11/169/64 148/51/64 

v 0.190556 0.2 -0.170831
vn -0.173648 0 0.984808
f 150/52/66 13/53/66 12/54/65 149/55/65 

v 0.178618 0.2 -0.171875
vn -0.0871557 0 0.996195
vt 6.41568 0
vt 6.88748 0
f 151/56/67 14/170/67 13/171/66 150/59/66 

v 0.0825 0.2 -0.142894
vn 0.288677 0 0.957427
v 0.0825 0 -0.142894
f 152/60/68 153/136/68 14/137/68 151/63/68 

v 0.0595392 0.2 -0.240625
vn -0.973494 0 0.228712
f 154/64/69 15/65/69 153/66/69 152/67/69 

v 0.0526656 0.2 -0.250442
vn -0.766044 2.00188e-16 0.642788
vn -0.819152 0 0.573576
f 155/68/70 16/138/70 15/139/71 154/71/71 

v 0.0441916 0.2 -0.258916
vn -0.642788 3.33162e-16 0.766044
vt -5.97767 3.36559e-15
vt -5.50586 3.36559e-15
f 156/72/72 17/172/72 16/173/70 155/75/70 

v 0.034375 0.2 -0.265789
vn -0.5 6.98817e-17 0.866025
vt -4.89339 2.4766e-15
vt -4.42158 2.4766e-15
f 157/76/73 18/174/73 17/175/72 156/79/72 

v 0.0235139 0.2 -0.270854
vn -0.34202 -1.42063e-18 0.939693
vt -3.6676 -1.26403e-15
vt -3.19579 -1.26403e-15
f 158/80/74 19/176/74 18/177/73 157/83/73 

v 0.0119383 0.2 -0.273956
vn -0.173648 1.19096e-16 0.984808
vt -2.33753 1.29505e-15
vt -1.86573 1.29505e-15
f 159/84/75 20/178/75 19/179/74 158/87/74 

v -4.47767e-17 0.2 -0.275
vn 9.5426e-16 5.74247e-17 1
vt -0.943615 1.234e-15
vt -0.471808 1.234e-15
f 160/88/76 22/180/76 20/181/75 159/91/75 

v -0.0119383 0.2 -0.273956
vn 0.173648 0 0.984808
f 161/92/77 23/124/77 22/125/76 160/95/76 

v -0.0235139 0.2 -0.270854
vn 0.34202 0 0.939693
f 162/96/78 24/164/78 23/165/77 161/99/77 

v -0.034375 0.2 -0.265789
vn 0.5 0 0.866025
f 163/44/79 25/45/79 24/46/78 162/47/78 

v -0.0441916 0.2 -0.258916
vn 0.642788 -1.20113e-16 0.766044
f 164/48/80 26/49/80 25/50/79 163/51/79 

v -0.0526656 0.2 -0.250442
vn 0.766044 -3.7272e-16 0.642788
vt 5.50586 -2.01935e-15
vt 5.97767 -2.01935e-15
f 165/52/81 27/182/81 26/183/80 164/55/80 

v -0.0595392 0.2 -0.240625
vn 0.819152 -5.03291e-16 0.573576
vt 6.41568 -3.70114e-15
vt 6.88748 -3.70114e-15
f 166/56/82 28/184/82 27/185/81 165/59/81 

v -0.0825 0.2 -0.142894
vn 0.973494 -2.17965e-16 0.228712
vt 4.73378 -9.69642e-16
vt 8.68621 -9.69642e-16
f 167/60/83 29/186/83 28/187/83 166/63/83 

v -0.178618 0.2 -0.171875
vn -0.288677 0 0.957427
f 168/64/84 30/65/84 29/66/84 167/67/84 

v -0.190556 0.2 -0.170831
vn 0.173648 7.4595e-17 0.984808
vn 0.0871557 0 0.996195
f 169/68/85 31/138/85 30/139/86 168/71/86 

v -0.202132 0.2 -0.167729
vn 0.34202 1.39416e-16 0.939693
vt -5.97767 1.2541e-15
vt -5.50586 1.2541e-15
f 170/72/87 32/188/87 31/189/85 169/75/85 

v -0.212993 0.2 -0.162664
vn 0.5 6.94877e-17 0.866025
vt -4.89339 1.20727e-15
vt -4.42158 1.20727e-15
f 171/76/88 33/190/88 32/191/87 170/79/87 

v -0.222809 0.2 -0.155791
vn 0.642788 -7.54083e-17 0.766044
vt -3.6676 9.35039e-17
vt -3.19579 9.35039e-17
f 172/80/89 34/192/89 33/193/88 171/83/88 

v -0.231283 0.2 -0.147317
vn 0.766044 -1.91411e-16 0.642788
vt -2.33753 -1.68153e-15
vt -1.86573 -1.68153e-15
f 173/84/90 35/194/90 34/195/89 172/87/89 

v -0.238157 0.2 -0.1375
vn 0.866025 -6.0019e-17 0.5
vt -0.943615 -2.3925e-15
vt -0.471808 -2.3925e-15
f 174/88/91 36/196/91 35/197/90 173/91/90 

v -0.243222 0.2 -0.126639
vn 0.939693 1.06009e-16 0.34202
f 175/92/92 38/146/92 36/147/91 174/95/91 

vt 1.86573 1.14851e-15
vt 2.33753 1.14851e-15
f 43/96/4 39/198/4 38/199/92 175/99/92 

vn 0 1 -0
v -0.475528 0.2 -0.154508
f 175/9/93 176/6/93 43/8/93

f 174/10/93 176/6/93 175/9/93

v 1.07159e-16 0.2 -0.5
vt 4.21885e-15 19.685
f 176/6/93 174/10/93 177/200/93

f 177/200/93 174/10/93 173/11/93

f 177/200/93 173/11/93 172/12/93

f 177/200/93 172/12/93 171/13/93

f 177/200/93 171/13/93 170/14/93

f 177/200/93 170/14/93 169/15/93

f 177/200/93 169/15/93 168/16/93

vt -3.24803 5.62576
f 177/200/93 168/16/93 167/201/93

f 177/200/93 167/201/93 166/17/93

f 177/200/93 166/17/93 165/18/93

f 177/200/93 165/18/93 164/19/93

f 177/200/93 164/19/93 163/20/93

f 177/200/93 163/20/93 162/21/93

f 177/200/93 162/21/93 161/22/93

vt -1.76286e-15 10.8268
f 177/200/93 161/22/93 160/202/93

f 177/200/93 160/202/93 159/25/93

f 177/200/93 159/25/93 3/39/93

f 3/39/93 159/25/93 158/26/93

f 3/39/93 158/26/93 157/27/93

f 3/39/93 157/27/93 156/28/93

f 3/39/93 156/28/93 155/29/93

f 3/39/93 155/29/93 154/30/93

f 3/39/93 154/30/93 151/32/93

f 151/32/93 154/30/93 152/31/93

f 3/39/93 151/32/93 150/33/93

f 3/39/93 150/33/93 149/34/93

f 3/39/93 149/34/93 148/35/93

f 3/39/93 148/35/93 147/36/93

f 3/39/93 147/36/93 146/37/93

f 3/39/93 146/37/93 145/38/93

f 3/39/93 145/38/93 144/40/93

f 3/39/93 144/40/93 143/41/93

f 3/39/93 143/41/93 142/43/93

f 3/39/93 142/43/93 4/42/93

vt 9.73889 -4.06004
f 126/203/93 4/42/93 142/43/93

vt 9.69777 -4.53005
f 124/204/93 4/42/93 126/203/93

vt 9.57565 -4.98578
f 122/205/93 4/42/93 124/204/93

vt 9.37626 -5.41339
f 120/206/93 4/42/93 122/205/93

vt 9.10564 -5.79987
f 118/207/93 4/42/93 120/206/93

vt 8.77202 -6.13349
f 116/208/93 4/42/93 118/207/93

vt 8.38554 -6.4041
f 114/209/93 4/42/93 116/208/93

vt 7.95794 -6.6035
f 112/210/93 4/42/93 114/209/93

vt 7.50221 -6.72561
f 110/211/93 4/42/93 112/210/93

vt 7.03219 -6.76673
f 108/212/93 4/42/93 110/211/93

vt 3.24803 -5.62576
f 106/213/93 4/42/93 108/212/93

vt 2.34406 -9.47343
f 104/214/93 4/42/93 106/213/93

vt 2.07345 -9.85991
f 102/215/93 4/42/93 104/214/93

vt 1.73983 -10.1935
f 100/216/93 4/42/93 102/215/93

vt 1.35335 -10.4641
f 98/217/93 4/42/93 100/216/93

vt 0.925743 -10.6635
f 96/218/93 4/42/93 98/217/93

vt 0.470012 -10.7857
f 94/219/93 4/42/93 96/218/93

vt -2.49006e-15 -10.8268
f 92/220/93 4/42/93 94/219/93

vt -0.470012 -10.7857
f 90/221/93 4/42/93 92/220/93

vt -0.925743 -10.6635
f 88/222/93 4/42/93 90/221/93

v -0.293893 0.2 0.404508
f 88/222/93 178/7/93 4/42/93

vt -1.35335 -10.4641
f 86/223/93 178/7/93 88/222/93

vt -8.38554 -6.4041
f 70/224/93 178/7/93 86/223/93

vt -8.77202 -6.13349
f 68/225/93 178/7/93 70/224/93

vt -9.10564 -5.79987
f 66/226/93 178/7/93 68/225/93

vt -9.37626 -5.41339
f 64/227/93 178/7/93 66/226/93

vt -9.57565 -4.98578
f 62/228/93 178/7/93 64/227/93

vt -9.69777 -4.53005
f 60/229/93 178/7/93 62/228/93

vt -9.73889 -4.06004
f 178/7/93 60/229/93 58/230/93

f 42/5/93 178/7/93 58/230/93

f 43/8/93 178/7/93 42/5/93

f 43/8/93 176/6/93 178/7/93

vn -0.951057 0 0.309017
f 37/1/94 40/2/94 178/3/94 176/4/94 

vn 1.52656e-16 0 1
f 40/1/95 1/2/95 4/3/95 178/4/95 

f 40/42/2 89/218/2 1/7/2

f 89/218/2 40/42/2 87/217/2

f 87/217/2 40/42/2 71/209/2

f 71/209/2 40/42/2 69/208/2

f 69/208/2 40/42/2 67/207/2

f 67/207/2 40/42/2 65/206/2

f 65/206/2 40/42/2 63/205/2

f 63/205/2 40/42/2 61/204/2

f 61/204/2 40/42/2 59/203/2

f 59/203/2 40/42/2 41/43/2

vt 9.69777 3.59003
f 45/231/2 59/203/2 41/43/2

vt 9.69777 -3.59003
f 59/203/2 45/231/2 57/232/2

vt 9.57565 3.1343
f 57/232/2 45/231/2 47/233/2

vt 9.57565 -3.1343
f 57/232/2 47/233/2 55/234/2

vt 9.37626 -2.70669
f 55/234/2 47/233/2 53/235/2

vt 9.37626 2.70669
f 53/235/2 47/233/2 49/236/2

vt 6.49606 4.44089e-15
f 53/235/2 49/236/2 51/237/2

f 87/217/2 71/209/2 73/210/2

f 87/217/2 73/210/2 75/211/2

f 87/217/2 75/211/2 77/212/2

f 87/217/2 77/212/2 85/216/2

f 85/216/2 77/212/2 83/215/2

f 83/215/2 77/212/2 81/214/2

f 81/214/2 77/212/2 79/213/2

f 1/7/2 89/218/2 91/219/2

vt 2.49006e-15 -10.8268
f 1/7/2 91/219/2 93/238/2

f 1/7/2 93/238/2 95/221/2

f 1/7/2 95/221/2 97/222/2

f 1/7/2 97/222/2 99/223/2

vt -1.73983 -10.1935
f 1/7/2 99/223/2 101/239/2

vt -2.07345 -9.85991
f 1/7/2 101/239/2 103/240/2

vt -2.34406 -9.47343
f 1/7/2 103/240/2 105/241/2

vt -3.24803 -5.62576
f 1/7/2 105/241/2 107/242/2

vt -7.03219 -6.76673
f 1/7/2 107/242/2 109/243/2

vt -7.50221 -6.72561
f 1/7/2 109/243/2 111/244/2

vt -7.95794 -6.6035
f 1/7/2 111/244/2 113/245/2

f 1/7/2 113/245/2 115/224/2

f 1/7/2 115/224/2 117/225/2

f 1/7/2 117/225/2 119/226/2

f 1/7/2 119/226/2 121/227/2

f 1/7/2 121/227/2 123/228/2

f 1/7/2 123/228/2 125/229/2

f 1/7/2 125/229/2 127/230/2

f 1/7/2 127/230/2 5/5/2

vt -9.69777 -3.59003
f 129/246/2 5/5/2 127/230/2

vt -9.69777 3.59003
f 129/246/2 141/247/2 5/5/2

vt -9.57565 -3.1343
f 131/248/2 141/247/2 129/246/2

vt -9.57565 3.1343
f 131/248/2 139/249/2 141/247/2

vt -9.37626 -2.70669
f 133/250/2 139/249/2 131/248/2

vt -9.37626 2.70669
f 133/250/2 137/251/2 139/249/2

vt -6.49606 6.21725e-15
f 137/251/2 133/250/2 135/252/2

vn -0.587785 0 -0.809017
f 21/1/96 37/2/96 176/3/96 177/4/96 

vn 0.587785 0 -0.809017
f 2/1/97 21/2/97 177/3/97 3/4/97 

f 56/246/93 42/5/93 58/230/93

f 42/5/93 56/246/93 44/247/93

f 44/247/93 56/246/93 54/248/93

f 44/247/93 54/248/93 46/249/93

f 46/249/93 54/248/93 52/250/93

f 46/249/93 52/250/93 48/251/93

vt -6.49606 4.44089e-15
f 48/251/93 52/250/93 50/253/93

f 70/224/93 86/223/93 72/245/93

f 72/245/93 86/223/93 74/244/93

f 74/244/93 86/223/93 76/243/93

f 76/243/93 86/223/93 84/239/93

f 76/243/93 84/239/93 82/240/93

f 76/243/93 82/240/93 80/241/93

f 76/243/93 80/241/93 78/242/93

f 140/231/93 126/203/93 142/43/93

f 140/231/93 128/232/93 126/203/93

f 138/233/93 128/232/93 140/231/93

f 138/233/93 130/234/93 128/232/93

f 136/236/93 130/234/93 138/233/93

f 136/236/93 132/235/93 130/234/93

vt 6.49606 6.21725e-15
f 132/235/93 136/236/93 134/254/93

f 15/17/2 14/16/2 153/201/2

