# Alias OBJ Model File
# Exported from SketchUp, (c) 2000-2012 Trimble Navigation Limited
# File units = meters

mtllib Seg_9.mtl

g Mesh1 Model

usemtl FrontColor
v -0.321394 0 -0.383022
vt 12.6533 15.0796
vn 0 -1 -0
v 0 0 -0.5
vt 0 19.685
v 0.321394 0 -0.383022
vt -12.6533 15.0796
v 0.492404 0 -0.0868241
vt -19.386 3.41827
v 0.433013 0 0.25
vt -17.0477 -9.84252
v 0.17101 0 0.469846
vt -6.73268 -18.4979
v -0.17101 0 0.469846
vt 6.73268 -18.4979
v -0.433013 0 0.25
vt 17.0477 -9.84252
v -0.492404 0 -0.0868241
vt 19.386 3.41827
f 1/1/1 2/2/1 3/3/1 4/4/1 5/5/1 6/6/1 7/7/1 8/8/1 9/9/1 

vt -6.73268 0
vn -0.34202 0 -0.939693
vt 6.73268 0
v -0.321394 0.2 -0.383022
vt 6.73268 7.87402
v 0 0.2 -0.5
vt -6.73268 7.87402
f 2/10/2 1/11/2 10/12/2 11/13/2 

vn -0.866025 0 -0.5
v -0.492404 0.2 -0.0868241
f 1/10/3 9/11/3 12/12/3 10/13/3 

vn -0.984808 0 0.173648
v -0.433013 0.2 0.25
f 9/10/4 8/11/4 13/12/4 12/13/4 

vn -0.642788 0 0.766044
v -0.17101 0.2 0.469846
f 8/10/5 7/11/5 14/12/5 13/13/5 

vn -2.63841e-16 0 1
v 0.17101 0.2 0.469846
f 7/10/6 6/11/6 15/12/6 14/13/6 

vn 0.642788 0 0.766044
v 0.433013 0.2 0.25
f 6/10/7 5/11/7 16/12/7 15/13/7 

vn 0.984808 0 0.173648
v 0.492404 0.2 -0.0868241
f 5/10/8 4/11/8 17/12/8 16/13/8 

vn 0.866025 0 -0.5
v 0.321394 0.2 -0.383022
f 4/10/9 3/11/9 18/12/9 17/13/9 

vn 0.34202 0 -0.939693
f 3/10/10 2/11/10 11/12/10 18/13/10 

vn 0 1 -0
f 11/2/11 10/3/11 12/4/11 13/5/11 14/6/11 15/7/11 16/8/11 17/9/11 18/1/11 

