# Alias OBJ Model File
# Exported from SketchUp, (c) 2000-2012 Trimble Navigation Limited
# File units = meters

mtllib Seg_12.mtl

g Mesh1 Model

usemtl FrontColor
v -0.433013 0 -0.25
vt 17.0477 9.84252
vn 0 -1 -0
v -0.25 0 -0.433013
vt 9.84252 17.0477
v 0 0 -0.5
vt 0 19.685
v 0.25 0 -0.433013
vt -9.84252 17.0477
v 0.433013 0 -0.25
vt -17.0477 9.84252
v 0.5 0 9.18485e-17
vt -19.685 -3.61608e-15
v 0.433013 0 0.25
vt -17.0477 -9.84252
v 0.25 0 0.433013
vt -9.84252 -17.0477
v -6.12323e-17 0 0.5
vt 2.41072e-15 -19.685
v -0.25 0 0.433013
vt 9.84252 -17.0477
v -0.433013 0 0.25
vt 17.0477 -9.84252
v -0.5 0 -3.06162e-17
vt 19.685 1.20536e-15
f 1/1/1 2/2/1 3/3/1 4/4/1 5/5/1 6/6/1 7/7/1 8/8/1 9/9/1 10/10/1 11/11/1 12/12/1 

vt -5.09486 0
vn -0.707107 0 -0.707107
vt 5.09486 0
v -0.433013 0.2 -0.25
vt 5.09486 7.87402
v -0.25 0.2 -0.433013
vt -5.09486 7.87402
f 2/13/2 1/14/2 13/15/2 14/16/2 

vn -0.965926 0 -0.258819
v -0.5 0.2 -3.06162e-17
f 1/13/3 12/14/3 15/15/3 13/16/3 

vn -0.965926 0 0.258819
v -0.433013 0.2 0.25
f 12/13/4 11/14/4 16/15/4 15/16/4 

vn -0.707107 0 0.707107
v -0.25 0.2 0.433013
f 11/13/5 10/14/5 17/15/5 16/16/5 

vn -0.258819 0 0.965926
v -6.12323e-17 0.2 0.5
f 10/13/6 9/14/6 18/15/6 17/16/6 

vn 0.258819 0 0.965926
v 0.25 0.2 0.433013
f 9/13/7 8/14/7 19/15/7 18/16/7 

vn 0.707107 0 0.707107
v 0.433013 0.2 0.25
f 8/13/8 7/14/8 20/15/8 19/16/8 

vn 0.965926 0 0.258819
v 0.5 0.2 9.18485e-17
f 7/13/9 6/14/9 21/15/9 20/16/9 

vn 0.965926 0 -0.258819
v 0.433013 0.2 -0.25
f 6/13/10 5/14/10 22/15/10 21/16/10 

vn 0.707107 0 -0.707107
v 0.25 0.2 -0.433013
f 5/13/11 4/14/11 23/15/11 22/16/11 

vn 0.258819 0 -0.965926
v 0 0.2 -0.5
f 4/13/12 3/14/12 24/15/12 23/16/12 

vn -0.258819 0 -0.965926
f 3/13/13 2/14/13 14/15/13 24/16/13 

vn 0 1 -0
vt -19.685 1.20536e-15
vt -2.41072e-15 -19.685
vt 19.685 -3.61608e-15
f 14/4/14 13/5/14 15/17/14 16/7/14 17/8/14 18/18/14 19/10/14 20/11/14 21/19/14 22/1/14 23/2/14 24/3/14 

