# Alias OBJ Model File
# Exported from SketchUp, (c) 2000-2012 Trimble Navigation Limited
# File units = meters

mtllib Seg_11.mtl

g Mesh1 Model

usemtl FrontColor
v 0.140866 0 0.479746
vt -5.54592 -18.8877
vn 0 -1 -0
v -0.140866 0 0.479746
vt 5.54592 -18.8877
v -0.377875 0 0.32743
vt 14.877 -12.891
v -0.494911 0 0.0711574
vt 19.4847 -2.80147
v -0.454816 0 -0.207708
vt 17.9061 8.17746
v -0.27032 0 -0.420627
vt 10.6425 16.5601
v 0 0 -0.5
vt 0 19.685
v 0.27032 0 -0.420627
vt -10.6425 16.5601
v 0.454816 0 -0.207708
vt -17.9061 8.17746
v 0.494911 0 0.0711574
vt -19.4847 -2.80147
v 0.377875 0 0.32743
vt -14.877 -12.891
f 1/1/1 2/2/1 3/3/1 4/4/1 5/5/1 6/6/1 7/7/1 8/8/1 9/9/1 10/10/1 11/11/1 

vt -5.54592 0
vn 0 0 1
vt 5.54592 0
v 0.140866 0.2 0.479746
vt 5.54592 7.87402
v -0.140866 0.2 0.479746
vt -5.54592 7.87402
f 2/12/2 1/13/2 12/14/2 13/15/2 

vn 0.540641 0 0.841254
v 0.377875 0.2 0.32743
f 1/12/3 11/13/3 14/14/3 12/15/3 

vn 0.909632 0 0.415415
v 0.494911 0.2 0.0711574
f 11/12/4 10/13/4 15/14/4 14/15/4 

vn 0.989821 0 -0.142315
v 0.454816 0.2 -0.207708
f 10/12/5 9/13/5 16/14/5 15/15/5 

vn 0.75575 0 -0.654861
v 0.27032 0.2 -0.420627
f 9/12/6 8/13/6 17/14/6 16/15/6 

vn 0.281733 0 -0.959493
v 0 0.2 -0.5
f 8/12/7 7/13/7 18/14/7 17/15/7 

vn -0.281733 0 -0.959493
v -0.27032 0.2 -0.420627
f 7/12/8 6/13/8 19/14/8 18/15/8 

vn -0.75575 0 -0.654861
v -0.454816 0.2 -0.207708
f 6/12/9 5/13/9 20/14/9 19/15/9 

vn -0.989821 0 -0.142315
v -0.494911 0.2 0.0711574
f 5/12/10 4/13/10 21/14/10 20/15/10 

vn -0.909632 0 0.415415
v -0.377875 0.2 0.32743
f 4/12/11 3/13/11 22/14/11 21/15/11 

vn -0.540641 0 0.841254
f 3/12/12 2/13/12 13/14/12 22/15/12 

vn 0 1 -0
f 13/1/13 12/2/13 14/3/13 15/4/13 16/5/13 17/6/13 18/7/13 19/8/13 20/9/13 21/10/13 22/11/13 

