# Alias OBJ Model File
# Exported from SketchUp, (c) 2000-2012 Trimble Navigation Limited
# File units = meters

mtllib Seg_5.mtl

g Mesh1 Model

usemtl FrontColor
v 0.475528 0 -0.154508
vt -18.7216 6.08301
vn 0 -1 -0
v 0.293893 0 0.404508
vt -11.5706 -15.9255
v -0.293893 0 0.404508
vt 11.5706 -15.9255
v -0.475528 0 -0.154508
vt 18.7216 6.08301
v 1.07159e-16 0 -0.5
vt -4.21885e-15 19.685
f 1/1/1 2/2/1 3/3/1 4/4/1 5/5/1 

vt -11.5706 0
vn 0.951057 0 0.309017
vt 11.5706 0
v 0.475528 0.2 -0.154508
vt 11.5706 7.87402
v 0.293893 0.2 0.404508
vt -11.5706 7.87402
f 2/6/2 1/7/2 6/8/2 7/9/2 

vn 0.587785 0 -0.809017
v 1.07159e-16 0.2 -0.5
f 1/6/3 5/7/3 8/8/3 6/9/3 

vn -0.587785 0 -0.809017
v -0.475528 0.2 -0.154508
f 5/6/4 4/7/4 9/8/4 8/9/4 

vn -0.951057 0 0.309017
v -0.293893 0.2 0.404508
f 4/6/5 3/7/5 10/8/5 9/9/5 

vn 1.52656e-16 0 1
f 3/6/6 2/7/6 7/8/6 10/9/6 

vn 0 1 -0
vt 4.21885e-15 19.685
f 7/3/7 6/4/7 8/10/7 9/1/7 10/2/7 

